<svg width="25" height="26" viewBox="0 0 25 26" fill="none" xmlns="http://www.w3.org/2000/svg">
<path d="M24.7569 10.0519H23.75V10H12.5V15H19.5644C18.5338 17.9106 15.7644 20 12.5 20C8.35812 20 5 16.6419 5 12.5C5 8.35812 8.35812 5 12.5 5C14.4119 5 16.1513 5.72125 17.4756 6.89937L21.0112 3.36375C18.7787 1.28312 15.7925 0 12.5 0C5.59688 0 0 5.59688 0 12.5C0 19.4031 5.59688 25 12.5 25C19.4031 25 25 19.4031 25 12.5C25 11.6619 24.9137 10.8438 24.7569 10.0519Z" fill="#FFC107"/>
<path d="M1.44141 6.68188L5.54828 9.69375C6.65953 6.9425 9.35078 5 12.5002 5C14.412 5 16.1514 5.72125 17.4758 6.89937L21.0114 3.36375C18.7789 1.28312 15.7927 0 12.5002 0C7.69891 0 3.53516 2.71062 1.44141 6.68188Z" fill="#FF3D00"/>
<path d="M12.4992 25.0014C15.728 25.0014 18.6617 23.7658 20.8798 21.7564L17.0111 18.4827C15.7139 19.4691 14.1289 20.0027 12.4992 20.0014C9.24797 20.0014 6.48734 17.9283 5.44734 15.0352L1.37109 18.1758C3.43984 22.2239 7.64109 25.0014 12.4992 25.0014Z" fill="#4CAF50"/>
<path d="M24.7569 10.0519H23.75V10H12.5V15H19.5644C19.0714 16.3853 18.1833 17.5957 17.01 18.4819L17.0119 18.4806L20.8806 21.7544C20.6069 22.0031 25 18.75 25 12.5C25 11.6619 24.9137 10.8438 24.7569 10.0519Z" fill="#1976D2"/>
</svg>
