<svg width="26" height="29" viewBox="0 0 26 29" fill="none" xmlns="http://www.w3.org/2000/svg">
<path d="M22.3333 13H3.66667C2.19391 13 1 14.1939 1 15.6667V25C1 26.4728 2.19391 27.6667 3.66667 27.6667H22.3333C23.8061 27.6667 25 26.4728 25 25V15.6667C25 14.1939 23.8061 13 22.3333 13Z" stroke="#FD79A3" stroke-width="2" stroke-linecap="round" stroke-linejoin="round"/>
<path d="M6.33203 13V7.66667C6.33203 5.89856 7.03441 4.20286 8.28465 2.95262C9.5349 1.70238 11.2306 1 12.9987 1C14.7668 1 16.4625 1.70238 17.7127 2.95262C18.963 4.20286 19.6654 5.89856 19.6654 7.66667V13" stroke="#FD79A3" stroke-width="2" stroke-linecap="round" stroke-linejoin="round"/>
</svg>
