<svg width="164" height="48" viewBox="0 0 164 48" fill="none" xmlns="http://www.w3.org/2000/svg">
<path fill-rule="evenodd" clip-rule="evenodd" d="M95.8241 41.2019C105.152 41.2019 112.714 33.64 112.714 24.3119C112.714 14.9838 105.152 7.42188 95.8241 7.42188C86.496 7.42188 78.9341 14.9838 78.9341 24.3119C78.9341 33.64 86.496 41.2019 95.8241 41.2019ZM95.8236 34.3698C99.3958 34.3698 103.655 32.5961 105.542 27.6328H95.8236H86.2935C87.8032 32.1216 91.9682 34.3698 95.8236 34.3698Z" fill="#FD3373"/>
<path d="M76.2843 0.79834H69.3296V40.8707H76.2843V0.79834Z" fill="#FD3373"/>
<path d="M66.6808 0.79834H59.7261V40.8707H66.6808V0.79834Z" fill="#FD3373"/>
<path fill-rule="evenodd" clip-rule="evenodd" d="M46.5601 31.7633L51.5277 36.5653C42.7515 43.6856 33.1474 40.705 29.0077 36.5653C25.6959 35.075 18.2445 21.9935 29.0077 11.7271C36.7904 4.77237 46.9004 7.57709 51.1965 11.3959C55.6674 15.37 58.3168 23.3183 56.4954 27.7891H30.9948C32.6507 32.26 39.2742 37.2277 46.5601 31.7633ZM49.5406 20.8345H30.6636C30.9947 19.6754 34.4689 14.3765 39.9365 14.3765C45.2353 14.3765 49.2095 18.3506 49.5406 20.8345Z" fill="#FD3373"/>
<path d="M20.7505 0.79834H13.7958V29.6107C13.6302 31.7634 9.9873 36.5654 5.18524 32.5913L0.714355 37.0622V37.5589C5.01965 43.1889 19.5914 42.361 20.7505 29.9419V0.79834Z" fill="#FD3373"/>
<mask id="path-6-outside-1_112_1274" maskUnits="userSpaceOnUse" x="106.506" y="31.2783" width="58" height="17" fill="black">
<rect fill="white" x="106.506" y="31.2783" width="58" height="17"/>
<path d="M114.691 41.5877C114.795 41.5417 114.904 41.5186 115.02 41.5186C115.296 41.5186 115.515 41.6856 115.676 42.0195C115.849 42.3534 115.935 42.7161 115.935 43.1076C115.935 43.3149 115.906 43.4934 115.849 43.643C115.676 44.0921 115.394 44.5009 115.002 44.8693C114.611 45.2378 114.139 45.612 113.586 45.992C113.045 46.3489 112.406 46.6771 111.669 46.9765C110.943 47.2643 110.27 47.4083 109.648 47.4083C108.715 47.4083 108.094 47.0398 107.783 46.3029C107.598 45.8884 107.506 45.3645 107.506 44.7312C107.506 43.9367 107.633 43.1191 107.886 42.2786C108.151 41.4265 108.508 40.419 108.957 39.2561C109.406 38.1161 109.942 37.0338 110.563 36.009C111.185 34.9727 111.87 34.4545 112.619 34.4545C112.814 34.4545 112.993 34.4948 113.154 34.5754C113.281 33.7004 113.574 33.0555 114.035 32.641C114.323 32.3992 114.57 32.2783 114.778 32.2783C115.02 32.2783 115.204 32.4223 115.33 32.7101C115.411 32.9174 115.451 33.1822 115.451 33.5046C115.451 33.6658 115.44 33.8846 115.417 34.1609L115.399 34.6791C115.376 35.5196 115.325 36.3602 115.244 37.2007C115.175 37.9607 115.008 38.6861 114.743 39.377C114.478 40.0678 114.058 40.442 113.482 40.4996C113.194 40.5342 112.958 40.3845 112.774 40.0505C112.601 39.7166 112.417 39.2273 112.222 38.5825C112.095 38.1679 111.985 37.8571 111.893 37.6498C111.813 37.431 111.721 37.2698 111.617 37.1662C110.961 38.3291 110.477 39.6015 110.166 40.9832L110.08 41.3287C109.988 41.7432 109.913 42.0886 109.855 42.3649C109.809 42.6298 109.786 42.8946 109.786 43.1594C109.786 43.7467 109.936 44.1497 110.235 44.3685C110.443 44.5412 110.736 44.6275 111.116 44.6275C111.369 44.6275 111.646 44.5872 111.945 44.5066C112.245 44.4375 112.561 44.3282 112.895 44.1785C112.999 44.1324 113.154 44.0518 113.361 43.9367C113.454 43.9252 113.5 43.8906 113.5 43.833C113.5 43.787 113.471 43.7409 113.413 43.6949C113.436 43.5912 113.459 43.4473 113.482 43.2631C113.505 43.0904 113.534 42.9464 113.569 42.8313C113.603 42.7161 113.661 42.5952 113.741 42.4686C114.041 42.031 114.357 41.7374 114.691 41.5877Z"/>
<path d="M120.134 40.2924C120.583 39.9354 120.946 39.6188 121.222 39.3424C121.51 39.0661 121.729 38.7897 121.878 38.5134C121.256 38.3522 120.335 38.0873 119.115 37.7189L119.028 41.225C119.374 40.9372 119.575 40.7644 119.633 40.7069L120.134 40.2924ZM122.915 42.7104C123.007 42.5261 123.202 42.3707 123.502 42.244C123.801 42.1059 124.089 42.0368 124.365 42.0368C124.745 42.0368 124.935 42.1577 124.935 42.3995C124.935 42.4686 124.918 42.5492 124.883 42.6413C124.411 43.7467 124.054 44.8175 123.813 45.8538C123.755 46.0841 123.588 46.2971 123.312 46.4929C123.197 46.6426 123.018 46.7692 122.776 46.8728C122.546 46.9765 122.316 47.0283 122.085 47.0283C121.89 47.0283 121.729 46.988 121.602 46.9074C121.487 46.8268 121.423 46.7001 121.412 46.5274C121.366 45.779 121.118 45.0939 120.669 44.4721C120.232 43.8503 119.667 43.4473 118.977 43.2631L118.89 45.7675C118.879 45.9862 118.694 46.1877 118.338 46.372C117.992 46.5562 117.658 46.6483 117.336 46.6483C117.163 46.6483 117.025 46.6195 116.921 46.562C116.818 46.4929 116.766 46.3892 116.766 46.2511L116.818 43.8676C116.668 43.7639 116.593 43.643 116.593 43.5049C116.593 43.3437 116.679 43.1882 116.852 43.0385C116.91 40.9429 116.979 38.8531 117.059 36.7689C117.071 36.5271 117.232 36.3199 117.543 36.1472C117.865 35.9629 118.188 35.8708 118.51 35.8708C118.752 35.8708 118.925 35.9284 119.028 36.0435C120.283 36.389 121.585 36.7689 122.932 37.1835C123.139 37.1374 123.283 37.1144 123.364 37.1144C123.559 37.1144 123.709 37.1604 123.813 37.2525C123.928 37.3331 123.985 37.4598 123.985 37.6325C123.985 38.1046 123.83 38.5422 123.519 38.9452C123.208 39.3367 122.776 39.7742 122.224 40.2578L121.878 40.5687C121.326 41.1099 120.79 41.5877 120.272 42.0022C121.216 42.2671 121.976 42.791 122.552 43.574C122.598 43.4588 122.719 43.171 122.915 42.7104Z"/>
<path d="M132.548 44.6103C132.721 44.6678 132.807 44.7715 132.807 44.9211C132.807 45.1054 132.698 45.3069 132.479 45.5257C132.237 45.7675 131.926 45.8884 131.546 45.8884C131.362 45.8884 131.207 45.8653 131.08 45.8193C130.47 45.6235 129.917 45.5257 129.422 45.5257C128.558 45.5257 127.678 45.802 126.779 46.3547C126.63 46.4583 126.446 46.5447 126.227 46.6138C126.02 46.6713 125.824 46.7001 125.64 46.7001C125.467 46.7001 125.329 46.6713 125.225 46.6138C125.121 46.5447 125.07 46.4411 125.07 46.3029C125.07 46.2223 125.081 46.1532 125.104 46.0956C125.438 45.163 125.703 44.3224 125.899 43.574C126.106 42.8255 126.244 42.0656 126.313 41.2941C126.417 40.2578 126.469 39.4979 126.469 39.0143C126.469 37.7362 126.221 36.7574 125.726 36.0781C125.668 36.009 125.64 35.9169 125.64 35.8017C125.64 35.5714 125.801 35.3584 126.123 35.1627C126.446 34.9554 126.762 34.8518 127.073 34.8518C127.28 34.8518 127.43 34.8978 127.522 34.99C127.672 35.0475 127.77 35.1397 127.816 35.2663C128.104 36.0263 128.501 36.6711 129.007 37.2007C129.514 37.7189 130.113 37.978 130.804 37.978C130.93 37.978 131.12 37.9549 131.374 37.9089C131.535 37.8858 131.639 37.8743 131.685 37.8743C131.88 37.8743 132.024 37.9204 132.116 38.0125C132.22 38.0931 132.272 38.2082 132.272 38.3579C132.272 38.5191 132.203 38.6803 132.065 38.8415C131.938 39.0027 131.765 39.1179 131.546 39.187C131.074 39.3482 130.602 39.4288 130.13 39.4288C129.566 39.4288 129.025 39.3136 128.507 39.0833C128.484 39.7281 128.455 40.2118 128.42 40.5342L128.299 41.6223C128.748 41.5417 129.197 41.4726 129.647 41.415L129.888 41.3977C130.349 41.3977 130.579 41.5532 130.579 41.8641C130.579 42.0713 130.464 42.2556 130.234 42.4168C130.003 42.578 129.767 42.6816 129.526 42.7277C129.169 42.7967 128.679 42.8716 128.058 42.9522C127.931 43.5164 127.793 44.0461 127.643 44.5412C128.403 44.2648 129.174 44.1267 129.957 44.1267C130.821 44.1267 131.685 44.2879 132.548 44.6103Z"/>
<path d="M137.289 41.1905L137.151 41.5359L138.36 42.5549L138.239 42.0541C138.158 41.7317 137.997 41.0465 137.755 39.9987L137.289 41.1905ZM139.258 36.1472C139.419 37.1489 139.62 38.1679 139.862 39.2042C140.115 40.229 140.421 41.4093 140.778 42.7449C141.111 44.0115 141.33 44.8521 141.434 45.2666C141.445 45.3011 141.451 45.3529 141.451 45.422C141.451 45.6984 141.296 45.9402 140.985 46.1474C140.674 46.3432 140.352 46.4411 140.018 46.4411C139.741 46.4411 139.528 46.3662 139.379 46.2165C139.045 45.8596 138.693 45.5199 138.325 45.1975C137.957 44.8751 137.473 44.4778 136.874 44.0058L136.304 43.5394C135.821 44.5757 135.446 45.3414 135.182 45.8365C135.101 46.0093 134.888 46.1705 134.543 46.3201C134.209 46.4583 133.898 46.5274 133.61 46.5274C133.287 46.5274 133.126 46.4238 133.126 46.2165C133.126 46.1589 133.144 46.0899 133.178 46.0093C133.523 45.1572 133.932 44.1785 134.404 43.0731L134.767 42.1922C134.479 41.9044 134.335 41.7604 134.335 41.7604C134.255 41.6798 134.214 41.5877 134.214 41.4841C134.214 41.2884 134.341 41.1041 134.594 40.9314C134.848 40.7472 135.13 40.6263 135.441 40.5687C135.993 39.2445 136.511 37.8974 136.995 36.5271C137.041 36.3659 137.185 36.2278 137.427 36.1126C137.68 35.986 137.945 35.9054 138.221 35.8708C138.417 35.8132 138.584 35.7845 138.722 35.7845C139.045 35.7845 139.223 35.9054 139.258 36.1472Z"/>
<path d="M146.633 36.1472C146.875 36.1241 147.059 36.1529 147.186 36.2335C147.324 36.3141 147.468 36.4696 147.618 36.6999C147.71 36.8495 147.756 36.9762 147.756 37.0798C147.756 37.3331 147.595 37.4828 147.272 37.5289L146.668 37.598C146.104 37.6786 145.804 37.7189 145.77 37.7189C145.574 39.5612 145.419 41.1617 145.303 42.5204C145.188 43.8791 145.113 45.2205 145.079 46.5447C145.067 46.7059 144.998 46.8268 144.872 46.9074C144.756 46.988 144.601 47.0283 144.405 47.0283C144.06 47.0283 143.714 46.9362 143.369 46.7519C143.035 46.5562 142.874 46.3374 142.885 46.0956C142.92 44.8751 142.989 43.6315 143.093 42.3649C143.196 41.0868 143.334 39.6072 143.507 37.9261L142.419 38.0643C142.258 38.0758 142.131 38.0701 142.039 38.047C141.958 38.0125 141.878 37.9434 141.797 37.8398C141.717 37.7362 141.636 37.621 141.555 37.4943C141.463 37.3677 141.417 37.241 141.417 37.1144C141.417 37.0107 141.458 36.9186 141.538 36.838C141.619 36.7574 141.74 36.7056 141.901 36.6826C142.154 36.648 142.448 36.6077 142.782 36.5617L143.663 36.4408L143.973 33.4528C144.008 33.1304 144.244 32.9692 144.682 32.9692C145.027 32.9692 145.361 33.0671 145.683 33.2628C146.017 33.447 146.173 33.66 146.15 33.9019L145.925 36.2162C146.248 36.1932 146.484 36.1702 146.633 36.1472Z"/>
<path d="M152.166 42.7449C152.431 42.1231 152.564 41.4841 152.564 40.8278C152.564 40.3096 152.472 39.8375 152.287 39.4115C152.115 38.974 151.838 38.617 151.458 38.3407C151.205 38.1564 150.963 38.0643 150.733 38.0643C150.641 38.0643 150.526 38.0873 150.387 38.1334C150.491 38.1795 150.543 38.2601 150.543 38.3752C150.543 38.4443 150.52 38.5249 150.474 38.617C150.209 39.1236 150.002 39.6763 149.852 40.2751C149.702 40.8623 149.628 41.4553 149.628 42.0541C149.628 42.7449 149.731 43.4012 149.938 44.023C150.077 44.3685 150.221 44.639 150.37 44.8348C150.439 44.9154 150.508 44.973 150.577 45.0075C150.911 44.7772 151.211 44.4548 151.476 44.0403C151.752 43.6258 151.982 43.194 152.166 42.7449ZM151.925 36.6826C152.489 36.7977 152.972 37.0453 153.375 37.4253C153.778 37.8052 154.084 38.2658 154.291 38.807C154.498 39.3367 154.602 39.8893 154.602 40.4651C154.602 41.1444 154.469 41.841 154.204 42.5549C153.94 43.2688 153.577 43.9252 153.116 44.5239C152.656 45.1227 152.143 45.5947 151.579 45.9402C151.05 46.2626 150.531 46.4238 150.025 46.4238C149.518 46.4238 149.075 46.2683 148.695 45.9574C148.315 45.6466 148.039 45.1975 147.866 44.6103C147.67 44.0115 147.572 43.3379 147.572 42.5895C147.572 42.1404 147.607 41.7029 147.676 41.2768C147.595 41.2999 147.474 41.3114 147.313 41.3114C146.922 41.3114 146.726 41.179 146.726 40.9141C146.726 40.822 146.737 40.7472 146.76 40.6896C147.152 39.5957 147.739 38.6458 148.522 37.8398C149.317 37.0223 150.226 36.6135 151.251 36.6135C151.401 36.6135 151.625 36.6365 151.925 36.6826Z"/>
<path d="M158.705 40.2924C159.154 39.9354 159.517 39.6188 159.793 39.3424C160.081 39.0661 160.3 38.7897 160.449 38.5134C159.827 38.3522 158.906 38.0873 157.686 37.7189L157.599 41.225C157.945 40.9372 158.146 40.7644 158.204 40.7069L158.705 40.2924ZM161.486 42.7104C161.578 42.5261 161.773 42.3707 162.073 42.244C162.372 42.1059 162.66 42.0368 162.936 42.0368C163.316 42.0368 163.506 42.1577 163.506 42.3995C163.506 42.4686 163.489 42.5492 163.455 42.6413C162.982 43.7467 162.625 44.8175 162.384 45.8538C162.326 46.0841 162.159 46.2971 161.883 46.4929C161.768 46.6426 161.589 46.7692 161.347 46.8728C161.117 46.9765 160.887 47.0283 160.657 47.0283C160.461 47.0283 160.3 46.988 160.173 46.9074C160.058 46.8268 159.994 46.7001 159.983 46.5274C159.937 45.779 159.689 45.0939 159.24 44.4721C158.803 43.8503 158.239 43.4473 157.548 43.2631L157.461 45.7675C157.45 45.9862 157.266 46.1877 156.909 46.372C156.563 46.5562 156.229 46.6483 155.907 46.6483C155.734 46.6483 155.596 46.6195 155.492 46.562C155.389 46.4929 155.337 46.3892 155.337 46.2511L155.389 43.8676C155.239 43.7639 155.164 43.643 155.164 43.5049C155.164 43.3437 155.251 43.1882 155.423 43.0385C155.481 40.9429 155.55 38.8531 155.63 36.7689C155.642 36.5271 155.803 36.3199 156.114 36.1472C156.436 35.9629 156.759 35.8708 157.081 35.8708C157.323 35.8708 157.496 35.9284 157.599 36.0435C158.855 36.389 160.156 36.7689 161.503 37.1835C161.71 37.1374 161.854 37.1144 161.935 37.1144C162.13 37.1144 162.28 37.1604 162.384 37.2525C162.499 37.3331 162.556 37.4598 162.556 37.6325C162.556 38.1046 162.401 38.5422 162.09 38.9452C161.779 39.3367 161.347 39.7742 160.795 40.2578L160.449 40.5687C159.897 41.1099 159.361 41.5877 158.843 42.0022C159.787 42.2671 160.547 42.791 161.123 43.574C161.169 43.4588 161.29 43.171 161.486 42.7104Z"/>
</mask>
<path d="M114.691 41.5877C114.795 41.5417 114.904 41.5186 115.02 41.5186C115.296 41.5186 115.515 41.6856 115.676 42.0195C115.849 42.3534 115.935 42.7161 115.935 43.1076C115.935 43.3149 115.906 43.4934 115.849 43.643C115.676 44.0921 115.394 44.5009 115.002 44.8693C114.611 45.2378 114.139 45.612 113.586 45.992C113.045 46.3489 112.406 46.6771 111.669 46.9765C110.943 47.2643 110.27 47.4083 109.648 47.4083C108.715 47.4083 108.094 47.0398 107.783 46.3029C107.598 45.8884 107.506 45.3645 107.506 44.7312C107.506 43.9367 107.633 43.1191 107.886 42.2786C108.151 41.4265 108.508 40.419 108.957 39.2561C109.406 38.1161 109.942 37.0338 110.563 36.009C111.185 34.9727 111.87 34.4545 112.619 34.4545C112.814 34.4545 112.993 34.4948 113.154 34.5754C113.281 33.7004 113.574 33.0555 114.035 32.641C114.323 32.3992 114.57 32.2783 114.778 32.2783C115.02 32.2783 115.204 32.4223 115.33 32.7101C115.411 32.9174 115.451 33.1822 115.451 33.5046C115.451 33.6658 115.44 33.8846 115.417 34.1609L115.399 34.6791C115.376 35.5196 115.325 36.3602 115.244 37.2007C115.175 37.9607 115.008 38.6861 114.743 39.377C114.478 40.0678 114.058 40.442 113.482 40.4996C113.194 40.5342 112.958 40.3845 112.774 40.0505C112.601 39.7166 112.417 39.2273 112.222 38.5825C112.095 38.1679 111.985 37.8571 111.893 37.6498C111.813 37.431 111.721 37.2698 111.617 37.1662C110.961 38.3291 110.477 39.6015 110.166 40.9832L110.08 41.3287C109.988 41.7432 109.913 42.0886 109.855 42.3649C109.809 42.6298 109.786 42.8946 109.786 43.1594C109.786 43.7467 109.936 44.1497 110.235 44.3685C110.443 44.5412 110.736 44.6275 111.116 44.6275C111.369 44.6275 111.646 44.5872 111.945 44.5066C112.245 44.4375 112.561 44.3282 112.895 44.1785C112.999 44.1324 113.154 44.0518 113.361 43.9367C113.454 43.9252 113.5 43.8906 113.5 43.833C113.5 43.787 113.471 43.7409 113.413 43.6949C113.436 43.5912 113.459 43.4473 113.482 43.2631C113.505 43.0904 113.534 42.9464 113.569 42.8313C113.603 42.7161 113.661 42.5952 113.741 42.4686C114.041 42.031 114.357 41.7374 114.691 41.5877Z" fill="#FF5C00"/>
<path d="M120.134 40.2924C120.583 39.9354 120.946 39.6188 121.222 39.3424C121.51 39.0661 121.729 38.7897 121.878 38.5134C121.256 38.3522 120.335 38.0873 119.115 37.7189L119.028 41.225C119.374 40.9372 119.575 40.7644 119.633 40.7069L120.134 40.2924ZM122.915 42.7104C123.007 42.5261 123.202 42.3707 123.502 42.244C123.801 42.1059 124.089 42.0368 124.365 42.0368C124.745 42.0368 124.935 42.1577 124.935 42.3995C124.935 42.4686 124.918 42.5492 124.883 42.6413C124.411 43.7467 124.054 44.8175 123.813 45.8538C123.755 46.0841 123.588 46.2971 123.312 46.4929C123.197 46.6426 123.018 46.7692 122.776 46.8728C122.546 46.9765 122.316 47.0283 122.085 47.0283C121.89 47.0283 121.729 46.988 121.602 46.9074C121.487 46.8268 121.423 46.7001 121.412 46.5274C121.366 45.779 121.118 45.0939 120.669 44.4721C120.232 43.8503 119.667 43.4473 118.977 43.2631L118.89 45.7675C118.879 45.9862 118.694 46.1877 118.338 46.372C117.992 46.5562 117.658 46.6483 117.336 46.6483C117.163 46.6483 117.025 46.6195 116.921 46.562C116.818 46.4929 116.766 46.3892 116.766 46.2511L116.818 43.8676C116.668 43.7639 116.593 43.643 116.593 43.5049C116.593 43.3437 116.679 43.1882 116.852 43.0385C116.91 40.9429 116.979 38.8531 117.059 36.7689C117.071 36.5271 117.232 36.3199 117.543 36.1472C117.865 35.9629 118.188 35.8708 118.51 35.8708C118.752 35.8708 118.925 35.9284 119.028 36.0435C120.283 36.389 121.585 36.7689 122.932 37.1835C123.139 37.1374 123.283 37.1144 123.364 37.1144C123.559 37.1144 123.709 37.1604 123.813 37.2525C123.928 37.3331 123.985 37.4598 123.985 37.6325C123.985 38.1046 123.83 38.5422 123.519 38.9452C123.208 39.3367 122.776 39.7742 122.224 40.2578L121.878 40.5687C121.326 41.1099 120.79 41.5877 120.272 42.0022C121.216 42.2671 121.976 42.791 122.552 43.574C122.598 43.4588 122.719 43.171 122.915 42.7104Z" fill="#FF5C00"/>
<path d="M132.548 44.6103C132.721 44.6678 132.807 44.7715 132.807 44.9211C132.807 45.1054 132.698 45.3069 132.479 45.5257C132.237 45.7675 131.926 45.8884 131.546 45.8884C131.362 45.8884 131.207 45.8653 131.08 45.8193C130.47 45.6235 129.917 45.5257 129.422 45.5257C128.558 45.5257 127.678 45.802 126.779 46.3547C126.63 46.4583 126.446 46.5447 126.227 46.6138C126.02 46.6713 125.824 46.7001 125.64 46.7001C125.467 46.7001 125.329 46.6713 125.225 46.6138C125.121 46.5447 125.07 46.4411 125.07 46.3029C125.07 46.2223 125.081 46.1532 125.104 46.0956C125.438 45.163 125.703 44.3224 125.899 43.574C126.106 42.8255 126.244 42.0656 126.313 41.2941C126.417 40.2578 126.469 39.4979 126.469 39.0143C126.469 37.7362 126.221 36.7574 125.726 36.0781C125.668 36.009 125.64 35.9169 125.64 35.8017C125.64 35.5714 125.801 35.3584 126.123 35.1627C126.446 34.9554 126.762 34.8518 127.073 34.8518C127.28 34.8518 127.43 34.8978 127.522 34.99C127.672 35.0475 127.77 35.1397 127.816 35.2663C128.104 36.0263 128.501 36.6711 129.007 37.2007C129.514 37.7189 130.113 37.978 130.804 37.978C130.93 37.978 131.12 37.9549 131.374 37.9089C131.535 37.8858 131.639 37.8743 131.685 37.8743C131.88 37.8743 132.024 37.9204 132.116 38.0125C132.22 38.0931 132.272 38.2082 132.272 38.3579C132.272 38.5191 132.203 38.6803 132.065 38.8415C131.938 39.0027 131.765 39.1179 131.546 39.187C131.074 39.3482 130.602 39.4288 130.13 39.4288C129.566 39.4288 129.025 39.3136 128.507 39.0833C128.484 39.7281 128.455 40.2118 128.42 40.5342L128.299 41.6223C128.748 41.5417 129.197 41.4726 129.647 41.415L129.888 41.3977C130.349 41.3977 130.579 41.5532 130.579 41.8641C130.579 42.0713 130.464 42.2556 130.234 42.4168C130.003 42.578 129.767 42.6816 129.526 42.7277C129.169 42.7967 128.679 42.8716 128.058 42.9522C127.931 43.5164 127.793 44.0461 127.643 44.5412C128.403 44.2648 129.174 44.1267 129.957 44.1267C130.821 44.1267 131.685 44.2879 132.548 44.6103Z" fill="#FF5C00"/>
<path d="M137.289 41.1905L137.151 41.5359L138.36 42.5549L138.239 42.0541C138.158 41.7317 137.997 41.0465 137.755 39.9987L137.289 41.1905ZM139.258 36.1472C139.419 37.1489 139.62 38.1679 139.862 39.2042C140.115 40.229 140.421 41.4093 140.778 42.7449C141.111 44.0115 141.33 44.8521 141.434 45.2666C141.445 45.3011 141.451 45.3529 141.451 45.422C141.451 45.6984 141.296 45.9402 140.985 46.1474C140.674 46.3432 140.352 46.4411 140.018 46.4411C139.741 46.4411 139.528 46.3662 139.379 46.2165C139.045 45.8596 138.693 45.5199 138.325 45.1975C137.957 44.8751 137.473 44.4778 136.874 44.0058L136.304 43.5394C135.821 44.5757 135.446 45.3414 135.182 45.8365C135.101 46.0093 134.888 46.1705 134.543 46.3201C134.209 46.4583 133.898 46.5274 133.61 46.5274C133.287 46.5274 133.126 46.4238 133.126 46.2165C133.126 46.1589 133.144 46.0899 133.178 46.0093C133.523 45.1572 133.932 44.1785 134.404 43.0731L134.767 42.1922C134.479 41.9044 134.335 41.7604 134.335 41.7604C134.255 41.6798 134.214 41.5877 134.214 41.4841C134.214 41.2884 134.341 41.1041 134.594 40.9314C134.848 40.7472 135.13 40.6263 135.441 40.5687C135.993 39.2445 136.511 37.8974 136.995 36.5271C137.041 36.3659 137.185 36.2278 137.427 36.1126C137.68 35.986 137.945 35.9054 138.221 35.8708C138.417 35.8132 138.584 35.7845 138.722 35.7845C139.045 35.7845 139.223 35.9054 139.258 36.1472Z" fill="#FF5C00"/>
<path d="M146.633 36.1472C146.875 36.1241 147.059 36.1529 147.186 36.2335C147.324 36.3141 147.468 36.4696 147.618 36.6999C147.71 36.8495 147.756 36.9762 147.756 37.0798C147.756 37.3331 147.595 37.4828 147.272 37.5289L146.668 37.598C146.104 37.6786 145.804 37.7189 145.77 37.7189C145.574 39.5612 145.419 41.1617 145.303 42.5204C145.188 43.8791 145.113 45.2205 145.079 46.5447C145.067 46.7059 144.998 46.8268 144.872 46.9074C144.756 46.988 144.601 47.0283 144.405 47.0283C144.06 47.0283 143.714 46.9362 143.369 46.7519C143.035 46.5562 142.874 46.3374 142.885 46.0956C142.92 44.8751 142.989 43.6315 143.093 42.3649C143.196 41.0868 143.334 39.6072 143.507 37.9261L142.419 38.0643C142.258 38.0758 142.131 38.0701 142.039 38.047C141.958 38.0125 141.878 37.9434 141.797 37.8398C141.717 37.7362 141.636 37.621 141.555 37.4943C141.463 37.3677 141.417 37.241 141.417 37.1144C141.417 37.0107 141.458 36.9186 141.538 36.838C141.619 36.7574 141.74 36.7056 141.901 36.6826C142.154 36.648 142.448 36.6077 142.782 36.5617L143.663 36.4408L143.973 33.4528C144.008 33.1304 144.244 32.9692 144.682 32.9692C145.027 32.9692 145.361 33.0671 145.683 33.2628C146.017 33.447 146.173 33.66 146.15 33.9019L145.925 36.2162C146.248 36.1932 146.484 36.1702 146.633 36.1472Z" fill="#FF5C00"/>
<path d="M152.166 42.7449C152.431 42.1231 152.564 41.4841 152.564 40.8278C152.564 40.3096 152.472 39.8375 152.287 39.4115C152.115 38.974 151.838 38.617 151.458 38.3407C151.205 38.1564 150.963 38.0643 150.733 38.0643C150.641 38.0643 150.526 38.0873 150.387 38.1334C150.491 38.1795 150.543 38.2601 150.543 38.3752C150.543 38.4443 150.52 38.5249 150.474 38.617C150.209 39.1236 150.002 39.6763 149.852 40.2751C149.702 40.8623 149.628 41.4553 149.628 42.0541C149.628 42.7449 149.731 43.4012 149.938 44.023C150.077 44.3685 150.221 44.639 150.37 44.8348C150.439 44.9154 150.508 44.973 150.577 45.0075C150.911 44.7772 151.211 44.4548 151.476 44.0403C151.752 43.6258 151.982 43.194 152.166 42.7449ZM151.925 36.6826C152.489 36.7977 152.972 37.0453 153.375 37.4253C153.778 37.8052 154.084 38.2658 154.291 38.807C154.498 39.3367 154.602 39.8893 154.602 40.4651C154.602 41.1444 154.469 41.841 154.204 42.5549C153.94 43.2688 153.577 43.9252 153.116 44.5239C152.656 45.1227 152.143 45.5947 151.579 45.9402C151.05 46.2626 150.531 46.4238 150.025 46.4238C149.518 46.4238 149.075 46.2683 148.695 45.9574C148.315 45.6466 148.039 45.1975 147.866 44.6103C147.67 44.0115 147.572 43.3379 147.572 42.5895C147.572 42.1404 147.607 41.7029 147.676 41.2768C147.595 41.2999 147.474 41.3114 147.313 41.3114C146.922 41.3114 146.726 41.179 146.726 40.9141C146.726 40.822 146.737 40.7472 146.76 40.6896C147.152 39.5957 147.739 38.6458 148.522 37.8398C149.317 37.0223 150.226 36.6135 151.251 36.6135C151.401 36.6135 151.625 36.6365 151.925 36.6826Z" fill="#FF5C00"/>
<path d="M158.705 40.2924C159.154 39.9354 159.517 39.6188 159.793 39.3424C160.081 39.0661 160.3 38.7897 160.449 38.5134C159.827 38.3522 158.906 38.0873 157.686 37.7189L157.599 41.225C157.945 40.9372 158.146 40.7644 158.204 40.7069L158.705 40.2924ZM161.486 42.7104C161.578 42.5261 161.773 42.3707 162.073 42.244C162.372 42.1059 162.66 42.0368 162.936 42.0368C163.316 42.0368 163.506 42.1577 163.506 42.3995C163.506 42.4686 163.489 42.5492 163.455 42.6413C162.982 43.7467 162.625 44.8175 162.384 45.8538C162.326 46.0841 162.159 46.2971 161.883 46.4929C161.768 46.6426 161.589 46.7692 161.347 46.8728C161.117 46.9765 160.887 47.0283 160.657 47.0283C160.461 47.0283 160.3 46.988 160.173 46.9074C160.058 46.8268 159.994 46.7001 159.983 46.5274C159.937 45.779 159.689 45.0939 159.24 44.4721C158.803 43.8503 158.239 43.4473 157.548 43.2631L157.461 45.7675C157.45 45.9862 157.266 46.1877 156.909 46.372C156.563 46.5562 156.229 46.6483 155.907 46.6483C155.734 46.6483 155.596 46.6195 155.492 46.562C155.389 46.4929 155.337 46.3892 155.337 46.2511L155.389 43.8676C155.239 43.7639 155.164 43.643 155.164 43.5049C155.164 43.3437 155.251 43.1882 155.423 43.0385C155.481 40.9429 155.55 38.8531 155.63 36.7689C155.642 36.5271 155.803 36.3199 156.114 36.1472C156.436 35.9629 156.759 35.8708 157.081 35.8708C157.323 35.8708 157.496 35.9284 157.599 36.0435C158.855 36.389 160.156 36.7689 161.503 37.1835C161.71 37.1374 161.854 37.1144 161.935 37.1144C162.13 37.1144 162.28 37.1604 162.384 37.2525C162.499 37.3331 162.556 37.4598 162.556 37.6325C162.556 38.1046 162.401 38.5422 162.09 38.9452C161.779 39.3367 161.347 39.7742 160.795 40.2578L160.449 40.5687C159.897 41.1099 159.361 41.5877 158.843 42.0022C159.787 42.2671 160.547 42.791 161.123 43.574C161.169 43.4588 161.29 43.171 161.486 42.7104Z" fill="#FF5C00"/>
<path d="M111.552 37.2262L111.587 37.2089L111.475 36.9853L111.44 37.0026L111.552 37.2262ZM114.691 41.5877L114.59 41.3593L114.589 41.3596L114.691 41.5877ZM115.676 42.0195L115.451 42.1282L115.454 42.1344L115.676 42.0195ZM115.849 43.643L115.615 43.5533L115.849 43.643ZM115.002 44.8693L114.831 44.6873V44.6873L115.002 44.8693ZM113.586 45.992L113.724 46.2007L113.728 46.198L113.586 45.992ZM111.669 46.9765L111.761 47.2089L111.763 47.2081L111.669 46.9765ZM107.783 46.3029L108.013 46.2057L108.011 46.2013L107.783 46.3029ZM107.886 42.2786L107.648 42.2044L107.647 42.2065L107.886 42.2786ZM108.957 39.2561L108.725 39.1644L108.724 39.166L108.957 39.2561ZM110.563 36.009L110.777 36.1387L110.778 36.1376L110.563 36.009ZM113.154 34.5754L113.042 34.7991L113.352 34.9539L113.402 34.6113L113.154 34.5754ZM114.035 32.641L113.874 32.4495L113.868 32.4552L114.035 32.641ZM115.33 32.7101L115.564 32.6194L115.559 32.6094L115.33 32.7101ZM115.417 34.1609L115.167 34.1401L115.167 34.1526L115.417 34.1609ZM115.399 34.6791L115.15 34.6707L115.15 34.6722L115.399 34.6791ZM115.244 37.2007L114.995 37.1769L114.995 37.1781L115.244 37.2007ZM114.743 39.377L114.51 39.2875L114.743 39.377ZM113.482 40.4996L113.457 40.2508L113.453 40.2514L113.482 40.4996ZM112.774 40.0505L112.552 40.1654L112.555 40.1713L112.774 40.0505ZM112.222 38.5825L112.461 38.5098L112.461 38.5094L112.222 38.5825ZM111.893 37.6498L111.659 37.7362L111.662 37.7439L111.665 37.7513L111.893 37.6498ZM111.617 37.1662L111.794 36.9894L111.561 36.7567L111.399 37.0433L111.617 37.1662ZM110.166 40.9832L110.409 41.0439L110.41 41.0381L110.166 40.9832ZM110.08 41.3287L109.837 41.268L109.836 41.2744L110.08 41.3287ZM109.855 42.3649L109.61 42.3139L109.609 42.3221L109.855 42.3649ZM110.235 44.3685L110.395 44.1764L110.389 44.1713L110.383 44.1666L110.235 44.3685ZM111.945 44.5066L111.889 44.2629L111.88 44.2652L111.945 44.5066ZM112.895 44.1785L112.794 43.95L112.793 43.9503L112.895 44.1785ZM113.361 43.9367L113.33 43.6886L113.282 43.6946L113.24 43.7181L113.361 43.9367ZM113.413 43.6949L113.169 43.6406L113.135 43.7927L113.257 43.8901L113.413 43.6949ZM113.482 43.2631L113.235 43.23L113.234 43.2321L113.482 43.2631ZM113.569 42.8313L113.329 42.7594V42.7594L113.569 42.8313ZM113.741 42.4686L113.535 42.3273L113.53 42.3344L113.741 42.4686ZM120.134 40.2924L119.978 40.0966L119.974 40.0998L120.134 40.2924ZM121.222 39.3424L121.049 39.162L121.045 39.1656L121.222 39.3424ZM121.878 38.5134L122.098 38.6324L122.25 38.3515L121.941 38.2714L121.878 38.5134ZM119.115 37.7189L119.187 37.4795L118.873 37.3847L118.865 37.7127L119.115 37.7189ZM119.028 41.225L118.778 41.2189L118.765 41.77L119.188 41.4171L119.028 41.225ZM119.633 40.7069L119.474 40.5143L119.464 40.5218L119.456 40.5301L119.633 40.7069ZM122.915 42.7104L122.691 42.5986L122.687 42.6055L122.684 42.6126L122.915 42.7104ZM123.502 42.244L123.599 42.4744L123.607 42.471L123.502 42.244ZM124.883 42.6413L125.114 42.7396L125.118 42.7291L124.883 42.6413ZM123.813 45.8538L124.055 45.9145L124.056 45.9106L123.813 45.8538ZM123.312 46.4929L123.167 46.2889L123.137 46.3106L123.114 46.3404L123.312 46.4929ZM122.776 46.8728L122.678 46.643L122.674 46.6449L122.776 46.8728ZM121.602 46.9074L121.458 47.1124L121.468 47.1183L121.602 46.9074ZM121.412 46.5274L121.162 46.5428L121.162 46.544L121.412 46.5274ZM120.669 44.4721L120.465 44.616L120.467 44.6185L120.669 44.4721ZM118.977 43.2631L119.041 43.0215L118.738 42.9406L118.727 43.2545L118.977 43.2631ZM118.89 45.7675L119.14 45.7806L119.14 45.7761L118.89 45.7675ZM118.338 46.372L118.223 46.1498L118.22 46.1514L118.338 46.372ZM116.921 46.562L116.783 46.77L116.791 46.7756L116.8 46.7805L116.921 46.562ZM116.766 46.2511L116.516 46.2456V46.2511H116.766ZM116.818 43.8676L117.068 43.873L117.071 43.7386L116.96 43.662L116.818 43.8676ZM116.852 43.0385L117.016 43.2275L117.099 43.1554L117.102 43.0454L116.852 43.0385ZM117.059 36.7689L116.81 36.7571L116.81 36.7593L117.059 36.7689ZM117.543 36.1472L117.664 36.3657L117.667 36.3642L117.543 36.1472ZM119.028 36.0435L118.843 36.2108L118.892 36.2652L118.962 36.2846L119.028 36.0435ZM122.932 37.1835L122.858 37.4224L122.921 37.4419L122.986 37.4275L122.932 37.1835ZM123.813 37.2525L123.647 37.4394L123.657 37.449L123.669 37.4574L123.813 37.2525ZM123.519 38.9452L123.715 39.1007L123.717 39.0979L123.519 38.9452ZM122.224 40.2578L122.059 40.0696L122.056 40.072L122.224 40.2578ZM121.878 40.5687L121.711 40.3827L121.703 40.3901L121.878 40.5687ZM120.272 42.0022L120.116 41.807L119.735 42.1114L120.204 42.243L120.272 42.0022ZM122.552 43.574L122.35 43.7221L122.617 44.0845L122.784 43.6668L122.552 43.574ZM132.548 44.6103L132.461 44.8446L132.469 44.8474L132.548 44.6103ZM132.479 45.5257L132.656 45.7024H132.656L132.479 45.5257ZM131.08 45.8193L131.166 45.5842L131.156 45.5812L131.08 45.8193ZM126.779 46.3547L126.648 46.1415L126.637 46.1491L126.779 46.3547ZM126.227 46.6138L126.294 46.8548L126.302 46.8522L126.227 46.6138ZM125.225 46.6138L125.086 46.8218L125.095 46.8274L125.104 46.8323L125.225 46.6138ZM125.104 46.0956L125.336 46.1885L125.339 46.1799L125.104 46.0956ZM125.899 43.574L125.658 43.5072L125.657 43.5107L125.899 43.574ZM126.313 41.2941L126.064 41.2692L126.064 41.2718L126.313 41.2941ZM125.726 36.0781L125.928 35.9308L125.923 35.9243L125.918 35.918L125.726 36.0781ZM126.123 35.1627L126.253 35.3764L126.258 35.373L126.123 35.1627ZM127.522 34.99L127.345 35.1667L127.383 35.2043L127.432 35.2233L127.522 34.99ZM127.816 35.2663L127.581 35.3518L127.582 35.3549L127.816 35.2663ZM129.007 37.2007L128.827 37.3735L128.829 37.3755L129.007 37.2007ZM131.374 37.9089L131.338 37.6612L131.329 37.6629L131.374 37.9089ZM132.116 38.0125L131.94 38.1893L131.951 38.2003L131.963 38.2098L132.116 38.0125ZM132.065 38.8415L131.875 38.6787L131.868 38.6871L132.065 38.8415ZM131.546 39.187L131.471 38.9485L131.466 38.9504L131.546 39.187ZM128.507 39.0833L128.608 38.8549L128.27 38.7046L128.257 39.0744L128.507 39.0833ZM128.42 40.5342L128.669 40.5618L128.669 40.5608L128.42 40.5342ZM128.299 41.6223L128.051 41.5947L128.014 41.9275L128.344 41.8683L128.299 41.6223ZM129.647 41.415L129.629 41.1652L129.615 41.167L129.647 41.415ZM129.888 41.3977V41.1477H129.879L129.871 41.1484L129.888 41.3977ZM129.526 42.7277L129.479 42.4821L129.478 42.4822L129.526 42.7277ZM128.058 42.9522L128.025 42.7043L127.852 42.7267L127.814 42.8974L128.058 42.9522ZM127.643 44.5412L127.404 44.4688L127.259 44.9467L127.728 44.7761L127.643 44.5412ZM137.289 41.1905L137.521 41.2833L137.522 41.2816L137.289 41.1905ZM137.151 41.5359L136.918 41.4431L136.851 41.6107L136.989 41.7271L137.151 41.5359ZM138.36 42.5549L138.198 42.7461L138.781 43.2375L138.603 42.4963L138.36 42.5549ZM138.239 42.0541L138.482 41.9954L138.481 41.9934L138.239 42.0541ZM137.755 39.9987L137.999 39.9425L137.817 39.1547L137.522 39.9076L137.755 39.9987ZM139.258 36.1472L139.01 36.1825L139.011 36.1869L139.258 36.1472ZM139.862 39.2042L139.619 39.2611L139.619 39.2642L139.862 39.2042ZM140.778 42.7449L141.019 42.6812L141.019 42.6804L140.778 42.7449ZM141.434 45.2666L141.191 45.3272L141.194 45.3365L141.197 45.3456L141.434 45.2666ZM140.985 46.1474L141.118 46.3591L141.124 46.3554L140.985 46.1474ZM139.379 46.2165L139.196 46.3874L139.202 46.3933L139.379 46.2165ZM138.325 45.1975L138.16 45.3856L138.325 45.1975ZM136.874 44.0058L136.716 44.1993L136.719 44.2021L136.874 44.0058ZM136.304 43.5394L136.463 43.3459L136.214 43.1423L136.078 43.4337L136.304 43.5394ZM135.182 45.8365L134.961 45.7185L134.955 45.7308L135.182 45.8365ZM134.543 46.3201L134.638 46.5512L134.642 46.5495L134.543 46.3201ZM133.178 46.0093L133.408 46.1078L133.41 46.1032L133.178 46.0093ZM134.404 43.0731L134.634 43.1713L134.636 43.1683L134.404 43.0731ZM134.767 42.1922L134.998 42.2874L135.062 42.1333L134.944 42.0155L134.767 42.1922ZM134.335 41.7604L134.512 41.5837L134.512 41.5837L134.335 41.7604ZM134.594 40.9314L134.735 41.1381L134.741 41.1336L134.594 40.9314ZM135.441 40.5687L135.486 40.8145L135.619 40.7899L135.671 40.665L135.441 40.5687ZM136.995 36.5271L137.231 36.6103L137.233 36.6032L137.235 36.5958L136.995 36.5271ZM137.427 36.1126L137.534 36.3384L137.539 36.3362L137.427 36.1126ZM138.221 35.8708L138.252 36.1189L138.272 36.1164L138.292 36.1107L138.221 35.8708ZM146.633 36.1472L146.61 35.8983L146.602 35.899L146.595 35.9001L146.633 36.1472ZM147.186 36.2335L147.052 36.4446L147.06 36.4495L147.186 36.2335ZM147.618 36.6999L147.831 36.5688L147.827 36.5636L147.618 36.6999ZM147.272 37.5289L147.301 37.7774L147.308 37.7764L147.272 37.5289ZM146.668 37.598L146.639 37.3495L146.633 37.3505L146.668 37.598ZM145.77 37.7189V37.4689H145.545L145.521 37.6925L145.77 37.7189ZM145.303 42.5204L145.054 42.4993L145.303 42.5204ZM145.079 46.5447L145.328 46.5625L145.329 46.5512L145.079 46.5447ZM144.872 46.9074L144.737 46.6963L144.728 46.7026L144.872 46.9074ZM143.369 46.7519L143.242 46.9678L143.251 46.9725L143.369 46.7519ZM142.885 46.0956L143.135 46.1075L143.135 46.1027L142.885 46.0956ZM143.093 42.3649L143.342 42.3853L143.342 42.3852L143.093 42.3649ZM143.507 37.9261L143.756 37.9517L143.788 37.6385L143.476 37.6781L143.507 37.9261ZM142.419 38.0643L142.437 38.3141L142.451 38.3123L142.419 38.0643ZM142.039 38.047L141.941 38.2768L141.959 38.2847L141.978 38.2896L142.039 38.047ZM141.797 37.8398L141.6 37.9933L141.797 37.8398ZM141.555 37.4943L141.766 37.3601L141.762 37.3536L141.758 37.3473L141.555 37.4943ZM141.538 36.838L141.715 37.0148V37.0148L141.538 36.838ZM141.901 36.6826L141.867 36.4349L141.866 36.4351L141.901 36.6826ZM142.782 36.5617L142.748 36.314L142.748 36.314L142.782 36.5617ZM143.663 36.4408L143.697 36.6885L143.891 36.6618L143.911 36.4667L143.663 36.4408ZM143.973 33.4528L143.725 33.4262L143.725 33.4269L143.973 33.4528ZM145.683 33.2628L145.554 33.4767L145.563 33.4817L145.683 33.2628ZM146.15 33.9019L146.399 33.926L146.399 33.9256L146.15 33.9019ZM145.925 36.2162L145.676 36.1921L145.648 36.4867L145.943 36.4656L145.925 36.2162ZM152.166 42.7449L151.936 42.6469L151.935 42.65L152.166 42.7449ZM152.287 39.4115L152.055 39.5033L152.058 39.5107L152.287 39.4115ZM151.458 38.3407L151.311 38.5428V38.5428L151.458 38.3407ZM150.387 38.1334L150.308 37.8962L149.697 38.1001L150.286 38.3619L150.387 38.1334ZM150.474 38.617L150.695 38.7328L150.697 38.7288L150.474 38.617ZM149.852 40.2751L150.094 40.3368L150.095 40.3357L149.852 40.2751ZM149.938 44.023L149.701 44.1021L149.704 44.109L149.706 44.1159L149.938 44.023ZM150.37 44.8348L150.171 44.9869L150.18 44.9975L150.37 44.8348ZM150.577 45.0075L150.466 45.2311L150.598 45.2972L150.719 45.2133L150.577 45.0075ZM151.476 44.0403L151.268 43.9016L151.265 43.9057L151.476 44.0403ZM151.925 36.6826L151.975 36.4373L151.963 36.4355L151.925 36.6826ZM154.291 38.807L154.057 38.8964L154.058 38.8981L154.291 38.807ZM153.116 44.5239L153.315 44.6763L153.116 44.5239ZM151.579 45.9402L151.709 46.1537L151.71 46.1534L151.579 45.9402ZM148.695 45.9574L148.537 46.1509L148.695 45.9574ZM147.866 44.6103L148.106 44.5397L148.103 44.5326L147.866 44.6103ZM147.676 41.2768L147.923 41.3169L147.986 40.9283L147.607 41.0365L147.676 41.2768ZM146.76 40.6896L146.993 40.7825L146.996 40.7738L146.76 40.6896ZM148.522 37.8398L148.343 37.6655L148.343 37.6656L148.522 37.8398ZM158.705 40.2924L158.549 40.0966L158.545 40.0998L158.705 40.2924ZM159.793 39.3424L159.62 39.162L159.616 39.1656L159.793 39.3424ZM160.449 38.5134L160.669 38.6324L160.821 38.3515L160.512 38.2714L160.449 38.5134ZM157.686 37.7189L157.758 37.4795L157.444 37.3847L157.436 37.7127L157.686 37.7189ZM157.599 41.225L157.35 41.2189L157.336 41.77L157.759 41.4171L157.599 41.225ZM158.204 40.7069L158.045 40.5143L158.035 40.5218L158.027 40.5301L158.204 40.7069ZM161.486 42.7104L161.262 42.5986L161.259 42.6055L161.255 42.6126L161.486 42.7104ZM162.073 42.244L162.17 42.4744L162.178 42.471L162.073 42.244ZM163.455 42.6413L163.685 42.7396L163.689 42.7291L163.455 42.6413ZM162.384 45.8538L162.626 45.9145L162.627 45.9106L162.384 45.8538ZM161.883 46.4929L161.738 46.2889L161.708 46.3106L161.685 46.3404L161.883 46.4929ZM161.347 46.8728L161.249 46.643L161.245 46.6449L161.347 46.8728ZM160.173 46.9074L160.029 47.1124L160.039 47.1183L160.173 46.9074ZM159.983 46.5274L159.733 46.5428L159.733 46.544L159.983 46.5274ZM159.24 44.4721L159.036 44.616L159.038 44.6185L159.24 44.4721ZM157.548 43.2631L157.612 43.0215L157.309 42.9406L157.298 43.2545L157.548 43.2631ZM157.461 45.7675L157.711 45.7806L157.711 45.7761L157.461 45.7675ZM156.909 46.372L156.794 46.1498L156.791 46.1514L156.909 46.372ZM155.492 46.562L155.354 46.77L155.362 46.7756L155.371 46.7805L155.492 46.562ZM155.337 46.2511L155.087 46.2456V46.2511H155.337ZM155.389 43.8676L155.639 43.873L155.642 43.7386L155.531 43.662L155.389 43.8676ZM155.423 43.0385L155.587 43.2275L155.67 43.1554L155.673 43.0454L155.423 43.0385ZM155.63 36.7689L155.381 36.7571L155.381 36.7593L155.63 36.7689ZM156.114 36.1472L156.236 36.3657L156.238 36.3642L156.114 36.1472ZM157.599 36.0435L157.414 36.2108L157.463 36.2652L157.533 36.2846L157.599 36.0435ZM161.503 37.1835L161.429 37.4224L161.493 37.4419L161.557 37.4275L161.503 37.1835ZM162.384 37.2525L162.218 37.4394L162.228 37.449L162.24 37.4574L162.384 37.2525ZM162.09 38.9452L162.286 39.1007L162.288 39.0979L162.09 38.9452ZM160.795 40.2578L160.63 40.0696L160.627 40.072L160.795 40.2578ZM160.449 40.5687L160.282 40.3827L160.274 40.3901L160.449 40.5687ZM158.843 42.0022L158.687 41.807L158.306 42.1114L158.775 42.243L158.843 42.0022ZM161.123 43.574L160.921 43.7221L161.188 44.0845L161.355 43.6668L161.123 43.574ZM114.793 41.8162C114.864 41.7845 114.939 41.7686 115.02 41.7686V41.2686C114.87 41.2686 114.726 41.2988 114.59 41.3593L114.793 41.8162ZM115.02 41.7686C115.167 41.7686 115.314 41.846 115.451 42.1282L115.901 41.9108C115.715 41.5252 115.425 41.2686 115.02 41.2686V41.7686ZM115.454 42.1344C115.607 42.4313 115.685 42.7544 115.685 43.1076H116.185C116.185 42.6779 116.09 42.2756 115.898 41.9047L115.454 42.1344ZM115.685 43.1076C115.685 43.2927 115.659 43.4393 115.615 43.5533L116.082 43.7328C116.153 43.5475 116.185 43.337 116.185 43.1076H115.685ZM115.615 43.5533C115.457 43.9634 115.198 44.3415 114.831 44.6873L115.174 45.0514C115.589 44.6602 115.894 44.2208 116.082 43.7328L115.615 43.5533ZM114.831 44.6873C114.451 45.0452 113.989 45.4115 113.444 45.786L113.728 46.198C114.288 45.8125 114.771 45.4304 115.174 45.0514L114.831 44.6873ZM113.448 45.7833C112.924 46.1294 112.3 46.4503 111.575 46.7449L111.763 47.2081C112.512 46.9039 113.166 46.5684 113.724 46.2007L113.448 45.7833ZM111.577 46.7441C110.873 47.0232 110.231 47.1583 109.648 47.1583V47.6583C110.308 47.6583 111.013 47.5055 111.761 47.2088L111.577 46.7441ZM109.648 47.1583C109.214 47.1583 108.872 47.0725 108.61 46.9168C108.35 46.7628 108.15 46.5304 108.013 46.2057L107.552 46.4001C107.726 46.8123 107.993 47.1326 108.355 47.347C108.714 47.5598 109.15 47.6583 109.648 47.6583V47.1583ZM108.011 46.2013C107.846 45.8288 107.756 45.3424 107.756 44.7312H107.256C107.256 45.3865 107.351 45.9479 107.554 46.4044L108.011 46.2013ZM107.756 44.7312C107.756 43.9635 107.879 43.1703 108.126 42.3507L107.647 42.2065C107.387 43.068 107.256 43.9098 107.256 44.7312H107.756ZM108.125 42.3528C108.388 41.5077 108.743 40.5057 109.19 39.3461L108.724 39.166C108.274 40.3323 107.915 41.3454 107.648 42.2044L108.125 42.3528ZM109.19 39.3477C109.634 38.2207 110.163 37.1511 110.777 36.1387L110.35 35.8793C109.72 36.9165 109.179 38.0116 108.725 39.1644L109.19 39.3477ZM110.778 36.1376C111.383 35.1282 112.003 34.7045 112.619 34.7045V34.2045C111.738 34.2045 110.987 34.8172 110.349 35.8804L110.778 36.1376ZM112.619 34.7045C112.779 34.7045 112.919 34.7373 113.042 34.7991L113.266 34.3518C113.067 34.2524 112.85 34.2045 112.619 34.2045V34.7045ZM113.402 34.6113C113.523 33.7698 113.8 33.1885 114.202 32.8268L113.868 32.4552C113.348 32.9226 113.038 33.6309 112.907 34.5396L113.402 34.6113ZM114.196 32.8325C114.471 32.6011 114.661 32.5283 114.778 32.5283V32.0283C114.48 32.0283 114.175 32.1973 113.874 32.4496L114.196 32.8325ZM114.778 32.5283C114.845 32.5283 114.897 32.5469 114.943 32.5833C114.994 32.6226 115.049 32.6922 115.102 32.8108L115.559 32.6094C115.485 32.4402 115.385 32.2939 115.251 32.1893C115.113 32.0817 114.952 32.0283 114.778 32.0283V32.5283ZM115.097 32.8007C115.163 32.9692 115.201 33.2005 115.201 33.5046H115.701C115.701 33.164 115.659 32.8655 115.563 32.6195L115.097 32.8007ZM115.201 33.5046C115.201 33.6557 115.19 33.8666 115.168 34.1402L115.666 34.1817C115.689 33.9026 115.701 33.6759 115.701 33.5046H115.201ZM115.167 34.1526L115.15 34.6707L115.649 34.6874L115.667 34.1693L115.167 34.1526ZM115.15 34.6722C115.127 35.5071 115.075 36.342 114.995 37.1769L115.493 37.2246C115.574 36.3784 115.626 35.5322 115.649 34.6859L115.15 34.6722ZM114.995 37.1781C114.928 37.9159 114.766 38.6187 114.51 39.2875L114.977 39.4664C115.25 38.7534 115.422 38.0055 115.493 37.2234L114.995 37.1781ZM114.51 39.2875C114.268 39.9193 113.912 40.2054 113.457 40.2509L113.507 40.7484C114.204 40.6786 114.689 40.2164 114.977 39.4664L114.51 39.2875ZM113.453 40.2514C113.364 40.2621 113.291 40.2449 113.223 40.2021C113.151 40.1565 113.072 40.0728 112.993 39.9298L112.555 40.1713C112.661 40.3623 112.791 40.5203 112.956 40.6244C113.124 40.7313 113.313 40.7717 113.512 40.7478L113.453 40.2514ZM112.996 39.9357C112.834 39.6219 112.655 39.1496 112.461 38.5098L111.982 38.6551C112.18 39.305 112.369 39.8113 112.552 40.1654L112.996 39.9357ZM112.461 38.5094C112.333 38.0922 112.22 37.7697 112.122 37.5483L111.665 37.7513C111.751 37.9444 111.857 38.2437 111.982 38.6555L112.461 38.5094ZM112.128 37.5634C112.041 37.3285 111.934 37.1293 111.794 36.9894L111.44 37.343C111.508 37.4103 111.584 37.5335 111.659 37.7362L112.128 37.5634ZM111.399 37.0433C110.73 38.2288 110.238 39.5242 109.922 40.9283L110.41 41.0381C110.716 39.6787 111.191 38.4295 111.835 37.2891L111.399 37.0433ZM109.924 40.9226L109.837 41.268L110.322 41.3893L110.409 41.0439L109.924 40.9226ZM109.836 41.2744C109.744 41.6895 109.668 42.0361 109.611 42.314L110.1 42.4159C110.157 42.1411 110.232 41.7968 110.324 41.3829L109.836 41.2744ZM109.609 42.3221C109.561 42.6009 109.536 42.88 109.536 43.1594H110.036C110.036 42.9092 110.058 42.6587 110.102 42.4078L109.609 42.3221ZM109.536 43.1594C109.536 43.7791 109.693 44.2821 110.088 44.5703L110.383 44.1666C110.178 44.0172 110.036 43.7143 110.036 43.1594H109.536ZM110.075 44.5605C110.343 44.7834 110.701 44.8775 111.116 44.8775V44.3775C110.771 44.3775 110.542 44.2989 110.395 44.1764L110.075 44.5605ZM111.116 44.8775C111.396 44.8775 111.694 44.8331 112.01 44.748L111.88 44.2652C111.597 44.3413 111.343 44.3775 111.116 44.3775V44.8775ZM112.001 44.7502C112.319 44.6769 112.651 44.5617 112.997 44.4066L112.793 43.9503C112.471 44.0946 112.17 44.1982 111.889 44.263L112.001 44.7502ZM112.997 44.4069C113.111 44.3561 113.274 44.271 113.483 44.1552L113.24 43.7181C113.034 43.8327 112.886 43.9087 112.794 43.95L112.997 44.4069ZM113.392 44.1847C113.458 44.1766 113.542 44.1568 113.615 44.1021C113.701 44.0376 113.75 43.9405 113.75 43.833H113.25C113.25 43.8132 113.254 43.7872 113.267 43.7601C113.281 43.733 113.299 43.714 113.315 43.7021C113.342 43.6819 113.357 43.6853 113.33 43.6886L113.392 44.1847ZM113.75 43.833C113.75 43.6749 113.651 43.5647 113.569 43.4996L113.257 43.8901C113.271 43.9014 113.271 43.9042 113.266 43.8964C113.26 43.887 113.25 43.8647 113.25 43.833H113.75ZM113.657 43.7491C113.683 43.6342 113.707 43.4813 113.73 43.2941L113.234 43.2321C113.212 43.4133 113.19 43.5483 113.169 43.6406L113.657 43.7491ZM113.73 43.2961C113.752 43.1312 113.779 43.0013 113.808 42.9031L113.329 42.7594C113.29 42.8915 113.259 43.0495 113.235 43.23L113.73 43.2961ZM113.808 42.9031C113.835 42.8146 113.881 42.7147 113.952 42.6028L113.53 42.3344C113.44 42.4758 113.372 42.6176 113.329 42.7594L113.808 42.9031ZM113.948 42.6097C114.232 42.1941 114.517 41.9401 114.794 41.8159L114.589 41.3596C114.198 41.5348 113.849 41.8679 113.535 42.3274L113.948 42.6097ZM120.289 40.4881C120.743 40.1277 121.113 39.8046 121.399 39.5192L121.045 39.1656C120.778 39.433 120.423 39.7431 119.978 40.0966L120.289 40.4881ZM121.395 39.5228C121.697 39.2331 121.933 38.9367 122.098 38.6324L121.658 38.3943C121.524 38.6428 121.323 38.899 121.049 39.1621L121.395 39.5228ZM121.941 38.2714C121.324 38.1115 120.407 37.8478 119.187 37.4795L119.043 37.9582C120.264 38.3269 121.189 38.5929 121.815 38.7554L121.941 38.2714ZM118.865 37.7127L118.778 41.2189L119.278 41.2312L119.365 37.725L118.865 37.7127ZM119.188 41.4171C119.529 41.1334 119.742 40.9514 119.81 40.8836L119.456 40.5301C119.409 40.5775 119.219 40.7409 118.868 41.033L119.188 41.4171ZM119.792 40.8995L120.293 40.485L119.974 40.0998L119.474 40.5143L119.792 40.8995ZM123.138 42.8222C123.192 42.7145 123.325 42.5904 123.599 42.4743L123.404 42.0138C123.08 42.151 122.821 42.3378 122.691 42.5986L123.138 42.8222ZM123.607 42.471C123.879 42.3451 124.131 42.2868 124.365 42.2868V41.7868C124.047 41.7868 123.723 41.8666 123.397 42.0171L123.607 42.471ZM124.365 42.2868C124.537 42.2868 124.623 42.3155 124.659 42.3384C124.673 42.3475 124.677 42.354 124.678 42.3568C124.68 42.3604 124.685 42.3721 124.685 42.3995H125.185C125.185 42.2007 125.1 42.0268 124.927 41.9165C124.773 41.8185 124.574 41.7868 124.365 41.7868V42.2868ZM124.685 42.3995C124.685 42.4288 124.678 42.4785 124.649 42.5535L125.118 42.7291C125.159 42.6198 125.185 42.5084 125.185 42.3995H124.685ZM124.654 42.5431C124.176 43.6602 123.815 44.7449 123.569 45.797L124.056 45.9106C124.294 44.8902 124.646 43.8332 125.113 42.7395L124.654 42.5431ZM123.57 45.7932C123.532 45.9451 123.415 46.1131 123.167 46.2889L123.456 46.6969C123.761 46.4811 123.978 46.2232 124.055 45.9144L123.57 45.7932ZM123.114 46.3404C123.033 46.4455 122.895 46.55 122.678 46.6431L122.875 47.1026C123.141 46.9884 123.36 46.8396 123.51 46.6453L123.114 46.3404ZM122.674 46.6449C122.473 46.7354 122.277 46.7783 122.085 46.7783V47.2783C122.354 47.2783 122.62 47.2176 122.879 47.1008L122.674 46.6449ZM122.085 46.7783C121.923 46.7783 121.812 46.7449 121.736 46.6965L121.468 47.1183C121.645 47.2311 121.856 47.2783 122.085 47.2783V46.7783ZM121.745 46.7026C121.706 46.6754 121.669 46.6272 121.661 46.5108L121.162 46.544C121.178 46.7731 121.267 46.9782 121.459 47.1122L121.745 46.7026ZM121.661 46.5121C121.612 45.7153 121.348 44.9849 120.872 44.3257L120.467 44.6185C120.889 45.2028 121.119 45.8427 121.162 46.5428L121.661 46.5121ZM120.874 44.3282C120.405 43.6617 119.792 43.2219 119.041 43.0215L118.912 43.5046C119.543 43.6727 120.059 44.0389 120.465 44.616L120.874 44.3282ZM118.727 43.2545L118.64 45.7588L119.14 45.7761L119.226 43.2717L118.727 43.2545ZM118.641 45.7543C118.637 45.8298 118.566 45.9727 118.223 46.1498L118.452 46.5941C118.823 46.4028 119.121 46.1426 119.14 45.7806L118.641 45.7543ZM118.22 46.1514C117.903 46.3204 117.609 46.3983 117.336 46.3983V46.8983C117.707 46.8983 118.081 46.792 118.455 46.5926L118.22 46.1514ZM117.336 46.3983C117.187 46.3983 117.096 46.373 117.043 46.3434L116.8 46.7805C116.954 46.866 117.139 46.8983 117.336 46.8983V46.3983ZM117.06 46.3539C117.034 46.3369 117.016 46.3164 117.016 46.2511H116.516C116.516 46.4621 116.601 46.6488 116.783 46.77L117.06 46.3539ZM117.016 46.2565L117.068 43.873L116.568 43.8621L116.516 46.2456L117.016 46.2565ZM116.96 43.662C116.854 43.5887 116.843 43.5359 116.843 43.5049H116.343C116.343 43.7502 116.482 43.9392 116.675 44.0731L116.96 43.662ZM116.843 43.5049C116.843 43.4425 116.874 43.3502 117.016 43.2275L116.688 42.8496C116.485 43.0263 116.343 43.2448 116.343 43.5049H116.843ZM117.102 43.0454C117.16 40.9507 117.229 38.8618 117.309 36.7786L116.81 36.7593C116.729 38.8443 116.66 40.9351 116.602 43.0317L117.102 43.0454ZM117.309 36.7808C117.315 36.6618 117.391 36.5177 117.664 36.3657L117.422 35.9286C117.074 36.122 116.827 36.3925 116.81 36.7571L117.309 36.7808ZM117.667 36.3642C117.958 36.1983 118.238 36.1208 118.51 36.1208V35.6208C118.138 35.6208 117.773 35.7276 117.419 35.9301L117.667 36.3642ZM118.51 36.1208C118.72 36.1208 118.807 36.1718 118.843 36.2108L119.214 35.8763C119.042 35.685 118.784 35.6208 118.51 35.6208V36.1208ZM118.962 36.2846C120.215 36.6293 121.513 37.0086 122.858 37.4224L123.005 36.9445C121.656 36.5293 120.352 36.1486 119.095 35.8025L118.962 36.2846ZM122.986 37.4275C123.195 37.381 123.314 37.3644 123.364 37.3644V36.8644C123.252 36.8644 123.083 36.8938 122.878 36.9394L122.986 37.4275ZM123.364 37.3644C123.523 37.3644 123.604 37.402 123.647 37.4394L123.979 37.0657C123.814 36.9189 123.595 36.8644 123.364 36.8644V37.3644ZM123.669 37.4574C123.702 37.4803 123.735 37.5203 123.735 37.6325H124.235C124.235 37.3993 124.154 37.186 123.956 37.0477L123.669 37.4574ZM123.735 37.6325C123.735 38.0449 123.601 38.4296 123.321 38.7925L123.717 39.0979C124.059 38.6548 124.235 38.1643 124.235 37.6325H123.735ZM123.323 38.7897C123.025 39.1653 122.605 39.5918 122.059 40.0697L122.388 40.446C122.948 39.9566 123.391 39.508 123.715 39.1006L123.323 38.7897ZM122.056 40.072L121.711 40.3829L122.045 40.7545L122.391 40.4436L122.056 40.072ZM121.703 40.3901C121.156 40.9263 120.626 41.3985 120.116 41.807L120.428 42.1975C120.954 41.777 121.495 41.2934 122.053 40.7473L121.703 40.3901ZM120.204 42.243C121.095 42.4929 121.808 42.9845 122.35 43.7221L122.753 43.4259C122.144 42.5975 121.337 42.0413 120.339 41.7615L120.204 42.243ZM122.784 43.6668C122.829 43.5547 122.948 43.2697 123.145 42.8082L122.684 42.6126C122.489 43.0722 122.367 43.3629 122.32 43.4811L122.784 43.6668ZM132.469 44.8474C132.526 44.8665 132.546 44.8855 132.55 44.8912C132.553 44.8938 132.554 44.8957 132.554 44.8982C132.555 44.901 132.557 44.9079 132.557 44.9211H133.057C133.057 44.7947 133.019 44.6728 132.935 44.5711C132.853 44.4732 132.743 44.4116 132.627 44.3731L132.469 44.8474ZM132.557 44.9211C132.557 45.0062 132.504 45.147 132.302 45.3489L132.656 45.7024C132.892 45.4668 133.057 45.2046 133.057 44.9211H132.557ZM132.302 45.3489C132.113 45.5384 131.868 45.6384 131.546 45.6384V46.1384C131.985 46.1384 132.362 45.9965 132.656 45.7024L132.302 45.3489ZM131.546 45.6384C131.381 45.6384 131.257 45.6175 131.166 45.5843L130.995 46.0542C131.157 46.1131 131.343 46.1384 131.546 46.1384V45.6384ZM131.156 45.5812C130.528 45.3798 129.949 45.2757 129.422 45.2757V45.7757C129.885 45.7757 130.411 45.8673 131.004 46.0573L131.156 45.5812ZM129.422 45.2757C128.503 45.2757 127.577 45.5702 126.648 46.1418L126.91 46.5676C127.778 46.0338 128.614 45.7757 129.422 45.7757V45.2757ZM126.637 46.1491C126.513 46.2354 126.352 46.312 126.151 46.3754L126.302 46.8522C126.539 46.7774 126.747 46.6813 126.922 46.5602L126.637 46.1491ZM126.16 46.3729C125.971 46.4254 125.798 46.4501 125.64 46.4501V46.9501C125.85 46.9501 126.068 46.9173 126.294 46.8546L126.16 46.3729ZM125.64 46.4501C125.491 46.4501 125.4 46.4249 125.346 46.3952L125.104 46.8323C125.258 46.9178 125.442 46.9501 125.64 46.9501V46.4501ZM125.364 46.4058C125.338 46.3887 125.32 46.3682 125.32 46.3029H124.82C124.82 46.5139 124.905 46.7007 125.086 46.8218L125.364 46.4058ZM125.32 46.3029C125.32 46.245 125.328 46.2091 125.336 46.1885L124.872 46.0028C124.834 46.0973 124.82 46.1996 124.82 46.3029H125.32ZM125.339 46.1799C125.675 45.2421 125.942 44.3944 126.14 43.6372L125.657 43.5107C125.463 44.2504 125.201 45.0838 124.869 46.0114L125.339 46.1799ZM126.14 43.6407C126.351 42.8777 126.492 42.1029 126.562 41.3164L126.064 41.2718C125.996 42.0282 125.861 42.7733 125.658 43.5072L126.14 43.6407ZM126.562 41.319C126.666 40.2816 126.719 39.5111 126.719 39.0143H126.219C126.219 39.4846 126.168 40.234 126.064 41.2692L126.562 41.319ZM126.719 39.0143C126.719 37.7092 126.467 36.67 125.928 35.9308L125.524 36.2253C125.975 36.8449 126.219 37.7631 126.219 39.0143H126.719ZM125.918 35.918C125.907 35.9052 125.89 35.8751 125.89 35.8017H125.39C125.39 35.9586 125.429 36.1127 125.534 36.2381L125.918 35.918ZM125.89 35.8017C125.89 35.7042 125.956 35.5568 126.253 35.3764L125.993 34.949C125.646 35.1601 125.39 35.4387 125.39 35.8017H125.89ZM126.258 35.373C126.55 35.1856 126.82 35.1018 127.073 35.1018V34.6018C126.704 34.6018 126.341 34.7253 125.988 34.9524L126.258 35.373ZM127.073 35.1018C127.252 35.1018 127.321 35.1428 127.345 35.1667L127.699 34.8132C127.539 34.6529 127.309 34.6018 127.073 34.6018V35.1018ZM127.432 35.2233C127.529 35.2603 127.564 35.3061 127.581 35.3517L128.051 35.1809C127.975 34.9732 127.815 34.8348 127.612 34.7566L127.432 35.2233ZM127.582 35.3549C127.88 36.1428 128.295 36.8171 128.827 37.3735L129.188 37.0279C128.707 36.525 128.327 35.9098 128.05 35.1778L127.582 35.3549ZM128.829 37.3755C129.38 37.9391 130.042 38.228 130.804 38.228V37.728C130.184 37.728 129.648 37.4986 129.186 37.026L128.829 37.3755ZM130.804 38.228C130.954 38.228 131.162 38.2014 131.418 38.1548L131.329 37.6629C131.079 37.7084 130.907 37.728 130.804 37.728V38.228ZM131.409 38.1564C131.575 38.1326 131.66 38.1243 131.685 38.1243V37.6243C131.617 37.6243 131.494 37.6391 131.338 37.6614L131.409 38.1564ZM131.685 38.1243C131.847 38.1243 131.913 38.1631 131.94 38.1893L132.293 37.8357C132.135 37.6777 131.914 37.6243 131.685 37.6243V38.1243ZM131.963 38.2098C131.997 38.236 132.022 38.2731 132.022 38.3579H132.522C132.522 38.1434 132.443 37.9502 132.27 37.8152L131.963 38.2098ZM132.022 38.3579C132.022 38.4427 131.987 38.5484 131.875 38.6788L132.254 39.0042C132.419 38.8123 132.522 38.5956 132.522 38.3579H132.022ZM131.868 38.6871C131.776 38.8041 131.648 38.8928 131.471 38.9486L131.622 39.4254C131.882 39.343 132.1 39.2014 132.261 38.996L131.868 38.6871ZM131.466 38.9504C131.018 39.1032 130.573 39.1788 130.13 39.1788V39.6788C130.631 39.6788 131.131 39.5931 131.627 39.4236L131.466 38.9504ZM130.13 39.1788C129.601 39.1788 129.094 39.071 128.608 38.8549L128.405 39.3118C128.955 39.5562 129.531 39.6788 130.13 39.6788V39.1788ZM128.257 39.0744C128.234 39.7179 128.205 40.1943 128.172 40.5075L128.669 40.5608C128.704 40.2292 128.733 39.7384 128.756 39.0923L128.257 39.0744ZM128.172 40.5065L128.051 41.5947L128.548 41.6499L128.669 40.5618L128.172 40.5065ZM128.344 41.8683C128.789 41.7885 129.233 41.72 129.678 41.663L129.615 41.167C129.162 41.2251 128.708 41.2949 128.255 41.3762L128.344 41.8683ZM129.664 41.6644L129.906 41.6471L129.871 41.1484L129.629 41.1656L129.664 41.6644ZM129.888 41.6477C130.098 41.6477 130.212 41.6846 130.267 41.7215C130.304 41.7467 130.329 41.7801 130.329 41.8641H130.829C130.829 41.6371 130.739 41.4374 130.546 41.3071C130.371 41.1886 130.139 41.1477 129.888 41.1477V41.6477ZM130.329 41.8641C130.329 41.9625 130.28 42.0793 130.09 42.212L130.377 42.6216C130.648 42.4318 130.829 42.1802 130.829 41.8641H130.329ZM130.09 42.212C129.885 42.3558 129.681 42.4435 129.479 42.4821L129.572 42.9732C129.854 42.9197 130.122 42.8002 130.377 42.6216L130.09 42.212ZM129.478 42.4822C129.129 42.5499 128.645 42.6239 128.025 42.7043L128.09 43.2001C128.714 43.1192 129.209 43.0436 129.573 42.9731L129.478 42.4822ZM127.814 42.8974C127.688 43.4564 127.551 43.9801 127.404 44.4688L127.882 44.6135C128.034 44.112 128.174 43.5764 128.301 43.0069L127.814 42.8974ZM127.728 44.7761C128.462 44.5094 129.205 44.3767 129.957 44.3767V43.8767C129.144 43.8767 128.344 44.0203 127.558 44.3062L127.728 44.7761ZM129.957 44.3767C130.789 44.3767 131.623 44.5318 132.461 44.8445L132.636 44.376C131.746 44.0439 130.853 43.8767 129.957 43.8767V44.3767ZM137.057 41.0976L136.918 41.4431L137.383 41.6288L137.521 41.2833L137.057 41.0976ZM136.989 41.7271L138.198 42.7461L138.521 42.3638L137.312 41.3448L136.989 41.7271ZM138.603 42.4963L138.482 41.9954L137.996 42.1127L138.117 42.6136L138.603 42.4963ZM138.481 41.9934C138.401 41.6736 138.241 40.9908 137.999 39.9425L137.511 40.055C137.753 41.1023 137.915 41.7897 137.996 42.1147L138.481 41.9934ZM137.522 39.9076L137.056 41.0994L137.522 41.2816L137.988 40.0898L137.522 39.9076ZM139.011 36.1869C139.173 37.1946 139.376 38.2194 139.619 39.261L140.106 39.1474C139.865 38.1165 139.665 37.1032 139.504 36.1074L139.011 36.1869ZM139.619 39.2642C139.873 40.2909 140.179 41.4727 140.536 42.8095L141.019 42.6804C140.662 41.3458 140.358 40.1671 140.105 39.1442L139.619 39.2642ZM140.536 42.8087C140.87 44.0755 141.088 44.9145 141.191 45.3272L141.676 45.2059C141.572 44.7896 141.353 43.9475 141.019 42.6812L140.536 42.8087ZM141.197 45.3456C141.195 45.3408 141.197 45.3437 141.198 45.359C141.2 45.3733 141.201 45.3939 141.201 45.422H141.701C141.701 45.3456 141.696 45.2611 141.671 45.1875L141.197 45.3456ZM141.201 45.422C141.201 45.5868 141.114 45.7605 140.846 45.9394L141.124 46.3554C141.477 46.1198 141.701 45.8099 141.701 45.422H141.201ZM140.852 45.9359C140.576 46.1091 140.3 46.1911 140.018 46.1911V46.6911C140.403 46.6911 140.771 46.5772 141.118 46.359L140.852 45.9359ZM140.018 46.1911C139.786 46.1911 139.645 46.1295 139.555 46.0397L139.202 46.3933C139.411 46.6029 139.696 46.6911 140.018 46.6911V46.1911ZM139.561 46.0457C139.222 45.6827 138.864 45.3372 138.49 45.0093L138.16 45.3856C138.523 45.7026 138.868 46.0365 139.196 46.3873L139.561 46.0457ZM138.49 45.0093C138.117 44.683 137.629 44.2829 137.029 43.8094L136.719 44.2021C137.316 44.6728 137.796 45.0671 138.16 45.3856L138.49 45.0093ZM137.032 43.8123L136.463 43.3459L136.146 43.7329L136.716 44.1992L137.032 43.8123ZM136.078 43.4337C135.594 44.4692 135.223 45.2298 134.961 45.7186L135.402 45.9545C135.67 45.4531 136.047 44.6823 136.531 43.6451L136.078 43.4337ZM134.955 45.7308C134.916 45.8148 134.779 45.945 134.443 46.0908L134.642 46.5495C134.996 46.3959 135.286 46.2037 135.408 45.9423L134.955 45.7308ZM134.447 46.0891C134.136 46.2179 133.858 46.2774 133.61 46.2774V46.7774C133.938 46.7774 134.281 46.6988 134.638 46.5512L134.447 46.0891ZM133.61 46.2774C133.467 46.2774 133.404 46.2531 133.382 46.2394C133.375 46.2348 133.377 46.2339 133.378 46.2375C133.38 46.2401 133.376 46.2356 133.376 46.2165H132.876C132.876 46.3969 132.953 46.5579 133.112 46.66C133.252 46.7499 133.43 46.7774 133.61 46.7774V46.2774ZM133.376 46.2165C133.376 46.2058 133.38 46.1719 133.408 46.1077L132.948 45.9108C132.907 46.0078 132.876 46.1121 132.876 46.2165H133.376ZM133.41 46.1032C133.754 45.2529 134.163 44.2756 134.634 43.1713L134.174 42.9749C133.702 44.0813 133.293 45.0615 132.946 45.9153L133.41 46.1032ZM134.636 43.1683L134.998 42.2874L134.536 42.097L134.173 42.9779L134.636 43.1683ZM134.944 42.0155C134.8 41.8715 134.692 41.7636 134.62 41.6916C134.584 41.6556 134.557 41.6286 134.539 41.6107C134.53 41.6017 134.523 41.5949 134.519 41.5904C134.517 41.5882 134.515 41.5865 134.514 41.5854C134.513 41.5848 134.513 41.5844 134.512 41.5841C134.512 41.5839 134.512 41.5838 134.512 41.5838C134.512 41.5837 134.512 41.5837 134.512 41.5837C134.512 41.5837 134.512 41.5837 134.512 41.5837C134.512 41.5837 134.512 41.5837 134.512 41.5837C134.512 41.5837 134.512 41.5837 134.335 41.7604C134.158 41.9372 134.158 41.9372 134.158 41.9372C134.158 41.9372 134.158 41.9372 134.158 41.9372C134.158 41.9372 134.158 41.9372 134.159 41.9372C134.159 41.9373 134.159 41.9373 134.159 41.9373C134.159 41.9374 134.159 41.9375 134.159 41.9376C134.159 41.9379 134.16 41.9383 134.16 41.9389C134.161 41.94 134.163 41.9417 134.165 41.944C134.17 41.9485 134.176 41.9552 134.185 41.9642C134.203 41.9822 134.23 42.0092 134.266 42.0452C134.338 42.1171 134.446 42.2251 134.59 42.369L134.944 42.0155ZM134.512 41.5837C134.473 41.5448 134.464 41.5145 134.464 41.4841H133.964C133.964 41.661 134.036 41.8149 134.158 41.9372L134.512 41.5837ZM134.464 41.4841C134.464 41.4099 134.51 41.2914 134.735 41.138L134.453 40.7248C134.172 40.9168 133.964 41.1668 133.964 41.4841H134.464ZM134.741 41.1336C134.964 40.9715 135.212 40.8654 135.486 40.8145L135.395 40.3229C135.048 40.3872 134.731 40.5228 134.447 40.7292L134.741 41.1336ZM135.671 40.665C136.226 39.3365 136.746 37.9849 137.231 36.6103L136.759 36.4439C136.277 37.8098 135.761 39.1526 135.21 40.4724L135.671 40.665ZM137.235 36.5958C137.253 36.5358 137.319 36.4407 137.534 36.3383L137.319 35.8869C137.051 36.0148 136.83 36.1961 136.755 36.4585L137.235 36.5958ZM137.539 36.3362C137.767 36.222 138.005 36.1499 138.252 36.1189L138.19 35.6227C137.885 35.6609 137.593 35.7499 137.315 35.889L137.539 36.3362ZM138.292 36.1107C138.475 36.0569 138.616 36.0345 138.722 36.0345V35.5345C138.552 35.5345 138.36 35.5696 138.151 35.631L138.292 36.1107ZM138.722 36.0345C138.857 36.0345 138.926 36.0604 138.958 36.0821C138.981 36.0976 139.001 36.1211 139.01 36.1825L139.505 36.1118C139.479 35.9314 139.394 35.7736 139.238 35.6682C139.092 35.569 138.91 35.5345 138.722 35.5345V36.0345ZM146.657 36.396C146.875 36.3753 146.993 36.4072 147.052 36.4444L147.32 36.0226C147.125 35.8986 146.875 35.873 146.61 35.8983L146.657 36.396ZM147.06 36.4495C147.148 36.501 147.267 36.6182 147.408 36.8361L147.827 36.5636C147.67 36.3209 147.5 36.1272 147.312 36.0176L147.06 36.4495ZM147.405 36.8309C147.488 36.9654 147.506 37.0445 147.506 37.0798H148.006C148.006 36.9079 147.932 36.7336 147.831 36.5688L147.405 36.8309ZM147.506 37.0798C147.506 37.1485 147.487 37.1787 147.465 37.1989C147.436 37.2261 147.371 37.2623 147.237 37.2814L147.308 37.7764C147.496 37.7494 147.673 37.6878 147.805 37.5653C147.945 37.4358 148.006 37.2645 148.006 37.0798H147.506ZM147.244 37.2805L146.639 37.3496L146.696 37.8464L147.301 37.7773L147.244 37.2805ZM146.633 37.3505C146.351 37.3908 146.135 37.4209 145.987 37.4409C145.912 37.4509 145.855 37.4583 145.815 37.4631C145.766 37.4691 145.759 37.4689 145.77 37.4689V37.9689C145.797 37.9689 145.841 37.9637 145.875 37.9595C145.919 37.9543 145.978 37.9465 146.054 37.9364C146.204 37.9161 146.421 37.8858 146.703 37.8455L146.633 37.3505ZM145.521 37.6925C145.325 39.536 145.17 41.1383 145.054 42.4993L145.553 42.5415C145.667 41.1851 145.823 39.5864 146.018 37.7453L145.521 37.6925ZM145.054 42.4993C144.939 43.8627 144.864 45.209 144.829 46.5382L145.329 46.5512C145.363 45.2321 145.438 43.8955 145.553 42.5415L145.054 42.4993ZM144.83 46.5269C144.823 46.6161 144.792 46.662 144.737 46.6965L145.006 47.1183C145.205 46.9915 145.312 46.7956 145.328 46.5625L144.83 46.5269ZM144.728 46.7026C144.669 46.7443 144.569 46.7783 144.405 46.7783V47.2783C144.633 47.2783 144.844 47.2317 145.015 47.1122L144.728 46.7026ZM144.405 46.7783C144.106 46.7783 143.801 46.6989 143.487 46.5314L143.251 46.9725C143.628 47.1735 144.014 47.2783 144.405 47.2783V46.7783ZM143.495 46.5363C143.19 46.3572 143.13 46.2089 143.135 46.1075L142.636 46.0837C142.617 46.466 142.88 46.7552 143.243 46.9676L143.495 46.5363ZM143.135 46.1027C143.17 44.8868 143.239 43.6477 143.342 42.3853L142.843 42.3446C142.739 43.6154 142.67 44.8634 142.635 46.0885L143.135 46.1027ZM143.342 42.3852C143.445 41.1093 143.583 39.6315 143.756 37.9517L143.258 37.9006C143.086 39.583 142.947 41.0644 142.843 42.3447L143.342 42.3852ZM143.476 37.6781L142.388 37.8163L142.451 38.3123L143.539 38.1741L143.476 37.6781ZM142.401 37.8149C142.251 37.8257 142.154 37.8182 142.1 37.8045L141.978 38.2896C142.108 38.322 142.265 38.3259 142.437 38.3137L142.401 37.8149ZM142.138 37.8173C142.11 37.8056 142.061 37.7719 141.995 37.6863L141.6 37.9933C141.695 38.115 141.806 38.2194 141.941 38.2768L142.138 37.8173ZM141.995 37.6863C141.919 37.5897 141.843 37.4811 141.766 37.3601L141.345 37.6286C141.429 37.7609 141.514 37.8826 141.6 37.9933L141.995 37.6863ZM141.758 37.3473C141.689 37.2531 141.667 37.1768 141.667 37.1144H141.167C141.167 37.3053 141.238 37.4823 141.353 37.6414L141.758 37.3473ZM141.667 37.1144C141.667 37.084 141.676 37.0537 141.715 37.0148L141.361 36.6613C141.239 36.7836 141.167 36.9375 141.167 37.1144H141.667ZM141.715 37.0148C141.744 36.9858 141.806 36.9486 141.936 36.9301L141.866 36.4351C141.673 36.4626 141.494 36.5291 141.361 36.6613L141.715 37.0148ZM141.935 36.9303C142.188 36.8957 142.482 36.8554 142.816 36.8093L142.748 36.314C142.414 36.3601 142.12 36.4004 141.867 36.4349L141.935 36.9303ZM142.816 36.8094L143.697 36.6885L143.629 36.1931L142.748 36.314L142.816 36.8094ZM143.911 36.4667L144.222 33.4787L143.725 33.4269L143.414 36.4149L143.911 36.4667ZM144.222 33.4794C144.233 33.3801 144.268 33.33 144.317 33.2965C144.377 33.2557 144.488 33.2192 144.682 33.2192V32.7192C144.437 32.7192 144.212 32.7633 144.035 32.8836C143.848 33.0114 143.749 33.2031 143.725 33.4262L144.222 33.4794ZM144.682 33.2192C144.977 33.2192 145.267 33.3022 145.554 33.4765L145.813 33.0491C145.455 32.8319 145.077 32.7192 144.682 32.7192V33.2192ZM145.563 33.4817C145.865 33.6486 145.91 33.7864 145.901 33.8782L146.399 33.9256C146.436 33.5337 146.169 33.2455 145.804 33.0439L145.563 33.4817ZM145.901 33.8777L145.676 36.1921L146.174 36.2404L146.399 33.926L145.901 33.8777ZM145.943 36.4656C146.266 36.4425 146.511 36.4189 146.671 36.3943L146.595 35.9001C146.456 35.9215 146.229 35.9439 145.907 35.9669L145.943 36.4656ZM152.396 42.8429C152.674 42.1911 152.814 41.5188 152.814 40.8278H152.314C152.314 41.4494 152.188 42.0552 151.936 42.647L152.396 42.8429ZM152.814 40.8278C152.814 40.2795 152.716 39.7731 152.517 39.3123L152.058 39.5107C152.227 39.902 152.314 40.3398 152.314 40.8278H152.814ZM152.52 39.3197C152.33 38.838 152.024 38.4428 151.605 38.1385L151.311 38.5428C151.653 38.7912 151.9 39.1099 152.055 39.5033L152.52 39.3197ZM151.605 38.1385C151.324 37.9342 151.032 37.8143 150.733 37.8143V38.3143C150.894 38.3143 151.086 38.3787 151.311 38.5428L151.605 38.1385ZM150.733 37.8143C150.603 37.8143 150.459 37.846 150.308 37.8962L150.467 38.3706C150.592 38.3287 150.679 38.3143 150.733 38.3143V37.8143ZM150.286 38.3619C150.294 38.3655 150.297 38.3681 150.298 38.3682C150.298 38.3683 150.297 38.3679 150.296 38.367C150.296 38.3661 150.295 38.365 150.294 38.3636C150.292 38.3606 150.291 38.3586 150.292 38.3593C150.292 38.3603 150.293 38.3651 150.293 38.3752H150.793C150.793 38.2795 150.771 38.1813 150.714 38.0932C150.658 38.0048 150.577 37.9441 150.489 37.9049L150.286 38.3619ZM150.293 38.3752C150.293 38.3911 150.287 38.4322 150.25 38.5052L150.697 38.7288C150.753 38.6176 150.793 38.4974 150.793 38.3752H150.293ZM150.252 38.5012C149.978 39.0267 149.764 39.5981 149.61 40.2144L150.095 40.3357C150.24 39.7546 150.44 39.2206 150.695 38.7328L150.252 38.5012ZM149.61 40.2133C149.455 40.8205 149.378 41.4342 149.378 42.0541H149.878C149.878 41.4764 149.95 40.9041 150.094 40.3368L149.61 40.2133ZM149.378 42.0541C149.378 42.7703 149.485 43.4535 149.701 44.1021L150.176 43.944C149.977 43.349 149.878 42.7195 149.878 42.0541H149.378ZM149.706 44.1159C149.849 44.4728 150.003 44.7662 150.172 44.9867L150.569 44.6829C150.438 44.5119 150.304 44.2641 150.171 43.9302L149.706 44.1159ZM150.18 44.9975C150.264 45.0945 150.358 45.1772 150.466 45.2311L150.689 44.7839C150.659 44.7687 150.615 44.7363 150.56 44.6721L150.18 44.9975ZM150.719 45.2133C151.086 44.9605 151.407 44.6117 151.686 44.1749L151.265 43.9057C151.014 44.298 150.737 44.5939 150.436 44.8017L150.719 45.2133ZM151.684 44.179C151.969 43.751 152.207 43.3046 152.398 42.8398L151.935 42.65C151.757 43.0834 151.535 43.5005 151.268 43.9016L151.684 44.179ZM151.875 36.9275C152.395 37.0338 152.836 37.2604 153.204 37.6072L153.547 37.2434C153.109 36.8302 152.583 36.5617 151.975 36.4376L151.875 36.9275ZM153.204 37.6072C153.578 37.9602 153.863 38.3887 154.057 38.8964L154.524 38.7176C154.304 38.143 153.979 37.6503 153.547 37.2434L153.204 37.6072ZM154.058 38.8981C154.254 39.3984 154.352 39.9201 154.352 40.4651H154.852C154.852 39.8586 154.742 39.2749 154.524 38.7159L154.058 38.8981ZM154.352 40.4651C154.352 41.1114 154.226 41.7786 153.97 42.468L154.439 42.6419C154.713 41.9035 154.852 41.1775 154.852 40.4651H154.352ZM153.97 42.468C153.714 43.1585 153.363 43.7928 152.918 44.3715L153.315 44.6763C153.791 44.0575 154.165 43.3791 154.439 42.6419L153.97 42.468ZM152.918 44.3715C152.474 44.9494 151.983 45.3996 151.449 45.727L151.71 46.1534C152.303 45.7899 152.838 45.2959 153.315 44.6763L152.918 44.3715ZM151.449 45.7266C150.95 46.0305 150.476 46.1738 150.025 46.1738V46.6738C150.587 46.6738 151.149 46.4946 151.709 46.1537L151.449 45.7266ZM150.025 46.1738C149.574 46.1738 149.187 46.0371 148.853 45.764L148.537 46.1509C148.963 46.4996 149.462 46.6738 150.025 46.6738V46.1738ZM148.853 45.764C148.521 45.492 148.268 45.0907 148.106 44.5397L147.626 44.6808C147.809 45.3043 148.109 45.8011 148.537 46.1509L148.853 45.764ZM148.103 44.5326C147.917 43.9631 147.822 43.3164 147.822 42.5895H147.322C147.322 43.3595 147.423 44.0599 147.628 44.6879L148.103 44.5326ZM147.822 42.5895C147.822 42.1533 147.856 41.7291 147.923 41.3169L147.429 41.2368C147.358 41.6766 147.322 42.1276 147.322 42.5895H147.822ZM147.607 41.0365C147.561 41.0497 147.468 41.0614 147.313 41.0614V41.5614C147.48 41.5614 147.63 41.5501 147.745 41.5172L147.607 41.0365ZM147.313 41.0614C147.138 41.0614 147.05 41.0303 147.013 41.005C146.993 40.9915 146.976 40.9753 146.976 40.9141H146.476C146.476 41.1178 146.557 41.3002 146.733 41.4191C146.891 41.5263 147.097 41.5614 147.313 41.5614V41.0614ZM146.976 40.9141C146.976 40.8398 146.986 40.7998 146.993 40.7824L146.528 40.5968C146.489 40.6946 146.476 40.8042 146.476 40.9141H146.976ZM146.996 40.7738C147.376 39.7124 147.944 38.7935 148.701 38.014L148.343 37.6656C147.534 38.4981 146.928 39.479 146.525 40.6054L146.996 40.7738ZM148.701 38.014C149.455 37.2389 150.302 36.8635 151.251 36.8635V36.3635C150.151 36.3635 149.179 36.8056 148.343 37.6655L148.701 38.014ZM151.251 36.8635C151.381 36.8635 151.59 36.884 151.887 36.9297L151.963 36.4355C151.661 36.389 151.421 36.3635 151.251 36.3635V36.8635ZM158.86 40.4881C159.314 40.1277 159.684 39.8046 159.97 39.5192L159.616 39.1656C159.349 39.433 158.994 39.7431 158.549 40.0966L158.86 40.4881ZM159.966 39.5228C160.268 39.2331 160.504 38.9367 160.669 38.6324L160.229 38.3943C160.095 38.6428 159.894 38.899 159.62 39.1621L159.966 39.5228ZM160.512 38.2714C159.895 38.1115 158.978 37.8478 157.758 37.4795L157.614 37.9582C158.835 38.3269 159.76 38.5929 160.387 38.7554L160.512 38.2714ZM157.436 37.7127L157.35 41.2189L157.849 41.2312L157.936 37.725L157.436 37.7127ZM157.759 41.4171C158.1 41.1334 158.313 40.9514 158.381 40.8836L158.027 40.5301C157.98 40.5775 157.79 40.7409 157.439 41.033L157.759 41.4171ZM158.363 40.8995L158.864 40.485L158.545 40.0998L158.045 40.5143L158.363 40.8995ZM161.709 42.8222C161.763 42.7145 161.896 42.5904 162.17 42.4743L161.975 42.0138C161.651 42.151 161.392 42.3378 161.262 42.5986L161.709 42.8222ZM162.178 42.471C162.45 42.3451 162.703 42.2868 162.936 42.2868V41.7868C162.618 41.7868 162.294 41.8666 161.968 42.0171L162.178 42.471ZM162.936 42.2868C163.108 42.2868 163.194 42.3155 163.23 42.3384C163.244 42.3475 163.248 42.354 163.249 42.3568C163.251 42.3604 163.256 42.3721 163.256 42.3995H163.756C163.756 42.2007 163.671 42.0268 163.498 41.9165C163.344 41.8185 163.145 41.7868 162.936 41.7868V42.2868ZM163.256 42.3995C163.256 42.4288 163.249 42.4785 163.22 42.5535L163.689 42.7291C163.73 42.6198 163.756 42.5084 163.756 42.3995H163.256ZM163.225 42.5431C162.748 43.6602 162.386 44.7449 162.14 45.797L162.627 45.9106C162.865 44.8902 163.217 43.8332 163.684 42.7395L163.225 42.5431ZM162.141 45.7932C162.103 45.9451 161.986 46.1131 161.738 46.2889L162.027 46.6969C162.332 46.4811 162.549 46.2232 162.626 45.9144L162.141 45.7932ZM161.685 46.3404C161.604 46.4455 161.466 46.55 161.249 46.6431L161.446 47.1026C161.712 46.9884 161.932 46.8396 162.081 46.6453L161.685 46.3404ZM161.245 46.6449C161.044 46.7354 160.848 46.7783 160.657 46.7783V47.2783C160.925 47.2783 161.191 47.2176 161.45 47.1008L161.245 46.6449ZM160.657 46.7783C160.494 46.7783 160.383 46.7449 160.307 46.6965L160.039 47.1183C160.216 47.2311 160.427 47.2783 160.657 47.2783V46.7783ZM160.316 46.7026C160.277 46.6754 160.24 46.6272 160.232 46.5108L159.733 46.544C159.749 46.773 159.838 46.9782 160.03 47.1122L160.316 46.7026ZM160.232 46.5121C160.183 45.7153 159.919 44.9849 159.443 44.3257L159.038 44.6185C159.46 45.2028 159.69 45.8427 159.733 46.5428L160.232 46.5121ZM159.445 44.3282C158.976 43.6617 158.363 43.2219 157.612 43.0215L157.483 43.5046C158.114 43.6727 158.63 44.0389 159.036 44.616L159.445 44.3282ZM157.298 43.2545L157.211 45.7588L157.711 45.7761L157.797 43.2717L157.298 43.2545ZM157.212 45.7543C157.208 45.8298 157.137 45.9727 156.794 46.1498L157.023 46.5941C157.394 46.4028 157.692 46.1426 157.711 45.7806L157.212 45.7543ZM156.791 46.1514C156.474 46.3204 156.18 46.3983 155.907 46.3983V46.8983C156.278 46.8983 156.652 46.792 157.026 46.5926L156.791 46.1514ZM155.907 46.3983C155.758 46.3983 155.667 46.3731 155.614 46.3434L155.371 46.7805C155.525 46.866 155.71 46.8983 155.907 46.8983V46.3983ZM155.631 46.3539C155.605 46.3369 155.587 46.3164 155.587 46.2511H155.087C155.087 46.4621 155.172 46.6488 155.354 46.77L155.631 46.3539ZM155.587 46.2565L155.639 43.873L155.139 43.8621L155.087 46.2456L155.587 46.2565ZM155.531 43.662C155.425 43.5887 155.414 43.5359 155.414 43.5049H154.914C154.914 43.7502 155.053 43.9392 155.246 44.0731L155.531 43.662ZM155.414 43.5049C155.414 43.4425 155.445 43.3502 155.587 43.2275L155.259 42.8496C155.056 43.0263 154.914 43.2448 154.914 43.5049H155.414ZM155.673 43.0454C155.731 40.9507 155.8 38.8618 155.88 36.7786L155.381 36.7593C155.3 38.8443 155.231 40.9351 155.173 43.0317L155.673 43.0454ZM155.88 36.7808C155.886 36.6618 155.962 36.5177 156.236 36.3657L155.993 35.9286C155.645 36.122 155.398 36.3925 155.381 36.7571L155.88 36.7808ZM156.238 36.3642C156.529 36.1983 156.809 36.1208 157.081 36.1208V35.6208C156.709 35.6208 156.344 35.7276 155.99 35.9301L156.238 36.3642ZM157.081 36.1208C157.292 36.1208 157.379 36.1718 157.414 36.2108L157.785 35.8763C157.613 35.685 157.355 35.6208 157.081 35.6208V36.1208ZM157.533 36.2846C158.786 36.6293 160.084 37.0086 161.429 37.4224L161.576 36.9445C160.227 36.5293 158.923 36.1486 157.666 35.8025L157.533 36.2846ZM161.557 37.4275C161.766 37.381 161.885 37.3644 161.935 37.3644V36.8644C161.823 36.8644 161.654 36.8938 161.449 36.9394L161.557 37.4275ZM161.935 37.3644C162.094 37.3644 162.176 37.402 162.218 37.4394L162.55 37.0657C162.385 36.9189 162.167 36.8644 161.935 36.8644V37.3644ZM162.24 37.4574C162.273 37.4803 162.306 37.5203 162.306 37.6325H162.806C162.806 37.3993 162.725 37.186 162.527 37.0477L162.24 37.4574ZM162.306 37.6325C162.306 38.0449 162.172 38.4296 161.892 38.7925L162.288 39.0979C162.63 38.6548 162.806 38.1643 162.806 37.6325H162.306ZM161.894 38.7897C161.596 39.1653 161.176 39.5918 160.63 40.0697L160.959 40.446C161.519 39.9566 161.962 39.508 162.286 39.1006L161.894 38.7897ZM160.627 40.072L160.282 40.3829L160.617 40.7545L160.962 40.4436L160.627 40.072ZM160.274 40.3901C159.727 40.9263 159.198 41.3985 158.687 41.807L158.999 42.1975C159.525 41.777 160.066 41.2934 160.624 40.7473L160.274 40.3901ZM158.775 42.243C159.666 42.4929 160.379 42.9845 160.921 43.7221L161.324 43.4259C160.715 42.5975 159.908 42.0413 158.911 41.7615L158.775 42.243ZM161.355 43.6668C161.4 43.5547 161.52 43.2697 161.716 42.8082L161.255 42.6126C161.06 43.0722 160.938 43.3629 160.891 43.4811L161.355 43.6668Z" fill="#262626" mask="url(#path-6-outside-1_112_1274)"/>
</svg>
