<svg width="804" height="304" viewBox="0 0 804 304" fill="none" xmlns="http://www.w3.org/2000/svg">
<path d="M23.2718 268.343C26.1207 269.344 29.1796 269.595 32.1536 269.071C35.1276 268.548 37.9167 267.267 40.2519 265.352C46.1992 260.36 48.0642 252.138 49.581 244.524L54.0686 222L44.6735 228.469C37.9166 233.121 31.008 237.923 26.33 244.661C21.652 251.4 19.6112 260.599 23.3687 267.891" fill="#E6E6E6"/>
<path d="M24.7226 297.18C23.5401 288.565 22.3234 279.838 23.1549 271.13C23.8917 263.397 26.2511 255.845 31.0545 249.65C33.6041 246.369 36.7066 243.558 40.2223 241.343C41.1389 240.764 41.9827 242.217 41.07 242.793C34.9867 246.637 30.2813 252.314 27.6324 259.005C24.7069 266.446 24.2372 274.557 24.7411 282.461C25.0457 287.241 25.6929 291.99 26.3429 296.733C26.3943 296.947 26.3622 297.173 26.2533 297.365C26.1444 297.557 25.9667 297.7 25.7562 297.766C25.5414 297.823 25.3125 297.794 25.1191 297.684C24.9257 297.575 24.7835 297.393 24.7232 297.179L24.7226 297.18Z" fill="#F2F2F2"/>
<path d="M33.2339 283.357C34.4556 285.215 36.135 286.726 38.1105 287.746C40.0859 288.766 42.2908 289.26 44.5126 289.18C50.2236 288.909 54.9827 284.925 59.2666 281.141L71.9399 269.952L63.5526 269.55C57.5208 269.261 51.3333 268.99 45.5882 270.852C39.843 272.715 34.5447 277.189 33.4943 283.136" fill="#E6E6E6"/>
<path d="M21.38 302.133C27.0731 292.06 33.676 280.865 45.4754 277.287C48.7559 276.295 52.1957 275.94 55.6096 276.24C56.6857 276.333 56.4169 277.991 55.3431 277.899C49.6204 277.424 43.9088 278.935 39.1698 282.178C34.7147 285.41 30.9378 289.486 28.0535 294.174C26.2125 296.977 24.5636 299.899 22.9147 302.817C22.3878 303.75 20.847 303.077 21.38 302.133Z" fill="#F2F2F2"/>
<path d="M544.027 255.177C547.95 256.556 552.162 256.901 556.257 256.18C560.353 255.458 564.194 253.694 567.409 251.058C575.599 244.183 578.167 232.862 580.256 222.376L586.436 191.359L573.498 200.268C564.193 206.674 554.68 213.286 548.238 222.566C541.796 231.845 538.986 244.513 544.16 254.554" fill="#E6E6E6"/>
<path d="M546.024 294.886C544.396 283.022 542.721 271.005 543.866 259.014C544.88 248.365 548.129 237.965 554.744 229.435C558.255 224.916 562.527 221.045 567.369 217.994C568.631 217.198 569.793 219.198 568.536 219.991C560.159 225.286 553.679 233.103 550.031 242.317C546.003 252.563 545.356 263.733 546.05 274.617C546.469 281.2 547.361 287.739 548.256 294.27C548.326 294.565 548.282 294.876 548.132 295.141C547.982 295.405 547.738 295.602 547.448 295.692C547.152 295.772 546.837 295.732 546.571 295.581C546.304 295.429 546.108 295.179 546.025 294.884L546.024 294.886Z" fill="#F2F2F2"/>
<path d="M557.746 275.85C559.428 278.408 561.741 280.489 564.461 281.894C567.181 283.298 570.217 283.978 573.277 283.869C581.141 283.496 587.695 278.009 593.594 272.799L611.046 257.39L599.496 256.837C591.19 256.439 582.67 256.066 574.758 258.63C566.847 261.195 559.551 267.357 558.104 275.546" fill="#E6E6E6"/>
<path d="M541.422 301.705C549.261 287.834 558.354 272.417 574.602 267.49C579.12 266.124 583.857 265.635 588.558 266.049C590.04 266.177 589.67 268.46 588.191 268.333C580.31 267.679 572.445 269.76 565.919 274.225C559.639 278.5 554.75 284.443 550.611 290.744C548.076 294.605 545.806 298.629 543.535 302.647C542.81 303.932 540.688 303.004 541.422 301.705Z" fill="#F2F2F2"/>
<path d="M470.549 46.4554C469.722 46.0954 469.057 45.4439 468.679 44.625C468.302 43.8061 468.239 42.8769 468.502 42.0144C468.544 41.8822 468.571 41.7454 468.582 41.6069C468.606 41.2117 468.502 40.8193 468.285 40.4878C468.069 40.1562 467.752 39.9032 467.38 39.7662C467.009 39.6292 466.603 39.6155 466.223 39.727C465.843 39.8386 465.509 40.0696 465.271 40.3857C465.189 40.4978 465.121 40.6193 465.067 40.7475C464.707 41.5742 464.056 42.2397 463.237 42.6173C462.418 42.9948 461.489 43.058 460.626 42.795C460.494 42.7524 460.357 42.7256 460.219 42.7151C459.823 42.691 459.431 42.7949 459.1 43.0113C458.768 43.2277 458.515 43.5451 458.378 43.9165C458.241 44.288 458.227 44.6937 458.339 45.0735C458.45 45.4534 458.681 45.7872 458.997 46.0255C459.11 46.1075 459.231 46.1759 459.359 46.2294C460.186 46.5895 460.851 47.241 461.229 48.0599C461.607 48.8788 461.67 49.8079 461.407 50.6704C461.364 50.8026 461.337 50.9394 461.327 51.078C461.303 51.4731 461.407 51.8655 461.623 52.1971C461.839 52.5286 462.157 52.7816 462.528 52.9186C462.9 53.0556 463.305 53.0694 463.685 52.9578C464.065 52.8462 464.399 52.6152 464.637 52.2991C464.719 52.187 464.788 52.0655 464.841 51.9373C465.201 51.1106 465.853 50.4451 466.672 50.0676C467.491 49.69 468.42 49.6268 469.282 49.8898C469.414 49.9324 469.551 49.9592 469.69 49.9697C470.085 49.9938 470.477 49.89 470.809 49.6736C471.14 49.4572 471.393 49.1397 471.53 48.7683C471.667 48.3969 471.681 47.9912 471.57 47.6113C471.458 47.2315 471.227 46.8976 470.911 46.6593C470.799 46.5773 470.677 46.5089 470.549 46.4554Z" fill="#CBCBCB"/>
<path d="M540.549 209.455C539.722 209.095 539.057 208.444 538.679 207.625C538.302 206.806 538.239 205.877 538.502 205.014C538.544 204.882 538.571 204.745 538.582 204.607C538.606 204.212 538.502 203.819 538.285 203.488C538.069 203.156 537.752 202.903 537.38 202.766C537.009 202.629 536.603 202.615 536.223 202.727C535.843 202.839 535.509 203.07 535.271 203.386C535.189 203.498 535.121 203.619 535.067 203.747C534.707 204.574 534.056 205.24 533.237 205.617C532.418 205.995 531.489 206.058 530.626 205.795C530.494 205.752 530.357 205.726 530.219 205.715C529.823 205.691 529.431 205.795 529.1 206.011C528.768 206.228 528.515 206.545 528.378 206.917C528.241 207.288 528.227 207.694 528.339 208.074C528.45 208.453 528.681 208.787 528.997 209.026C529.11 209.107 529.231 209.176 529.359 209.229C530.186 209.589 530.851 210.241 531.229 211.06C531.607 211.879 531.67 212.808 531.407 213.67C531.364 213.803 531.337 213.939 531.327 214.078C531.303 214.473 531.407 214.866 531.623 215.197C531.839 215.529 532.157 215.782 532.528 215.919C532.9 216.056 533.305 216.069 533.685 215.958C534.065 215.846 534.399 215.615 534.637 215.299C534.719 215.187 534.788 215.066 534.841 214.937C535.201 214.111 535.853 213.445 536.672 213.068C537.491 212.69 538.42 212.627 539.282 212.89C539.414 212.932 539.551 212.959 539.69 212.97C540.085 212.994 540.477 212.89 540.809 212.674C541.14 212.457 541.393 212.14 541.53 211.768C541.667 211.397 541.681 210.991 541.57 210.611C541.458 210.231 541.227 209.898 540.911 209.659C540.799 209.577 540.677 209.509 540.549 209.455Z" fill="#F1F1F1"/>
<path d="M173.549 114.455C172.722 114.095 172.057 113.444 171.679 112.625C171.302 111.806 171.239 110.877 171.502 110.014C171.544 109.882 171.571 109.745 171.582 109.607C171.606 109.212 171.502 108.819 171.285 108.488C171.069 108.156 170.752 107.903 170.38 107.766C170.009 107.629 169.603 107.615 169.223 107.727C168.843 107.839 168.509 108.07 168.271 108.386C168.189 108.498 168.121 108.619 168.067 108.747C167.707 109.574 167.056 110.24 166.237 110.617C165.418 110.995 164.489 111.058 163.626 110.795C163.494 110.752 163.357 110.726 163.219 110.715C162.823 110.691 162.431 110.795 162.1 111.011C161.768 111.228 161.515 111.545 161.378 111.917C161.241 112.288 161.227 112.694 161.339 113.074C161.45 113.453 161.681 113.787 161.997 114.026C162.11 114.107 162.231 114.176 162.359 114.229C163.186 114.589 163.851 115.241 164.229 116.06C164.607 116.879 164.67 117.808 164.407 118.67C164.364 118.803 164.337 118.939 164.327 119.078C164.303 119.473 164.407 119.866 164.623 120.197C164.839 120.529 165.157 120.782 165.528 120.919C165.9 121.056 166.305 121.069 166.685 120.958C167.065 120.846 167.399 120.615 167.637 120.299C167.719 120.187 167.788 120.066 167.841 119.937C168.201 119.111 168.853 118.445 169.672 118.068C170.491 117.69 171.42 117.627 172.282 117.89C172.414 117.932 172.551 117.959 172.69 117.97C173.085 117.994 173.477 117.89 173.809 117.674C174.14 117.457 174.393 117.14 174.53 116.768C174.667 116.397 174.681 115.991 174.57 115.611C174.458 115.231 174.227 114.898 173.911 114.659C173.799 114.577 173.677 114.509 173.549 114.455Z" fill="#F1F1F1"/>
<path d="M326.654 56C329.968 56 332.654 53.3137 332.654 50C332.654 46.6863 329.968 44 326.654 44C323.34 44 320.654 46.6863 320.654 50C320.654 53.3137 323.34 56 326.654 56Z" fill="#F1F1F1"/>
<path d="M646.654 40C649.968 40 652.654 37.3137 652.654 34C652.654 30.6863 649.968 28 646.654 28C643.34 28 640.654 30.6863 640.654 34C640.654 37.3137 643.34 40 646.654 40Z" fill="#FD3373"/>
<path d="M180.654 12C183.968 12 186.654 9.31371 186.654 6C186.654 2.68629 183.968 0 180.654 0C177.34 0 174.654 2.68629 174.654 6C174.654 9.31371 177.34 12 180.654 12Z" fill="#CBCBCB"/>
<path d="M157.58 284.691C181.365 284.691 200.647 265.409 200.647 241.624C200.647 217.839 181.365 198.557 157.58 198.557C133.795 198.557 114.513 217.839 114.513 241.624C114.513 265.409 133.795 284.691 157.58 284.691Z" fill="#2F2E41"/>
<path d="M151.038 275.424H137.954V298.866H151.038V275.424Z" fill="#2F2E41"/>
<path d="M177.206 275.424H164.122V298.866H177.206V275.424Z" fill="#2F2E41"/>
<path d="M148.857 303.226C154.879 303.226 159.76 301.396 159.76 299.138C159.76 296.879 154.879 295.049 148.857 295.049C142.836 295.049 137.954 296.879 137.954 299.138C137.954 301.396 142.836 303.226 148.857 303.226Z" fill="#2F2E41"/>
<path d="M175.025 302.681C181.047 302.681 185.928 300.851 185.928 298.593C185.928 296.334 181.047 294.504 175.025 294.504C169.004 294.504 164.122 296.334 164.122 298.593C164.122 300.851 169.004 302.681 175.025 302.681Z" fill="#2F2E41"/>
<path d="M203.989 222.804C213.316 213.47 218.502 203.529 215.571 200.601C212.641 197.673 202.705 202.866 193.378 212.201C184.051 221.535 178.865 231.475 181.795 234.403C184.726 237.331 194.662 232.138 203.989 222.804Z" fill="#2F2E41"/>
<path d="M122.866 237.403C125.797 234.475 120.611 224.534 111.284 215.2C101.957 205.866 92.0207 200.673 89.0904 203.601C86.1601 206.529 91.3457 216.469 100.673 225.803C110 235.138 119.936 240.331 122.866 237.403Z" fill="#2F2E41"/>
<path d="M155.768 250.239C163.897 250.239 170.487 243.649 170.487 235.52C170.487 227.391 163.897 220.801 155.768 220.801C147.639 220.801 141.049 227.391 141.049 235.52C141.049 243.649 147.639 250.239 155.768 250.239Z" fill="white"/>
<path d="M155.768 240.426C158.478 240.426 160.674 238.229 160.674 235.52C160.674 232.81 158.478 230.613 155.768 230.613C153.058 230.613 150.861 232.81 150.861 235.52C150.861 238.229 153.058 240.426 155.768 240.426Z" fill="#3F3D56"/>
<path d="M167.453 262.743C167.907 265.241 167.351 267.817 165.907 269.904C164.462 271.992 162.247 273.42 159.749 273.875C157.252 274.33 154.676 273.774 152.588 272.329C150.5 270.884 149.072 268.67 148.617 266.172L148.614 266.153C147.672 260.951 151.694 259.11 156.897 258.169C162.099 257.227 166.511 257.541 167.453 262.743Z" fill="white"/>
<path d="M199.81 286.824C198.841 286.825 197.911 287.211 197.226 287.896C196.54 288.582 196.155 289.511 196.154 290.481V298.118C196.155 299.087 196.54 300.017 197.226 300.702C197.911 301.388 198.841 301.773 199.81 301.774H258.64C259.609 301.773 260.539 301.388 261.224 300.702C261.91 300.017 262.295 299.087 262.296 298.118V290.481C262.295 289.511 261.91 288.582 261.224 287.896C260.539 287.211 259.609 286.825 258.64 286.824H199.81Z" fill="#E5E5E5"/>
<path d="M233.642 281.737C233.278 281.527 232.845 281.47 232.439 281.578C232.033 281.687 231.687 281.953 231.476 282.317L229.29 286.104L227.148 281.87C226.958 281.494 226.627 281.21 226.227 281.079C225.828 280.948 225.392 280.981 225.017 281.171C224.642 281.361 224.358 281.692 224.226 282.091C224.095 282.491 224.128 282.926 224.318 283.301L225.985 286.597H225.374V302H233.529V286.597H232.667L234.223 283.903C234.433 283.539 234.49 283.106 234.381 282.7C234.272 282.293 234.006 281.947 233.642 281.737Z" fill="#FD3373"/>
<path d="M156.471 213.375C148.819 213.367 141.212 212.205 133.906 209.928C133.398 209.764 132.956 209.444 132.641 209.013C132.326 208.583 132.156 208.064 132.154 207.53V190C132.155 189.337 132.418 188.702 132.887 188.233C133.356 187.764 133.991 187.501 134.654 187.5H178.654C179.317 187.501 179.952 187.764 180.421 188.233C180.889 188.702 181.153 189.337 181.154 190V207.52C181.154 208.058 180.981 208.582 180.661 209.014C180.341 209.446 179.89 209.763 179.375 209.919C171.951 212.188 164.234 213.352 156.471 213.375Z" fill="#FD3373"/>
<path opacity="0.2" d="M180.654 190V192.93L156.844 201.28C156.399 201.434 155.914 201.426 155.474 201.26L132.654 192.69V190C132.655 189.47 132.867 188.962 133.241 188.587C133.616 188.213 134.124 188.002 134.654 188H178.654C179.184 188.002 179.692 188.213 180.066 188.587C180.441 188.962 180.652 189.47 180.654 190Z" fill="black"/>
<path d="M156.178 197.891C155.877 197.891 155.58 197.837 155.299 197.732L121.198 184.927C120.716 184.746 120.301 184.421 120.011 183.995C119.721 183.57 119.569 183.065 119.577 182.55C119.585 182.035 119.751 181.535 120.054 181.118C120.356 180.701 120.78 180.388 121.267 180.221L153.353 169.245C153.871 169.069 154.433 169.067 154.952 169.238L190.762 181.175C191.257 181.34 191.688 181.655 191.994 182.077C192.301 182.499 192.468 183.006 192.472 183.527C192.476 184.049 192.317 184.558 192.017 184.985C191.717 185.411 191.291 185.733 190.799 185.906L157.004 197.751C156.738 197.844 156.459 197.891 156.178 197.891Z" fill="#FD3373"/>
<path d="M125.154 197H124.154V182.5H154.654V183.5H125.154V197Z" fill="#3F3D56"/>
<path d="M124.654 200C125.758 200 126.654 199.105 126.654 198C126.654 196.895 125.758 196 124.654 196C123.549 196 122.654 196.895 122.654 198C122.654 199.105 123.549 200 124.654 200Z" fill="#3F3D56"/>
<path d="M406.58 284.691C430.365 284.691 449.647 265.409 449.647 241.624C449.647 217.839 430.365 198.557 406.58 198.557C382.795 198.557 363.513 217.839 363.513 241.624C363.513 265.409 382.795 284.691 406.58 284.691Z" fill="#2F2E41"/>
<path d="M400.038 275.424H386.954V298.866H400.038V275.424Z" fill="#2F2E41"/>
<path d="M426.206 275.424H413.122V298.866H426.206V275.424Z" fill="#2F2E41"/>
<path d="M397.857 303.226C403.879 303.226 408.76 301.396 408.76 299.138C408.76 296.879 403.879 295.049 397.857 295.049C391.836 295.049 386.954 296.879 386.954 299.138C386.954 301.396 391.836 303.226 397.857 303.226Z" fill="#2F2E41"/>
<path d="M424.025 302.681C430.047 302.681 434.928 300.851 434.928 298.593C434.928 296.334 430.047 294.504 424.025 294.504C418.004 294.504 413.122 296.334 413.122 298.593C413.122 300.851 418.004 302.681 424.025 302.681Z" fill="#2F2E41"/>
<path d="M452.989 222.804C462.316 213.47 467.502 203.529 464.571 200.601C461.641 197.673 451.705 202.866 442.378 212.201C433.051 221.535 427.865 231.475 430.795 234.403C433.726 237.331 443.662 232.138 452.989 222.804Z" fill="#2F2E41"/>
<path d="M368.139 262.78C375.665 251.942 379.008 241.24 375.606 238.877C372.203 236.514 363.344 243.386 355.818 254.224C348.292 265.063 344.949 275.765 348.351 278.128C351.754 280.49 360.613 273.619 368.139 262.78Z" fill="#2F2E41"/>
<path d="M404.768 250.239C412.897 250.239 419.487 243.649 419.487 235.52C419.487 227.391 412.897 220.801 404.768 220.801C396.639 220.801 390.049 227.391 390.049 235.52C390.049 243.649 396.639 250.239 404.768 250.239Z" fill="white"/>
<path d="M409.768 235.426C412.478 235.426 414.674 233.229 414.674 230.52C414.674 227.81 412.478 225.613 409.768 225.613C407.058 225.613 404.861 227.81 404.861 230.52C404.861 233.229 407.058 235.426 409.768 235.426Z" fill="#3F3D56"/>
<path d="M422.415 262.743C423.859 267.944 418.6 272.928 410.668 273.875C402.736 274.822 395.135 271.373 393.691 266.172L393.686 266.153C392.25 260.951 398.384 259.11 406.317 258.169C414.251 257.227 420.979 257.541 422.415 262.743Z" fill="white"/>
<path d="M391.511 216.277C384.408 219.124 376.917 220.884 369.289 221.496C368.757 221.534 368.227 221.402 367.774 221.12C367.321 220.838 366.97 220.42 366.769 219.926L360.229 203.661C359.982 203.046 359.99 202.358 360.25 201.748C360.51 201.139 361.001 200.657 361.616 200.409L402.439 183.994C403.054 183.748 403.742 183.755 404.352 184.015C404.962 184.275 405.443 184.766 405.691 185.381L412.227 201.636C412.428 202.135 412.463 202.685 412.327 203.206C412.191 203.726 411.892 204.189 411.472 204.526C405.43 209.4 398.705 213.359 391.511 216.277Z" fill="#FD3373"/>
<path opacity="0.2" d="M405.228 185.567L406.321 188.285L387.345 204.915C386.989 205.223 386.537 205.398 386.066 205.408L361.696 205.97L360.693 203.474C360.497 202.981 360.503 202.432 360.711 201.944C360.919 201.457 361.311 201.071 361.802 200.872L402.626 184.457C403.118 184.261 403.668 184.267 404.156 184.475C404.643 184.683 405.028 185.075 405.228 185.567Z" fill="black"/>
<path d="M385.462 202.02C385.184 202.132 384.888 202.193 384.588 202.2L348.172 203.042C347.657 203.054 347.151 202.906 346.723 202.62C346.295 202.333 345.966 201.921 345.781 201.441C345.596 200.96 345.564 200.434 345.689 199.934C345.814 199.435 346.091 198.986 346.48 198.65L372.155 176.495C372.57 176.139 373.09 175.928 373.636 175.892L411.314 173.608C411.835 173.577 412.352 173.709 412.794 173.986C413.235 174.263 413.579 174.671 413.778 175.153C413.976 175.635 414.018 176.168 413.899 176.675C413.78 177.183 413.505 177.64 413.113 177.984L386.177 201.581C385.965 201.767 385.723 201.915 385.462 202.02Z" fill="#FD3373"/>
<path d="M356.346 212.768L355.418 213.141L350.009 199.688L378.307 188.309L378.68 189.237L351.309 200.243L356.346 212.768Z" fill="#3F3D56"/>
<path d="M356.255 215.881C357.359 215.881 358.255 214.985 358.255 213.881C358.255 212.776 357.359 211.881 356.255 211.881C355.15 211.881 354.255 212.776 354.255 213.881C354.255 214.985 355.15 215.881 356.255 215.881Z" fill="#3F3D56"/>
<path d="M570.537 139.87C564.046 135.818 558.202 130.811 553.204 125.017C552.86 124.609 552.653 124.103 552.613 123.572C552.574 123.04 552.703 122.509 552.984 122.055L562.249 107.174C562.6 106.611 563.16 106.211 563.805 106.061C564.451 105.911 565.13 106.023 565.693 106.373L603.045 129.629C603.607 129.98 604.007 130.539 604.157 131.185C604.307 131.83 604.195 132.509 603.846 133.072L594.586 147.945C594.301 148.402 593.878 148.755 593.378 148.953C592.877 149.15 592.327 149.181 591.807 149.042C584.306 147.044 577.14 143.953 570.537 139.87Z" fill="#FD3373"/>
<path opacity="0.2" d="M603.421 132.807L601.873 135.294L577.247 129.798C576.788 129.693 576.38 129.431 576.094 129.057L561.252 109.72L562.674 107.437C562.955 106.988 563.403 106.668 563.919 106.548C564.435 106.428 564.978 106.517 565.429 106.796L602.781 130.052C603.23 130.333 603.549 130.781 603.669 131.297C603.789 131.814 603.7 132.356 603.421 132.807Z" fill="black"/>
<path d="M578.472 126.57C578.217 126.412 577.993 126.209 577.81 125.971L555.629 97.0771C555.316 96.6686 555.136 96.1732 555.114 95.6586C555.093 95.144 555.231 94.6353 555.51 94.2022C555.788 93.769 556.194 93.4325 556.671 93.2386C557.148 93.0447 557.674 93.0029 558.176 93.1189L591.215 100.759C591.748 100.884 592.225 101.179 592.576 101.599L616.666 130.66C616.999 131.061 617.198 131.557 617.235 132.077C617.272 132.597 617.146 133.115 616.874 133.56C616.602 134.005 616.197 134.353 615.717 134.557C615.237 134.76 614.706 134.809 614.197 134.695L579.248 126.888C578.973 126.827 578.711 126.719 578.472 126.57Z" fill="#FD3373"/>
<path d="M552.607 109.416L551.758 108.887L559.422 96.5781L585.314 112.699L584.785 113.547L559.742 97.9551L552.607 109.416Z" fill="#3F3D56"/>
<path d="M551.654 112C552.759 112 553.654 111.105 553.654 110C553.654 108.895 552.759 108 551.654 108C550.55 108 549.654 108.895 549.654 110C549.654 111.105 550.55 112 551.654 112Z" fill="#3F3D56"/>
<path d="M674.727 235.691C698.513 235.691 717.795 216.409 717.795 192.624C717.795 168.839 698.513 149.557 674.727 149.557C650.942 149.557 631.66 168.839 631.66 192.624C631.66 216.409 650.942 235.691 674.727 235.691Z" fill="#2F2E41"/>
<path d="M704.584 214.955L693.42 221.777L705.645 241.779L716.809 234.957L704.584 214.955Z" fill="#2F2E41"/>
<path d="M682.256 228.599L671.092 235.422L683.317 255.424L694.48 248.601L682.256 228.599Z" fill="#2F2E41"/>
<path d="M709.779 244.364C714.918 241.224 718.128 237.116 716.951 235.19C715.773 233.263 710.653 234.246 705.515 237.387C700.377 240.527 697.167 244.634 698.344 246.561C699.522 248.488 704.641 247.504 709.779 244.364Z" fill="#2F2E41"/>
<path d="M687.167 257.544C692.305 254.404 695.516 250.296 694.338 248.369C693.161 246.443 688.041 247.426 682.903 250.566C677.765 253.706 674.554 257.814 675.732 259.741C676.909 261.667 682.029 260.684 687.167 257.544Z" fill="#2F2E41"/>
<path d="M650.512 185.403C653.442 182.475 648.257 172.534 638.93 163.2C629.603 153.866 619.666 148.673 616.736 151.601C613.806 154.529 618.991 164.469 628.318 173.803C637.645 183.138 647.582 188.331 650.512 185.403Z" fill="#2F2E41"/>
<path d="M732.956 229.127C736.359 226.764 733.016 216.062 725.49 205.224C717.964 194.385 709.105 187.514 705.702 189.876C702.299 192.239 705.642 202.941 713.168 213.78C720.694 224.618 729.554 231.49 732.956 229.127Z" fill="#2F2E41"/>
<path d="M661.54 195.239C669.669 195.239 676.259 188.649 676.259 180.52C676.259 172.391 669.669 165.801 661.54 165.801C653.41 165.801 646.82 172.391 646.82 180.52C646.82 188.649 653.41 195.239 661.54 195.239Z" fill="white"/>
<path d="M656.54 180.426C659.249 180.426 661.446 178.229 661.446 175.52C661.446 172.81 659.249 170.613 656.54 170.613C653.83 170.613 651.633 172.81 651.633 175.52C651.633 178.229 653.83 180.426 656.54 180.426Z" fill="#3F3D56"/>
<path d="M642.585 205.074C639.794 209.647 643.513 215.834 650.892 218.892C658.27 221.951 666.515 220.723 669.306 216.15L669.316 216.134C672.1 211.558 666.692 208.134 659.311 205.08C651.93 202.026 645.369 200.498 642.585 205.074Z" fill="white"/>
<path d="M660.277 138.548C664.123 123.061 681.098 113.947 698.192 118.192C715.286 122.436 726.026 138.432 722.18 153.919C718.335 169.406 705.577 169.456 688.482 165.211C671.388 160.967 656.431 154.035 660.277 138.548Z" fill="#E6E6E6"/>
<path d="M810 304H1C0.734784 304 0.480429 303.895 0.292892 303.707C0.105356 303.52 0 303.265 0 303C0 302.735 0.105356 302.48 0.292892 302.293C0.480429 302.105 0.734784 302 1 302H810C810.265 302 810.52 302.105 810.707 302.293C810.895 302.48 811 302.735 811 303C811 303.265 810.895 303.52 810.707 303.707C810.52 303.895 810.265 304 810 304Z" fill="#CBCBCB"/>
</svg>
