<svg width="795" height="500" viewBox="0 0 795 500" fill="none" xmlns="http://www.w3.org/2000/svg">
<g clip-path="url(#clip0)">
<path d="M313.553 399.052H3.19589C2.34858 399.051 1.53623 398.714 0.937088 398.115C0.337946 397.516 0.000939629 396.703 0 395.856V93.3111C0.000939629 92.4638 0.337946 91.6515 0.937088 91.0523C1.53623 90.4532 2.34858 90.1162 3.19589 90.1152H313.553C314.4 90.1162 315.213 90.4532 315.812 91.0523C316.411 91.6515 316.748 92.4638 316.749 93.3111V395.856C316.748 396.703 316.411 397.516 315.812 398.115C315.213 398.714 314.4 399.051 313.553 399.052Z" fill="#F0F0F0"/>
<path d="M279.818 117.812H36.9303C36.0831 117.814 35.2709 118.151 34.6718 118.75C34.0728 119.349 33.7356 120.161 33.7344 121.008V309.211C33.7357 310.058 34.0728 310.87 34.6719 311.47C35.2709 312.069 36.0831 312.406 36.9303 312.407H279.818C280.666 312.406 281.478 312.069 282.077 311.47C282.676 310.87 283.013 310.058 283.014 309.211V121.008C283.013 120.161 282.676 119.349 282.077 118.75C281.478 118.151 280.666 117.814 279.818 117.812Z" fill="white"/>
<path d="M265.97 349.338H50.7794C50.3087 349.337 49.8574 349.15 49.5246 348.817C49.1917 348.484 49.0045 348.033 49.0039 347.562V337.619C49.0045 337.148 49.1917 336.697 49.5246 336.364C49.8574 336.032 50.3087 335.844 50.7794 335.844H265.97C266.44 335.844 266.892 336.032 267.225 336.364C267.557 336.697 267.745 337.148 267.745 337.619V347.562C267.745 348.033 267.557 348.484 267.225 348.817C266.892 349.15 266.44 349.337 265.97 349.338Z" fill="white"/>
<path d="M191.399 373.484H50.7794C50.3087 373.483 49.8574 373.296 49.5246 372.963C49.1917 372.631 49.0045 372.179 49.0039 371.709V361.766C49.0045 361.295 49.1917 360.844 49.5246 360.511C49.8574 360.178 50.3087 359.991 50.7794 359.99H191.399C191.87 359.991 192.321 360.178 192.654 360.511C192.987 360.844 193.174 361.295 193.174 361.766V371.709C193.174 372.179 192.987 372.631 192.654 372.963C192.321 373.296 191.87 373.483 191.399 373.484Z" fill="white"/>
<path d="M152.374 245.342C169.43 245.342 183.256 231.516 183.256 214.46C183.256 197.405 169.43 183.578 152.374 183.578C135.318 183.578 121.492 197.405 121.492 214.46C121.492 231.516 135.318 245.342 152.374 245.342Z" fill="#FFB8B8"/>
<path d="M197.556 312.408H129.086L131.323 262.069L131.856 261.508L139.54 253.391H163.992L173.054 262.169L173.786 262.879L193.082 281.373L197.556 312.408Z" fill="#FD3373"/>
<path d="M140.861 312.407H89.0591C88.9314 301.044 88.8604 294.24 88.8604 294.24L91.8572 292.415C91.8609 292.411 91.866 292.408 91.8714 292.408H91.8787L124.889 272.366L131.82 261.109L131.856 261.507L133.894 285.235C133.894 285.235 137.26 296.115 140.861 312.407Z" fill="#2F2E41"/>
<path d="M227.924 312.407H173.054C173.885 279.269 169.411 261.109 171.712 261.109L173.054 262.168L189.225 274.937L210.539 282.756H210.553L225.247 288.147L227.825 289.091V290.306C227.832 293.217 227.846 301.179 227.924 312.407Z" fill="#2F2E41"/>
<path d="M123.158 224.122C123.158 224.122 125.782 219.514 125.172 204.121C124.562 188.727 148.002 197.434 167.589 195.965C187.176 194.497 183.03 221.665 183.03 221.665C183.03 221.665 184.443 220.05 187.468 206.938C190.494 193.826 183.624 180.759 183.624 180.759C181.601 166.98 170.698 171.396 170.698 171.396C175.949 173.441 174.941 177.811 174.941 177.811C170.496 170.019 159.593 174.435 159.593 174.435C145.051 165.309 130.313 177.326 130.313 177.326C112.746 181.313 123.049 195.283 123.049 195.283C105.382 204.211 123.158 224.122 123.158 224.122Z" fill="#2F2E41"/>
<path d="M95.9764 312.407H74.6916C74.8576 309.785 74.8623 307.155 74.7058 304.531C73.4345 299.468 91.3175 292.621 91.857 292.415C91.8608 292.411 91.8658 292.409 91.8713 292.408H91.8785L95.2874 294.241L95.9764 312.407Z" fill="#2F2E41"/>
<path d="M231.766 312.407H209.409L206.618 284.851L209.75 282.564C209.75 282.564 210.034 282.628 210.538 282.756H210.553C213.06 283.374 220.815 285.419 225.247 288.147C226.233 288.7 227.107 289.432 227.825 290.306C228.264 290.833 228.483 291.51 228.435 292.195C228.322 293.225 229.629 300.81 231.766 312.407Z" fill="#2F2E41"/>
<path d="M791.393 308.937H481.036C480.188 308.936 479.376 308.599 478.777 307.999C478.178 307.4 477.841 306.588 477.84 305.741V3.19589C477.841 2.34858 478.178 1.53625 478.777 0.937103C479.376 0.33796 480.188 0.00094228 481.036 0H791.393C792.24 0.00092643 793.052 0.337926 793.652 0.937073C794.251 1.53622 794.588 2.34857 794.589 3.19589V305.741C794.588 306.588 794.251 307.4 793.652 307.999C793.052 308.599 792.24 308.936 791.393 308.937Z" fill="#F0F0F0"/>
<path d="M757.659 27.6992H514.771C513.923 27.7005 513.111 28.0376 512.512 28.6367C511.913 29.2358 511.576 30.0479 511.575 30.8951V219.098C511.576 219.945 511.913 220.757 512.512 221.356C513.111 221.955 513.923 222.292 514.771 222.294H757.659C758.506 222.292 759.318 221.955 759.917 221.356C760.516 220.757 760.853 219.945 760.855 219.098V30.8951C760.853 30.0479 760.516 29.2358 759.917 28.6367C759.318 28.0376 758.506 27.7005 757.659 27.6992Z" fill="white"/>
<path d="M743.81 259.222H528.619C528.149 259.222 527.697 259.035 527.364 258.702C527.032 258.369 526.844 257.918 526.844 257.447V247.504C526.844 247.033 527.032 246.582 527.364 246.249C527.697 245.916 528.149 245.729 528.619 245.729H743.81C744.28 245.729 744.732 245.916 745.064 246.249C745.397 246.582 745.585 247.033 745.585 247.504V257.447C745.585 257.918 745.397 258.369 745.064 258.702C744.732 259.035 744.28 259.222 743.81 259.222Z" fill="white"/>
<path d="M669.239 283.369H528.619C528.149 283.368 527.697 283.181 527.364 282.848C527.032 282.515 526.844 282.064 526.844 281.593V271.651C526.844 271.18 527.032 270.728 527.364 270.396C527.697 270.063 528.149 269.876 528.619 269.875H669.239C669.709 269.876 670.161 270.063 670.494 270.396C670.826 270.728 671.014 271.18 671.014 271.651V281.593C671.014 282.064 670.826 282.515 670.494 282.848C670.161 283.181 669.709 283.368 669.239 283.369Z" fill="white"/>
<path d="M695.999 222.293C697.37 217.358 698.435 213.103 698.982 210.092C699.151 209.164 699.168 208.214 699.032 207.28C696.986 192.728 660.042 180.427 655.305 178.907L654.161 166.237L607.657 161.23L601.77 177.437L585.08 183.694C584.476 183.917 583.901 184.213 583.369 184.575C581.969 185.52 580.892 186.872 580.284 188.447C579.675 190.023 579.565 191.748 579.967 193.388L587.076 222.293H695.999V222.293Z" fill="#FD3373"/>
<path d="M599.596 222.293H563.511C564.804 214.24 565.962 207.116 566.714 202.585C569.47 186.095 581.486 184.688 583.368 184.575C583.518 184.561 583.61 184.561 583.617 184.561H591.209L599.596 222.293Z" fill="#FD3373"/>
<path d="M695.999 222.293H704.749C703.975 215.183 701.517 210.397 699.032 207.279C697.372 205.087 695.232 203.306 692.775 202.073L692.114 201.789L684.423 222.293H695.999Z" fill="#FD3373"/>
<path d="M629.092 153.211C647.585 153.211 662.576 138.22 662.576 119.728C662.576 101.235 647.585 86.2441 629.092 86.2441C610.6 86.2441 595.609 101.235 595.609 119.728C595.609 138.22 610.6 153.211 629.092 153.211Z" fill="#A0616A"/>
<path d="M606.618 103.414C610.084 107.516 615.949 108.673 621.361 109.143C632.35 110.107 648.329 108.544 659.069 106.065C659.84 113.493 657.746 121.504 662.121 127.616C664.172 120.217 665.364 112.607 665.675 104.935C665.807 101.645 665.756 98.2418 664.419 95.2217C663.082 92.2016 660.166 89.6376 656.809 89.6112C659.303 87.7192 662.225 86.4705 665.317 85.9752L654.685 80.6324L657.416 77.8293L638.168 76.6515L643.743 73.1102C635.349 71.9576 626.857 71.6906 618.408 72.3136C614.485 72.6023 610.384 73.1543 607.206 75.4274C604.029 77.7005 602.192 82.2169 604.165 85.5532C601.695 85.9589 599.37 86.9884 597.409 88.5442C595.448 90.1001 593.917 92.1307 592.961 94.4439C591.544 98.0359 591.674 102.026 592.11 105.853C592.835 111.975 594.258 117.994 596.35 123.792" fill="#2F2E41"/>
<path d="M558.378 499.429H248.021C247.173 499.428 246.361 499.091 245.762 498.492C245.163 497.893 244.826 497.08 244.825 496.233V193.688C244.826 192.841 245.163 192.028 245.762 191.429C246.361 190.83 247.173 190.493 248.021 190.492H558.378C559.225 190.493 560.037 190.83 560.636 191.429C561.236 192.028 561.573 192.841 561.574 193.688V496.233C561.573 497.08 561.236 497.893 560.636 498.492C560.037 499.091 559.225 499.428 558.378 499.429Z" fill="#E4E4E4"/>
<path d="M524.644 218.191H281.755C280.908 218.193 280.096 218.53 279.497 219.129C278.898 219.728 278.561 220.54 278.56 221.387V409.59C278.561 410.437 278.898 411.249 279.497 411.848C280.096 412.448 280.908 412.785 281.755 412.786H524.644C525.491 412.785 526.303 412.448 526.902 411.848C527.501 411.249 527.838 410.437 527.839 409.59V221.387C527.838 220.54 527.501 219.728 526.902 219.129C526.303 218.53 525.491 218.193 524.644 218.191Z" fill="white"/>
<path d="M510.794 449.714H295.604C295.133 449.714 294.682 449.527 294.349 449.194C294.016 448.861 293.829 448.41 293.829 447.939V437.996C293.829 437.525 294.016 437.074 294.349 436.741C294.682 436.408 295.133 436.221 295.604 436.221H510.794C511.265 436.221 511.716 436.408 512.049 436.741C512.382 437.074 512.569 437.525 512.57 437.996V447.939C512.569 448.41 512.382 448.861 512.049 449.194C511.716 449.527 511.265 449.714 510.794 449.714Z" fill="white"/>
<path d="M436.224 473.863H295.604C295.133 473.862 294.682 473.675 294.349 473.342C294.016 473.009 293.829 472.558 293.829 472.087V462.145C293.829 461.674 294.016 461.223 294.349 460.89C294.682 460.557 295.133 460.37 295.604 460.369H436.224C436.694 460.37 437.146 460.557 437.478 460.89C437.811 461.223 437.998 461.674 437.999 462.145V472.087C437.998 472.558 437.811 473.009 437.478 473.342C437.146 473.675 436.694 473.862 436.224 473.863Z" fill="white"/>
<path d="M427.098 412.785H378.215L381.261 367.063L398.896 371.132L416.047 364.534L416.502 364.364L416.53 364.35C416.536 364.363 416.541 364.378 416.544 364.392C416.814 365.479 422.197 387.033 427.098 412.785Z" fill="#FD3373"/>
<path d="M456.557 374.527L451.99 412.785H410.792L416.047 364.535L416.097 364.066L416.502 364.364L416.544 364.392L426.707 371.807L456.557 374.527Z" fill="#2F2E41"/>
<path d="M385.445 412.785H348.55L348.017 382.666L375.168 373.66L381.261 367.062C381.261 367.062 383.186 386.913 385.445 412.785Z" fill="#2F2E41"/>
<path d="M474.319 412.786H443.745L445.705 385.379L456.557 374.527C456.557 374.527 465.143 392.538 474.319 412.786Z" fill="#2F2E41"/>
<path d="M357.25 412.786H341.121C341.192 404.007 341.235 397.942 341.235 396.231C341.154 393.585 341.731 390.961 342.915 388.593C344.099 386.225 345.852 384.189 348.017 382.666L356.163 385.379L357.25 412.786Z" fill="#2F2E41"/>
<path d="M354.733 319.997C354.758 312.56 356.713 305.256 360.407 298.801C364.101 292.346 369.407 286.961 375.807 283.171C389.402 275.145 405.806 275.29 420.81 283.568C431.5 289.467 440.197 304.309 440.197 316.654V352.674H354.733V319.997Z" fill="#2F2E41"/>
<path d="M410.579 348.004C425.539 339.827 431.036 321.071 422.859 306.112C414.681 291.152 395.926 285.655 380.966 293.832C366.007 302.01 360.509 320.765 368.687 335.725C376.864 350.684 395.62 356.182 410.579 348.004Z" fill="#FFD4A0"/>
<path d="M363.582 321.211C363.348 320.941 362.801 320.308 366.608 291.01L366.729 290.531H367.073C386.374 281.036 405.955 280.797 425.278 289.818C425.873 290.1 426.384 290.532 426.762 291.071C427.14 291.611 427.371 292.239 427.433 292.894C429.688 320.421 429.143 321.021 428.911 321.278C428.557 321.666 428.126 321.976 427.645 322.189C427.165 322.401 426.645 322.511 426.12 322.512H417.559L417.379 322.188C415.909 319.457 414.297 316.804 412.548 314.242C411.743 316.793 411.085 319.387 410.575 322.012L410.471 322.512H366.432C365.891 322.512 365.357 322.396 364.866 322.171C364.374 321.947 363.936 321.619 363.582 321.211Z" fill="#2F2E41"/>
</g>
<defs>
<clipPath id="clip0">
<rect width="794.589" height="499.429" fill="white"/>
</clipPath>
</defs>
</svg>
