<svg width="60" height="60" viewBox="0 0 60 60" fill="none" xmlns="http://www.w3.org/2000/svg">
<circle cx="30" cy="30.0002" r="30" fill="#FD98B8"/>
<path d="M42.7751 38.0185C42.3136 39.0943 41.7434 40.1202 41.0734 41.0801C40.1784 42.3585 39.4434 43.2418 38.8801 43.7335C38.0051 44.5368 37.0651 44.9501 36.0601 44.9735C35.3401 44.9735 34.4701 44.7685 33.4567 44.3518C32.4401 43.9368 31.5067 43.7335 30.6517 43.7335C29.7567 43.7335 28.7967 43.9368 27.7684 44.3518C26.7417 44.7685 25.9117 44.9868 25.2767 45.0068C24.3151 45.0485 23.3534 44.6251 22.3951 43.7335C21.7834 43.2001 21.0184 42.2835 20.1001 40.9868C19.1167 39.6051 18.3084 37.9968 17.6751 36.1685C16.9967 34.1901 16.6567 32.2768 16.6567 30.4235C16.6567 28.3018 17.1151 26.4701 18.0334 24.9368C18.728 23.7326 19.721 22.7275 20.9167 22.0185C22.0959 21.3112 23.4419 20.9304 24.8167 20.9151C25.5834 20.9151 26.5884 21.1518 27.8334 21.6185C29.0784 22.0851 29.8784 22.3218 30.2267 22.3218C30.4901 22.3218 31.3751 22.0435 32.8817 21.4918C34.3034 20.9801 35.5034 20.7685 36.4867 20.8518C39.1534 21.0668 41.1551 22.1168 42.4867 24.0101C40.1034 25.4551 38.9251 27.4768 38.9484 30.0718C38.9684 32.0935 39.7034 33.7751 41.1434 35.1101C41.78 35.7193 42.5228 36.2068 43.3351 36.5485C43.1584 37.0601 42.9717 37.5485 42.7751 38.0185ZM36.6634 13.9668C36.6634 15.5501 36.0834 17.0301 34.9317 18.3985C33.5384 20.0251 31.8551 20.9668 30.0301 20.8185C30.0062 20.6194 29.9945 20.419 29.9951 20.2185C29.9951 18.6968 30.6551 17.0701 31.8334 15.7385C32.4201 15.0651 33.1667 14.5035 34.0717 14.0568C34.9751 13.6168 35.8284 13.3735 36.6317 13.3318C36.6534 13.5451 36.6634 13.7568 36.6634 13.9668Z" fill="#FAFAFA"/>
</svg>
