<svg width="566" height="414" viewBox="0 0 566 414" fill="none" xmlns="http://www.w3.org/2000/svg">
<g clip-path="url(#clip0)">
<path d="M344.254 195.911C342.498 195.908 340.808 195.238 339.528 194.037C338.247 192.835 337.471 191.191 337.356 189.438L336.328 173.745C336.208 171.912 336.821 170.107 338.032 168.726C339.243 167.345 340.952 166.501 342.784 166.381L465.689 158.33C469.6 158.076 473.451 159.387 476.397 161.973C479.342 164.559 481.141 168.209 481.397 172.122C481.653 176.034 480.346 179.887 477.762 182.836C475.179 185.784 471.532 187.586 467.621 187.845L344.717 195.896C344.562 195.906 344.408 195.911 344.254 195.911Z" fill="#FD3373"/>
<path d="M368.489 197.935C366.698 197.932 364.979 197.236 363.689 195.993C362.4 194.75 361.642 193.057 361.573 191.267L360.697 167.828C360.663 166.919 360.809 166.012 361.125 165.16C361.441 164.307 361.922 163.525 362.541 162.858C363.159 162.192 363.903 161.653 364.729 161.274C365.556 160.895 366.449 160.682 367.357 160.649L468.425 156.87C470.26 156.801 472.047 157.465 473.393 158.714C474.739 159.964 475.534 161.697 475.602 163.532L476.478 186.972C476.512 187.88 476.367 188.787 476.051 189.64C475.734 190.492 475.253 191.274 474.635 191.941C474.016 192.608 473.272 193.146 472.446 193.525C471.62 193.904 470.727 194.117 469.818 194.151L368.75 197.93C368.663 197.933 368.575 197.935 368.489 197.935Z" fill="#2F2E41"/>
<path d="M486.924 414H471.203C469.367 413.998 467.607 413.267 466.309 411.969C465.011 410.671 464.281 408.91 464.279 407.074V276.001C464.281 274.165 465.011 272.404 466.309 271.106C467.607 269.808 469.367 269.077 471.203 269.075H486.924C488.76 269.077 490.519 269.808 491.817 271.106C493.115 272.404 493.845 274.165 493.848 276.001V407.074C493.845 408.91 493.115 410.671 491.817 411.969C490.519 413.267 488.76 413.998 486.924 414Z" fill="#2F2E41"/>
<path d="M447.452 414H431.731C429.895 413.998 428.136 413.267 426.838 411.969C425.54 410.671 424.81 408.91 424.808 407.074V276.001C424.81 274.165 425.54 272.404 426.838 271.106C428.136 269.808 429.895 269.077 431.731 269.075H447.452C449.288 269.077 451.048 269.808 452.346 271.106C453.644 272.404 454.374 274.165 454.376 276.001V407.074C454.374 408.91 453.644 410.671 452.346 411.969C451.048 413.267 449.288 413.998 447.452 414Z" fill="#2F2E41"/>
<path d="M463.047 132.286C493.048 132.286 517.369 107.957 517.369 77.9451C517.369 47.9334 493.048 23.604 463.047 23.604C433.046 23.604 408.725 47.9334 408.725 77.9451C408.725 107.957 433.046 132.286 463.047 132.286Z" fill="#FD3373"/>
<path d="M433.642 96.4991C431.895 95.9247 430.29 94.9828 428.937 93.7365C428.041 92.8467 427.35 91.7716 426.912 90.5864C426.475 89.4013 426.302 88.1348 426.405 86.8757C426.462 85.9786 426.725 85.1068 427.175 84.3284C427.624 83.5501 428.248 82.8862 428.996 82.3887C430.939 81.1422 433.537 81.1385 436.182 82.3047L436.082 61.0907L438.212 61.0806L438.33 86.0199L436.689 84.987C434.785 83.7914 432.067 82.9498 430.146 84.1826C429.672 84.5083 429.279 84.9391 428.997 85.4415C428.716 85.944 428.555 86.5045 428.526 87.0796C428.454 88.0175 428.585 88.9599 428.91 89.8426C429.235 90.7253 429.746 91.5277 430.409 92.1951C432.761 94.4428 436.193 95.1457 440.106 95.7739L439.769 97.8778C437.689 97.6022 435.639 97.1408 433.642 96.4991Z" fill="#2F2E41"/>
<path d="M414.124 60.0211L413.845 62.1335L425.219 63.6363L425.498 61.5239L414.124 60.0211Z" fill="#2F2E41"/>
<path d="M450.026 64.7609L449.747 66.8733L461.122 68.376L461.401 66.2636L450.026 64.7609Z" fill="#2F2E41"/>
<path d="M416.804 311.168H416.804C414.403 311.165 412.102 310.21 410.405 308.512C408.707 306.814 407.753 304.512 407.75 302.111C407.75 302.111 422.184 223.77 430.432 177.853C432.035 168.924 436.725 160.843 443.68 155.023C450.636 149.203 459.416 146.014 468.485 146.014H468.485C481.474 146.014 493.931 151.175 503.115 160.363C512.3 169.551 517.46 182.012 517.46 195.006V210.477C517.46 237.182 506.855 262.793 487.978 281.676C469.102 300.56 443.499 311.168 416.804 311.168Z" fill="#2F2E41"/>
<path d="M485.34 303.326C484.783 304.541 483.886 305.57 482.759 306.288C481.631 307.005 480.32 307.382 478.983 307.372L463.263 307.235C462.353 307.227 461.455 307.04 460.618 306.685C459.781 306.33 459.022 305.813 458.385 305.164C457.747 304.516 457.244 303.748 456.904 302.904C456.563 302.061 456.392 301.159 456.4 300.249L457.468 177.044C457.483 175.101 457.882 173.181 458.64 171.392C459.398 169.603 460.5 167.982 461.885 166.619C463.27 165.257 464.909 164.181 466.71 163.453C468.511 162.725 470.437 162.359 472.379 162.376C474.321 162.393 476.241 162.792 478.028 163.551C479.816 164.311 481.437 165.415 482.797 166.801C484.158 168.187 485.233 169.827 485.96 171.629C486.687 173.431 487.052 175.358 487.034 177.301L485.966 300.506C485.959 301.48 485.745 302.441 485.34 303.326Z" fill="#FD3373"/>
<path d="M492.285 270.435C491.728 271.651 490.832 272.679 489.704 273.397C488.576 274.115 487.265 274.491 485.929 274.481L459.077 274.248C457.241 274.23 455.488 273.484 454.202 272.175C452.915 270.865 452.2 269.098 452.214 267.262L453.091 166.093C453.099 165.184 453.286 164.285 453.641 163.447C453.996 162.61 454.513 161.851 455.161 161.213C455.81 160.576 456.577 160.072 457.42 159.732C458.263 159.391 459.165 159.22 460.074 159.228L486.925 159.46C487.835 159.468 488.733 159.655 489.57 160.01C490.407 160.366 491.166 160.883 491.803 161.531C492.441 162.18 492.944 162.948 493.285 163.791C493.625 164.634 493.796 165.537 493.788 166.446L492.912 267.615C492.904 268.589 492.691 269.55 492.285 270.435Z" fill="#2F2E41"/>
<path d="M447.367 45.924C438.902 47.3613 429.45 49.0048 421.384 45.078C415.035 41.987 410.669 35.8138 412.216 28.5605C415.294 14.1254 431.814 7.74343 445.09 9.03134C452.898 9.76054 460.24 13.0721 465.956 18.4425C466.227 18.6995 466.566 18.8724 466.933 18.9404C467.301 19.0084 467.68 18.9685 468.024 18.8256C468.369 18.6827 468.666 18.4428 468.877 18.1351C469.089 17.8273 469.206 17.4649 469.216 17.0915C469.16 11.7649 473.143 7.32006 477.864 5.31359C483.774 2.80142 490.641 3.69916 496.715 5.04352C513.334 8.75118 528.427 17.4409 539.981 29.953C551.535 42.4651 558.999 58.2045 561.377 75.0707C563.069 86.9443 562.162 99.0438 558.719 110.532C555.497 121.122 549.546 131.766 539.747 137.528C530.918 142.72 518.08 144.057 509.932 136.773C503.406 130.938 500.464 120.03 505.819 112.482C507.396 110.293 509.536 108.572 512.012 107.501C514.488 106.43 517.208 106.05 519.883 106.4C522.412 106.8 524.774 107.917 526.688 109.62C528.602 111.322 529.987 113.538 530.679 116.005C531.187 118.373 531.031 120.836 530.226 123.121C529.422 125.406 528.002 127.424 526.122 128.951C524.717 129.961 523.121 130.674 521.432 131.047C519.743 131.42 517.995 131.445 516.296 131.121C514.596 130.796 512.981 130.129 511.547 129.16C510.114 128.19 508.893 126.939 507.959 125.483C506.661 123.4 503.355 125.316 504.661 127.411C506.159 129.756 508.213 131.696 510.64 133.057C513.066 134.419 515.791 135.161 518.573 135.218C521.345 135.268 524.082 134.581 526.501 133.225C528.921 131.87 530.937 129.895 532.342 127.504C533.85 125.064 534.688 122.269 534.773 119.402C534.857 116.535 534.186 113.696 532.825 111.171C531.338 108.595 529.218 106.442 526.667 104.914C524.116 103.386 521.218 102.534 518.246 102.438C515.164 102.413 512.121 103.14 509.382 104.553C506.642 105.967 504.287 108.027 502.52 110.554C499.661 114.926 498.607 120.237 499.577 125.37C500.438 130.591 502.965 135.394 506.779 139.06C511.195 143.058 516.879 145.371 522.832 145.591C535.783 146.33 547.346 138.866 554.489 128.49C561.902 117.724 565.217 104.215 565.885 91.299C566.565 78.1347 564.269 64.9864 559.166 52.8328C554.064 40.6793 546.287 29.8334 536.414 21.1025C527.024 12.8813 516.012 6.72616 504.091 3.03632C492.291 -0.579612 475.816 -3.21535 467.847 8.84566C466.226 11.288 465.372 14.1599 465.396 17.0916L468.657 15.7406C457.128 4.71943 439.003 1.93454 424.607 8.70915C417.376 12.1118 411.107 18.4391 408.86 26.2405C406.528 34.3351 409.9 42.28 416.816 46.8708C426.228 53.1185 437.901 51.3885 448.383 49.6089C450.801 49.1982 449.776 45.5152 447.367 45.9241V45.924Z" fill="#2F2E41"/>
<path d="M327.917 280.802H18.6015C13.6698 280.796 8.94168 278.834 5.45445 275.345C1.96722 271.857 0.00562657 267.127 0 262.194V77.1787C0.00562657 72.2453 1.96722 67.5156 5.45445 64.0271C8.94168 60.5387 13.6698 58.5764 18.6015 58.5708H327.917C332.849 58.5764 337.577 60.5387 341.064 64.0271C344.551 67.5156 346.513 72.2453 346.519 77.1787V262.194C346.513 267.127 344.551 271.857 341.064 275.345C337.577 278.834 332.849 280.796 327.917 280.802ZM18.6015 61.7607C14.5152 61.7654 10.5977 63.3913 7.70826 66.2817C4.81885 69.1721 3.19352 73.091 3.18882 77.1787V262.194C3.19352 266.282 4.81885 270.2 7.70826 273.091C10.5977 275.981 14.5152 277.607 18.6015 277.612H327.917C332.003 277.607 335.921 275.981 338.81 273.091C341.7 270.2 343.325 266.282 343.33 262.194V77.1787C343.325 73.091 341.7 69.1721 338.81 66.2817C335.921 63.3913 332.003 61.7654 327.917 61.7607H18.6015Z" fill="#3F3D56"/>
<path d="M60.0563 102.166C57.4284 102.166 54.8596 101.387 52.6746 99.9261C50.4896 98.4657 48.7866 96.3899 47.7809 93.9612C46.7753 91.5325 46.5122 88.8601 47.0248 86.2818C47.5375 83.7035 48.803 81.3352 50.6611 79.4764C52.5193 77.6176 54.8868 76.3517 57.4642 75.8389C60.0416 75.326 62.7131 75.5892 65.1409 76.5952C67.5687 77.6012 69.6439 79.3048 71.1038 81.4906C72.5638 83.6763 73.343 86.246 73.343 88.8748C73.3391 92.3987 71.938 95.7771 69.4471 98.2688C66.9562 100.761 63.5789 102.162 60.0563 102.166ZM60.0563 78.7734C58.0591 78.7734 56.1068 79.3658 54.4462 80.4758C52.7856 81.5858 51.4913 83.1634 50.727 85.0092C49.9627 86.855 49.7627 88.886 50.1524 90.8455C50.542 92.805 51.5037 94.6049 52.916 96.0176C54.3282 97.4303 56.1275 98.3924 58.0863 98.7821C60.0451 99.1719 62.0755 98.9718 63.9206 98.2073C65.7658 97.4427 67.3428 96.148 68.4524 94.4869C69.562 92.8257 70.1542 90.8727 70.1542 88.8748C70.1512 86.1967 69.0863 83.6291 67.1933 81.7354C65.3002 79.8417 62.7335 78.7764 60.0563 78.7734Z" fill="#3F3D56"/>
<path d="M284.337 102.166C281.709 102.166 279.14 101.387 276.955 99.9261C274.77 98.4657 273.067 96.3899 272.061 93.9612C271.056 91.5325 270.792 88.8601 271.305 86.2818C271.818 83.7035 273.083 81.3352 274.941 79.4764C276.8 77.6176 279.167 76.3517 281.744 75.8389C284.322 75.326 286.993 75.5892 289.421 76.5952C291.849 77.6012 293.924 79.3048 295.384 81.4906C296.844 83.6763 297.623 86.246 297.623 88.8748C297.619 92.3987 296.218 95.7771 293.727 98.2688C291.236 100.761 287.859 102.162 284.337 102.166ZM284.337 78.7734C282.339 78.7734 280.387 79.3658 278.726 80.4758C277.066 81.5858 275.772 83.1634 275.007 85.0092C274.243 86.855 274.043 88.886 274.433 90.8455C274.822 92.805 275.784 94.6049 277.196 96.0176C278.608 97.4303 280.408 98.3924 282.367 98.7821C284.325 99.1719 286.356 98.9718 288.201 98.2073C290.046 97.4427 291.623 96.148 292.733 94.4869C293.842 92.8257 294.435 90.8727 294.435 88.8748C294.431 86.1967 293.367 83.6291 291.474 81.7354C289.58 79.8417 287.014 78.7764 284.337 78.7734Z" fill="#3F3D56"/>
<path d="M91.4133 182.978H34.0145C31.6191 182.975 29.3227 182.022 27.6289 180.327C25.9352 178.633 24.9823 176.336 24.9795 173.939V139.914C24.9823 137.517 25.9352 135.22 27.6289 133.526C29.3227 131.831 31.6191 130.878 34.0145 130.875H91.4133C93.8086 130.878 96.105 131.831 97.7988 133.526C99.4926 135.22 100.445 137.517 100.448 139.914V173.939C100.445 176.336 99.4926 178.633 97.7988 180.327C96.105 182.022 93.8086 182.975 91.4133 182.978Z" fill="#E6E6E6"/>
<path d="M201.959 182.978H144.56C142.165 182.975 139.869 182.022 138.175 180.327C136.481 178.633 135.528 176.336 135.525 173.939V139.914C135.528 137.517 136.481 135.22 138.175 133.526C139.869 131.831 142.165 130.878 144.56 130.875H201.959C204.354 130.878 206.651 131.831 208.345 133.526C210.038 135.22 210.991 137.517 210.994 139.914V173.939C210.991 176.336 210.038 178.633 208.345 180.327C206.651 182.022 204.354 182.975 201.959 182.978Z" fill="#E6E6E6"/>
<path d="M255.106 131.939C252.992 131.941 250.966 132.782 249.471 134.277C247.977 135.772 247.136 137.799 247.134 139.914V173.94C247.136 176.054 247.977 178.081 249.471 179.576C250.966 181.071 252.992 181.912 255.106 181.914H312.505C314.618 181.912 316.645 181.071 318.139 179.576C319.634 178.081 320.474 176.054 320.477 173.94V139.914C320.474 137.799 319.634 135.772 318.139 134.277C316.645 132.782 314.618 131.941 312.505 131.939H255.106Z" fill="#E6E6E6"/>
<path d="M91.9445 251.029H34.5457C32.1504 251.026 29.854 250.073 28.1602 248.379C26.4664 246.685 25.5136 244.387 25.5107 241.991V207.965C25.5136 205.569 26.4664 203.272 28.1602 201.578C29.854 199.883 32.1504 198.93 34.5457 198.927H91.9445C94.3399 198.93 96.6363 199.883 98.3301 201.578C100.024 203.272 100.977 205.569 100.98 207.965V241.991C100.977 244.387 100.024 246.685 98.3301 248.379C96.6363 250.073 94.3399 251.026 91.9445 251.029Z" fill="#E6E6E6"/>
<path d="M202.49 251.029H145.092C142.696 251.026 140.4 250.073 138.706 248.379C137.012 246.685 136.059 244.387 136.057 241.991V207.965C136.059 205.569 137.012 203.272 138.706 201.578C140.4 199.883 142.696 198.93 145.092 198.927H202.49C204.886 198.93 207.182 199.883 208.876 201.578C210.57 203.272 211.523 205.569 211.525 207.965V241.991C211.523 244.387 210.57 246.685 208.876 248.379C207.182 250.073 204.886 251.026 202.49 251.029Z" fill="#E6E6E6"/>
<path d="M313.036 251.029H255.638C253.242 251.026 250.946 250.073 249.252 248.379C247.558 246.685 246.605 244.387 246.603 241.991V207.965C246.605 205.569 247.558 203.272 249.252 201.578C250.946 199.883 253.242 198.93 255.638 198.927H313.036C315.432 198.93 317.728 199.883 319.422 201.578C321.116 203.272 322.068 205.569 322.071 207.965V241.991C322.068 244.387 321.116 246.685 319.422 248.379C317.728 250.073 315.432 251.026 313.036 251.029Z" fill="#E6E6E6"/>
<path d="M60.0562 92.5965C59.0699 92.5953 58.1243 92.2028 57.4269 91.5051C56.7295 90.8075 56.3371 89.8616 56.3359 88.8749V35.7096C56.3359 34.7226 56.7279 33.776 57.4256 33.078C58.1233 32.3801 59.0695 31.988 60.0562 31.988C61.0429 31.988 61.9892 32.3801 62.6869 33.078C63.3845 33.776 63.7765 34.7226 63.7765 35.7096V88.8749C63.7753 89.8616 63.383 90.8075 62.6856 91.5051C61.9881 92.2028 61.0425 92.5953 60.0562 92.5965Z" fill="#3F3D56"/>
<path d="M284.337 92.5965C283.35 92.5953 282.405 92.2028 281.707 91.5051C281.01 90.8075 280.617 89.8616 280.616 88.8749V35.7096C280.616 34.7226 281.008 33.776 281.706 33.078C282.404 32.3801 283.35 31.988 284.337 31.988C285.323 31.988 286.269 32.3801 286.967 33.078C287.665 33.776 288.057 34.7226 288.057 35.7096V88.8749C288.056 89.8616 287.663 90.8075 286.966 91.5051C286.268 92.2028 285.323 92.5953 284.337 92.5965Z" fill="#3F3D56"/>
<path d="M60.5435 170.719C58.9785 170.722 57.4551 170.215 56.203 169.276L56.1254 169.218L39.7766 156.707C38.2474 155.534 37.2466 153.802 36.9942 151.891C36.7419 149.98 37.2588 148.047 38.4311 146.517C39.6035 144.988 41.3352 143.986 43.2455 143.734C45.1558 143.482 47.0881 143.999 48.6173 145.171L59.2067 153.295L84.23 120.638C84.8102 119.881 85.5339 119.245 86.3596 118.768C87.1853 118.29 88.0969 117.98 89.0424 117.856C89.9879 117.731 90.9487 117.793 91.87 118.04C92.7913 118.286 93.6551 118.712 94.4119 119.292L94.414 119.294L94.2587 119.51L94.4182 119.294C95.9452 120.468 96.9442 122.2 97.196 124.11C97.4479 126.02 96.932 127.952 95.7616 129.481L66.3286 167.876C65.6477 168.761 64.7722 169.477 63.77 169.968C62.7679 170.46 61.666 170.714 60.5499 170.71L60.5435 170.719Z" fill="#FD3373"/>
<path d="M174.278 237.707C172.713 237.71 171.189 237.203 169.937 236.264L169.86 236.206L153.511 223.695C151.982 222.523 150.981 220.79 150.729 218.879C150.476 216.968 150.993 215.035 152.165 213.506C153.338 211.976 155.07 210.975 156.98 210.722C158.89 210.47 160.822 210.987 162.352 212.16L172.941 220.283L197.964 187.626C198.545 186.869 199.268 186.233 200.094 185.756C200.92 185.279 201.831 184.969 202.777 184.844C203.722 184.719 204.683 184.781 205.604 185.028C206.526 185.275 207.389 185.7 208.146 186.281L208.148 186.282L207.993 186.498L208.153 186.282C209.68 187.456 210.679 189.188 210.93 191.098C211.182 193.008 210.666 194.94 209.496 196.47L180.063 234.864C179.382 235.749 178.507 236.465 177.504 236.956C176.502 237.448 175.4 237.702 174.284 237.699L174.278 237.707Z" fill="#FD3373"/>
<path d="M281.635 170.719C280.07 170.722 278.547 170.215 277.295 169.276L277.217 169.218L260.868 156.707C259.339 155.534 258.338 153.802 258.086 151.891C257.834 149.98 258.351 148.047 259.523 146.517C260.695 144.988 262.427 143.986 264.337 143.734C266.248 143.482 268.18 143.999 269.709 145.171L280.299 153.295L305.322 120.638C305.902 119.881 306.626 119.245 307.451 118.768C308.277 118.29 309.189 117.98 310.134 117.856C311.08 117.731 312.041 117.793 312.962 118.04C313.883 118.286 314.747 118.712 315.504 119.292L315.506 119.294L315.351 119.51L315.51 119.294C317.037 120.468 318.036 122.2 318.288 124.11C318.54 126.02 318.024 127.952 316.853 129.481L287.42 167.876C286.739 168.761 285.864 169.477 284.862 169.968C283.86 170.46 282.758 170.714 281.642 170.71L281.635 170.719Z" fill="#FD3373"/>
</g>
<defs>
<clipPath id="clip0">
<rect width="566" height="414" fill="white"/>
</clipPath>
</defs>
</svg>
