<svg width="756" height="600" viewBox="0 0 756 600" fill="none" xmlns="http://www.w3.org/2000/svg">
<path d="M713.788 311.643C729.331 287.316 723.405 255.746 706.879 245.178C690.352 234.61 659.225 242.484 643.682 266.812C629.294 289.33 634.047 318.512 647.175 330.623C646.923 330.663 646.681 330.751 646.461 330.882L642.616 333.293C642.323 333.477 642.082 333.733 641.915 334.036C641.749 334.339 641.663 334.68 641.665 335.026C641.667 335.372 641.757 335.712 641.928 336.013C642.098 336.314 642.343 336.567 642.638 336.747L650.894 341.78C651.189 341.96 651.525 342.062 651.871 342.075C652.217 342.089 652.56 342.013 652.868 341.857C653.177 341.7 653.44 341.467 653.633 341.18C653.826 340.893 653.943 340.561 653.972 340.216L654.351 335.692C654.361 335.534 654.352 335.376 654.325 335.22C670.829 342.149 699.369 334.211 713.788 311.643Z" fill="#FD79A3"/>
<path d="M705.887 263.651C708.411 271.754 707.759 280.514 704.061 288.154C700.364 295.793 693.9 301.738 685.981 304.782C684.172 305.48 684.957 308.425 686.79 307.719C695.473 304.437 702.582 297.973 706.674 289.638C710.766 281.303 711.534 271.722 708.822 262.841C708.255 260.971 705.316 261.768 705.887 263.651Z" fill="white"/>
<path d="M150.939 223.164C166.986 201.679 196.356 196.494 210.951 207.405C225.545 218.316 228.898 247.964 212.851 269.448C197.997 289.335 171.086 294.758 156.264 287.308C156.312 287.54 156.315 287.78 156.272 288.014L155.437 292.147C155.373 292.462 155.23 292.756 155.021 293C154.812 293.244 154.544 293.431 154.243 293.542C153.941 293.653 153.616 293.686 153.299 293.636C152.981 293.587 152.682 293.457 152.429 293.259L145.352 287.728C145.099 287.53 144.9 287.271 144.775 286.975C144.651 286.679 144.604 286.355 144.639 286.036C144.674 285.716 144.79 285.411 144.976 285.149C145.162 284.887 145.413 284.677 145.703 284.539L149.509 282.728C149.643 282.667 149.784 282.623 149.928 282.596C138.503 270.512 136.053 243.093 150.939 223.164Z" fill="#E6E6E6"/>
<path d="M186.04 215.052C178.19 216.299 171.119 220.514 166.286 226.827C161.452 233.139 159.226 241.067 160.066 248.974C160.238 250.786 157.409 250.774 157.238 248.974C156.429 240.452 158.87 231.938 164.072 225.141C169.275 218.344 176.853 213.765 185.288 212.324C187.068 212.022 187.833 214.747 186.04 215.052Z" fill="white"/>
<path d="M554.822 526.502C567.434 506.762 562.625 481.147 549.216 472.572C535.806 463.996 510.549 470.385 497.937 490.125C486.263 508.397 490.12 532.075 500.772 541.902C500.567 541.935 500.371 542.006 500.193 542.112L497.073 544.069C496.835 544.218 496.639 544.425 496.504 544.671C496.369 544.918 496.299 545.194 496.301 545.475C496.302 545.756 496.376 546.031 496.514 546.276C496.652 546.52 496.851 546.725 497.09 546.871L503.789 550.955C504.029 551.101 504.302 551.184 504.582 551.195C504.863 551.205 505.141 551.144 505.392 551.017C505.642 550.89 505.855 550.701 506.012 550.468C506.169 550.235 506.263 549.966 506.287 549.686L506.594 546.015C506.602 545.887 506.595 545.759 506.573 545.632C519.965 551.254 543.122 544.813 554.822 526.502Z" fill="#F2F2F2"/>
<path d="M745.437 80.6777H10.5629C7.76238 80.6808 5.07747 81.7952 3.09722 83.7764C1.11697 85.7575 0.00311006 88.4436 0 91.2453V589.432C0.00311274 592.234 1.11699 594.92 3.09724 596.901C5.07749 598.882 7.76238 599.997 10.5629 600H745.437C748.238 599.997 750.922 598.882 752.903 596.901C754.883 594.92 755.997 592.234 756 589.432V91.2453C755.997 88.4436 754.883 85.7575 752.903 83.7764C750.922 81.7952 748.238 80.6808 745.437 80.6777ZM752.982 589.432C752.981 591.434 752.186 593.354 750.771 594.769C749.357 596.184 747.438 596.98 745.437 596.981H10.5629C8.56208 596.98 6.64345 596.184 5.22867 594.769C3.81389 593.354 3.01874 591.434 3.01795 589.432V91.2453C3.01874 89.2436 3.81391 87.3242 5.22869 85.9088C6.64346 84.4934 8.56208 83.6978 10.5629 83.6971H745.437C747.438 83.6978 749.357 84.4934 750.771 85.9088C752.186 87.3242 752.981 89.2436 752.982 91.2453V589.432Z" fill="#3F3D56"/>
<path d="M754.491 123.009H1.50879V126.028H754.491V123.009Z" fill="#3F3D56"/>
<path d="M27.1613 112.381C32.1616 112.381 36.2152 108.325 36.2152 103.323C36.2152 98.32 32.1616 94.2646 27.1613 94.2646C22.161 94.2646 18.1074 98.32 18.1074 103.323C18.1074 108.325 22.161 112.381 27.1613 112.381Z" fill="#FD3373"/>
<path d="M53.1916 112.381C58.1919 112.381 62.2455 108.325 62.2455 103.323C62.2455 98.32 58.1919 94.2646 53.1916 94.2646C48.1913 94.2646 44.1377 98.32 44.1377 103.323C44.1377 108.325 48.1913 112.381 53.1916 112.381Z" fill="#FD3373"/>
<path d="M79.2219 112.381C84.2222 112.381 88.2757 108.325 88.2757 103.323C88.2757 98.32 84.2222 94.2646 79.2219 94.2646C74.2215 94.2646 70.168 98.32 70.168 103.323C70.168 108.325 74.2215 112.381 79.2219 112.381Z" fill="#FD3373"/>
<path d="M375.075 278.8C392.085 278.8 405.874 265.005 405.874 247.987C405.874 230.969 392.085 217.174 375.075 217.174C358.065 217.174 344.275 230.969 344.275 247.987C344.275 265.005 358.065 278.8 375.075 278.8Z" fill="#2F2E41"/>
<path d="M427.296 545.636L416.107 551.075L389.811 510.489L406.324 502.46L427.296 545.636Z" fill="#BD828B"/>
<path d="M406.562 551.763L428.14 541.272L434.742 554.865L399.578 571.961C398.711 570.176 398.204 568.237 398.085 566.256C397.967 564.275 398.24 562.29 398.889 560.415C399.537 558.539 400.549 556.81 401.865 555.325C403.182 553.841 404.778 552.631 406.562 551.763Z" fill="#2F2E41"/>
<path d="M404.971 544.575C404.609 544.575 404.248 544.533 403.895 544.449C403.222 544.287 402.592 543.98 402.051 543.548C401.509 543.117 401.068 542.573 400.758 541.953L370.734 482.419C370.243 481.436 370.094 480.316 370.311 479.239C370.528 478.161 371.099 477.187 371.933 476.472L388.653 462.401C389.216 461.92 389.887 461.581 390.609 461.413C391.33 461.246 392.082 461.254 392.799 461.438C393.533 461.621 394.211 461.978 394.778 462.479C395.345 462.979 395.783 463.608 396.056 464.314L421.719 528.782C422.122 529.782 422.182 530.888 421.89 531.926C421.599 532.964 420.973 533.876 420.109 534.521L407.749 543.656C406.945 544.252 405.971 544.574 404.971 544.575Z" fill="#2F2E41"/>
<path d="M394.31 574.27L382.847 579.103L358.758 537.168L375.677 530.035L394.31 574.27Z" fill="#BD828B"/>
<path d="M373.279 579.279L395.387 569.958L401.253 583.884L365.226 599.074C364.455 597.245 364.052 595.283 364.04 593.298C364.028 591.314 364.407 589.346 365.155 587.508C365.902 585.67 367.005 583.997 368.399 582.585C369.793 581.173 371.451 580.05 373.279 579.279Z" fill="#2F2E41"/>
<path d="M376.047 574.136C375.24 574.136 374.447 573.922 373.75 573.515C373.054 573.108 372.477 572.523 372.081 571.82C367.908 564.425 356.608 543.869 341.847 512.779C324.328 475.881 363.131 434.986 371.087 427.163C371.445 426.809 371.724 426.384 371.904 425.914C372.085 425.444 372.164 424.941 372.135 424.439L370.412 393.405C370.347 392.278 370.703 391.167 371.41 390.287C372.118 389.407 373.126 388.822 374.24 388.643L420.057 381.207C420.849 381.081 421.66 381.165 422.41 381.449C423.16 381.733 423.823 382.208 424.333 382.827C432.073 392.227 435.399 402.339 434.217 412.883C431.804 434.41 411.532 450.663 409.229 452.445C409.135 452.518 409.045 452.595 408.96 452.677L367.486 492.239C366.968 492.73 366.61 493.366 366.461 494.065C366.311 494.763 366.376 495.49 366.648 496.151L392.306 559.156C392.694 560.104 392.752 561.155 392.469 562.139C392.187 563.124 391.581 563.985 390.75 564.583L378.726 573.27C377.946 573.833 377.009 574.136 376.047 574.136Z" fill="#2F2E41"/>
<path d="M335.906 360.73C334.88 360.732 333.883 360.388 333.076 359.754L296.106 330.688C295.762 330.81 295.411 330.913 295.055 330.997C292.906 331.503 290.655 331.359 288.588 330.585C286.521 329.811 284.729 328.441 283.44 326.648C282.151 324.855 281.423 322.72 281.346 320.513C281.27 318.306 281.85 316.126 283.012 314.248C284.175 312.371 285.868 310.88 287.877 309.965C289.886 309.05 292.121 308.751 294.299 309.107C296.478 309.463 298.502 310.457 300.116 311.964C301.73 313.471 302.861 315.423 303.366 317.573C303.477 318.058 303.555 318.55 303.598 319.046L335.202 342.017L347.284 329.625L359.167 345.19L338.554 359.887C337.781 360.437 336.855 360.732 335.906 360.73Z" fill="#BD828B"/>
<path d="M371.339 286.626C385.103 286.626 396.26 275.463 396.26 261.693C396.26 247.923 385.103 236.76 371.339 236.76C357.575 236.76 346.417 247.923 346.417 261.693C346.417 275.463 357.575 286.626 371.339 286.626Z" fill="#BD828B"/>
<path d="M383.105 408.724C381.079 408.74 379.066 408.38 377.171 407.661C374.344 406.563 371.98 404.527 370.473 401.895C362.777 388.459 346.185 346.821 361.637 315.904C372.041 295.086 383.55 290.137 391.373 289.65C398.596 289.204 399.994 290.803 402.408 297.305C403.746 300.91 406.349 306.064 409.362 312.032C420.182 333.457 436.532 365.834 422.851 381.937C408.079 399.322 393.992 408.723 383.105 408.724Z" fill="#FD79A3"/>
<path d="M362.918 350.017C362.189 350.017 361.479 349.777 360.9 349.333L341.473 334.503C341.091 334.211 340.777 333.841 340.551 333.416C340.326 332.992 340.195 332.523 340.168 332.044C340.14 331.564 340.216 331.084 340.392 330.636C340.567 330.189 340.837 329.784 341.183 329.451L359.853 311.459C361.122 310.236 362.756 309.46 364.505 309.249C366.255 309.038 368.026 309.404 369.549 310.29C371.073 311.177 372.266 312.536 372.948 314.161C373.631 315.787 373.764 317.591 373.33 319.3L366.151 347.505C365.968 348.224 365.551 348.861 364.965 349.316C364.38 349.771 363.66 350.018 362.918 350.017Z" fill="#FD79A3"/>
<path d="M380.73 390.864C378.319 390.853 375.976 390.064 374.05 388.613C372.124 387.163 370.717 385.129 370.04 382.814C369.601 381.303 369.485 379.717 369.702 378.158C369.918 376.6 370.462 375.105 371.296 373.771C372.13 372.437 373.237 371.294 374.543 370.418C375.849 369.542 377.326 368.951 378.876 368.686H378.876C379.367 368.605 379.863 368.558 380.361 368.545L413.332 327.805L402.322 315.938L418.579 305.027L431.978 326.513C432.497 327.352 432.732 328.337 432.647 329.321C432.562 330.305 432.163 331.235 431.508 331.974L391.515 376.741C391.616 377.093 391.698 377.45 391.76 377.81C392.025 379.361 391.96 380.951 391.568 382.475C391.176 383.999 390.467 385.423 389.487 386.653C388.506 387.884 387.277 388.893 385.88 389.616C384.482 390.338 382.948 390.757 381.378 390.844C381.162 390.857 380.945 390.864 380.73 390.864Z" fill="#BD828B"/>
<path d="M402.699 326.076C402.13 326.076 401.571 325.93 401.074 325.653C400.577 325.375 400.16 324.975 399.861 324.491L386.258 302.415C385.391 301 384.977 299.353 385.072 297.696C385.167 296.039 385.766 294.451 386.789 293.144C387.946 291.683 389.57 290.663 391.389 290.256C393.208 289.849 395.111 290.078 396.781 290.906L422.803 303.923C423.296 304.169 423.72 304.534 424.037 304.984C424.354 305.435 424.555 305.957 424.621 306.504C424.687 307.051 424.617 307.606 424.417 308.119C424.216 308.632 423.891 309.088 423.472 309.445L404.857 325.281C404.254 325.794 403.49 326.076 402.699 326.076Z" fill="#FD79A3"/>
<path d="M351.04 287.722L368.53 276.944L367.25 274.866L350.783 285.013C350.351 283.921 349.539 283.021 348.496 282.479C347.454 281.937 346.251 281.79 345.109 282.065C343.966 282.34 342.961 283.017 342.279 283.974C341.596 284.93 341.281 286.101 341.392 287.271C341.503 288.441 342.032 289.531 342.882 290.342C343.733 291.153 344.847 291.63 346.02 291.685C347.194 291.74 348.348 291.369 349.27 290.641C350.192 289.913 350.821 288.877 351.04 287.722L351.04 287.722Z" fill="#3F3D56"/>
<path d="M388.624 223.184C388.624 223.184 376.942 234.662 351.584 238.287C326.225 241.911 346.15 281.777 346.15 281.777C346.15 281.777 338.905 267.281 353.395 254.596C367.886 241.911 388.624 239.493 388.624 223.184Z" fill="#2F2E41"/>
<path d="M376.208 215.062C376.208 215.062 383.453 240.432 394.321 244.056C405.189 247.681 399.755 285.735 381.642 289.359C381.642 289.359 397.038 268.52 387.981 252.211C378.925 235.902 373.491 223.217 376.208 215.062Z" fill="#2F2E41"/>
<path d="M393.099 233.809C392.987 233.785 392.877 233.755 392.769 233.718L364.371 224.018C363.913 223.861 363.503 223.588 363.182 223.225C362.862 222.862 362.641 222.422 362.541 221.948C362.442 221.474 362.467 220.983 362.615 220.521C362.763 220.06 363.028 219.645 363.384 219.318L386.14 198.401C386.507 198.063 386.959 197.83 387.447 197.726C387.935 197.621 388.441 197.65 388.915 197.808C389.388 197.966 389.81 198.249 390.137 198.626C390.465 199.002 390.685 199.46 390.775 199.951L396.417 230.568C396.499 231.019 396.47 231.483 396.332 231.92C396.193 232.357 395.949 232.753 395.621 233.073C395.293 233.393 394.892 233.628 394.452 233.756C394.012 233.884 393.548 233.903 393.099 233.809V233.809Z" fill="#FD79A3"/>
<path d="M379.909 204.885L391.572 207.368L390.941 203.937L382.823 202.208L379.909 204.885Z" fill="#E6E6E6"/>
<path d="M377.485 207.117L392.101 210.228L392.733 213.659L374.571 209.793L377.485 207.117Z" fill="#E6E6E6"/>
<path d="M375.303 182.481L379.024 193.997C379.139 194.382 379.398 194.707 379.747 194.905C380.096 195.103 380.508 195.159 380.897 195.06C381.284 194.949 381.612 194.691 381.81 194.341C382.009 193.991 382.063 193.577 381.96 193.187L378.239 181.671C378.124 181.287 377.865 180.961 377.516 180.763C377.167 180.565 376.755 180.509 376.366 180.608C375.979 180.719 375.651 180.977 375.453 181.327C375.254 181.677 375.2 182.092 375.303 182.481Z" fill="#CCCCCC"/>
<path d="M393.377 178.574L389.831 190.632C389.277 192.516 392.214 193.321 392.766 191.441L396.312 179.383C396.866 177.499 393.929 176.695 393.377 178.574Z" fill="#CCCCCC"/>
<path d="M406.494 189.614L397.726 198.616C396.356 200.022 398.576 202.107 399.943 200.704L408.711 191.702C410.081 190.296 407.86 188.211 406.494 189.614Z" fill="#CCCCCC"/>
<path d="M548.411 487.561C550.459 494.135 549.93 501.244 546.93 507.442C543.93 513.641 538.685 518.465 532.259 520.935C530.791 521.501 531.429 523.891 532.916 523.317C539.961 520.655 545.73 515.41 549.05 508.647C552.37 501.883 552.993 494.11 550.793 486.904C550.333 485.386 547.948 486.033 548.411 487.561Z" fill="white"/>
<path d="M634.643 71.0556C650.187 46.7276 644.26 15.1584 627.734 4.59001C611.208 -5.97833 580.081 1.89569 564.537 26.2236C550.15 48.7421 554.903 77.9237 568.031 90.0349C567.778 90.075 567.536 90.163 567.317 90.2941L563.472 92.7052C563.179 92.889 562.937 93.1447 562.771 93.448C562.604 93.7513 562.518 94.0922 562.52 94.4383C562.522 94.7843 562.613 95.1241 562.783 95.4253C562.954 95.7265 563.198 95.9791 563.494 96.1592L571.749 101.192C572.044 101.372 572.381 101.474 572.727 101.487C573.072 101.501 573.416 101.425 573.724 101.269C574.032 101.112 574.296 100.879 574.489 100.592C574.682 100.305 574.799 99.9731 574.827 99.6282L575.206 95.1042C575.216 94.9463 575.207 94.7879 575.18 94.6321C591.685 101.561 620.224 93.623 634.643 71.0556Z" fill="#E6E6E6"/>
<path d="M626.741 23.063C629.266 31.166 628.613 39.9265 624.916 47.5657C621.219 55.2048 614.754 61.1501 606.835 64.1941C605.026 64.8917 605.812 67.8374 607.644 67.1307C616.327 63.8494 623.437 57.3849 627.529 49.0499C631.621 40.7149 632.389 31.1342 629.676 22.2534C629.11 20.3829 626.17 21.1801 626.741 23.063Z" fill="white"/>
<path d="M206.709 59.4053C189.433 36.2762 157.815 30.6942 142.103 42.4401C126.391 54.1861 122.782 86.1037 140.058 109.233C156.048 130.642 185.02 136.48 200.977 128.46C200.925 128.71 200.922 128.968 200.967 129.22L201.867 133.669C201.936 134.008 202.09 134.324 202.315 134.587C202.54 134.85 202.828 135.051 203.153 135.171C203.477 135.291 203.827 135.326 204.169 135.273C204.51 135.22 204.833 135.08 205.105 134.867L212.724 128.912C212.996 128.699 213.21 128.42 213.344 128.101C213.479 127.782 213.529 127.434 213.492 127.09C213.454 126.746 213.329 126.418 213.128 126.136C212.928 125.854 212.659 125.627 212.346 125.479L208.248 123.529C208.104 123.464 207.953 123.417 207.797 123.387C220.097 110.378 222.734 80.8607 206.709 59.4053Z" fill="#FD79A3"/>
<path d="M168.921 50.673C177.372 52.016 184.985 56.5536 190.188 63.3492C195.391 70.1448 197.788 78.6797 196.884 87.1922C196.698 89.1421 199.744 89.1294 199.928 87.1922C200.799 78.0171 198.171 68.8518 192.57 61.5342C186.97 54.2167 178.811 49.2879 169.73 47.7364C167.814 47.4105 166.991 50.3447 168.921 50.673Z" fill="white"/>
<path d="M137.355 377.655C144.909 378.131 152.241 380.391 158.753 384.25C165.264 388.108 170.769 393.456 174.816 399.854C175.95 401.668 177.43 403.661 176.645 405.894C176.372 406.75 175.816 407.488 175.069 407.987C174.322 408.486 173.428 408.717 172.533 408.642C170.218 408.36 168.724 406.094 168.439 403.924C168.116 401.461 169.852 399.528 171.996 398.614C177.234 396.378 182.519 399.833 186.787 402.59C196.51 408.873 207.204 414.555 218.986 415.271C229.886 415.933 241.575 411.657 247.639 402.2C248.699 400.546 246.066 399.017 245.01 400.663C238.997 410.042 226.841 413.411 216.272 411.961C209.973 410.967 203.891 408.901 198.289 405.853C195.384 404.345 192.567 402.673 189.806 400.915C187.179 399.081 184.395 397.484 181.485 396.143C176.634 394.149 170.211 394.305 166.822 398.896C163.66 403.179 166.104 410.309 171.392 411.513C176.403 412.654 180.794 407.938 179.762 403.008C179.235 400.486 177.336 398.018 175.867 395.957C171.452 389.743 165.7 384.6 159.035 380.906C152.37 377.211 144.962 375.06 137.355 374.609C135.397 374.513 135.402 377.558 137.355 377.655H137.355Z" fill="#FD79A3"/>
<path d="M593.353 375.051C586.379 378.772 578.592 380.706 570.688 380.68C562.784 380.653 555.01 378.666 548.062 374.897C546.488 374.029 545.165 373.039 544.988 371.116C544.895 370.323 545.044 369.521 545.416 368.815C545.787 368.109 546.363 367.532 547.068 367.159C549.254 366.092 551.854 367.337 553.22 369.16C554.689 371.12 554.101 373.664 552.742 375.51C549.226 380.284 542.58 379.832 537.321 379.725C525.994 379.496 514.086 380.402 503.939 385.906C494.406 391.078 486.749 400.781 486.537 411.944C486.5 413.905 489.544 413.905 489.582 411.944C489.79 400.928 498.112 391.85 507.694 387.428C513.641 384.848 520 383.351 526.473 383.007C529.632 382.772 532.802 382.709 535.97 382.748C539.129 382.916 542.296 382.848 545.445 382.546C550.878 381.801 556.718 378.3 557.119 372.255C557.482 366.785 551.271 362.144 546.151 364.253C545.213 364.674 544.377 365.292 543.701 366.066C543.024 366.84 542.522 367.751 542.23 368.736C541.937 369.722 541.861 370.759 542.007 371.777C542.152 372.795 542.515 373.769 543.072 374.634C544.441 376.721 546.876 377.789 549.057 378.823C556.252 382.236 564.148 383.911 572.109 383.712C580.07 383.514 587.873 381.448 594.889 377.68C596.607 376.737 595.073 374.106 593.353 375.05V375.051Z" fill="#FF6584"/>
<path d="M455.838 177.579C469.532 182.292 479.121 196.179 479.935 210.477C480.348 217.734 478.627 226.124 473.216 231.347C472.019 232.615 470.525 233.565 468.869 234.11C467.212 234.654 465.446 234.777 463.73 234.466C460.743 233.817 457.625 231.778 457.114 228.54C456.621 225.413 458.757 222.828 461.347 221.403C462.818 220.605 464.434 220.112 466.1 219.954C467.765 219.796 469.446 219.976 471.04 220.483C475.266 221.796 478.843 224.616 482.254 227.336C485.583 230.098 489.123 232.595 492.842 234.804C507.512 243.257 524.902 245.642 541.304 241.449C557.706 237.257 571.822 226.819 580.641 212.362C581.712 210.627 582.694 208.842 583.587 207.007C584.446 205.254 581.821 203.708 580.958 205.47C577.088 213.466 571.544 220.536 564.702 226.2C557.861 231.864 549.882 235.99 541.306 238.298C532.731 240.606 523.76 241.042 515.001 239.576C506.243 238.111 497.901 234.778 490.543 229.804C483.458 225.054 476.664 216.893 467.449 216.834C460.662 216.792 452.5 221.923 454.239 229.648C455.03 233.161 457.999 235.692 461.252 236.909C463.002 237.558 464.872 237.815 466.731 237.662C468.59 237.51 470.393 236.951 472.013 236.026C479.2 231.989 482.338 223.027 482.934 215.239C484.106 199.937 475.459 184.065 461.874 176.891C460.192 176.008 458.445 175.256 456.647 174.642C454.791 174.004 453.993 176.944 455.838 177.579V177.579Z" fill="#E6E6E6"/>
</svg>
