<svg width="224" height="208" viewBox="0 0 224 208" fill="none" xmlns="http://www.w3.org/2000/svg">
<path d="M65.8293 205.824C69.4252 202.528 71.6093 197.321 71.0365 192.252C70.4637 187.183 66.916 182.524 62.314 181.447C57.712 180.371 52.4661 183.35 51.0683 188.227C50.299 178.825 49.4126 169.03 44.8046 161.024C40.6323 153.774 33.4056 148.587 25.5735 147.659C17.7415 146.731 9.49529 150.236 4.61072 156.941C-0.273855 163.647 -1.46982 173.396 1.95121 181.094C4.47136 186.765 9.11437 190.986 13.9791 194.42C29.6987 205.422 48.5524 209.896 67.0711 207.019" fill="#DD6F92"/>
<path d="M12.3562 150.435C18.8187 156.145 24.7473 162.531 30.0563 169.501C38.3648 180.371 45.0882 192.559 49.9922 205.639C50.3512 206.593 48.9228 207.009 48.5678 206.065C45.4492 197.795 41.5909 189.876 37.0483 182.423C29.9646 170.779 21.286 160.375 11.3117 151.568C10.5742 150.917 11.6248 149.789 12.3562 150.435V150.435Z" fill="#FD98B8"/>
<path d="M68.3137 205.824C64.7178 202.528 62.5336 197.321 63.1064 192.252C63.6793 187.183 67.227 182.524 71.829 181.447C76.431 180.371 81.6769 183.35 83.0747 188.227C83.844 178.825 84.7304 169.03 89.3383 161.024C93.5107 153.774 100.737 148.587 108.569 147.659C116.402 146.731 124.648 150.236 129.532 156.941C134.417 163.647 135.613 173.396 132.192 181.094C129.672 186.765 125.029 190.986 120.164 194.42C104.444 205.422 85.5906 209.896 67.0719 207.019" fill="#DD6F92"/>
<path d="M121.785 150.435C115.323 156.145 109.394 162.531 104.085 169.501C95.7766 180.371 89.0532 192.559 84.1492 205.639C83.7902 206.593 85.2187 207.009 85.5736 206.065C93.5974 184.807 106.407 166.07 122.83 151.568C123.567 150.917 122.517 149.789 121.785 150.435V150.435Z" fill="#FD98B8"/>
<path d="M78.9826 93.5692C85.635 93.5692 91.0277 87.7194 91.0277 80.5034C91.0277 73.2873 85.635 67.4375 78.9826 67.4375C72.3303 67.4375 66.9375 73.2873 66.9375 80.5034C66.9375 87.7194 72.3303 93.5692 78.9826 93.5692Z" fill="#F2F2F2"/>
<path d="M57.8086 206.098V131.285H78.0133V206.098C78.0128 206.601 77.8284 207.083 77.5006 207.438C77.1728 207.794 76.7284 207.994 76.2648 207.994H59.5571C59.0935 207.994 58.6491 207.794 58.3213 207.438C57.9935 207.083 57.8091 206.601 57.8086 206.098Z" fill="#3F3D56"/>
<path d="M5.00977 129.698V68.8637C5.01985 59.1793 8.57087 49.8947 14.8838 43.0468C21.1967 36.1989 29.7559 32.3469 38.6837 32.3359H124.295V131.805H6.95253C6.43745 131.804 5.94365 131.582 5.57944 131.187C5.21523 130.792 5.01035 130.256 5.00977 129.698ZM123.518 33.1789H38.6837C29.962 33.1896 21.6002 36.9527 15.433 43.6426C9.2658 50.3325 5.79673 59.4028 5.78687 68.8637V129.698C5.78721 130.033 5.91013 130.354 6.12866 130.591C6.34719 130.828 6.64348 130.962 6.95253 130.962H123.518V33.1789Z" fill="#FD3373"/>
<path d="M123.518 33.1789H38.6837C29.962 33.1896 21.6002 36.9527 15.433 43.6426C9.2658 50.3325 5.79673 59.4028 5.78687 68.8637V129.698C5.78721 130.033 5.91013 130.354 6.12866 130.591C6.34719 130.828 6.64348 130.962 6.95253 130.962H123.518V33.1789Z" fill="#FD3373"/>
<path d="M41.848 35.4609H124.835V40.3861H52.4421C48.1856 40.386 43.9708 41.2955 40.0384 43.0624C36.1059 44.8293 32.5328 47.4191 29.523 50.6839C26.5132 53.9487 24.1258 57.8246 22.4969 62.0903C20.868 66.3561 20.0296 70.928 20.0296 75.5452V131.5H10.949C10.5476 131.5 10.1627 131.327 9.87883 131.019C9.59501 130.711 9.43556 130.294 9.43555 129.858V70.6201C9.43554 66.0029 10.2739 61.4309 11.9028 57.1652C13.5317 52.8995 15.9192 49.0236 18.9289 45.7588C21.9387 42.494 25.5118 39.9041 29.4443 38.1372C33.3767 36.3703 37.5915 35.4609 41.848 35.4609Z" fill="white"/>
<path d="M78.9826 87.2462C77.1284 87.2439 75.3506 86.4439 74.0395 85.0216C72.7283 83.5993 71.9908 81.671 71.9887 79.6596V25.2888C71.9884 24.9535 71.8654 24.6321 71.6469 24.3951C71.4284 24.158 71.1321 24.0247 70.823 24.0243H43.6244C43.1093 24.0237 42.6155 23.8014 42.2513 23.4064C41.8871 23.0113 41.6822 22.4756 41.6816 21.9169V2.1074C41.6822 1.54868 41.8871 1.01303 42.2513 0.617954C42.6155 0.222881 43.1093 0.000646987 43.6244 0H84.0338C84.5489 0.000639195 85.0427 0.222873 85.4069 0.617948C85.7711 1.01302 85.976 1.54868 85.9766 2.1074V79.6596C85.9745 81.671 85.237 83.5993 83.9258 85.0216C82.6146 86.4439 80.8369 87.2439 78.9826 87.2462Z" fill="#C73865"/>
<path d="M127.552 31.6133C133.413 31.6 139.04 34.1131 143.193 38.5996C147.347 43.0862 149.687 49.1788 149.699 55.5371V124.79H193.217C194.965 124.786 196.643 125.536 197.882 126.874C199.121 128.212 199.819 130.029 199.822 131.925H105.404V55.5371C105.417 49.1788 107.757 43.0862 111.91 38.5996C116.064 34.1131 121.69 31.6 127.552 31.6133Z" fill="#3F3D56"/>
<path d="M122.237 71.0459L126.823 91.5956L216.533 68.0384L211.947 47.4888C211.891 47.2375 211.778 47.0055 211.618 46.8143C211.458 46.6231 211.256 46.4789 211.031 46.395C210.864 46.3316 210.688 46.3029 210.512 46.3104L158.656 17.1854C158.352 17.0171 158.003 16.9721 157.671 17.0586C157.34 17.1451 157.047 17.3574 156.847 17.6571L131.856 55.4612L122.434 69.7168C122.417 69.7417 122.405 69.7704 122.399 69.8008C122.393 69.8313 122.393 69.8627 122.399 69.8931C122.208 70.2392 122.149 70.6535 122.237 71.0459Z" fill="white"/>
<path d="M122.399 69.8931C122.404 69.9198 122.413 69.9453 122.427 69.9682C122.44 69.991 122.458 70.0107 122.478 70.0262C122.503 70.0443 122.53 70.0568 122.559 70.063C122.588 70.0692 122.618 70.0689 122.647 70.0622C122.694 70.0487 122.735 70.0178 122.763 69.9749L122.795 69.9262L123.286 69.1821L132.195 55.7098L157.179 17.9144C157.322 17.7003 157.53 17.5486 157.767 17.4871C158.004 17.4255 158.253 17.458 158.47 17.5788L209.924 46.4783L210.386 46.7382C210.404 46.7467 210.423 46.754 210.443 46.76C210.478 46.7531 210.513 46.7495 210.548 46.749C210.597 46.7315 210.637 46.6946 210.661 46.6459C210.674 46.6202 210.681 46.5921 210.684 46.5632C210.686 46.5343 210.684 46.5052 210.676 46.4774C210.668 46.4497 210.655 46.4239 210.638 46.4015C210.621 46.3792 210.6 46.3607 210.576 46.3472L210.512 46.3104L158.656 17.1854C158.352 17.0171 158.003 16.9721 157.671 17.0586C157.34 17.1451 157.047 17.3574 156.847 17.6571L131.855 55.4612L122.434 69.7168C122.417 69.7417 122.405 69.7704 122.399 69.8008C122.393 69.8313 122.393 69.8627 122.399 69.8931Z" fill="#3F3D56"/>
<path d="M149.344 71.9903L151.34 72.2306L166.161 74.0115L175.986 75.1913L176.566 75.2613L188.826 64.874L189.295 64.4762L192.191 62.0231L202.493 53.2958L202.555 52.6828L206.219 16.8089C206.269 16.315 206.136 15.8196 205.85 15.4316C205.564 15.0435 205.147 14.7944 204.692 14.7388L155.791 8.86267C155.335 8.80873 154.879 8.95272 154.521 9.26311C154.163 9.57351 153.934 10.025 153.882 10.5187L151.298 35.8233L149.865 49.8526L148.583 62.4036L147.988 68.2324L147.815 69.9207C147.765 70.4149 147.898 70.9102 148.185 71.2981C148.472 71.686 148.888 71.9349 149.344 71.9903Z" fill="#E5E5E5"/>
<path d="M162.782 40.5454L183.965 43.0903L191.477 43.9926C191.808 44.0324 192.144 44.001 192.464 43.9002C192.785 43.7993 193.084 43.6309 193.344 43.4047C193.605 43.1785 193.822 42.8988 193.983 42.5817C194.144 42.2646 194.245 41.9162 194.282 41.5564C194.319 41.1967 194.29 40.8326 194.197 40.4849C194.104 40.1373 193.949 39.8129 193.74 39.5304C193.531 39.2478 193.274 39.0126 192.981 38.8381C192.689 38.6636 192.368 38.5533 192.036 38.5134L182.693 37.3909L163.343 35.0636C162.673 34.9833 162.001 35.1949 161.475 35.6518C160.949 36.1088 160.611 36.7737 160.537 37.5004C160.463 38.2271 160.657 38.9561 161.078 39.5271C161.499 40.0981 162.112 40.4644 162.782 40.5454Z" fill="white"/>
<path d="M161.577 50.7119C161.631 50.7225 161.686 50.7331 161.742 50.7389L186.331 53.6939L190.437 54.1882C191.107 54.2686 191.779 54.057 192.305 53.5999C192.831 53.1427 193.169 52.4776 193.243 51.7507C193.317 51.0239 193.122 50.2948 192.7 49.724C192.279 49.1531 191.666 48.7873 190.996 48.7069L185.059 47.9944L165.581 45.6532L162.303 45.2592C161.647 45.1799 160.989 45.3802 160.467 45.8178C159.945 46.2554 159.601 46.896 159.507 47.6041C159.412 48.3123 159.575 49.0324 159.962 49.6124C160.348 50.1924 160.927 50.5866 161.577 50.7119V50.7119Z" fill="white"/>
<path d="M158.791 59.7237C158.993 60.0866 159.269 60.3943 159.598 60.6227C159.926 60.8512 160.299 60.9943 160.688 61.041L170.766 62.2518L188.716 64.409L188.72 64.4079L189.294 64.4773L192.19 62.0242C192.208 61.8379 192.208 61.65 192.19 61.4637C192.129 60.8379 191.873 60.2535 191.464 59.8072C191.055 59.3608 190.518 59.0792 189.942 59.009L187.448 58.7085L177.557 57.5211L170.44 56.6649L161.246 55.5597C160.775 55.5031 160.299 55.5906 159.871 55.8123C159.444 56.034 159.082 56.3811 158.826 56.8142C158.571 57.2474 158.432 57.7494 158.426 58.2636C158.42 58.7777 158.546 59.2835 158.791 59.7237L158.791 59.7237Z" fill="white"/>
<path d="M172.948 28.1216L178.219 28.7548L180.547 29.0352L184.063 29.4574C184.733 29.5378 185.405 29.3262 185.931 28.869C186.458 28.4119 186.795 27.7467 186.869 27.0199C186.943 26.293 186.748 25.564 186.327 24.9931C185.905 24.4223 185.292 24.0564 184.622 23.976L173.51 22.6419C172.84 22.5611 172.168 22.7723 171.641 23.229C171.115 23.6857 170.778 24.3506 170.703 25.0772C170.629 25.8039 170.823 26.5328 171.244 27.1038C171.665 27.6747 172.278 28.0408 172.948 28.1216V28.1216Z" fill="white"/>
<path d="M129.851 43.38L136.277 72.1728L147.001 74.3848L156.922 76.4336L167.565 78.6305L170.966 79.3326C171.166 79.3734 171.37 79.3677 171.567 79.316C171.764 79.2643 171.949 79.1677 172.109 79.0326L174.837 76.721L176.565 75.2577L188.824 64.8704L181.029 29.9409C180.952 29.5934 180.784 29.2774 180.546 29.0309C180.336 28.8128 180.08 28.6553 179.8 28.573C179.52 28.4907 179.225 28.4863 178.943 28.56L131.124 41.117C130.679 41.2343 130.295 41.5384 130.056 41.9628C129.817 42.3871 129.743 42.8968 129.851 43.38Z" fill="#FD3373"/>
<path d="M144.585 66.2887C144.744 66.999 145.156 67.6117 145.731 67.9924C146.306 68.3732 146.997 68.4907 147.652 68.3194L175.712 60.9512C176.366 60.7783 176.931 60.3308 177.282 59.707C177.633 59.0832 177.741 58.3339 177.584 57.6233C177.576 57.5881 177.567 57.5534 177.556 57.5193C177.377 56.8343 176.96 56.2511 176.394 55.8919C175.827 55.5327 175.154 55.4255 174.516 55.5926L146.457 62.9608C145.802 63.1334 145.237 63.5807 144.886 64.2047C144.535 64.8286 144.427 65.5781 144.585 66.2887Z" fill="white"/>
<path d="M147 74.3899L156.921 76.4387L177.935 70.9204C178.59 70.7484 179.156 70.3011 179.507 69.677C179.858 69.0529 179.966 68.3031 179.807 67.5925C179.649 66.8819 179.236 66.2687 178.661 65.8879C178.086 65.5071 177.394 65.3898 176.739 65.5618L148.68 72.9299C148.094 73.0827 147.577 73.4582 147.224 73.9885C147.139 74.1152 147.064 74.2495 147 74.3899Z" fill="white"/>
<path d="M167.566 78.6361L170.967 79.3381C171.167 79.3789 171.371 79.3733 171.568 79.3216C171.765 79.2699 171.95 79.1733 172.11 79.0382L174.838 76.7266L167.566 78.6361Z" fill="white"/>
<path d="M150.239 50.8485C150.398 51.5587 150.811 52.1715 151.386 52.5522C151.961 52.933 152.652 53.0505 153.307 52.8792L164.175 50.0253C164.83 49.8524 165.394 49.4049 165.745 48.7811C166.096 48.1572 166.205 47.4079 166.047 46.6974C165.963 46.3156 165.803 45.9581 165.579 45.6495C165.278 45.2323 164.873 44.9178 164.412 44.7435C163.951 44.5692 163.454 44.5426 162.979 44.6667L152.111 47.5206C151.456 47.6927 150.891 48.14 150.54 48.764C150.189 49.3881 150.081 50.1379 150.239 50.8485V50.8485Z" fill="white"/>
<path d="M156.921 76.4386L167.566 78.636L170.966 79.3384C171.165 79.3787 171.37 79.3728 171.567 79.3212C171.763 79.2695 171.948 79.1732 172.108 79.0386L174.838 76.7264L173.88 76.978L171.857 78.6897C171.743 78.7858 171.611 78.8546 171.471 78.8915C171.33 78.9284 171.184 78.9326 171.042 78.9038L168.524 78.3844L157.879 76.187L156.921 76.4386ZM188.719 64.41L188.822 64.8744L189.295 64.4762L188.719 64.41ZM156.921 76.4386L167.566 78.636L170.966 79.3384C171.165 79.3787 171.37 79.3728 171.567 79.3212C171.763 79.2695 171.948 79.1732 172.108 79.0386L174.838 76.7264L173.88 76.978L171.857 78.6897C171.743 78.7858 171.611 78.8546 171.471 78.8915C171.33 78.9284 171.184 78.9326 171.042 78.9038L168.524 78.3844L157.879 76.187L156.921 76.4386ZM156.921 76.4386L167.566 78.636L170.966 79.3384C171.165 79.3787 171.37 79.3728 171.567 79.3212C171.763 79.2695 171.948 79.1732 172.108 79.0386L174.838 76.7264L173.88 76.978L171.857 78.6897C171.743 78.7858 171.611 78.8546 171.471 78.8915C171.33 78.9284 171.184 78.9326 171.042 78.9038L168.524 78.3844L157.879 76.187L156.921 76.4386ZM122.237 71.0492L134.25 124.876C134.339 125.274 134.57 125.617 134.892 125.831C135.214 126.044 135.601 126.11 135.968 126.014L222.911 103.183C223.277 103.086 223.594 102.836 223.79 102.486C223.987 102.137 224.048 101.717 223.959 101.319L211.947 47.4921C211.891 47.2408 211.778 47.0088 211.618 46.8176C211.458 46.6264 211.256 46.4822 211.031 46.3983C210.864 46.3349 210.688 46.3061 210.512 46.3137C210.307 46.3201 210.106 46.3776 209.924 46.4816C209.84 46.5247 209.761 46.5781 209.688 46.6405L202.553 52.6844L192.19 61.4653L188.718 64.4068L188.719 64.41L188.716 64.4108L175.985 75.1914L173.88 76.978L171.857 78.6897C171.743 78.7858 171.611 78.8546 171.471 78.8915C171.33 78.9284 171.184 78.9326 171.042 78.9038L168.524 78.3844L157.879 76.187L147.224 73.9887L123.887 69.1713C123.688 69.1285 123.483 69.1333 123.286 69.1854C123.02 69.2557 122.779 69.4073 122.591 69.622C122.519 69.7063 122.455 69.7982 122.399 69.8964C122.208 70.2425 122.149 70.6568 122.237 71.0492ZM156.921 76.4386L167.566 78.636L170.966 79.3384C171.165 79.3787 171.37 79.3728 171.567 79.3212C171.763 79.2695 171.948 79.1732 172.108 79.0386L174.838 76.7264L173.88 76.978L171.857 78.6897C171.743 78.7858 171.611 78.8546 171.471 78.8915C171.33 78.9284 171.184 78.9326 171.042 78.9038L168.524 78.3844L157.879 76.187L156.921 76.4386ZM156.921 76.4386L167.566 78.636L170.966 79.3384C171.165 79.3787 171.37 79.3728 171.567 79.3212C171.763 79.2695 171.948 79.1732 172.108 79.0386L174.838 76.7264L173.88 76.978L171.857 78.6897C171.743 78.7858 171.611 78.8546 171.471 78.8915C171.33 78.9284 171.184 78.9326 171.042 78.9038L168.524 78.3844L157.879 76.187L156.921 76.4386ZM156.921 76.4386L167.566 78.636L170.966 79.3384C171.165 79.3787 171.37 79.3728 171.567 79.3212C171.763 79.2695 171.948 79.1732 172.108 79.0386L174.838 76.7264L173.88 76.978L171.857 78.6897C171.743 78.7858 171.611 78.8546 171.471 78.8915C171.33 78.9284 171.184 78.9326 171.042 78.9038L168.524 78.3844L157.879 76.187L156.921 76.4386Z" fill="white"/>
<path d="M156.921 76.4386L167.566 78.636L170.966 79.3384C171.165 79.3787 171.37 79.3728 171.567 79.3212C171.763 79.2695 171.948 79.1732 172.108 79.0386L174.838 76.7264L173.88 76.978L171.857 78.6897C171.743 78.7858 171.611 78.8546 171.471 78.8915C171.33 78.9284 171.184 78.9326 171.042 78.9038L168.524 78.3844L157.879 76.187L156.921 76.4386ZM188.719 64.41L188.822 64.8744L189.295 64.4762L188.719 64.41ZM156.921 76.4386L167.566 78.636L170.966 79.3384C171.165 79.3787 171.37 79.3728 171.567 79.3212C171.763 79.2695 171.948 79.1732 172.108 79.0386L174.838 76.7264L173.88 76.978L171.857 78.6897C171.743 78.7858 171.611 78.8546 171.471 78.8915C171.33 78.9284 171.184 78.9326 171.042 78.9038L168.524 78.3844L157.879 76.187L156.921 76.4386ZM156.921 76.4386L167.566 78.636L170.966 79.3384C171.165 79.3787 171.37 79.3728 171.567 79.3212C171.763 79.2695 171.948 79.1732 172.108 79.0386L174.838 76.7264L173.88 76.978L171.857 78.6897C171.743 78.7858 171.611 78.8546 171.471 78.8915C171.33 78.9284 171.184 78.9326 171.042 78.9038L168.524 78.3844L157.879 76.187L156.921 76.4386ZM122.795 69.9295L122.848 69.9725C122.857 69.9568 122.872 69.9428 122.884 69.9263C123.002 69.7934 123.148 69.6943 123.31 69.6378C123.471 69.5813 123.643 69.5692 123.811 69.6027L147.002 74.3882L156.921 76.4386L167.566 78.636L170.966 79.3384C171.165 79.3787 171.37 79.3728 171.567 79.3211C171.763 79.2695 171.948 79.1732 172.108 79.0386L174.838 76.7264L173.88 76.978L171.857 78.6896C171.743 78.7858 171.611 78.8546 171.471 78.8915C171.33 78.9284 171.184 78.9326 171.042 78.9038L168.524 78.3844L157.879 76.187L147.224 73.9887L123.887 69.1713C123.688 69.1285 123.483 69.1333 123.286 69.1854L122.795 69.9295ZM122.237 71.0492L134.25 124.876C134.339 125.274 134.57 125.617 134.892 125.831C135.214 126.044 135.601 126.11 135.968 126.014L222.911 103.183C223.277 103.086 223.594 102.836 223.79 102.486C223.987 102.137 224.048 101.717 223.959 101.319L211.947 47.4921C211.891 47.2408 211.778 47.0088 211.618 46.8176C211.458 46.6264 211.256 46.4822 211.031 46.3983C210.864 46.3349 210.688 46.3061 210.512 46.3137C210.307 46.3201 210.106 46.3776 209.924 46.4816C209.84 46.5247 209.761 46.5781 209.688 46.6405L202.553 52.6844L192.19 61.4653L188.718 64.4068L188.719 64.41L188.716 64.4108L175.985 75.1914L173.88 76.978L171.857 78.6897C171.743 78.7858 171.611 78.8546 171.471 78.8915C171.33 78.9284 171.184 78.9326 171.042 78.9038L168.524 78.3844L157.879 76.187L147.224 73.9887L123.887 69.1713C123.688 69.1285 123.483 69.1333 123.286 69.1854C123.02 69.2557 122.779 69.4073 122.591 69.622C122.519 69.7063 122.455 69.7982 122.399 69.8963C122.208 70.2425 122.149 70.6567 122.237 71.0492ZM122.633 70.9452C122.598 70.7865 122.596 70.6213 122.627 70.4615C122.658 70.3018 122.721 70.1516 122.813 70.0219C122.821 70.0029 122.833 69.986 122.848 69.9725C122.857 69.9568 122.872 69.9428 122.884 69.9263C123.002 69.7934 123.148 69.6943 123.31 69.6378C123.471 69.5813 123.643 69.5693 123.811 69.6027L147.002 74.3882L156.921 76.4386L167.566 78.636L170.966 79.3384C171.165 79.3787 171.37 79.3728 171.567 79.3212C171.763 79.2695 171.948 79.1732 172.108 79.0386L174.838 76.7264L176.565 75.2631L188.822 64.8744L189.295 64.4761L192.188 62.0242L202.492 53.2956L209.941 46.9854C210.054 46.8896 210.185 46.8211 210.324 46.7844C210.363 46.774 210.403 46.767 210.443 46.7633C210.478 46.7564 210.513 46.7527 210.548 46.7523C210.667 46.7511 210.786 46.772 210.898 46.8142C211.059 46.8749 211.203 46.9781 211.317 47.1145C211.432 47.2509 211.513 47.4162 211.553 47.5953L223.566 101.423C223.597 101.564 223.603 101.71 223.583 101.853C223.562 101.997 223.515 102.134 223.446 102.258C223.376 102.382 223.284 102.49 223.176 102.576C223.068 102.661 222.946 102.723 222.815 102.757L135.873 125.587C135.61 125.656 135.334 125.608 135.104 125.455C134.874 125.303 134.709 125.057 134.646 124.772L122.633 70.9452ZM156.921 76.4386L167.566 78.636L170.966 79.3384C171.165 79.3787 171.37 79.3728 171.567 79.3212C171.763 79.2695 171.948 79.1732 172.108 79.0386L174.838 76.7264L173.88 76.978L171.857 78.6897C171.743 78.7858 171.611 78.8546 171.471 78.8915C171.33 78.9284 171.184 78.9326 171.042 78.9038L168.524 78.3844L157.879 76.187L156.921 76.4386ZM156.921 76.4386L167.566 78.636L170.966 79.3384C171.165 79.3787 171.37 79.3728 171.567 79.3212C171.763 79.2695 171.948 79.1732 172.108 79.0386L174.838 76.7264L173.88 76.978L171.857 78.6897C171.743 78.7858 171.611 78.8546 171.471 78.8915C171.33 78.9284 171.184 78.9326 171.042 78.9038L168.524 78.3844L157.879 76.187L156.921 76.4386ZM156.921 76.4386L167.566 78.636L170.966 79.3384C171.165 79.3787 171.37 79.3728 171.567 79.3212C171.763 79.2695 171.948 79.1732 172.108 79.0386L174.838 76.7264L173.88 76.978L171.857 78.6897C171.743 78.7858 171.611 78.8546 171.471 78.8915C171.33 78.9284 171.184 78.9326 171.042 78.9038L168.524 78.3844L157.879 76.187L156.921 76.4386Z" fill="#3F3D56"/>
<path d="M200.252 92.6098C200.056 91.7277 200.191 90.7975 200.626 90.023C201.062 89.2486 201.763 88.6932 202.576 88.4787L213.549 85.5972C214.361 85.3872 215.217 85.5349 215.928 86.0079C216.64 86.481 217.15 87.2407 217.347 88.1208C217.543 89.0008 217.41 89.9295 216.976 90.7033C216.543 91.477 215.844 92.0329 215.034 92.249L204.06 95.1305C203.247 95.343 202.389 95.1969 201.676 94.7243C200.962 94.2518 200.45 93.4913 200.252 92.6098Z" fill="#FD3373"/>
<path d="M78.9835 82.6117C80.4857 82.6117 81.7034 81.2907 81.7034 79.6613C81.7034 78.0319 80.4857 76.7109 78.9835 76.7109C77.4814 76.7109 76.2637 78.0319 76.2637 79.6613C76.2637 81.2907 77.4814 82.6117 78.9835 82.6117Z" fill="white"/>
</svg>
