<svg width="36" height="24" viewBox="0 0 36 24" fill="none" xmlns="http://www.w3.org/2000/svg">
<path d="M26.6156 12.7734C26.8844 13.0891 27.1594 13.3219 27.4406 13.4719C27.7188 13.6281 28 13.7062 28.2844 13.7062C28.5156 13.7062 28.7109 13.6391 28.8703 13.5047C29.0234 13.3703 29.1 13.2 29.1 12.9937C29.1 12.775 29.0359 12.6016 28.9078 12.4734C28.7609 12.3516 28.4641 12.2312 28.0172 12.1125C27.3141 11.9187 26.8203 11.6781 26.5359 11.3906C26.2547 11.1 26.1141 10.7031 26.1141 10.2C26.1141 9.575 26.3094 9.07187 26.7 8.69062C27.1031 8.30312 27.6469 8.07656 28.3313 8.01094V7.35937H28.9359V8.00156C29.2391 8.03281 29.5078 8.09687 29.7422 8.19375C29.9953 8.28437 30.2547 8.41875 30.5203 8.59687L29.925 9.93281C29.7094 9.74531 29.4953 9.61094 29.2828 9.52969C29.0578 9.43906 28.8344 9.39375 28.6125 9.39375C28.3844 9.39375 28.2047 9.44531 28.0734 9.54844C27.9328 9.64844 27.8625 9.78594 27.8625 9.96094C27.8625 10.1328 27.9234 10.2703 28.0453 10.3734C28.1641 10.4734 28.4031 10.5719 28.7625 10.6687C28.7594 10.6687 28.7797 10.675 28.8234 10.6875C29.5891 10.8906 30.0938 11.1187 30.3375 11.3719C30.5031 11.5375 30.6281 11.7391 30.7125 11.9766C30.7969 12.2141 30.8391 12.4734 30.8391 12.7547C30.8391 13.4078 30.6438 13.9484 30.2531 14.3766C29.8594 14.7984 29.3313 15.0453 28.6688 15.1172V16.2563H28.0641V15.1359C27.6141 15.1266 27.2078 15.0422 26.8453 14.8828C26.4734 14.7234 26.1141 14.4781 25.7672 14.1469L26.6156 12.7734Z" fill="#DE527F"/>
<path d="M12 22C7.664 22 4 19.965 4 17.556V6.444C4 4.035 7.664 2 12 2C16.336 2 20 4.035 20 6.444V17.556C20 19.965 16.337 22 12 22ZM6 14.9V17.559C6.07 18.112 8.309 19.781 12 19.781C15.691 19.781 17.931 18.107 18 17.553V14.9C16.1794 15.9554 14.1039 16.4905 12 16.447C9.89606 16.4906 7.82058 15.9554 6 14.9ZM6 9.341V12C6.07 12.553 8.309 14.222 12 14.222C15.691 14.222 17.931 12.548 18 11.994V9.341C16.1795 10.3968 14.104 10.9323 12 10.889C9.89596 10.9323 7.82046 10.3968 6 9.341ZM12 4.222C8.308 4.222 6.069 5.896 6 6.451C6.07 7 8.311 8.666 12 8.666C15.689 8.666 17.931 6.992 18 6.438C17.93 5.887 15.689 4.222 12 4.222Z" fill="#DE527F"/>
<circle cx="28.5" cy="11.5" r="6.5" stroke="#DE527F" stroke-width="2"/>
</svg>
