<svg width="990" height="618" viewBox="0 0 990 618" fill="none" xmlns="http://www.w3.org/2000/svg">
<path d="M975.28 38H13.8198C10.1558 38.0035 6.64302 39.2469 4.0522 41.4574C1.46137 43.6679 0.00406899 46.6649 0 49.7911V605.656C0.0040725 608.782 1.4614 611.779 4.05222 613.989C6.64304 616.2 10.1558 617.443 13.8198 617.447H975.28C978.944 617.443 982.457 616.2 985.048 613.989C987.639 611.779 989.096 608.782 989.1 605.656V49.7911C989.096 46.6649 987.639 43.6679 985.048 41.4574C982.457 39.2469 978.944 38.0035 975.28 38ZM985.151 605.656C985.15 607.889 984.11 610.031 982.259 611.61C980.408 613.189 977.898 614.077 975.28 614.078H13.8198C11.2021 614.077 8.69184 613.189 6.84084 611.61C4.98985 610.031 3.94951 607.889 3.94848 605.656V49.7911C3.94952 47.5576 4.98987 45.4159 6.84086 43.8366C8.69186 42.2574 11.2021 41.3698 13.8198 41.3689H975.28C977.898 41.3698 980.408 42.2574 982.259 43.8366C984.11 45.4159 985.15 47.5576 985.151 49.7911V605.656Z" fill="#3F3D56"/>
<path d="M987.126 85.2321H1.97461V88.6009H987.126V85.2321Z" fill="#3F3D56"/>
<path d="M33.7964 73.3733C39.3772 73.3733 43.9014 68.8484 43.9014 63.2667C43.9014 57.685 39.3772 53.1601 33.7964 53.1601C28.2156 53.1601 23.6914 57.685 23.6914 63.2667C23.6914 68.8484 28.2156 73.3733 33.7964 73.3733Z" fill="#FD3373"/>
<path d="M67.8511 73.3733C73.4319 73.3733 77.9561 68.8484 77.9561 63.2667C77.9561 57.685 73.4319 53.1601 67.8511 53.1601C62.2703 53.1601 57.7461 57.685 57.7461 63.2667C57.7461 68.8484 62.2703 73.3733 67.8511 73.3733Z" fill="#FD3373"/>
<path d="M101.908 73.3733C107.489 73.3733 112.013 68.8484 112.013 63.2667C112.013 57.685 107.489 53.1601 101.908 53.1601C96.3269 53.1601 91.8027 57.685 91.8027 63.2667C91.8027 68.8484 96.3269 73.3733 101.908 73.3733Z" fill="#FD3373"/>
<path d="M414.785 170.19C414.467 170.19 414.162 170.069 413.93 169.853C413.698 169.637 413.557 169.341 413.535 169.024C412.715 157.889 407.719 147.474 399.546 139.863C391.372 132.252 380.625 128.007 369.455 127.977C368.118 127.977 366.713 128.045 365.28 128.179C365.041 128.201 364.8 128.154 364.586 128.044C364.372 127.933 364.195 127.763 364.075 127.554C358.944 118.577 351.282 111.309 342.044 106.657C332.806 102.005 322.402 100.176 312.131 101.397C301.86 102.618 292.175 106.835 284.287 113.523C276.399 120.211 270.655 129.072 267.774 139.002C267.698 139.268 267.535 139.502 267.312 139.665C267.089 139.829 266.817 139.914 266.541 139.906L266.207 139.896C266.034 139.891 265.861 139.884 265.686 139.884C257.213 139.911 249.004 142.832 242.421 148.164C235.838 153.495 231.276 160.916 229.493 169.195C229.434 169.477 229.279 169.729 229.056 169.91C228.833 170.091 228.554 170.19 228.266 170.19H144.255C143.923 170.189 143.604 170.057 143.37 169.822C143.136 169.587 143.004 169.268 143.004 168.937C143.004 168.605 143.136 168.286 143.37 168.051C143.604 167.816 143.923 167.684 144.255 167.683H227.262C229.352 159.072 234.267 151.408 241.224 145.915C248.18 140.422 256.777 137.416 265.642 137.378C268.798 127.174 274.851 118.105 283.066 111.274C291.28 104.443 301.302 100.144 311.915 98.8979C322.527 97.6521 333.273 99.5137 342.848 104.256C352.422 108.999 360.412 116.419 365.848 125.615C367.081 125.518 368.291 125.47 369.455 125.47C381.259 125.502 392.617 129.989 401.254 138.032C409.891 146.075 415.171 157.081 416.037 168.849C416.048 169.013 416.027 169.178 415.975 169.334C415.923 169.49 415.841 169.634 415.733 169.759C415.625 169.883 415.493 169.985 415.346 170.058C415.198 170.132 415.038 170.175 414.874 170.187C414.844 170.189 414.814 170.19 414.785 170.19Z" fill="#CBCBCB"/>
<path d="M399.864 186.261H194.207C193.875 186.261 193.556 186.129 193.32 185.894C193.085 185.659 192.953 185.34 192.953 185.008C192.953 184.676 193.085 184.357 193.32 184.122C193.556 183.887 193.875 183.755 194.207 183.755H399.864C400.197 183.755 400.516 183.887 400.751 184.122C400.986 184.357 401.118 184.676 401.118 185.008C401.118 185.34 400.986 185.659 400.751 185.894C400.516 186.129 400.197 186.261 399.864 186.261Z" fill="#CBCBCB"/>
<path d="M244.366 204.436H175.396C175.231 204.436 175.068 204.404 174.915 204.341C174.763 204.278 174.624 204.186 174.507 204.07C174.39 203.953 174.298 203.815 174.234 203.663C174.171 203.51 174.139 203.347 174.139 203.182C174.139 203.017 174.171 202.854 174.234 202.702C174.298 202.55 174.39 202.411 174.507 202.295C174.624 202.178 174.763 202.086 174.915 202.023C175.068 201.961 175.231 201.928 175.396 201.929H244.366C244.698 201.93 245.016 202.062 245.251 202.297C245.485 202.532 245.617 202.85 245.617 203.182C245.617 203.514 245.485 203.832 245.251 204.067C245.016 204.302 244.698 204.435 244.366 204.436Z" fill="#CBCBCB"/>
<path d="M712.187 365.159C712.414 365.159 712.633 365.073 712.799 364.918C712.965 364.763 713.067 364.55 713.083 364.324C713.67 356.342 717.252 348.877 723.11 343.421C728.969 337.966 736.672 334.923 744.679 334.902C745.637 334.902 746.644 334.95 747.671 335.046C747.843 335.062 748.016 335.029 748.169 334.949C748.322 334.87 748.449 334.748 748.535 334.598C752.213 328.164 757.705 322.954 764.327 319.62C770.948 316.285 778.405 314.974 785.768 315.849C793.13 316.724 800.072 319.747 805.726 324.541C811.38 329.335 815.497 335.687 817.562 342.804C817.617 342.995 817.733 343.162 817.893 343.28C818.053 343.397 818.248 343.458 818.446 343.452L818.685 343.445C818.81 343.441 818.934 343.437 819.059 343.437C825.132 343.456 831.016 345.55 835.735 349.371C840.454 353.193 843.723 358.512 845.002 364.446C845.044 364.648 845.155 364.829 845.315 364.959C845.475 365.088 845.675 365.159 845.881 365.159H906.099C906.218 365.16 906.335 365.137 906.444 365.092C906.554 365.047 906.653 364.981 906.737 364.897C906.821 364.814 906.887 364.715 906.932 364.605C906.978 364.496 907.001 364.379 907.001 364.261C907.001 364.143 906.978 364.026 906.932 363.916C906.887 363.807 906.821 363.708 906.737 363.625C906.653 363.541 906.554 363.475 906.444 363.43C906.335 363.385 906.218 363.362 906.099 363.362H846.6C845.103 357.19 841.579 351.697 836.593 347.759C831.607 343.822 825.445 341.668 819.09 341.64C816.828 334.326 812.489 327.826 806.601 322.929C800.714 318.033 793.53 314.951 785.923 314.058C778.316 313.165 770.613 314.499 763.75 317.899C756.888 321.299 751.16 326.617 747.264 333.208C746.38 333.139 745.513 333.105 744.679 333.105C736.217 333.128 728.077 336.343 721.886 342.109C715.695 347.874 711.91 355.763 711.289 364.198C711.281 364.316 711.296 364.434 711.333 364.546C711.371 364.658 711.43 364.761 711.507 364.85C711.585 364.939 711.679 365.012 711.785 365.065C711.89 365.118 712.005 365.149 712.123 365.157C712.145 365.159 712.166 365.159 712.187 365.159Z" fill="#CBCBCB"/>
<path d="M722.879 376.679H870.292C870.53 376.679 870.759 376.584 870.927 376.416C871.096 376.248 871.19 376.019 871.19 375.781C871.19 375.542 871.096 375.314 870.927 375.145C870.759 374.977 870.53 374.882 870.292 374.882H722.879C722.641 374.882 722.412 374.977 722.244 375.145C722.075 375.314 721.98 375.542 721.98 375.781C721.98 376.019 722.075 376.248 722.244 376.416C722.412 376.584 722.641 376.679 722.879 376.679Z" fill="#CBCBCB"/>
<path d="M834.338 389.707H883.775C884.013 389.706 884.241 389.611 884.409 389.443C884.577 389.274 884.671 389.046 884.671 388.808C884.671 388.571 884.577 388.342 884.409 388.174C884.241 388.006 884.013 387.911 883.775 387.91H834.338C834.22 387.91 834.103 387.933 833.994 387.978C833.885 388.023 833.786 388.09 833.703 388.173C833.619 388.256 833.553 388.356 833.508 388.465C833.463 388.574 833.439 388.69 833.439 388.808C833.439 388.926 833.463 389.043 833.508 389.152C833.553 389.261 833.619 389.36 833.703 389.444C833.786 389.527 833.885 389.593 833.994 389.638C834.103 389.683 834.22 389.707 834.338 389.707Z" fill="#CBCBCB"/>
<path d="M530.767 465.735C530.54 465.735 530.321 465.648 530.155 465.493C529.989 465.338 529.887 465.126 529.872 464.899C529.284 456.918 525.703 449.452 519.844 443.997C513.986 438.542 506.282 435.499 498.275 435.477C497.317 435.477 496.311 435.526 495.283 435.622C495.111 435.638 494.939 435.604 494.786 435.525C494.632 435.445 494.505 435.324 494.42 435.174C490.742 428.739 485.249 423.53 478.628 420.195C472.006 416.861 464.549 415.549 457.187 416.425C449.824 417.3 442.883 420.323 437.228 425.117C431.574 429.91 427.457 436.262 425.392 443.38C425.337 443.571 425.221 443.738 425.061 443.855C424.901 443.972 424.706 444.033 424.508 444.028L424.269 444.021C424.145 444.017 424.02 444.012 423.895 444.012C417.822 444.031 411.938 446.125 407.219 449.947C402.5 453.768 399.231 459.087 397.953 465.022C397.91 465.223 397.8 465.404 397.639 465.534C397.479 465.664 397.279 465.735 397.073 465.735H336.855C336.737 465.735 336.619 465.712 336.51 465.667C336.401 465.622 336.301 465.556 336.217 465.473C336.134 465.389 336.067 465.29 336.022 465.181C335.976 465.072 335.953 464.955 335.953 464.836C335.953 464.718 335.976 464.601 336.022 464.492C336.067 464.383 336.134 464.284 336.217 464.2C336.301 464.117 336.401 464.051 336.51 464.006C336.619 463.961 336.737 463.938 336.855 463.938H396.354C397.852 457.765 401.375 452.272 406.361 448.335C411.347 444.398 417.51 442.243 423.864 442.215C426.126 434.901 430.465 428.401 436.353 423.505C442.241 418.608 449.425 415.527 457.032 414.634C464.638 413.741 472.341 415.075 479.204 418.475C486.066 421.874 491.794 427.193 495.69 433.784C496.574 433.715 497.441 433.68 498.275 433.68C506.737 433.703 514.878 436.919 521.069 442.684C527.26 448.449 531.044 456.339 531.665 464.774C531.673 464.891 531.658 465.009 531.621 465.121C531.583 465.233 531.524 465.337 531.447 465.426C531.369 465.515 531.275 465.588 531.17 465.64C531.064 465.693 530.949 465.724 530.831 465.733C530.81 465.734 530.788 465.735 530.767 465.735Z" fill="#CBCBCB"/>
<path d="M520.072 477.255H372.659C372.541 477.255 372.424 477.232 372.315 477.187C372.205 477.142 372.106 477.076 372.022 476.993C371.938 476.909 371.872 476.81 371.827 476.701C371.781 476.592 371.758 476.475 371.758 476.356C371.758 476.238 371.781 476.121 371.827 476.012C371.872 475.903 371.938 475.804 372.022 475.72C372.106 475.637 372.205 475.571 372.315 475.526C372.424 475.481 372.541 475.458 372.659 475.458H520.072C520.31 475.458 520.539 475.553 520.707 475.721C520.876 475.89 520.971 476.118 520.971 476.356C520.971 476.595 520.876 476.823 520.707 476.992C520.539 477.16 520.31 477.255 520.072 477.255Z" fill="#CBCBCB"/>
<path d="M408.614 490.282H359.177C359.059 490.283 358.942 490.26 358.832 490.215C358.723 490.17 358.623 490.104 358.54 490.02C358.456 489.937 358.389 489.837 358.344 489.728C358.299 489.619 358.275 489.502 358.275 489.384C358.275 489.266 358.299 489.149 358.344 489.039C358.389 488.93 358.456 488.831 358.54 488.747C358.623 488.664 358.723 488.598 358.832 488.553C358.942 488.508 359.059 488.485 359.177 488.485H408.614C408.732 488.485 408.85 488.508 408.959 488.553C409.068 488.598 409.168 488.664 409.252 488.747C409.335 488.831 409.402 488.93 409.447 489.039C409.492 489.149 409.516 489.266 409.516 489.384C409.516 489.502 409.492 489.619 409.447 489.728C409.402 489.837 409.335 489.937 409.252 490.02C409.168 490.104 409.068 490.17 408.959 490.215C408.85 490.26 408.732 490.283 408.614 490.282Z" fill="#CBCBCB"/>
<path d="M881.81 177.371C881.583 177.371 881.364 177.285 881.198 177.13C881.032 176.975 880.93 176.762 880.915 176.536C880.327 168.554 876.746 161.089 870.887 155.633C865.029 150.178 857.325 147.135 849.318 147.113C848.36 147.113 847.354 147.162 846.326 147.258C846.154 147.274 845.982 147.241 845.828 147.161C845.675 147.082 845.548 146.96 845.463 146.81C841.785 140.375 836.292 135.166 829.671 131.831C823.049 128.497 815.592 127.186 808.23 128.061C800.867 128.936 793.926 131.959 788.271 136.753C782.617 141.547 778.5 147.899 776.435 155.016C776.38 155.207 776.264 155.374 776.104 155.491C775.944 155.609 775.749 155.67 775.551 155.664L775.312 155.657C775.188 155.653 775.063 155.648 774.938 155.648C768.865 155.667 762.981 157.761 758.262 161.583C753.543 165.404 750.274 170.724 748.996 176.658C748.953 176.86 748.843 177.041 748.682 177.17C748.522 177.3 748.322 177.371 748.116 177.371H687.898C687.779 177.371 687.662 177.349 687.553 177.304C687.444 177.259 687.344 177.192 687.26 177.109C687.177 177.026 687.11 176.926 687.065 176.817C687.019 176.708 686.996 176.591 686.996 176.473C686.996 176.354 687.019 176.237 687.065 176.128C687.11 176.019 687.177 175.92 687.26 175.836C687.344 175.753 687.444 175.687 687.553 175.642C687.662 175.597 687.779 175.574 687.898 175.574H747.397C748.895 169.402 752.418 163.908 757.404 159.971C762.39 156.034 768.553 153.879 774.907 153.852C777.169 146.537 781.508 140.037 787.396 135.141C793.284 130.245 800.467 127.163 808.074 126.27C815.681 125.377 823.384 126.711 830.247 130.111C837.109 133.51 842.837 138.829 846.733 145.42C847.617 145.351 848.484 145.316 849.318 145.316C857.78 145.339 865.921 148.555 872.112 154.32C878.303 160.086 882.087 167.975 882.708 176.41C882.716 176.527 882.701 176.646 882.664 176.758C882.626 176.869 882.567 176.973 882.49 177.062C882.412 177.151 882.318 177.224 882.213 177.277C882.107 177.329 881.992 177.361 881.874 177.369C881.853 177.37 881.831 177.371 881.81 177.371Z" fill="#CBCBCB"/>
<path d="M871.115 188.891H723.702C723.584 188.892 723.467 188.869 723.358 188.824C723.248 188.779 723.149 188.712 723.065 188.629C722.981 188.546 722.915 188.446 722.869 188.337C722.824 188.228 722.801 188.111 722.801 187.993C722.801 187.874 722.824 187.757 722.869 187.648C722.915 187.539 722.981 187.44 723.065 187.356C723.149 187.273 723.248 187.207 723.358 187.162C723.467 187.117 723.584 187.094 723.702 187.094H871.115C871.353 187.094 871.582 187.189 871.75 187.357C871.919 187.526 872.014 187.754 872.014 187.993C872.014 188.231 871.919 188.46 871.75 188.628C871.582 188.797 871.353 188.891 871.115 188.891Z" fill="#CBCBCB"/>
<path d="M759.657 201.918H710.22C710.102 201.919 709.985 201.896 709.875 201.851C709.766 201.806 709.666 201.74 709.583 201.656C709.499 201.573 709.432 201.474 709.387 201.364C709.342 201.255 709.318 201.138 709.318 201.02C709.318 200.902 709.342 200.785 709.387 200.676C709.432 200.566 709.499 200.467 709.583 200.384C709.666 200.3 709.766 200.234 709.875 200.189C709.985 200.144 710.102 200.121 710.22 200.122H759.657C759.775 200.121 759.893 200.144 760.002 200.189C760.111 200.234 760.211 200.3 760.294 200.384C760.378 200.467 760.445 200.566 760.49 200.676C760.535 200.785 760.559 200.902 760.559 201.02C760.559 201.138 760.535 201.255 760.49 201.364C760.445 201.474 760.378 201.573 760.294 201.656C760.211 201.74 760.111 201.806 760.002 201.851C759.893 201.896 759.775 201.919 759.657 201.918Z" fill="#CBCBCB"/>
<path d="M773.897 543.371C774.124 543.371 774.343 543.285 774.509 543.13C774.675 542.975 774.777 542.762 774.792 542.536C775.38 534.554 778.961 527.089 784.82 521.633C790.678 516.178 798.382 513.135 806.389 513.113C807.347 513.113 808.354 513.162 809.381 513.258C809.553 513.274 809.725 513.241 809.879 513.161C810.032 513.082 810.159 512.96 810.245 512.81C813.922 506.375 819.415 501.166 826.036 497.831C832.658 494.497 840.115 493.186 847.478 494.061C854.84 494.936 861.781 497.959 867.436 502.753C873.09 507.547 877.207 513.899 879.272 521.016C879.327 521.207 879.443 521.374 879.603 521.491C879.763 521.609 879.958 521.67 880.156 521.664L880.395 521.657C880.519 521.653 880.644 521.648 880.769 521.648C886.842 521.667 892.726 523.761 897.445 527.583C902.164 531.404 905.433 536.724 906.711 542.658C906.754 542.86 906.864 543.041 907.025 543.17C907.185 543.3 907.385 543.371 907.591 543.371H967.809C967.928 543.371 968.045 543.349 968.154 543.304C968.263 543.259 968.363 543.192 968.447 543.109C968.53 543.026 968.597 542.926 968.642 542.817C968.688 542.708 968.711 542.591 968.711 542.473C968.711 542.354 968.688 542.237 968.642 542.128C968.597 542.019 968.53 541.92 968.447 541.836C968.363 541.753 968.263 541.687 968.154 541.642C968.045 541.597 967.928 541.574 967.809 541.574H908.31C906.812 535.402 903.289 529.908 898.303 525.971C893.317 522.034 887.155 519.879 880.8 519.852C878.538 512.537 874.199 506.037 868.311 501.141C862.423 496.245 855.24 493.163 847.633 492.27C840.026 491.377 832.323 492.711 825.46 496.111C818.598 499.51 812.87 504.829 808.974 511.42C808.09 511.351 807.223 511.316 806.389 511.316C797.927 511.339 789.786 514.555 783.596 520.32C777.405 526.086 773.62 533.975 772.999 542.41C772.991 542.527 773.006 542.646 773.043 542.758C773.081 542.869 773.14 542.973 773.217 543.062C773.295 543.151 773.389 543.224 773.495 543.277C773.6 543.329 773.715 543.361 773.833 543.369C773.854 543.37 773.876 543.371 773.897 543.371Z" fill="#CBCBCB"/>
<path d="M784.592 554.891H932.005C932.123 554.892 932.24 554.869 932.349 554.824C932.459 554.779 932.558 554.712 932.642 554.629C932.726 554.546 932.792 554.446 932.838 554.337C932.883 554.228 932.906 554.111 932.906 553.993C932.906 553.874 932.883 553.757 932.838 553.648C932.792 553.539 932.726 553.44 932.642 553.356C932.558 553.273 932.459 553.207 932.349 553.162C932.24 553.117 932.123 553.094 932.005 553.094H784.592C784.354 553.094 784.125 553.189 783.957 553.357C783.788 553.526 783.693 553.754 783.693 553.993C783.693 554.231 783.788 554.46 783.957 554.628C784.125 554.797 784.354 554.891 784.592 554.891Z" fill="#CBCBCB"/>
<path d="M896.05 567.918H945.487C945.605 567.919 945.722 567.896 945.832 567.851C945.941 567.806 946.041 567.74 946.124 567.656C946.208 567.573 946.275 567.474 946.32 567.364C946.365 567.255 946.389 567.138 946.389 567.02C946.389 566.902 946.365 566.785 946.32 566.676C946.275 566.566 946.208 566.467 946.124 566.384C946.041 566.3 945.941 566.234 945.832 566.189C945.722 566.144 945.605 566.121 945.487 566.122H896.05C895.932 566.121 895.814 566.144 895.705 566.189C895.596 566.234 895.496 566.3 895.413 566.384C895.329 566.467 895.262 566.566 895.217 566.676C895.172 566.785 895.148 566.902 895.148 567.02C895.148 567.138 895.172 567.255 895.217 567.364C895.262 567.474 895.329 567.573 895.413 567.656C895.496 567.74 895.596 567.806 895.705 567.851C895.814 567.896 895.932 567.919 896.05 567.918Z" fill="#CBCBCB"/>
<path d="M308.853 413.319C308.853 464.277 255.404 488.66 255.404 488.66C255.404 488.66 201.407 464.277 200.311 413.319C199.667 383.367 224.609 359.073 254.582 359.073C261.709 359.073 268.766 360.476 275.35 363.202C281.935 365.928 287.918 369.924 292.957 374.961C297.997 379.998 301.994 385.978 304.722 392.56C307.449 399.141 308.853 406.195 308.853 413.319Z" fill="#E5E5E5"/>
<path d="M273.494 491.673H237.314L232.928 474.139H277.879L273.494 491.673Z" fill="#CBCBCB"/>
<path d="M272.261 521.659H238.547V539.22H272.261V521.659Z" fill="white"/>
<path d="M272.533 539.494H238.271V521.385H272.533V539.494ZM238.82 538.946H271.985V521.933H238.82V538.946Z" fill="#CBCBCB"/>
<path d="M262.314 493.741H248.492L246.906 491.249H263.9L262.314 493.741Z" fill="#CBCBCB"/>
<path d="M238.134 491.673H237.586V518.522H238.134V491.673Z" fill="#CBCBCB"/>
<path d="M273.22 491.673H272.672V518.522H273.22V491.673Z" fill="#CBCBCB"/>
<path d="M260.897 473.842L260.562 473.408C276.399 461.201 295.277 440.288 295.277 409.983C295.29 399.369 292.167 388.988 286.3 380.141C280.433 371.294 272.084 364.376 262.298 360.253L262.512 359.748C272.397 363.913 280.831 370.902 286.757 379.838C292.684 388.775 295.838 399.262 295.826 409.983C295.826 440.511 276.831 461.56 260.897 473.842Z" fill="#CBCBCB"/>
<path d="M243.356 473.843L243.021 473.409C258.858 461.202 277.737 440.29 277.737 409.984C277.741 399.442 274.655 389.129 268.861 380.32C263.067 371.51 254.818 364.59 245.133 360.414L245.351 359.911C255.134 364.13 263.466 371.12 269.319 380.019C275.172 388.917 278.289 399.335 278.285 409.984C278.285 440.512 259.29 461.561 243.356 473.843Z" fill="#CBCBCB"/>
<path d="M265.805 473.843C249.871 461.561 230.877 440.512 230.877 409.985C230.873 399.335 233.989 388.917 239.842 380.018C245.696 371.12 254.028 364.13 263.812 359.911L264.029 360.415C254.344 364.59 246.095 371.51 240.301 380.319C234.506 389.129 231.421 399.442 231.425 409.985C231.425 440.29 250.303 461.202 266.14 473.409L265.805 473.843Z" fill="#CBCBCB"/>
<path d="M248.262 473.842C232.328 461.56 213.334 440.512 213.334 409.984C213.316 399.22 216.493 388.693 222.463 379.734C228.432 370.775 236.926 363.788 246.87 359.655L247.081 360.161C237.237 364.252 228.829 371.169 222.919 380.038C217.009 388.907 213.864 399.328 213.882 409.984C213.882 440.289 232.76 461.201 248.597 473.408L248.262 473.842Z" fill="#CBCBCB"/>
<path d="M254.855 359.073H254.307V474.14H254.855V359.073Z" fill="#CBCBCB"/>
<path d="M248.404 517.678L238.352 527.725L238.739 528.113L248.791 518.065L248.404 517.678Z" fill="#CBCBCB"/>
<path d="M253.292 517.51L238.35 533.219L238.747 533.596L253.69 517.888L253.292 517.51Z" fill="#CBCBCB"/>
<path d="M275.413 517.7H234.299V522.631H275.413V517.7Z" fill="white"/>
<path d="M275.686 522.906H234.023V517.426H275.686V522.906ZM234.572 522.358H275.138V517.974H234.572V522.358Z" fill="#CBCBCB"/>
<path d="M412.291 284.175C412.291 317.81 377.013 333.904 377.013 333.904C377.013 333.904 341.372 317.81 340.649 284.175C340.223 264.406 356.686 248.371 376.47 248.371C385.97 248.371 395.081 252.143 401.799 258.858C408.517 265.572 412.291 274.679 412.291 284.175Z" fill="#E5E5E5"/>
<path d="M388.953 335.893H365.072L362.178 324.32H391.848L388.953 335.893Z" fill="#CBCBCB"/>
<path d="M388.137 355.685H365.885V367.276H388.137V355.685Z" fill="white"/>
<path d="M388.319 367.457H365.705V355.505H388.319V367.457ZM366.067 367.095H387.958V355.866H366.067V367.095Z" fill="#CBCBCB"/>
<path d="M381.572 337.257H372.449L371.402 335.613H382.619L381.572 337.257Z" fill="#CBCBCB"/>
<path d="M365.614 335.893H365.252V353.615H365.614V335.893Z" fill="#CBCBCB"/>
<path d="M388.77 335.893H388.408V353.615H388.77V335.893Z" fill="#CBCBCB"/>
<path d="M380.639 324.124L380.418 323.837C390.871 315.78 403.331 301.977 403.331 281.974C403.34 274.969 401.278 268.117 397.406 262.277C393.534 256.438 388.022 251.871 381.564 249.15L381.705 248.817C388.229 251.566 393.796 256.179 397.708 262.077C401.619 267.976 403.702 274.898 403.693 281.974C403.693 302.124 391.156 316.017 380.639 324.124Z" fill="#CBCBCB"/>
<path d="M369.059 324.124L368.838 323.838C379.291 315.781 391.751 301.978 391.751 281.975C391.754 275.016 389.718 268.209 385.893 262.395C382.069 256.58 376.624 252.013 370.232 249.256L370.375 248.924C376.832 251.709 382.332 256.322 386.196 262.196C390.059 268.07 392.116 274.946 392.113 281.975C392.113 302.124 379.576 316.018 369.059 324.124Z" fill="#CBCBCB"/>
<path d="M383.878 324.124C373.361 316.017 360.824 302.124 360.824 281.974C360.821 274.945 362.879 268.069 366.742 262.195C370.605 256.322 376.105 251.708 382.562 248.924L382.706 249.256C376.313 252.012 370.869 256.58 367.044 262.394C363.22 268.209 361.183 275.016 361.186 281.974C361.186 301.977 373.646 315.78 384.099 323.837L383.878 324.124Z" fill="#CBCBCB"/>
<path d="M372.298 324.123C361.781 316.017 349.244 302.124 349.244 281.974C349.232 274.869 351.329 267.921 355.269 262.008C359.21 256.094 364.816 251.482 371.379 248.755L371.519 249.089C365.021 251.789 359.471 256.354 355.571 262.208C351.67 268.062 349.594 274.941 349.606 281.974C349.606 301.977 362.066 315.78 372.519 323.837L372.298 324.123Z" fill="#CBCBCB"/>
<path d="M376.651 248.371H376.289V324.32H376.651V248.371Z" fill="#CBCBCB"/>
<path d="M372.393 353.057L365.758 359.689L366.014 359.945L372.649 353.313L372.393 353.057Z" fill="#CBCBCB"/>
<path d="M375.617 352.946L365.754 363.314L366.016 363.563L375.879 353.195L375.617 352.946Z" fill="#CBCBCB"/>
<path d="M390.217 353.071H363.08V356.326H390.217V353.071Z" fill="white"/>
<path d="M390.399 356.507H362.9V352.891H390.399V356.507ZM363.262 356.146H390.038V353.252H363.262V356.146Z" fill="#CBCBCB"/>
<path d="M604.621 571.489H601.662L600.254 560.082H604.621V571.489Z" fill="#9F616A"/>
<path d="M605.374 574.355H595.834V574.235C595.835 573.251 596.227 572.307 596.923 571.611C597.619 570.915 598.563 570.524 599.547 570.523H605.374V574.355Z" fill="#2F2E41"/>
<path d="M642.775 565.884L640.238 567.408L633.154 558.354L636.898 556.107L642.775 565.884Z" fill="#9F616A"/>
<path d="M636.722 572.865L636.66 572.761C636.154 571.917 636.003 570.907 636.241 569.952C636.48 568.997 637.087 568.176 637.93 567.668L642.925 564.669L644.9 567.954L636.722 572.865Z" fill="#2F2E41"/>
<path d="M605.39 569.135L605.339 569.134C603.9 569.13 602.462 569.047 601.031 568.887C600.486 568.833 599.895 568.774 599.182 568.716L599.158 568.711C598.672 568.567 598.658 564.01 598.864 548.41C598.97 540.42 599.089 531.365 598.947 525.598L598.946 525.541L598.988 525.504C601.562 523.249 604.633 521.634 607.95 520.792C611.267 519.951 614.736 519.905 618.074 520.66L618.126 520.671L618.153 520.717C621.061 525.635 625.452 532.719 629.698 539.57C639.445 555.296 642.233 559.921 641.927 560.27L641.89 560.298C641.225 560.631 640.725 560.887 640.3 561.105C638.618 561.975 636.891 562.754 635.125 563.438L635.047 563.47L634.99 563.408C625.1 552.576 616.87 540.476 611.779 529.29C611.184 533.109 610.462 538.095 609.699 543.364C607.505 558.514 606.023 568.491 605.426 569.098L605.39 569.135Z" fill="#2F2E41"/>
<path d="M600.054 526.763C605.952 526.737 611.81 527.717 617.377 529.662C617.571 520.32 614.438 511.214 608.538 503.966L608.494 503.914L608.516 503.85C610.07 499.363 611.676 494.725 613.111 490.111L613.089 490.033C612.083 486.457 609.923 482.844 606.486 478.986C606.113 478.6 605.607 478.37 605.071 478.343C604.535 478.316 604.008 478.494 603.598 478.84C600.587 481.592 598.242 484.993 596.74 488.786C595.238 492.578 594.619 496.662 594.93 500.728L594.932 500.752L594.925 500.774C592.234 509.887 591.257 514.568 590.395 518.698C589.766 521.711 589.222 524.319 588.129 528.047C592.047 527.194 596.045 526.764 600.054 526.763Z" fill="#CBCBCB"/>
<path opacity="0.1" d="M608.738 497.954L599.982 517.005L594.98 511.944L608.738 497.954Z" fill="black"/>
<path d="M604.994 477.131C608.434 477.131 611.223 474.344 611.223 470.905C611.223 467.467 608.434 464.679 604.994 464.679C601.554 464.679 598.766 467.467 598.766 470.905C598.766 474.344 601.554 477.131 604.994 477.131Z" fill="#9F616A"/>
<path d="M599.441 467.389H609.332V463.08C607.161 462.218 605.037 461.485 603.753 463.08C602.609 463.08 601.513 463.534 600.704 464.342C599.896 465.15 599.441 466.246 599.441 467.389Z" fill="#2F2E41"/>
<path d="M607.88 462.319C613.793 462.319 615.448 469.727 615.448 473.906C615.448 476.237 614.393 477.07 612.736 477.352L612.151 474.233L610.78 477.487C610.315 477.489 609.826 477.48 609.319 477.471L608.854 476.514L607.818 477.453C603.667 477.46 600.313 478.064 600.313 473.906C600.312 469.727 601.764 462.319 607.88 462.319Z" fill="#2F2E41"/>
<path d="M795.046 174.684C795.046 338.781 622.929 417.301 622.929 417.301C622.929 417.301 449.047 338.781 445.516 174.684C443.441 78.2309 523.761 -3.05176e-05 620.281 -3.05176e-05C716.801 -3.05176e-05 795.046 78.2087 795.046 174.684Z" fill="#FD3373"/>
<path d="M626.053 570.199H622.425L620.699 556.212H626.053V570.199Z" fill="#FFB7B7"/>
<path d="M619.833 569.162H626.83V573.566H615.428C615.428 572.987 615.542 572.415 615.763 571.881C615.984 571.346 616.309 570.861 616.718 570.452C617.127 570.043 617.613 569.719 618.147 569.498C618.682 569.276 619.255 569.162 619.833 569.162Z" fill="#2F2E41"/>
<path d="M639.665 570.199H636.037L634.311 556.212H639.666L639.665 570.199Z" fill="#FFB7B7"/>
<path d="M633.444 569.162H640.441V573.566H629.039C629.039 572.398 629.503 571.278 630.329 570.452C631.156 569.626 632.276 569.162 633.444 569.162Z" fill="#2F2E41"/>
<path d="M625.881 563.153L621.887 562.962C621.547 562.946 621.226 562.8 620.99 562.555C620.754 562.309 620.621 561.983 620.619 561.642L620.34 521.251C620.339 521.059 620.379 520.87 620.458 520.695C620.536 520.52 620.652 520.364 620.797 520.238C620.941 520.112 621.111 520.019 621.295 519.965C621.479 519.911 621.673 519.897 621.863 519.924L637.841 522.243C638.156 522.287 638.446 522.443 638.655 522.684C638.865 522.924 638.98 523.231 638.981 523.55L641.036 560.977C641.037 561.153 641.004 561.327 640.938 561.489C640.871 561.652 640.773 561.8 640.65 561.925C640.526 562.049 640.379 562.148 640.216 562.216C640.054 562.283 639.88 562.318 639.704 562.318H635.399C635.081 562.319 634.774 562.206 634.532 562C634.291 561.794 634.131 561.508 634.083 561.194C634.083 561.194 630.831 533.12 630.384 533.137C629.935 533.145 627.266 561.982 627.266 561.982C627.227 562.304 627.07 562.602 626.827 562.818C626.583 563.034 626.27 563.153 625.944 563.155C625.923 563.155 625.902 563.154 625.881 563.153Z" fill="#2F2E41"/>
<path d="M680.617 427.005H564.107L549.984 370.542H694.739L680.617 427.005Z" fill="#3F3D56"/>
<path d="M676.644 523.568H568.078V570.118C568.078 575.641 572.555 580.118 578.078 580.118H666.644C672.167 580.118 676.644 575.641 676.644 570.118V523.568Z" fill="#44F9BD"/>
<path d="M677.527 571C677.527 576.523 673.05 581 667.527 581H577.195C571.672 581 567.195 576.523 567.195 571V522.685H677.527V571ZM568.961 569.236C568.961 574.758 573.438 579.236 578.961 579.236H665.762C671.284 579.236 675.762 574.758 675.762 569.236V524.45H568.961V569.236Z" fill="#3F3D56"/>
<path d="M644.615 433.664H600.106L594.998 425.641H649.722L644.615 433.664Z" fill="#3F3D56"/>
<path d="M566.754 427.005H564.988V513.465H566.754V427.005Z" fill="#3F3D56"/>
<path d="M679.732 427.005H677.967V513.465H679.732V427.005Z" fill="#3F3D56"/>
<path d="M640.056 369.586L638.979 368.189C689.977 328.88 750.769 261.536 750.769 163.947C750.81 129.767 740.753 96.3366 721.86 67.8474C702.967 39.3581 676.08 17.0786 644.569 3.8031L645.257 2.17819C677.087 15.5884 704.248 38.094 723.332 66.8723C742.417 95.6506 752.575 129.421 752.534 163.947C752.534 262.253 691.368 330.035 640.056 369.586Z" fill="#3F3D56"/>
<path d="M583.566 369.586L582.488 368.188C633.487 328.879 694.279 261.536 694.279 163.946C694.293 129.996 684.357 96.786 665.698 68.4176C647.04 40.0493 620.476 17.7654 589.289 4.31859L589.988 2.69885C621.493 16.2821 648.326 38.7921 667.174 67.4483C686.022 96.1046 696.058 129.652 696.044 163.946C696.044 262.252 634.878 330.035 583.566 369.586Z" fill="#3F3D56"/>
<path d="M655.86 369.585C604.549 330.034 543.383 262.252 543.383 163.946C543.369 129.651 553.406 96.1039 572.254 67.4476C591.102 38.7912 617.936 16.2813 649.44 2.6983L650.14 4.31804C618.952 17.7646 592.388 40.0485 573.729 68.4169C555.07 96.7854 545.134 129.996 545.148 163.946C545.148 261.535 605.94 328.878 656.938 368.188L655.86 369.585Z" fill="#3F3D56"/>
<path d="M599.371 369.586C548.059 330.035 486.893 262.254 486.893 163.947C486.835 129.284 497.065 95.3837 516.289 66.5344C535.512 37.6851 562.866 15.1836 594.887 1.87695L595.567 3.5053C563.868 16.6781 536.789 38.9536 517.759 67.513C498.728 96.0725 488.601 129.633 488.658 163.947C488.658 261.537 549.45 328.88 600.449 368.189L599.371 369.586Z" fill="#3F3D56"/>
<path d="M620.595 -9.15527e-05H618.83V370.542H620.595V-9.15527e-05Z" fill="#3F3D56"/>
<path d="M653.794 526.769C653.403 526.518 653.072 526.184 652.824 525.791C652.577 525.398 652.418 524.956 652.36 524.495C652.302 524.034 652.345 523.566 652.488 523.124C652.63 522.681 652.868 522.276 653.184 521.935L650.795 488.051L657.676 488.718L657.865 521.901C658.402 522.47 658.712 523.216 658.735 523.997C658.759 524.779 658.495 525.542 657.993 526.142C657.491 526.743 656.786 527.138 656.013 527.253C655.239 527.369 654.449 527.197 653.794 526.769Z" fill="#FFB7B7"/>
<path d="M652.353 499.437C652.192 499.321 652.059 499.171 651.963 498.997C651.868 498.822 651.813 498.629 651.803 498.431L651.299 489.298C651.249 488.394 651.536 487.502 652.104 486.797C652.673 486.091 653.483 485.62 654.378 485.476C655.273 485.332 656.19 485.524 656.951 486.015C657.713 486.506 658.266 487.262 658.503 488.137L660.718 496.302C660.81 496.643 660.763 497.006 660.587 497.312C660.412 497.618 660.122 497.842 659.781 497.935L653.481 499.642C653.289 499.695 653.089 499.703 652.893 499.668C652.698 499.632 652.513 499.553 652.353 499.437Z" fill="#3F3D56"/>
<path d="M646.467 477.731C650.481 477.731 653.736 474.479 653.736 470.467C653.736 466.454 650.481 463.202 646.467 463.202C642.453 463.202 639.199 466.454 639.199 470.467C639.199 474.479 642.453 477.731 646.467 477.731Z" fill="#FFB7B7"/>
<path d="M651.611 476.214C651.307 476.542 650.916 476.776 650.483 476.889C650.051 477.002 649.595 476.989 649.17 476.852C648.745 476.715 648.367 476.46 648.082 476.116C647.797 475.772 647.616 475.354 647.56 474.911C647.546 474.758 647.547 474.603 647.563 474.451C647.654 473.577 648.159 472.784 648.038 471.861C648.011 471.632 647.925 471.413 647.79 471.226C646.709 469.78 644.173 471.873 643.153 470.563C642.528 469.761 643.263 468.497 642.783 467.599C642.15 466.415 640.274 466.999 639.098 466.351C637.789 465.629 637.867 463.622 638.729 462.401C639.29 461.68 640.003 461.091 640.817 460.677C641.631 460.262 642.527 460.032 643.441 460.003C645.27 459.96 647.087 460.315 648.765 461.042C650.748 461.687 652.497 462.899 653.796 464.529C654.468 465.597 654.894 466.802 655.043 468.055C655.192 469.309 655.06 470.58 654.657 471.776C654.218 473.243 652.718 475.035 651.611 476.214Z" fill="#2F2E41"/>
<path d="M653.722 482.584C653.596 482.493 653.467 482.404 653.336 482.317C652.638 481.853 651.883 481.482 651.089 481.215V479.306H645.466V481.077C643.602 481.591 641.931 482.641 640.659 484.097C639.388 485.553 638.573 487.351 638.316 489.266L634.487 517.677C634.463 517.854 634.474 518.035 634.522 518.208C634.569 518.381 634.651 518.543 634.762 518.683C634.872 518.822 635.008 518.938 635.164 519.023C635.319 519.108 635.49 519.161 635.666 519.178C638.349 519.525 640.933 520.41 643.265 521.779C644.959 522.717 646.865 523.203 648.801 523.192C650.338 523.186 651.862 522.914 653.306 522.39C653.551 522.299 653.764 522.139 653.918 521.928C654.071 521.717 654.159 521.466 654.17 521.205C654.308 518.148 655.114 502.41 657.462 492.81C657.918 490.927 657.807 488.951 657.141 487.131C656.476 485.311 655.286 483.729 653.722 482.584Z" fill="#3F3D56"/>
<path d="M619.511 518.122C619.306 517.73 619.188 517.317 619.166 516.911C619.145 516.504 619.22 516.115 619.386 515.77C619.552 515.425 619.805 515.133 620.128 514.914C620.451 514.696 620.835 514.556 621.254 514.504L635.029 490.214L640.393 494.56L625.13 517.13C625.308 517.819 625.217 518.499 624.873 519.042C624.529 519.584 623.957 519.951 623.264 520.074C622.572 520.196 621.807 520.065 621.115 519.705C620.424 519.345 619.853 518.782 619.511 518.122Z" fill="#FFB7B7"/>
<path d="M633.367 491.931C633.346 491.734 633.369 491.535 633.435 491.348C633.502 491.161 633.609 490.991 633.75 490.851L640.219 484.382C640.861 483.742 641.716 483.361 642.621 483.313C643.527 483.266 644.418 483.555 645.122 484.125C645.827 484.695 646.296 485.506 646.438 486.401C646.58 487.296 646.385 488.212 645.892 488.972L641.284 496.068C641.092 496.364 640.79 496.572 640.444 496.645C640.099 496.719 639.739 496.652 639.442 496.46L633.967 492.908C633.8 492.801 633.659 492.657 633.556 492.488C633.452 492.319 633.387 492.129 633.367 491.931Z" fill="#3F3D56"/>
<path d="M599.824 510.746L567.453 543.101L568.701 544.349L601.072 511.993L599.824 510.746Z" fill="#3F3D56"/>
<path d="M615.561 510.208L567.441 560.793L568.721 562.009L616.84 511.423L615.561 510.208Z" fill="#3F3D56"/>
<path d="M678.854 510.818H562.337C557.951 510.818 554.396 514.373 554.396 518.758C554.396 523.144 557.951 526.699 562.337 526.699H678.854C683.239 526.699 686.794 523.144 686.794 518.758C686.794 514.373 683.239 510.818 678.854 510.818Z" fill="#44F9BD"/>
<path d="M687.677 518.758C687.677 523.631 683.727 527.581 678.854 527.581H562.336C557.464 527.581 553.514 523.631 553.514 518.758C553.514 513.886 557.464 509.936 562.336 509.936H678.854C683.727 509.936 687.677 513.886 687.677 518.758ZM555.279 518.758C555.279 522.656 558.439 525.816 562.337 525.816H678.854C682.752 525.816 685.912 522.656 685.912 518.758C685.912 514.86 682.752 511.7 678.854 511.7H562.337C558.439 511.7 555.279 514.86 555.279 518.758Z" fill="#3F3D56"/>
<path d="M589.219 518.205C589.573 518.181 589.917 518.079 590.227 517.907C590.538 517.735 590.806 517.497 591.015 517.21C591.223 516.923 591.366 516.594 591.433 516.245C591.5 515.897 591.491 515.538 591.404 515.194L598.618 510.47L594.504 508.694L588.284 513.452C587.716 513.636 587.234 514.021 586.931 514.536C586.628 515.05 586.524 515.658 586.64 516.244C586.755 516.829 587.081 517.353 587.556 517.714C588.032 518.076 588.623 518.25 589.219 518.205H589.219Z" fill="#9F616A"/>
<path d="M596.16 514.801L596.069 514.737C594.352 513.474 592.446 512.168 590.603 510.905L590.492 510.829L590.579 510.727C594.513 506.126 598.452 501.32 602.261 496.672L602.254 496.655L602.29 496.636L602.305 496.618L602.313 496.625L602.336 496.613L602.232 496.621L601.058 487.418C600.477 486.461 600.18 485.358 600.203 484.239C600.225 483.119 600.566 482.029 601.184 481.096C601.897 480.09 602.956 479.381 604.159 479.107C605.361 478.832 606.623 479.011 607.702 479.609C608.235 479.966 608.68 480.439 609.005 480.991C609.33 481.544 609.527 482.162 609.58 482.801C609.656 483.37 609.603 483.949 609.426 484.495C609.249 485.041 608.953 485.541 608.558 485.958C608.964 490.425 609.143 494.909 609.095 499.393L609.095 499.436L609.069 499.47C605.008 504.627 600.547 509.757 596.233 514.717L596.16 514.801Z" fill="#CBCBCB"/>
<path d="M17.9007 262.371C18.1281 262.371 18.3469 262.285 18.5131 262.13C18.6793 261.975 18.7805 261.762 18.7964 261.536C19.384 253.554 22.9654 246.089 28.8238 240.633C34.6823 235.178 42.3857 232.135 50.3926 232.113C51.3508 232.113 52.3574 232.162 53.3847 232.258C53.5565 232.274 53.7293 232.241 53.8825 232.161C54.0356 232.082 54.1627 231.96 54.2484 231.81C57.9264 225.375 63.4188 220.166 70.0403 216.831C76.6617 213.497 84.119 212.186 91.4814 213.061C98.8438 213.936 105.785 216.959 111.44 221.753C117.094 226.547 121.211 232.899 123.276 240.016C123.331 240.207 123.447 240.374 123.607 240.491C123.767 240.609 123.962 240.67 124.16 240.664L124.399 240.657C124.523 240.653 124.648 240.648 124.773 240.648C130.846 240.667 136.73 242.761 141.449 246.583C146.168 250.404 149.437 255.724 150.715 261.658C150.758 261.86 150.868 262.041 151.029 262.17C151.189 262.3 151.389 262.371 151.595 262.371H211.813C211.931 262.371 212.049 262.349 212.158 262.304C212.267 262.259 212.367 262.192 212.451 262.109C212.534 262.026 212.601 261.926 212.646 261.817C212.692 261.708 212.715 261.591 212.715 261.473C212.715 261.354 212.692 261.237 212.646 261.128C212.601 261.019 212.534 260.92 212.451 260.836C212.367 260.753 212.267 260.687 212.158 260.642C212.049 260.597 211.931 260.574 211.813 260.574H152.314C150.816 254.402 147.293 248.908 142.307 244.971C137.32 241.034 131.158 238.879 124.804 238.852C122.542 231.537 118.203 225.037 112.315 220.141C106.427 215.245 99.2434 212.163 91.6365 211.27C84.0295 210.377 76.3268 211.711 69.4641 215.111C62.6015 218.51 56.8742 223.829 52.9781 230.42C52.0939 230.351 51.2266 230.316 50.3926 230.316C41.9311 230.339 33.7904 233.555 27.5994 239.32C21.4084 245.086 17.6239 252.975 17.0031 261.41C16.9948 261.527 17.0098 261.646 17.0472 261.758C17.0846 261.869 17.1437 261.973 17.2211 262.062C17.2986 262.151 17.3928 262.224 17.4984 262.277C17.6041 262.329 17.7191 262.361 17.8369 262.369C17.8583 262.37 17.8796 262.371 17.9007 262.371Z" fill="#CBCBCB"/>
<path d="M28.5962 273.891H176.008C176.127 273.892 176.244 273.869 176.353 273.824C176.463 273.779 176.562 273.712 176.646 273.629C176.73 273.546 176.796 273.446 176.841 273.337C176.887 273.228 176.91 273.111 176.91 272.993C176.91 272.874 176.887 272.757 176.841 272.648C176.796 272.539 176.73 272.44 176.646 272.356C176.562 272.273 176.463 272.207 176.353 272.162C176.244 272.117 176.127 272.094 176.008 272.094H28.5962C28.3578 272.094 28.1292 272.189 27.9606 272.357C27.7921 272.526 27.6974 272.754 27.6974 272.993C27.6974 273.231 27.7921 273.46 27.9606 273.628C28.1292 273.797 28.3578 273.891 28.5962 273.891Z" fill="#CBCBCB"/>
<path d="M140.054 286.918H189.491C189.609 286.919 189.726 286.896 189.836 286.851C189.945 286.806 190.045 286.74 190.128 286.656C190.212 286.573 190.279 286.474 190.324 286.364C190.369 286.255 190.393 286.138 190.393 286.02C190.393 285.902 190.369 285.785 190.324 285.676C190.279 285.566 190.212 285.467 190.128 285.384C190.045 285.3 189.945 285.234 189.836 285.189C189.726 285.144 189.609 285.121 189.491 285.122H140.054C139.936 285.121 139.818 285.144 139.709 285.189C139.6 285.234 139.5 285.3 139.416 285.384C139.333 285.467 139.266 285.566 139.221 285.676C139.176 285.785 139.152 285.902 139.152 286.02C139.152 286.138 139.176 286.255 139.221 286.364C139.266 286.474 139.333 286.573 139.416 286.656C139.5 286.74 139.6 286.806 139.709 286.851C139.818 286.896 139.936 286.919 140.054 286.918Z" fill="#CBCBCB"/>
</svg>
