<svg width="60" height="60" viewBox="0 0 60 60" fill="none" xmlns="http://www.w3.org/2000/svg">
<circle cx="30" cy="30.0002" r="30" fill="#FD98B8"/>
<g clip-path="url(#clip0)">
<path d="M36.997 31.7312L37.774 26.6702H32.917V23.3852C32.8833 23.0073 32.935 22.6267 33.0682 22.2715C33.2015 21.9162 33.4129 21.5955 33.6868 21.333C33.9608 21.0705 34.2902 20.8729 34.6508 20.7549C35.0114 20.6369 35.3939 20.6015 35.77 20.6512H37.979V16.3422C36.6824 16.1328 35.3723 16.0185 34.059 16.0002C30.059 16.0002 27.445 18.4242 27.445 22.8122V26.6702H23V31.7312H27.446V43.9672H32.918V31.7312H36.997Z" fill="#FAFAFA"/>
</g>
<defs>
<clipPath id="clip0">
<rect width="14.979" height="27.967" fill="white" transform="translate(23 16.0002)"/>
</clipPath>
</defs>
</svg>
