<svg width="60" height="60" viewBox="0 0 60 60" fill="none" xmlns="http://www.w3.org/2000/svg">
<circle cx="30" cy="30.0002" r="30" fill="#FD98B8"/>
<g clip-path="url(#clip0)">
<path d="M30.262 21.9202C28.6135 21.9202 27.002 22.4091 25.6313 23.3249C24.2606 24.2408 23.1923 25.5426 22.5615 27.0656C21.9306 28.5886 21.7655 30.2645 22.0872 31.8813C22.4088 33.4982 23.2026 34.9833 24.3683 36.149C25.5339 37.3146 27.0191 38.1085 28.6359 38.4301C30.2528 38.7517 31.9286 38.5866 33.4517 37.9558C34.9747 37.3249 36.2764 36.2566 37.1923 34.8859C38.1082 33.5152 38.597 31.9038 38.597 30.2552C38.5987 29.1602 38.3843 28.0756 37.966 27.0636C37.5478 26.0515 36.9339 25.132 36.1596 24.3577C35.3852 23.5834 34.4657 22.9695 33.4537 22.5512C32.4417 22.133 31.357 21.9185 30.262 21.9202ZM30.262 35.6752C29.1902 35.6752 28.1425 35.3574 27.2514 34.762C26.3602 34.1665 25.6656 33.3202 25.2555 32.33C24.8453 31.3398 24.738 30.2502 24.9471 29.199C25.1562 28.1479 25.6723 27.1823 26.4302 26.4244C27.188 25.6666 28.1536 25.1505 29.2048 24.9414C30.256 24.7323 31.3456 24.8396 32.3358 25.2497C33.326 25.6599 34.1723 26.3545 34.7677 27.2456C35.3632 28.1368 35.681 29.1845 35.681 30.2562C35.6784 31.6926 35.1066 33.0694 34.0909 34.0851C33.0752 35.1008 31.6984 35.6726 30.262 35.6752ZM40.883 21.5752C40.8838 21.9599 40.7705 22.3361 40.5573 22.6564C40.3442 22.9766 40.0409 23.2264 39.6857 23.3741C39.3306 23.5219 38.9396 23.5609 38.5622 23.4864C38.1848 23.4118 37.8381 23.227 37.5658 22.9553C37.2935 22.6836 37.108 22.3372 37.0326 21.96C36.9573 21.5828 36.9956 21.1917 37.1426 20.8362C37.2896 20.4808 37.5388 20.1769 37.8586 19.9631C38.1783 19.7494 38.5543 19.6352 38.939 19.6352C39.1944 19.6347 39.4475 19.6846 39.6836 19.7821C39.9197 19.8797 40.1342 20.0228 40.3148 20.2035C40.4954 20.3841 40.6386 20.5986 40.7361 20.8347C40.8336 21.0708 40.8835 21.3238 40.883 21.5792V21.5752ZM46.404 23.5522C46.4576 21.0248 45.5143 18.5777 43.778 16.7402C41.9368 15.0098 39.4923 14.0675 36.966 14.1142C34.282 13.9622 26.237 13.9622 23.552 14.1142C21.0262 14.0646 18.5812 15.0054 16.74 16.7352C15.0071 18.5741 14.0643 21.019 14.114 23.5452C13.962 26.2292 13.962 34.2742 14.114 36.9592C14.0604 39.4867 15.0037 41.9338 16.74 43.7712C18.582 45.5003 21.026 46.4424 23.552 46.3972C26.236 46.5492 34.281 46.5492 36.966 46.3972C39.4935 46.4509 41.9405 45.5076 43.778 43.7712C45.5084 41.9301 46.4508 39.4855 46.404 36.9592C46.556 34.2742 46.556 26.2352 46.404 23.5522ZM42.936 39.8352C42.6601 40.5345 42.2435 41.1696 41.7119 41.7012C41.1804 42.2327 40.5453 42.6494 39.846 42.9252C37.706 43.7742 32.628 43.5782 30.263 43.5782C27.898 43.5782 22.813 43.7672 20.68 42.9252C19.9807 42.6494 19.3456 42.2327 18.8141 41.7012C18.2825 41.1696 17.8659 40.5345 17.59 39.8352C16.741 37.6952 16.937 32.6172 16.937 30.2522C16.937 27.8872 16.748 22.8022 17.59 20.6692C17.8659 19.97 18.2825 19.3348 18.8141 18.8033C19.3456 18.2717 19.9807 17.8551 20.68 17.5792C22.82 16.7302 27.898 16.9262 30.263 16.9262C32.628 16.9262 37.713 16.7372 39.846 17.5792C40.5453 17.8551 41.1804 18.2717 41.7119 18.8033C42.2435 19.3348 42.6601 19.97 42.936 20.6692C43.785 22.8092 43.589 27.8872 43.589 30.2522C43.589 32.6172 43.785 37.7062 42.936 39.8352Z" fill="#FAFAFA"/>
</g>
<defs>
<clipPath id="clip0">
<rect width="32.518" height="32.511" fill="white" transform="translate(14 14.0002)"/>
</clipPath>
</defs>
</svg>
