<svg width="191" height="287" viewBox="0 0 191 287" fill="none" xmlns="http://www.w3.org/2000/svg">
<path d="M101.933 68.1053C117.182 55.8427 137.989 45.7921 161.094 45.3288C184.238 45.0589 209.486 54.4145 214.74 72.856C219.994 91.2975 205.254 118.825 206.24 145.645C207.149 172.58 223.862 198.692 217.077 209.578C210.293 220.464 180.089 216.007 155.89 222.111C131.575 228.136 113.265 244.722 99.8262 241.762C86.4254 238.996 77.8573 216.491 61.2816 198.688C44.6677 180.691 20.0462 167.395 19.7288 153.096C19.3339 138.914 43.2813 123.922 60.042 109.15C76.8409 94.5717 86.5687 80.2904 101.933 68.1053Z" fill="#FD79A3"/>
</svg>
