<svg width="190" height="287" viewBox="0 0 190 287" fill="none" xmlns="http://www.w3.org/2000/svg">
<path d="M8.40373 67.722C23.6523 55.4594 44.4597 45.4088 67.565 44.9455C90.7085 44.6756 115.957 54.0312 121.211 72.4727C126.465 90.9142 111.725 118.442 112.711 145.261C113.62 172.197 130.332 198.309 123.548 209.195C116.764 220.081 86.5597 215.624 62.3607 221.727C38.0459 227.753 19.736 244.339 6.29695 241.379C-7.10385 238.613 -15.672 216.108 -32.2476 198.304C-48.8616 180.307 -73.4831 167.011 -73.8005 152.713C-74.1954 138.53 -50.248 123.539 -33.4873 108.767C-16.6884 94.1884 -6.96056 79.9071 8.40373 67.722Z" fill="#FD79A3"/>
</svg>
