<svg width="168" height="250" viewBox="0 0 168 250" fill="none" xmlns="http://www.w3.org/2000/svg">
<path d="M108.183 15.5267C127.919 25.7891 140.615 49.8927 149.108 74.7146C157.76 99.5456 162.36 125.264 158.842 150.193C155.164 175.114 143.2 199.397 122.913 207.032C102.466 214.657 73.6761 205.954 48.5901 210.751C23.6544 215.717 2.42216 234.183 -21.4827 237.927C-45.3877 241.672 -71.7965 230.544 -81.3629 210.463C-91.0796 190.213 -83.7852 160.858 -76.6716 137.417C-69.3984 113.984 -62.3061 96.4637 -51.4646 83.3217C-40.7826 70.1706 -26.3424 61.2382 -11.4543 50.0904C3.2835 38.774 18.6286 25.2514 39.9195 16.8739C61.0509 8.48732 88.2967 5.09554 108.183 15.5267Z" fill="#44F9BD"/>
</svg>
