<svg width="32" height="32" viewBox="0 0 32 32" fill="none" xmlns="http://www.w3.org/2000/svg">
<g clip-path="url(#clip0)">
<path d="M23.898 10.9764C20.1806 8.89719 14.2141 5.55849 4.95959 0.376669C4.33566 -0.0353948 3.61778 -0.0893949 2.99753 0.120543L18.8757 15.9987L23.898 10.9764Z" fill="#32BBFF"/>
<path d="M2.99759 0.120544C2.88134 0.15992 2.76821 0.20742 2.66002 0.264795C1.97508 0.635295 1.47177 1.34823 1.47177 2.24992V29.7475C1.47177 30.6492 1.97502 31.3621 2.66002 31.7325C2.76802 31.7899 2.88109 31.8375 2.99721 31.8772L18.8757 15.9987L2.99759 0.120544Z" fill="#32BBFF"/>
<path d="M18.8757 15.9988L2.99719 31.8772C3.61763 32.0887 4.33551 32.0389 4.95963 31.6208C13.9345 26.5952 19.8338 23.296 23.5942 21.1992C23.6989 21.1404 23.8014 21.0828 23.9028 21.0259L18.8757 15.9988Z" fill="#32BBFF"/>
<path d="M1.47177 15.9989V29.7477C1.47177 30.6494 1.97502 31.3623 2.66002 31.7327C2.76802 31.7901 2.88109 31.8377 2.99721 31.8774L18.8757 15.9989H1.47177Z" fill="#2C9FD9"/>
<path d="M4.95969 0.376806C4.21876 -0.112445 3.345 -0.0985073 2.66006 0.264993L18.6348 16.2398L23.898 10.9765C20.1807 8.89732 14.2142 5.55863 4.95969 0.376806Z" fill="#29CC5E"/>
<path d="M18.6349 15.7581L2.66006 31.7328C3.34507 32.0962 4.21876 32.1172 4.95969 31.621C13.9346 26.5953 19.8339 23.2962 23.5942 21.1993C23.6989 21.1405 23.8015 21.083 23.9029 21.0261L18.6349 15.7581Z" fill="#D93F21"/>
<path d="M30.5282 15.9988C30.5282 15.2369 30.1437 14.468 29.3818 14.0417C29.3818 14.0417 27.9568 13.2466 23.5891 10.8036L18.394 15.9988L23.5942 21.1991C27.914 18.7737 29.3817 17.9559 29.3817 17.9559C30.1437 17.5295 30.5282 16.7607 30.5282 15.9988Z" fill="#FFD500"/>
<path d="M29.3818 17.956C30.1437 17.5297 30.5282 16.7608 30.5282 15.9989H18.394L23.5942 21.1992C27.914 18.7738 29.3818 17.956 29.3818 17.956Z" fill="#FFAA00"/>
</g>
<defs>
<clipPath id="clip0">
<rect width="32" height="32" fill="white"/>
</clipPath>
</defs>
</svg>
