<svg width="60" height="126" viewBox="0 0 60 126" fill="none" xmlns="http://www.w3.org/2000/svg">
<path d="M29.8239 83.0167H43.5162C43.8748 82.315 44.234 81.5611 44.5894 80.7584M29.8239 2C38.0595 10.7097 43.2982 19.9244 46.4075 28.9753M44.5894 80.7584C47.4917 84.2399 52.6258 93.0661 49.9432 100.519C56.063 95.4373 64.5945 80.4196 49.7619 60.9982M44.5894 80.7584C46.7893 75.7893 48.8465 68.9457 49.7619 60.9982M49.7619 60.9982C50.8596 51.4684 50.3156 40.3513 46.4075 28.9753M46.4075 28.9753H16.5185" stroke="#282828" stroke-width="4" stroke-linecap="round" stroke-linejoin="round"/>
<path d="M19.6296 94.2963V111.328M30 94.2963V123.333M40.3704 94.2963V111.328" stroke="#44F9BD" stroke-width="4" stroke-linecap="round" stroke-linejoin="round"/>
<path d="M30 83.0167H16.3933C16.0369 82.315 15.68 81.5611 15.3268 80.7584M30 2C11.5293 21.6568 8.22797 43.8864 10.1866 60.9982M15.3268 80.7584C12.4426 84.2399 7.34065 93.0661 10.0065 100.519C3.92487 95.4373 -4.55332 80.4196 10.1866 60.9982M15.3268 80.7584C13.1406 75.7893 11.0963 68.9457 10.1866 60.9982" stroke="#282828" stroke-width="4" stroke-linecap="round" stroke-linejoin="round"/>
<circle cx="30" cy="44.5185" r="6.22222" fill="#FD3373"/>
</svg>
