<svg width="683" height="395" viewBox="0 0 683 395" fill="none" xmlns="http://www.w3.org/2000/svg">
<path d="M480.032 206.641L436.48 227.336L475.026 198.399C468.761 188.582 461.723 179.284 453.98 170.595L265.098 217.728L435.711 152.387C427.915 145.481 419.635 139.145 410.936 133.428L123.124 179.971C92.566 218.335 75.9077 265.99 75.8842 315.112H509.119C509.101 277.016 499.068 239.598 480.032 206.641V206.641Z" fill="#F2F2F2"/>
<path d="M387.381 119.992C343.806 98.7151 294.387 92.7087 247.015 102.932C199.642 113.155 157.047 139.019 126.03 176.394C194.072 161.426 312.54 135.516 387.381 119.992Z" fill="#F2F2F2"/>
<path d="M348.112 124.192C340.698 146.231 329.329 166.312 306.159 166.312C282.988 166.312 265.511 147.417 264.205 124.192C262.537 94.515 282.454 81.9495 306.159 82.0724C334.162 82.2176 356.911 98.0372 348.112 124.192Z" fill="#2F2E41"/>
<path d="M340.168 118.589H271.546V218.991H340.168V118.589Z" fill="#2F2E41"/>
<path d="M295.621 176.237C295.621 176.237 297.816 207.821 292.694 212.963C287.573 218.105 338.056 222.512 337.324 216.636C336.592 210.76 327.081 172.564 330.008 164.484C332.934 156.404 295.621 176.237 295.621 176.237Z" fill="#FFB8B8"/>
<path opacity="0.1" d="M295.621 176.237C295.621 176.237 297.816 207.821 292.694 212.963C287.573 218.105 338.056 222.512 337.324 216.636C336.592 210.76 327.081 172.564 330.008 164.484C332.934 156.404 295.621 176.237 295.621 176.237Z" fill="black"/>
<path d="M247.339 257.038L221.05 346.283L219.997 349.878H175.76C193.362 295.177 236.876 214.513 236.876 214.513L243.67 212.967L247.339 257.038Z" fill="#ED749B"/>
<path opacity="0.1" d="M247.339 257.038L221.05 346.283L219.997 349.878H175.76C193.362 295.177 236.876 214.513 236.876 214.513L243.67 212.967L247.339 257.038Z" fill="#FD79A3"/>
<path d="M304.4 187.255C322.584 187.255 337.324 172.456 337.324 154.201C337.324 135.946 322.584 121.147 304.4 121.147C286.217 121.147 271.477 135.946 271.477 154.201C271.477 172.456 286.217 187.255 304.4 187.255Z" fill="#FFB8B8"/>
<path d="M339.519 207.087C339.519 207.087 327.813 218.105 314.643 215.901C301.474 213.698 295.945 197.62 295.945 197.62L283.183 207.087C283.183 207.087 279.525 233.53 296.352 236.468C313.18 239.406 337.324 240.141 342.445 236.468C347.567 232.796 339.519 207.087 339.519 207.087Z" fill="#98FDA6"/>
<path d="M379.761 246.01L377.662 252.859L348.021 349.878H220.454C220.725 348.693 220.924 347.493 221.05 346.283C222.701 332.473 221.728 297.633 221.728 295.237C221.728 292.293 234.158 219.58 237.098 214.432C237.553 213.809 238.152 213.306 238.844 212.967C242.255 211 249.8 208.795 257.934 206.85C257.941 206.843 257.941 206.843 257.949 206.843C262.495 205.733 267.239 204.712 271.542 203.847H271.55C275.771 202.996 279.558 202.301 282.329 201.842C283.822 201.555 285.33 201.345 286.845 201.213C287.523 201.213 288.017 202.02 288.348 203.255C289.461 207.279 289.034 215.896 289.034 215.896C290.022 217.036 291.123 218.072 292.32 218.988C295.132 221.208 298.218 223.055 301.5 224.484C304.314 225.723 307.227 226.72 310.209 227.465H310.216C313.35 228.263 316.54 228.819 319.757 229.13C322.38 229.433 325.032 229.381 327.641 228.974H327.656C335.414 227.687 338.258 222.85 339.584 218.988C339.82 218.286 340.004 217.613 340.166 216.999C340.166 216.991 340.174 216.976 340.174 216.969C340.66 215.083 340.866 213.759 341.382 213.781H341.389C342.723 213.907 359.544 228.383 370.47 237.888C375.657 242.392 379.511 245.795 379.746 246.002L379.761 246.01Z" fill="#FD79A3"/>
<path opacity="0.1" d="M377.661 252.859L348.021 349.878H336.004C337.084 348.289 337.553 346.359 337.322 344.449C336.939 341.742 345.287 314.158 353.325 288.491C360.634 265.168 367.685 243.45 367.685 243.45L374.633 246.749C374.633 246.749 375.878 249.109 377.661 252.859Z" fill="black"/>
<path d="M398.785 340.765C397.341 341.128 397.496 345.433 397.415 349.878H340.638C341.329 349.02 341.845 348.033 342.156 346.975C342.467 345.916 342.567 344.807 342.451 343.709C342.075 341.113 347.674 314.343 353.325 288.491C357.768 268.045 362.248 248.17 363.803 241.253C364.186 239.582 364.392 238.679 364.392 238.679L365.062 238.997L365.077 239.005L379.746 246.002L379.761 246.01C379.761 246.01 402.439 289.356 395.131 299.638C387.807 309.92 387.807 309.92 390.732 315.068C393.657 320.202 401.703 340.033 398.785 340.765Z" fill="#FD79A3"/>
<path d="M306.159 90.9398C315.305 90.9398 322.719 83.496 322.719 74.3136C322.719 65.1313 315.305 57.6875 306.159 57.6875C297.013 57.6875 289.598 65.1313 289.598 74.3136C289.598 83.496 297.013 90.9398 306.159 90.9398Z" fill="#2F2E41"/>
<path d="M286.286 65.4464C286.286 61.3249 287.811 57.3504 290.565 54.2939C293.319 51.2373 297.106 49.3166 301.19 48.9043C300.646 48.8499 300.093 48.8203 299.534 48.8203C295.142 48.8203 290.93 50.572 287.824 53.69C284.719 56.808 282.974 61.0369 282.974 65.4464C282.974 69.856 284.719 74.0849 287.824 77.2029C290.93 80.3209 295.142 82.0726 299.534 82.0726C300.093 82.0726 300.646 82.043 301.19 81.9886C297.106 81.5763 293.319 79.6556 290.565 76.599C287.811 73.5425 286.286 69.568 286.286 65.4464V65.4464Z" fill="#2F2E41"/>
<path d="M293.977 112.555C293.977 112.555 293.631 110.623 280.107 115.714C266.583 120.806 258.476 158.38 265.238 180.444C267.963 189.336 265.746 195.746 262.128 200.232C248.551 217.065 253.895 242.347 273.672 251.002C274.231 251.247 274.8 251.488 275.381 251.727L283.834 256.819C283.834 256.819 273.059 242.585 278.451 224.376C283.134 208.862 283.712 192.392 280.129 176.585C279.51 173.919 278.808 171.17 278.009 168.365C271.247 144.604 274.536 147.348 298.203 123.587C298.203 123.587 311.728 133.77 323.561 138.862C335.395 143.954 345.538 149.045 337.086 166.018C328.633 182.99 308.347 198.265 321.871 220.328C335.395 242.392 337.086 233.906 335.395 242.392L333.704 250.878L343.848 240.695L337.086 254.273C337.086 254.273 359.062 254.273 365.825 237.301L369.206 240.695C369.206 240.695 382.73 216.934 357.372 194.87C357.372 194.87 348.919 189.779 360.753 172.807C372.587 155.834 363.498 119.344 348.283 112.555C333.069 105.767 293.977 112.555 293.977 112.555Z" fill="#2F2E41"/>
<path d="M304.401 219.439L276.233 268.42H282.817V275.031L314.831 219.439H304.401Z" fill="#98FDA6"/>
<path d="M671.948 317.332H557.746V362.453H671.948V317.332Z" fill="#F2F2F2"/>
<path d="M657.581 375.028H572.114V382.425H657.581V375.028Z" fill="#F2F2F2"/>
<path d="M657.581 388.343H572.114V394.26H657.581V388.343Z" fill="#F2F2F2"/>
<path d="M11.7886 11.8351C13.4162 11.8351 14.7357 10.5104 14.7357 8.87628C14.7357 7.24218 13.4162 5.91748 11.7886 5.91748C10.1609 5.91748 8.84143 7.24218 8.84143 8.87628C8.84143 10.5104 10.1609 11.8351 11.7886 11.8351Z" fill="#FD3373"/>
<path d="M19.8932 11.8351C21.5209 11.8351 22.8404 10.5104 22.8404 8.87628C22.8404 7.24218 21.5209 5.91748 19.8932 5.91748C18.2656 5.91748 16.9461 7.24218 16.9461 8.87628C16.9461 10.5104 18.2656 11.8351 19.8932 11.8351Z" fill="#FD3373"/>
<path d="M27.9979 11.8351C29.6255 11.8351 30.945 10.5104 30.945 8.87628C30.945 7.24218 29.6255 5.91748 27.9979 5.91748C26.3702 5.91748 25.0507 7.24218 25.0507 8.87628C25.0507 10.5104 26.3702 11.8351 27.9979 11.8351Z" fill="#FD3373"/>
<path d="M683 395H0V0H683V395ZM1.47357 393.521H681.526V1.4794H1.47357V393.521Z" fill="#2F2E41"/>
<path d="M682.263 14.8579H0.736816V16.3373H682.263V14.8579Z" fill="#2F2E41"/>
<path d="M30.945 27.3689H8.84143V28.8483H30.945V27.3689Z" fill="#2F2E41"/>
<path d="M30.945 33.2866H8.84143V34.766H30.945V33.2866Z" fill="#2F2E41"/>
<path d="M30.945 39.2041H8.84143V40.6835H30.945V39.2041Z" fill="#2F2E41"/>
<path d="M470.806 40.6835H196.722V27.3689H470.806V40.6835ZM198.195 39.2041H469.332V28.8483H198.195V39.2041Z" fill="#2F2E41"/>
<path d="M459.754 35.8754C459.171 35.8754 458.601 35.7018 458.117 35.3767C457.632 35.0516 457.254 34.5895 457.031 34.0488C456.808 33.5082 456.75 32.9133 456.864 32.3393C456.977 31.7654 457.258 31.2382 457.67 30.8244C458.082 30.4106 458.607 30.1288 459.179 30.0146C459.751 29.9005 460.343 29.959 460.882 30.183C461.42 30.4069 461.881 30.7862 462.205 31.2727C462.528 31.7593 462.701 32.3314 462.701 32.9166C462.7 33.701 462.39 34.4531 461.837 35.0078C461.285 35.5625 460.535 35.8745 459.754 35.8754V35.8754ZM459.754 31.4372C459.463 31.4372 459.178 31.5239 458.935 31.6865C458.693 31.8491 458.504 32.0801 458.393 32.3504C458.281 32.6208 458.252 32.9182 458.309 33.2052C458.366 33.4922 458.506 33.7558 458.712 33.9627C458.918 34.1696 459.181 34.3105 459.467 34.3675C459.752 34.4246 460.049 34.3953 460.318 34.2834C460.587 34.1714 460.817 33.9818 460.979 33.7385C461.141 33.4952 461.228 33.2092 461.228 32.9166C461.227 32.5243 461.072 32.1483 460.796 31.871C460.519 31.5936 460.145 31.4376 459.754 31.4372Z" fill="#2F2E41"/>
<path d="M461.785 33.9963L460.759 35.0581L463.662 37.8858L464.688 36.824L461.785 33.9963Z" fill="#2F2E41"/>
<path d="M635.846 40.6835H621.11V27.3689H635.846V40.6835ZM622.584 39.2041H634.372V28.8483H622.584V39.2041Z" fill="#2F2E41"/>
<path d="M654.265 40.6835H639.53V27.3689H654.265V40.6835ZM641.003 39.2041H652.792V28.8483H641.003V39.2041Z" fill="#2F2E41"/>
<path d="M672.685 40.6835H657.949V27.3689H672.685V40.6835ZM659.423 39.2041H671.211V28.8483H659.423V39.2041Z" fill="#2F2E41"/>
<path d="M503.224 358.755H489.962V370.59H503.224V358.755Z" fill="#FF6584"/>
<path d="M521.644 358.755H508.382V370.59H521.644V358.755Z" fill="#F2F2F2"/>
<path d="M540.064 358.755H526.801V370.59H540.064V358.755Z" fill="#F2F2F2"/>
<path d="M539.327 350.618H36.8392V63.6143H539.327V350.618ZM38.3128 349.139H537.853V65.0937H38.3128V349.139Z" fill="#2F2E41"/>
<path d="M113.18 324.267V331.217L101.681 324.171C101.62 324.135 101.551 324.115 101.48 324.115C101.409 324.115 101.339 324.133 101.277 324.168C101.215 324.203 101.164 324.254 101.128 324.316C101.093 324.378 101.074 324.448 101.074 324.519V339.75C101.074 339.821 101.093 339.891 101.128 339.953C101.164 340.014 101.215 340.065 101.277 340.101C101.339 340.136 101.409 340.154 101.48 340.154C101.551 340.153 101.62 340.134 101.681 340.098L113.18 333.052V340.002C113.18 340.056 113.202 340.107 113.239 340.145C113.277 340.182 113.328 340.204 113.381 340.204H116.948C117.001 340.204 117.052 340.182 117.09 340.145C117.127 340.107 117.149 340.056 117.149 340.002V324.267C117.149 324.213 117.127 324.162 117.09 324.124C117.052 324.086 117.001 324.065 116.948 324.065H113.381C113.328 324.065 113.277 324.086 113.239 324.124C113.202 324.162 113.18 324.213 113.18 324.267V324.267Z" fill="#3F3D56"/>
<path d="M82.5149 340.204H79.3099C79.2568 340.204 79.2041 340.194 79.1549 340.174C79.1057 340.154 79.061 340.124 79.0232 340.087C78.9854 340.049 78.9553 340.005 78.9347 339.956C78.9141 339.906 78.9033 339.854 78.903 339.8V324.468C78.9033 324.415 78.9141 324.362 78.9347 324.313C78.9553 324.264 78.9854 324.219 79.0232 324.182C79.061 324.145 79.1057 324.115 79.1549 324.095C79.2041 324.075 79.2568 324.065 79.3099 324.065H82.5149C82.568 324.065 82.6207 324.075 82.6699 324.095C82.7191 324.115 82.7639 324.145 82.8017 324.182C82.8395 324.219 82.8695 324.264 82.8902 324.313C82.9108 324.362 82.9215 324.415 82.9218 324.468V339.8C82.9215 339.854 82.9108 339.906 82.8902 339.956C82.8695 340.005 82.8395 340.049 82.8017 340.087C82.7639 340.124 82.7191 340.154 82.6699 340.174C82.6207 340.194 82.568 340.204 82.5149 340.204V340.204ZM91.3564 340.204H88.1513C88.0982 340.204 88.0456 340.194 87.9964 340.174C87.9471 340.154 87.9024 340.124 87.8646 340.087C87.8268 340.049 87.7967 340.005 87.7761 339.956C87.7555 339.906 87.7447 339.854 87.7444 339.8V324.468C87.7447 324.415 87.7555 324.362 87.7761 324.313C87.7967 324.264 87.8268 324.219 87.8646 324.182C87.9024 324.145 87.9471 324.115 87.9964 324.095C88.0456 324.075 88.0982 324.065 88.1513 324.065H91.3564C91.4095 324.065 91.4621 324.075 91.5113 324.095C91.5605 324.115 91.6053 324.145 91.6431 324.182C91.6809 324.219 91.7109 324.264 91.7316 324.313C91.7522 324.362 91.7629 324.415 91.7632 324.468V339.8C91.7629 339.854 91.7522 339.906 91.7316 339.956C91.7109 340.005 91.6809 340.049 91.6431 340.087C91.6053 340.124 91.5605 340.154 91.5113 340.174C91.4621 340.194 91.4095 340.204 91.3564 340.204V340.204Z" fill="#3F3D56"/>
<path d="M58.206 324.484V339.785C58.2021 339.856 58.2173 339.927 58.2501 339.99C58.2829 340.053 58.332 340.106 58.3922 340.143C58.4524 340.18 58.5215 340.2 58.5922 340.201C58.6629 340.202 58.7325 340.184 58.7938 340.149L70.8754 332.498C70.9345 332.458 70.983 332.405 71.0165 332.342C71.05 332.279 71.0675 332.208 71.0675 332.137C71.0675 332.066 71.05 331.996 71.0165 331.933C70.983 331.87 70.9345 331.816 70.8754 331.777L58.7938 324.126C58.7331 324.089 58.6636 324.07 58.5929 324.07C58.5222 324.071 58.4529 324.09 58.3924 324.127C58.3319 324.164 58.2826 324.216 58.2498 324.279C58.217 324.342 58.2018 324.413 58.206 324.484V324.484Z" fill="#FF0066"/>
<path d="M515.381 313.633H60.7848V316.592H515.381V313.633Z" fill="#2F2E41"/>
<path d="M139.989 313.633H60.7848V316.592H139.989V313.633Z" fill="#FF0066"/>
<path d="M246.086 360.234H37.576V368.371H246.086V360.234Z" fill="#F2F2F2"/>
<path d="M83.2567 378.727H37.576V386.863H83.2567V378.727Z" fill="#F2F2F2"/>
<path d="M671.948 79.1479H557.746V124.27H671.948V79.1479Z" fill="#F2F2F2"/>
<path d="M657.581 136.844H572.114V144.242H657.581V136.844Z" fill="#F2F2F2"/>
<path d="M657.581 150.159H572.114V157.556H657.581V150.159Z" fill="#F2F2F2"/>
<path d="M657.581 163.474H572.114V170.871H657.581V163.474Z" fill="#F2F2F2"/>
<path d="M671.948 198.24H557.746V243.362H671.948V198.24Z" fill="#F2F2F2"/>
<path d="M657.581 255.936H572.114V263.333H657.581V255.936Z" fill="#F2F2F2"/>
<path d="M657.581 269.251H572.114V276.648H657.581V269.251Z" fill="#F2F2F2"/>
<path d="M657.581 282.565H572.114V289.962H657.581V282.565Z" fill="#F2F2F2"/>
<path d="M487.651 314.986L486.13 313.833C480.722 309.659 477.156 306.954 476.831 303.224C476.757 302.515 476.825 301.799 477.032 301.117C477.238 300.435 477.579 299.802 478.033 299.255C478.488 298.707 479.047 298.257 479.678 297.931C480.309 297.604 480.999 297.408 481.707 297.354C482.542 297.286 483.381 297.4 484.168 297.69C484.954 297.979 485.668 298.437 486.261 299.032C486.741 298.343 487.365 297.768 488.089 297.345C488.814 296.923 489.621 296.664 490.455 296.586C491.161 296.516 491.875 296.588 492.552 296.8C493.23 297.011 493.859 297.357 494.401 297.817C494.944 298.277 495.389 298.841 495.71 299.476C496.031 300.112 496.222 300.805 496.272 301.516C496.597 305.247 493.553 308.532 488.949 313.586L487.651 314.986Z" fill="#FF6584"/>
<path d="M505.649 295.97L504.816 294.25C501.885 288.065 499.931 284.03 501.329 280.558C501.583 279.893 501.968 279.286 502.46 278.772C502.953 278.259 503.543 277.85 504.195 277.57C504.848 277.289 505.55 277.143 506.26 277.14C506.969 277.137 507.673 277.277 508.328 277.551C509.103 277.87 509.799 278.355 510.369 278.972C510.938 279.588 511.367 280.322 511.626 281.122C512.366 280.727 513.182 280.499 514.019 280.453C514.855 280.406 515.691 280.544 516.47 280.855C517.131 281.114 517.733 281.504 518.242 282.001C518.75 282.499 519.154 283.093 519.429 283.75C519.704 284.407 519.846 285.113 519.844 285.825C519.843 286.538 519.7 287.243 519.422 287.899C518.025 291.371 513.827 292.91 507.439 295.314L505.649 295.97Z" fill="#FF6584"/>
<path d="M498.281 345.53L497.448 343.81C494.517 337.625 492.563 333.59 493.961 330.118C494.215 329.453 494.6 328.845 495.093 328.332C495.585 327.819 496.175 327.41 496.827 327.129C497.48 326.849 498.182 326.703 498.892 326.7C499.601 326.697 500.305 326.836 500.96 327.111C501.735 327.43 502.431 327.915 503.001 328.532C503.57 329.148 503.999 329.882 504.258 330.682C504.998 330.287 505.814 330.059 506.651 330.012C507.487 329.966 508.323 330.103 509.102 330.414C509.763 330.674 510.365 331.064 510.874 331.561C511.382 332.058 511.786 332.653 512.061 333.31C512.336 333.967 512.478 334.672 512.476 335.385C512.475 336.098 512.332 336.803 512.054 337.459C510.657 340.931 506.459 342.47 500.071 344.874L498.281 345.53Z" fill="#FF6584"/>
</svg>
