<svg width="174" height="255" viewBox="0 0 174 255" fill="none" xmlns="http://www.w3.org/2000/svg">
<path d="M183.878 33.3944C199.141 49.1507 212.475 61.5306 226.453 77.93C240.43 94.3294 255.05 114.587 248.303 128.897C241.715 143.206 213.761 151.406 197.695 170.056C181.79 188.706 177.612 217.646 161.868 235.171C146.123 252.696 118.65 258.645 93.7482 252.857C68.846 247.069 46.3537 229.544 30.2877 208C14.2218 186.616 4.42154 161.213 1.20835 135.167C-2.1655 109.121 1.0477 82.4318 16.953 67.4794C33.0189 52.6878 61.9376 49.7938 83.7873 37.0923C105.637 24.23 120.257 1.72105 136.162 0.11327C151.907 -1.65529 168.776 17.6381 183.878 33.3944Z" fill="#44F9BD"/>
</svg>
