<svg width="60" height="60" viewBox="0 0 60 60" fill="none" xmlns="http://www.w3.org/2000/svg">
<circle cx="30" cy="30.0002" r="30" fill="#FD98B8"/>
<path d="M34.1575 23.2107C36.3351 23.2107 38.4235 24.0757 39.9633 25.6155C41.503 27.1553 42.3681 29.2437 42.3681 31.4212V41.0002H36.8944V31.4212C36.8944 30.6954 36.606 29.9992 36.0928 29.486C35.5795 28.9727 34.8834 28.6844 34.1575 28.6844C33.4317 28.6844 32.7356 28.9727 32.2223 29.486C31.7091 29.9992 31.4207 30.6954 31.4207 31.4212V41.0002H25.947V31.4212C25.947 29.2437 26.8121 27.1553 28.3518 25.6155C29.8916 24.0757 31.98 23.2107 34.1575 23.2107Z" fill="#FAFAFA"/>
<path d="M20.4737 24.5791H15V41.0002H20.4737V24.5791Z" fill="#FAFAFA"/>
<path d="M17.7368 20.4739C19.2484 20.4739 20.4737 19.2486 20.4737 17.7371C20.4737 16.2256 19.2484 15.0002 17.7368 15.0002C16.2253 15.0002 15 16.2256 15 17.7371C15 19.2486 16.2253 20.4739 17.7368 20.4739Z" fill="#FAFAFA"/>
</svg>
