<svg width="330" height="283" viewBox="0 0 330 283" fill="none" xmlns="http://www.w3.org/2000/svg">
<path d="M96.9806 280.047C102.278 275.563 105.496 268.478 104.652 261.582C103.808 254.686 98.5815 248.346 91.8019 246.881C85.0222 245.417 77.2938 249.471 75.2345 256.105C74.1013 243.314 72.7953 229.986 66.0068 219.093C59.86 209.23 49.2136 202.172 37.6753 200.909C26.137 199.647 13.9886 204.416 6.79258 213.539C-0.403448 222.663 -2.16536 235.926 2.87455 246.401C6.58727 254.117 13.4274 259.86 20.5942 264.531C43.7526 279.501 71.5281 285.588 98.8101 281.673" fill="#F2F2F2"/>
<path d="M18.2023 204.68C27.7228 212.449 36.4569 221.137 44.2782 230.62C56.5185 245.41 66.4235 261.992 73.6482 279.789C74.177 281.087 72.0726 281.652 71.5496 280.369C66.9553 269.117 61.2712 258.343 54.579 248.201C44.1431 232.359 31.3578 218.204 16.6634 206.222C15.577 205.335 17.1248 203.801 18.2023 204.68V204.68Z" fill="white"/>
<path d="M100.639 280.047C95.3417 275.563 92.1239 268.478 92.9678 261.582C93.8117 254.686 99.0383 248.346 105.818 246.881C112.598 245.417 120.326 249.471 122.385 256.105C123.519 243.314 124.824 229.986 131.613 219.093C137.76 209.23 148.406 202.172 159.945 200.909C171.483 199.647 183.631 204.416 190.827 213.539C198.023 222.663 199.785 235.926 194.745 246.401C191.033 254.117 184.192 259.86 177.026 264.531C153.867 279.501 126.092 285.588 98.8097 281.673" fill="#F2F2F2"/>
<path d="M179.417 204.68C169.897 212.449 161.163 221.137 153.341 230.62C141.101 245.41 131.196 261.992 123.971 279.789C123.442 281.087 125.547 281.652 126.07 280.369C137.891 251.445 156.761 225.952 180.956 206.222C182.042 205.335 180.495 203.801 179.417 204.68V204.68Z" fill="white"/>
<path d="M116.36 127.307C126.16 127.307 134.105 119.348 134.105 109.53C134.105 99.7118 126.16 91.7527 116.36 91.7527C106.559 91.7527 98.6147 99.7118 98.6147 109.53C98.6147 119.348 106.559 127.307 116.36 127.307Z" fill="#F2F2F2"/>
<path d="M61.6465 48.2493H183.905V54.9503H77.2539C70.9832 54.9502 64.7739 56.1876 58.9805 58.5916C53.1872 60.9956 47.9232 64.5192 43.4892 68.9613C39.0551 73.4033 35.5378 78.6768 33.1381 84.4806C30.7385 90.2844 29.5034 96.5049 29.5034 102.787V178.918H16.1256C15.5343 178.918 14.9672 178.683 14.5491 178.264C14.1309 177.845 13.896 177.277 13.896 176.684V96.086C13.896 89.8039 15.1311 83.5834 17.5308 77.7796C19.9305 71.9758 23.4477 66.7023 27.8818 62.2603C32.3158 57.8182 37.5798 54.2946 43.3732 51.8906C49.1665 49.4866 55.3758 48.2493 61.6465 48.2493V48.2493Z" fill="white"/>
<path d="M85.1626 280.419V178.631H114.928V280.419C114.928 281.104 114.656 281.759 114.173 282.243C113.69 282.727 113.035 282.999 112.353 283H87.7385C87.0556 282.999 86.4008 282.727 85.9179 282.243C85.435 281.759 85.1634 281.104 85.1626 280.419Z" fill="#3F3D56"/>
<path d="M7.59961 176.624V93.8548C7.61446 80.6784 12.8459 68.046 22.1461 58.7289C31.4464 49.4118 44.056 44.1709 57.2086 44.156H183.333V179.491H10.4617C9.7029 179.491 8.97543 179.188 8.43887 178.651C7.90231 178.113 7.60048 177.384 7.59961 176.624V176.624ZM182.188 45.3029H57.2086C44.3595 45.3175 32.0409 50.4375 22.9553 59.5396C13.8697 68.6416 8.75898 80.9825 8.74445 93.8548V176.624C8.74495 177.08 8.92603 177.518 9.24797 177.84C9.56991 178.163 10.0064 178.344 10.4617 178.344H182.188V45.3029Z" fill="#3F3D56"/>
<path d="M116.36 118.705C113.628 118.702 111.009 117.614 109.077 115.678C107.146 113.743 106.059 111.12 106.056 108.383V34.4073C106.056 33.9512 105.874 33.5139 105.553 33.1914C105.231 32.8688 104.794 32.6874 104.339 32.6869H64.2693C63.5105 32.686 62.7831 32.3837 62.2465 31.8462C61.7099 31.3086 61.4081 30.5798 61.4072 29.8197V2.86727C61.4081 2.1071 61.7099 1.3783 62.2465 0.840774C62.7831 0.303247 63.5105 0.000880276 64.2693 0H123.801C124.56 0.000869674 125.287 0.303236 125.824 0.840766C126.36 1.3783 126.662 2.10709 126.663 2.86727V108.383C126.66 111.12 125.574 113.743 123.642 115.678C121.71 117.614 119.091 118.702 116.36 118.705Z" fill="#FD3373"/>
<path d="M187.912 43.0091C196.548 42.991 204.836 46.4102 210.955 52.5145C217.074 58.6188 220.522 66.9083 220.54 75.5592V169.783H284.651C287.227 169.778 289.699 170.798 291.524 172.618C293.349 174.439 294.377 176.911 294.382 179.491H155.284V75.5592C155.302 66.9083 158.75 58.6188 164.869 52.5145C170.988 46.4102 179.277 42.991 187.912 43.0091Z" fill="#3F3D56"/>
<path d="M180.082 96.6659L186.839 124.625L319 92.574L312.244 64.6146C312.162 64.2728 311.995 63.9571 311.759 63.697C311.524 63.4368 311.226 63.2406 310.894 63.1265C310.649 63.0402 310.39 63.0011 310.13 63.0114L233.735 23.3845C233.288 23.1555 232.773 23.0944 232.284 23.212C231.796 23.3297 231.365 23.6186 231.07 24.0264L194.252 75.4617L180.372 94.8575C180.347 94.8915 180.329 94.9305 180.321 94.9719C180.312 95.0133 180.312 95.0561 180.321 95.0974C180.039 95.5684 179.953 96.132 180.082 96.6659V96.6659Z" fill="white"/>
<path d="M180.322 95.0974C180.328 95.1338 180.342 95.1685 180.362 95.1996C180.382 95.2306 180.407 95.2575 180.438 95.2785C180.474 95.3031 180.514 95.3202 180.557 95.3286C180.599 95.337 180.643 95.3367 180.686 95.3276C180.755 95.3091 180.815 95.2671 180.857 95.2087L180.905 95.1425L181.627 94.1301L194.752 75.8L231.559 24.3765C231.769 24.0851 232.077 23.8788 232.426 23.795C232.775 23.7112 233.142 23.7555 233.461 23.9199L309.264 63.2398L309.944 63.5935C309.972 63.605 310 63.6149 310.029 63.6231C310.08 63.6137 310.132 63.6087 310.184 63.6082C310.255 63.5843 310.314 63.5341 310.35 63.4678C310.368 63.4329 310.38 63.3947 310.383 63.3553C310.387 63.316 310.383 63.2763 310.371 63.2386C310.36 63.2008 310.341 63.1658 310.316 63.1354C310.29 63.105 310.259 63.0798 310.225 63.0614L310.131 63.0114L233.736 23.3845C233.288 23.1555 232.774 23.0944 232.285 23.212C231.796 23.3297 231.365 23.6186 231.07 24.0264L194.252 75.4617L180.372 94.8575C180.347 94.8915 180.33 94.9305 180.321 94.9719C180.312 95.0133 180.312 95.0561 180.322 95.0974V95.0974Z" fill="#3F3D56"/>
<path d="M220.014 97.9485L222.955 98.2754L244.789 100.698L259.263 102.304L260.118 102.399L278.179 88.2663L278.871 87.725L283.137 84.3873L298.314 72.5132L298.405 71.6792L303.803 22.8701C303.877 22.198 303.681 21.5241 303.26 20.9961C302.838 20.4681 302.225 20.1292 301.554 20.0535L229.512 12.0586C228.841 11.9852 228.168 12.1811 227.641 12.6034C227.114 13.0257 226.776 13.64 226.7 14.3118L222.893 48.7406L220.782 67.8285L218.893 84.9051L218.017 92.8356L217.761 95.1327C217.689 95.805 217.885 96.4789 218.307 97.0067C218.729 97.5345 219.343 97.8731 220.014 97.9485V97.9485Z" fill="#E5E5E5"/>
<path d="M239.811 55.165L271.017 58.6276L282.084 59.8552C282.573 59.9094 283.067 59.8667 283.539 59.7294C284.011 59.5922 284.452 59.3631 284.836 59.0553C285.219 58.7476 285.539 58.3671 285.776 57.9356C286.013 57.5041 286.163 57.0301 286.217 56.5406C286.271 56.0511 286.228 55.5557 286.091 55.0827C285.954 54.6098 285.726 54.1684 285.418 53.784C285.111 53.3995 284.731 53.0795 284.301 52.8421C283.87 52.6046 283.397 52.4545 282.908 52.4003L269.143 50.8731L240.637 47.7065C239.65 47.5973 238.66 47.8852 237.885 48.5069C237.11 49.1286 236.613 50.0333 236.503 51.022C236.394 52.0108 236.681 53.0026 237.301 53.7795C237.921 54.5564 238.824 55.0548 239.811 55.165Z" fill="white"/>
<path d="M238.034 68.9945C238.115 69.0089 238.195 69.0233 238.277 69.0312L274.503 73.0517L280.551 73.7242C281.539 73.8336 282.529 73.5457 283.304 72.9237C284.079 72.3018 284.576 71.3968 284.685 70.4078C284.795 69.4189 284.507 68.4269 283.886 67.6503C283.265 66.8736 282.362 66.3759 281.375 66.2665L272.629 65.2971L243.934 62.1117L239.104 61.5756C238.139 61.4677 237.169 61.7402 236.4 62.3356C235.631 62.931 235.124 63.8026 234.985 64.7661C234.846 65.7295 235.086 66.7094 235.655 67.4985C236.224 68.2876 237.078 68.824 238.034 68.9944V68.9945Z" fill="white"/>
<path d="M233.934 81.2571C234.231 81.7509 234.638 82.1694 235.122 82.4802C235.607 82.7911 236.156 82.9858 236.728 83.0494L251.576 84.6968L278.02 87.6318L278.026 87.6303L278.872 87.7247L283.137 84.3871C283.164 84.1336 283.164 83.878 283.138 83.6244C283.048 82.773 282.671 81.9779 282.068 81.3706C281.466 80.7633 280.675 80.3802 279.826 80.2847L276.152 79.8758L261.58 78.2603L251.095 77.0953L237.551 75.5916C236.857 75.5147 236.156 75.6337 235.526 75.9353C234.895 76.237 234.362 76.7092 233.986 77.2985C233.61 77.8879 233.405 78.5709 233.396 79.2704C233.387 79.97 233.574 80.6581 233.934 81.2571L233.934 81.2571Z" fill="white"/>
<path d="M254.789 38.2608L262.553 39.1223L265.983 39.5039L271.163 40.0782C272.151 40.1876 273.141 39.8997 273.916 39.2777C274.691 38.6558 275.188 37.7508 275.297 36.7618C275.407 35.7728 275.119 34.7809 274.498 34.0043C273.877 33.2276 272.974 32.7298 271.987 32.6204L255.616 30.8052C254.629 30.6953 253.639 30.9827 252.864 31.6041C252.088 32.2254 251.591 33.13 251.481 34.1186C251.372 35.1073 251.659 36.0992 252.279 36.8759C252.899 37.6527 253.802 38.1509 254.789 38.2608V38.2608Z" fill="white"/>
<path d="M191.3 59.0267L200.766 98.2016L216.565 101.211L231.181 103.999L246.861 106.988L251.872 107.943C252.165 107.999 252.467 107.991 252.757 107.92C253.047 107.85 253.319 107.719 253.554 107.535L257.574 104.39L260.119 102.399L278.18 88.2661L266.696 40.7418C266.583 40.269 266.335 39.8391 265.984 39.5037C265.676 39.2069 265.298 38.9927 264.885 38.8807C264.472 38.7687 264.038 38.7627 263.623 38.863L193.175 55.9478C192.519 56.1073 191.953 56.5212 191.601 57.0985C191.25 57.6758 191.141 58.3693 191.3 59.0267V59.0267Z" fill="#FD3373"/>
<path d="M213.005 90.1918C213.24 91.1581 213.847 91.9918 214.695 92.5098C215.542 93.0278 216.56 93.1878 217.525 92.9547L258.862 82.9297C259.826 82.6944 260.658 82.0857 261.175 81.2369C261.692 80.3881 261.852 79.3686 261.62 78.4019C261.609 78.3539 261.596 78.3067 261.58 78.2604C261.316 77.3284 260.702 76.5348 259.867 76.0462C259.032 75.5575 258.04 75.4115 257.1 75.6389L215.763 85.6639C214.799 85.8987 213.966 86.5074 213.449 87.3563C212.932 88.2052 212.773 89.225 213.005 90.1918Z" fill="white"/>
<path d="M216.565 101.211L231.18 103.999L262.139 96.4908C263.104 96.2568 263.937 95.6482 264.454 94.7991C264.971 93.95 265.131 92.9298 264.897 91.963C264.663 90.9961 264.056 90.1619 263.208 89.6437C262.361 89.1256 261.342 88.966 260.377 89.2L219.04 99.225C218.176 99.4328 217.415 99.9437 216.895 100.665C216.77 100.838 216.659 101.02 216.565 101.211Z" fill="white"/>
<path d="M246.86 106.988L251.871 107.943C252.164 107.999 252.466 107.991 252.756 107.921C253.046 107.85 253.318 107.719 253.553 107.535L257.573 104.39L246.86 106.988Z" fill="white"/>
<path d="M221.335 69.1855C221.569 70.1519 222.177 70.9856 223.024 71.5036C223.872 72.0216 224.89 72.1816 225.855 71.9484L241.866 68.0655C242.83 67.8302 243.662 67.2214 244.179 66.3727C244.696 65.5239 244.856 64.5044 244.623 63.5377C244.499 63.0182 244.263 62.5318 243.934 62.1119C243.491 61.5443 242.894 61.1163 242.215 60.8792C241.536 60.6421 240.803 60.6059 240.104 60.7747L224.093 64.6576C223.128 64.8918 222.295 65.5004 221.778 66.3495C221.261 67.1986 221.102 68.2187 221.335 69.1855V69.1855Z" fill="white"/>
<path d="M231.178 103.999L246.862 106.988L251.87 107.944C252.164 107.999 252.465 107.991 252.755 107.921C253.045 107.85 253.317 107.719 253.552 107.536L257.575 104.39L256.163 104.733L253.183 107.061C253.015 107.192 252.821 107.286 252.614 107.336C252.407 107.386 252.191 107.392 251.982 107.353L248.273 106.646L232.59 103.656L231.178 103.999ZM278.024 87.6328L278.177 88.2647L278.872 87.7229L278.024 87.6328ZM231.178 103.999L246.862 106.988L251.87 107.944C252.164 107.999 252.465 107.991 252.755 107.921C253.045 107.85 253.317 107.719 253.552 107.536L257.575 104.39L256.163 104.733L253.183 107.061C253.015 107.192 252.821 107.286 252.614 107.336C252.407 107.386 252.191 107.392 251.982 107.353L248.273 106.646L232.59 103.656L231.178 103.999ZM231.178 103.999L246.862 106.988L251.87 107.944C252.164 107.999 252.465 107.991 252.755 107.921C253.045 107.85 253.317 107.719 253.552 107.536L257.575 104.39L256.163 104.733L253.183 107.061C253.015 107.192 252.821 107.286 252.614 107.336C252.407 107.386 252.191 107.392 251.982 107.353L248.273 106.646L232.59 103.656L231.178 103.999ZM180.082 96.666L197.779 169.902C197.911 170.443 198.251 170.91 198.725 171.2C199.2 171.49 199.77 171.58 200.311 171.449L328.396 140.387C328.936 140.255 329.402 139.914 329.692 139.439C329.981 138.963 330.071 138.392 329.94 137.851L312.243 64.6147C312.162 64.2728 311.995 63.9571 311.759 63.697C311.523 63.4368 311.226 63.2406 310.894 63.1265C310.649 63.0402 310.39 63.0011 310.13 63.0114C309.828 63.0201 309.531 63.0983 309.264 63.2398C309.14 63.2985 309.023 63.3711 308.916 63.456L298.404 71.6792L283.137 83.6263L278.023 87.6285L278.024 87.6328L278.02 87.6338L259.264 102.302L256.163 104.733L253.183 107.061C253.015 107.192 252.821 107.286 252.614 107.336C252.407 107.386 252.191 107.392 251.982 107.353L248.273 106.646L232.59 103.656L216.893 100.665L182.513 94.1109C182.22 94.0527 181.917 94.0593 181.627 94.1301C181.236 94.2258 180.881 94.432 180.603 94.7242C180.497 94.8389 180.403 94.9639 180.321 95.0974C180.039 95.5684 179.953 96.132 180.082 96.666V96.666ZM231.178 103.999L246.862 106.988L251.87 107.944C252.164 107.999 252.465 107.991 252.755 107.921C253.045 107.85 253.317 107.719 253.552 107.536L257.575 104.39L256.163 104.733L253.183 107.061C253.015 107.192 252.821 107.286 252.614 107.336C252.407 107.386 252.191 107.392 251.982 107.353L248.273 106.646L232.59 103.656L231.178 103.999ZM231.178 103.999L246.862 106.988L251.87 107.944C252.164 107.999 252.465 107.991 252.755 107.921C253.045 107.85 253.317 107.719 253.552 107.536L257.575 104.39L256.163 104.733L253.183 107.061C253.015 107.192 252.821 107.286 252.614 107.336C252.407 107.386 252.191 107.392 251.982 107.353L248.273 106.646L232.59 103.656L231.178 103.999ZM231.178 103.999L246.862 106.988L251.87 107.944C252.164 107.999 252.465 107.991 252.755 107.921C253.045 107.85 253.317 107.719 253.552 107.536L257.575 104.39L256.163 104.733L253.183 107.061C253.015 107.192 252.821 107.286 252.614 107.336C252.407 107.386 252.191 107.392 251.982 107.353L248.273 106.646L232.59 103.656L231.178 103.999Z" fill="white"/>
<path d="M231.178 103.999L246.862 106.988L251.87 107.944C252.164 107.999 252.465 107.991 252.755 107.921C253.045 107.85 253.317 107.719 253.552 107.536L257.575 104.39L256.163 104.733L253.183 107.061C253.015 107.192 252.821 107.286 252.614 107.336C252.407 107.386 252.191 107.392 251.982 107.353L248.273 106.646L232.59 103.656L231.178 103.999ZM278.024 87.6328L278.177 88.2646L278.872 87.7228L278.024 87.6328ZM231.178 103.999L246.862 106.988L251.87 107.944C252.164 107.999 252.465 107.991 252.755 107.921C253.045 107.85 253.317 107.719 253.552 107.536L257.575 104.39L256.163 104.733L253.183 107.061C253.015 107.192 252.821 107.286 252.614 107.336C252.407 107.386 252.191 107.392 251.982 107.353L248.273 106.646L232.59 103.656L231.178 103.999ZM231.178 103.999L246.862 106.988L251.87 107.944C252.164 107.999 252.465 107.991 252.755 107.921C253.045 107.85 253.317 107.719 253.552 107.536L257.575 104.39L256.163 104.733L253.183 107.061C253.015 107.192 252.821 107.286 252.614 107.336C252.407 107.386 252.191 107.392 251.982 107.353L248.273 106.646L232.59 103.656L231.178 103.999ZM180.904 95.1426L180.982 95.2011C180.995 95.1797 181.018 95.1606 181.035 95.1382C181.208 94.9573 181.424 94.8225 181.662 94.7456C181.9 94.6688 182.154 94.6524 182.4 94.6979L216.565 101.209L231.178 103.999L246.862 106.988L251.87 107.944C252.164 107.999 252.465 107.991 252.755 107.921C253.045 107.85 253.317 107.719 253.552 107.536L257.575 104.39L256.163 104.733L253.183 107.061C253.015 107.192 252.821 107.286 252.614 107.336C252.407 107.386 252.191 107.392 251.982 107.353L248.273 106.646L232.59 103.656L216.893 100.665L182.513 94.1109C182.22 94.0527 181.917 94.0593 181.627 94.1301L180.904 95.1426ZM180.082 96.666L197.779 169.902C197.911 170.443 198.251 170.91 198.725 171.2C199.2 171.49 199.77 171.58 200.311 171.449L328.396 140.387C328.936 140.255 329.402 139.914 329.692 139.439C329.981 138.963 330.071 138.392 329.94 137.851L312.243 64.6147C312.162 64.2728 311.995 63.9571 311.759 63.697C311.523 63.4368 311.226 63.2406 310.894 63.1265C310.649 63.0402 310.39 63.0011 310.13 63.0114C309.828 63.0201 309.531 63.0983 309.264 63.2398C309.14 63.2985 309.023 63.3711 308.916 63.456L298.404 71.6792L283.137 83.6263L278.023 87.6285L278.024 87.6328L278.02 87.6338L259.264 102.302L256.163 104.733L253.183 107.061C253.015 107.192 252.821 107.286 252.614 107.336C252.407 107.386 252.191 107.392 251.982 107.353L248.273 106.646L232.59 103.656L216.893 100.665L182.513 94.1109C182.22 94.0527 181.917 94.0593 181.627 94.1301C181.236 94.2258 180.881 94.432 180.603 94.7241C180.497 94.8389 180.403 94.9639 180.321 95.0974C180.039 95.5684 179.953 96.132 180.082 96.666V96.666ZM180.666 96.5244C180.614 96.3086 180.61 96.0837 180.656 95.8664C180.702 95.649 180.795 95.4447 180.93 95.2682C180.942 95.2423 180.96 95.2194 180.982 95.2011C180.995 95.1797 181.018 95.1606 181.035 95.1382C181.208 94.9574 181.424 94.8225 181.662 94.7456C181.9 94.6688 182.154 94.6524 182.4 94.6979L216.565 101.209L231.178 103.999L246.862 106.988L251.87 107.944C252.164 107.999 252.465 107.991 252.755 107.921C253.045 107.85 253.317 107.719 253.552 107.536L257.575 104.39L260.119 102.399L278.177 88.2646L278.872 87.7228L283.135 84.3867L298.314 72.5108L309.288 63.9253C309.455 63.795 309.648 63.7017 309.853 63.6518C309.911 63.6377 309.969 63.6281 310.028 63.6231C310.079 63.6137 310.131 63.6087 310.184 63.6082C310.359 63.6065 310.533 63.635 310.699 63.6924C310.936 63.7749 311.148 63.9154 311.316 64.101C311.485 64.2866 311.604 64.5114 311.664 64.7551L329.361 137.991C329.408 138.183 329.416 138.382 329.386 138.577C329.355 138.773 329.287 138.96 329.184 139.128C329.081 139.297 328.947 139.444 328.787 139.56C328.628 139.676 328.447 139.76 328.256 139.806L200.17 170.869C199.784 170.962 199.376 170.898 199.037 170.69C198.699 170.482 198.456 170.148 198.363 169.76L180.666 96.5244ZM231.178 103.999L246.862 106.988L251.87 107.944C252.164 107.999 252.465 107.991 252.755 107.921C253.045 107.85 253.317 107.719 253.552 107.536L257.575 104.39L256.163 104.733L253.183 107.061C253.015 107.192 252.821 107.286 252.614 107.336C252.407 107.386 252.191 107.392 251.982 107.353L248.273 106.646L232.59 103.656L231.178 103.999ZM231.178 103.999L246.862 106.988L251.87 107.944C252.164 107.999 252.465 107.991 252.755 107.921C253.045 107.85 253.317 107.719 253.552 107.536L257.575 104.39L256.163 104.733L253.183 107.061C253.015 107.192 252.821 107.286 252.614 107.336C252.407 107.386 252.191 107.392 251.982 107.353L248.273 106.646L232.59 103.656L231.178 103.999ZM231.178 103.999L246.862 106.988L251.87 107.944C252.164 107.999 252.465 107.991 252.755 107.921C253.045 107.85 253.317 107.719 253.552 107.536L257.575 104.39L256.163 104.733L253.183 107.061C253.015 107.192 252.821 107.286 252.614 107.336C252.407 107.386 252.191 107.392 251.982 107.353L248.273 106.646L232.59 103.656L231.178 103.999Z" fill="#3F3D56"/>
<path d="M295.014 125.998C294.725 124.798 294.924 123.532 295.565 122.479C296.207 121.425 297.24 120.669 298.437 120.378L314.603 116.457C315.8 116.171 317.06 116.372 318.109 117.016C319.157 117.659 319.909 118.693 320.198 119.891C320.487 121.088 320.291 122.351 319.652 123.404C319.014 124.457 317.984 125.213 316.79 125.507L300.624 129.428C299.426 129.717 298.163 129.518 297.111 128.875C296.059 128.232 295.305 127.198 295.014 125.998Z" fill="#FD3373"/>
<path d="M116.359 112.397C118.572 112.397 120.366 110.6 120.366 108.383C120.366 106.166 118.572 104.369 116.359 104.369C114.147 104.369 112.353 106.166 112.353 108.383C112.353 110.6 114.147 112.397 116.359 112.397Z" fill="white"/>
</svg>
