<svg width="191" height="116" viewBox="0 0 191 116" fill="none" xmlns="http://www.w3.org/2000/svg">
<path d="M93.8974 18.8145H42.3115M57.4838 31.5592H20.4634M67.1941 45.5177H50.2011" stroke="#44F9BD" stroke-width="4.9431" stroke-linecap="round" stroke-linejoin="round"/>
<path d="M76.5966 72.4277H25.0107M40.183 59.683H3.1626M49.8933 45.7245H32.9003" stroke="#44F9BD" stroke-width="4.9431" stroke-linecap="round" stroke-linejoin="round"/>
<circle cx="133.345" cy="57.6548" r="55.1833" stroke="#282828" stroke-width="4.9431"/>
<path d="M176.171 58.0816C176.171 81.2546 157.115 100.098 133.537 100.098C109.958 100.098 90.9027 81.2546 90.9027 58.0816C90.9027 34.9087 109.958 16.0653 133.537 16.0653C157.115 16.0653 176.171 34.9087 176.171 58.0816Z" stroke="#282828" stroke-width="4.9431"/>
<path d="M136.626 23.4805C136.626 22.1155 135.52 21.0089 134.155 21.0089C132.79 21.0089 131.683 22.1155 131.683 23.4805H136.626ZM131.683 28.4236C131.683 29.7886 132.79 30.8951 134.155 30.8951C135.52 30.8951 136.626 29.7886 136.626 28.4236H131.683ZM131.683 23.4805V28.4236H136.626V23.4805H131.683Z" fill="#282828"/>
<path d="M136.626 87.7402C136.626 86.3752 135.52 85.2687 134.155 85.2687C132.79 85.2687 131.683 86.3752 131.683 87.7402H136.626ZM131.683 92.6833C131.683 94.0483 132.79 95.1549 134.155 95.1549C135.52 95.1549 136.626 94.0483 136.626 92.6833H131.683ZM131.683 87.7402V92.6833H136.626V87.7402H131.683Z" fill="#282828"/>
<path d="M162.194 37.7008C163.16 36.7356 163.16 35.1707 162.194 34.2055C161.229 33.2403 159.664 33.2403 158.699 34.2055L162.194 37.7008ZM155.144 37.7605C154.179 38.7257 154.179 40.2906 155.144 41.2558C156.109 42.221 157.674 42.221 158.639 41.2558L155.144 37.7605ZM158.699 34.2055L155.144 37.7605L158.639 41.2558L162.194 37.7008L158.699 34.2055Z" fill="#282828"/>
<path d="M115.69 81.691C116.655 80.7258 116.655 79.1609 115.69 78.1957C114.725 77.2305 113.16 77.2305 112.195 78.1957L115.69 81.691ZM108.64 81.7507C107.675 82.7159 107.675 84.2808 108.64 85.246C109.605 86.2112 111.17 86.2112 112.135 85.246L108.64 81.7507ZM112.195 78.1957L108.64 81.7507L112.135 85.246L115.69 81.691L112.195 78.1957Z" fill="#282828"/>
<path d="M108.424 41.2555C109.389 42.2207 110.954 42.2207 111.92 41.2555C112.885 40.2903 112.885 38.7254 111.92 37.7602L108.424 41.2555ZM108.365 34.2052C107.399 33.24 105.834 33.24 104.869 34.2052C103.904 35.1704 103.904 36.7353 104.869 37.7005L108.365 34.2052ZM111.92 37.7602L108.365 34.2052L104.869 37.7005L108.424 41.2555L111.92 37.7602Z" fill="#282828"/>
<path d="M157.442 85.2476C158.407 86.2128 159.972 86.2128 160.937 85.2476C161.902 84.2824 161.902 82.7176 160.937 81.7524L157.442 85.2476ZM157.382 78.1973C156.417 77.2321 154.852 77.2321 153.887 78.1973C152.922 79.1625 152.922 80.7274 153.887 81.6926L157.382 78.1973ZM160.937 81.7524L157.382 78.1973L153.887 81.6926L157.442 85.2476L160.937 81.7524Z" fill="#282828"/>
<path d="M168.756 60.5536C170.121 60.5536 171.228 59.447 171.228 58.082C171.228 56.717 170.121 55.6105 168.756 55.6105L168.756 60.5536ZM162.577 55.6105C161.212 55.6105 160.106 56.717 160.106 58.082C160.106 59.447 161.212 60.5536 162.577 60.5536L162.577 55.6105ZM168.756 55.6105L162.577 55.6105L162.577 60.5536L168.756 60.5536L168.756 55.6105Z" fill="#282828"/>
<path d="M104.496 60.5536C105.861 60.5536 106.968 59.447 106.968 58.082C106.968 56.717 105.861 55.6105 104.496 55.6105L104.496 60.5536ZM99.553 55.6105C98.188 55.6105 97.0814 56.717 97.0814 58.082C97.0814 59.447 98.188 60.5536 99.553 60.5536L99.553 55.6105ZM104.496 55.6105L99.553 55.6105L99.553 60.5536L104.496 60.5536L104.496 55.6105Z" fill="#282828"/>
<path d="M136.626 40.7812C136.626 39.4163 135.52 38.3097 134.155 38.3097C132.79 38.3097 131.683 39.4163 131.683 40.7812H136.626ZM134.155 61.6246H131.683C131.683 62.2707 131.936 62.8911 132.388 63.353L134.155 61.6246ZM139.803 70.9324C140.757 71.9081 142.322 71.9253 143.298 70.9708C144.274 70.0163 144.291 68.4515 143.336 67.4757L139.803 70.9324ZM131.683 40.7812V61.6246H136.626V40.7812H131.683ZM132.388 63.353L139.803 70.9324L143.336 67.4757L135.922 59.8963L132.388 63.353Z" fill="#282828"/>
</svg>
