<svg width="1145" height="774" viewBox="0 0 1145 774" fill="none" xmlns="http://www.w3.org/2000/svg">
<g clip-path="url(#clip0)">
<path d="M11.1331 1.45e-08H785.267C788.216 0.00257349 791.043 1.17508 793.128 3.26013C795.213 5.34517 796.385 8.17235 796.388 11.121V290.944H609.04C603.968 290.95 599.106 292.968 595.519 296.554C591.933 300.14 589.916 305.003 589.91 310.074V546.817H11.1331C9.52515 546.817 7.9364 546.468 6.4765 545.794C5.01654 545.12 3.72028 544.138 2.67706 542.914C2.58881 542.818 2.50781 542.716 2.43481 542.608C1.771 541.796 1.23358 540.889 0.840637 539.917C0.281067 538.58 -0.00494385 537.145 -0.000671387 535.696V11.121C0.00256348 8.17031 1.177 5.34159 3.26459 3.25634C5.35223 1.17108 8.18237 -0.000150473 11.1331 1.45e-08Z" fill="#F2F2F2"/>
<path d="M1.59717 44.5742H794.806V47.7534H1.59717V44.5742Z" fill="#CCCCCC"/>
<path d="M767.783 33.3838C762.515 33.3838 758.245 29.1136 758.245 23.8462C758.245 18.5787 762.515 14.3086 767.783 14.3086C773.05 14.3086 777.32 18.5787 777.32 23.8462C777.32 29.1136 773.05 33.3838 767.783 33.3838Z" fill="#CCCCCC"/>
<path d="M740.362 33.3838C735.095 33.3838 730.825 29.1136 730.825 23.8462C730.825 18.5787 735.095 14.3086 740.362 14.3086C745.63 14.3086 749.9 18.5787 749.9 23.8462C749.9 29.1136 745.63 33.3838 740.362 33.3838Z" fill="#CCCCCC"/>
<path d="M712.942 33.3838C707.674 33.3838 703.404 29.1136 703.404 23.8462C703.404 18.5787 707.674 14.3086 712.942 14.3086C718.209 14.3086 722.479 18.5787 722.479 23.8462C722.479 29.1136 718.209 33.3838 712.942 33.3838Z" fill="#CCCCCC"/>
<path d="M199.247 113.992H597.154C601.551 113.992 605.768 115.739 608.877 118.848C611.987 121.957 613.733 126.175 613.733 130.572C613.733 134.969 611.987 139.186 608.877 142.295C605.768 145.404 601.551 147.151 597.154 147.151H199.247C194.849 147.151 190.632 145.404 187.523 142.295C184.414 139.186 182.667 134.969 182.667 130.572C182.667 126.175 184.414 121.957 187.523 118.848C190.632 115.739 194.849 113.992 199.247 113.992ZM199.247 144.6H597.154C600.875 144.6 604.443 143.122 607.074 140.492C609.705 137.861 611.183 134.292 611.183 130.572C611.183 126.851 609.705 123.283 607.074 120.652C604.443 118.021 600.875 116.543 597.154 116.543H199.247C195.526 116.543 191.958 118.021 189.327 120.652C186.696 123.283 185.218 126.851 185.218 130.572C185.218 134.292 186.696 137.861 189.327 140.492C191.958 143.122 195.526 144.6 199.247 144.6Z" fill="#CCCCCC"/>
<path d="M77.4892 246.076H475.397C479.794 246.076 484.011 247.823 487.12 250.932C490.229 254.041 491.976 258.258 491.976 262.656C491.976 267.053 490.229 271.27 487.12 274.379C484.011 277.488 479.794 279.235 475.397 279.235H77.4892C73.092 279.235 68.875 277.488 65.7657 274.379C62.6565 271.27 60.9097 267.053 60.9097 262.656C60.9097 258.258 62.6565 254.041 65.7657 250.932C68.875 247.823 73.092 246.076 77.4892 246.076Z" fill="white"/>
<path d="M77.4892 307.293H475.397C479.794 307.293 484.011 309.04 487.12 312.149C490.229 315.258 491.976 319.475 491.976 323.872C491.976 328.27 490.229 332.487 487.12 335.596C484.011 338.705 479.794 340.452 475.397 340.452H77.4892C73.092 340.452 68.875 338.705 65.7657 335.596C62.6565 332.487 60.9097 328.27 60.9097 323.872C60.9097 319.475 62.6565 315.258 65.7657 312.149C68.875 309.04 73.092 307.293 77.4892 307.293Z" fill="white"/>
<path d="M77.4892 368.51H475.397C479.794 368.51 484.011 370.257 487.12 373.366C490.229 376.475 491.976 380.692 491.976 385.089C491.976 389.486 490.229 393.703 487.12 396.813C484.011 399.922 479.794 401.669 475.397 401.669H77.4892C73.092 401.669 68.875 399.922 65.7657 396.813C62.6565 393.703 60.9097 389.486 60.9097 385.089C60.9097 380.692 62.6565 376.475 65.7657 373.366C68.875 370.257 73.092 368.51 77.4892 368.51Z" fill="white"/>
<path d="M539.699 218.656H720.823C724.709 218.661 728.433 220.206 731.18 222.953C733.927 225.7 735.473 229.425 735.478 233.31V290.943H732.927V233.31C732.922 230.101 731.645 227.026 729.376 224.757C727.108 222.488 724.032 221.212 720.823 221.207H539.699C536.49 221.21 533.413 222.486 531.144 224.755C528.875 227.024 527.599 230.101 527.596 233.31V414.434C527.599 417.643 528.875 420.72 531.144 422.989C533.413 425.259 536.49 426.535 539.699 426.537H589.91V429.088H539.699C535.814 429.086 532.088 427.541 529.34 424.793C526.593 422.046 525.048 418.32 525.046 414.434V233.31C525.048 229.424 526.593 225.699 529.34 222.951C532.088 220.203 535.814 218.659 539.699 218.656Z" fill="#CCCCCC"/>
<path d="M1009.35 405.008C1009.99 405.034 1037.3 403.141 1037.99 403.117L1035.54 378.634L1019.99 378.166L990.273 323.128C994.395 315.269 989.323 304.842 980.58 303.234C978 303.233 980.918 313.866 978.5 331.5L999.161 397.889C999.932 399.972 1001.32 401.771 1003.14 403.043C1004.96 404.315 1007.13 405.001 1009.35 405.008Z" fill="#D1A288"/>
<path d="M1081.33 417.619C1107.31 417.683 1109.59 378.418 1083.56 375.651C1014.7 371.491 1023.41 354.197 1018.19 405.207C1018.03 406.72 1018.47 408.235 1019.43 409.42C1020.38 410.604 1021.77 411.361 1023.28 411.525L1079.08 417.498C1079.83 417.579 1080.58 417.619 1081.33 417.619Z" fill="#FD3373"/>
<path d="M1087.26 293.476C1051.47 313.843 1080.85 367.581 1117.31 348.445C1153.1 328.079 1123.72 274.341 1087.26 293.476Z" fill="#D1A288"/>
<path d="M1054.72 756.052L1039.09 756.051L1031.65 695.742L1054.72 695.743L1054.72 756.052Z" fill="#D1A288"/>
<path d="M1058.07 770.572L1008.93 770.57C1009.12 745.215 1041.99 752.521 1058.07 751.586L1058.07 770.572Z" fill="#2F2E41"/>
<path d="M1122.32 756.052L1106.68 756.051L1099.24 695.742L1122.32 695.743L1122.32 756.052Z" fill="#D1A288"/>
<path d="M1125.67 770.572L1076.53 770.57C1076.71 745.215 1109.58 752.521 1125.67 751.586L1125.67 770.572Z" fill="#2F2E41"/>
<path d="M1104.55 734.991C1108.32 733.954 1128.86 737.09 1131.28 732.973C1139.75 648.149 1137.86 565.135 1119.08 519.519L1054.48 515.564C1040.04 541.933 1006.84 716.909 1026.86 727.548L1052.62 728.466C1054.09 728.514 1055.53 728.055 1056.7 727.167C1057.87 726.278 1058.7 725.014 1059.05 723.586L1080.59 601.004C1085.96 593.504 1096.51 730.1 1098.25 729.589C1098.47 731.095 1099.24 732.469 1100.39 733.461C1101.55 734.453 1103.02 734.996 1104.55 734.991Z" fill="#2F2E41"/>
<path d="M1121.13 530.239C1153.74 496.119 1132.94 404.645 1133.99 406.591C1133.9 404.35 1126.52 369.84 1107.41 364.177C1092.25 359.173 1075.47 374.139 1073.4 389.276L1050.69 523.383C1050.57 524.113 1050.63 524.86 1050.85 525.565C1051.08 526.269 1051.47 526.911 1051.98 527.438C1050.87 530.915 1119.53 529.542 1121.13 530.239Z" fill="#FD3373"/>
<path d="M1110.55 317.476C1107.68 315.665 1106.27 312.56 1104.6 309.731C1095.82 304.726 1085.73 316.833 1076.44 312.315C1050.18 287.102 1077.17 279.664 1101.36 278.335C1107.07 277.63 1111.93 279.657 1116.25 283.005C1164.57 279.315 1141.4 343.562 1110.91 352.048C1105.52 354.406 1101.48 349.633 1106.23 345.294C1112.8 338.407 1120.94 324.544 1110.55 317.476Z" fill="#2F2E41"/>
<path d="M609.04 288.395H958.484C964.232 288.403 969.742 290.69 973.806 294.754C977.87 298.818 980.157 304.328 980.165 310.075V751.344C980.157 757.092 977.87 762.602 973.806 766.666C969.742 770.73 964.232 773.017 958.484 773.025H609.04C603.292 773.017 597.782 770.73 593.718 766.666C589.654 762.602 587.367 757.092 587.359 751.344V310.075C587.367 304.328 589.654 298.818 593.718 294.754C597.782 290.69 603.292 288.403 609.04 288.395ZM589.91 751.344C589.916 756.416 591.933 761.278 595.52 764.865C599.106 768.451 603.968 770.468 609.04 770.475H958.484C963.556 770.468 968.418 768.451 972.004 764.865C975.591 761.278 977.608 756.416 977.614 751.344V310.075C977.608 305.004 975.591 300.141 972.004 296.555C968.418 292.969 963.556 290.951 958.484 290.945H609.04C603.968 290.951 599.106 292.969 595.52 296.555C591.933 300.141 589.916 305.004 589.91 310.075V751.344Z" fill="#3F3D56"/>
<path d="M1056.94 474.082C1068.46 475.386 1073.52 448.585 1077.92 441.756L1054.98 432.85L1047.52 446.5L984.993 448.054C984.621 447.551 984.216 447.073 983.778 446.626C971.378 433.642 951.184 453.096 963.537 466.052C964.9 467.5 966.555 468.643 968.391 469.405C970.228 470.167 972.206 470.532 974.193 470.474C976.181 470.417 978.134 469.939 979.924 469.071C981.714 468.204 983.299 466.968 984.576 465.443C986.12 465.553 1055.43 474.122 1056.94 474.082Z" fill="#D1A288"/>
<path d="M1073.93 461.288C1077.77 464.983 1107.21 413.114 1109.36 411.648C1124.23 388.526 1089.21 365.697 1074.08 388.694L1043.47 435.727C1042.65 437.004 1042.36 438.556 1042.67 440.045C1042.99 441.533 1043.88 442.836 1045.15 443.667C1046.55 444.32 1072.95 462.692 1073.93 461.288Z" fill="#FD3373"/>
<path d="M677.908 593.839H889.615C911.241 593.734 911.331 560.793 889.614 560.68H677.908C656.297 560.781 656.18 593.725 677.908 593.839Z" fill="#CCCCCC"/>
<path d="M677.908 655.055H889.615C911.241 654.951 911.331 622.009 889.614 621.896H677.908C656.297 621.998 656.18 654.942 677.908 655.055Z" fill="#CCCCCC"/>
<path d="M677.908 716.272H889.615C911.241 716.168 911.331 683.226 889.614 683.113H677.908C656.297 683.215 656.18 716.159 677.908 716.272Z" fill="#CCCCCC"/>
<path d="M598.837 329.207C605.395 329.207 611.806 327.262 617.259 323.618C622.712 319.975 626.962 314.796 629.472 308.737C631.982 302.678 632.638 296.011 631.359 289.579C630.079 283.146 626.921 277.238 622.284 272.601C617.647 267.963 611.738 264.805 605.306 263.526C598.874 262.246 592.207 262.903 586.148 265.413C580.089 267.922 574.91 272.173 571.267 277.626C567.623 283.078 565.678 289.489 565.678 296.048C565.688 304.839 569.185 313.267 575.401 319.484C581.618 325.7 590.046 329.197 598.837 329.207Z" fill="#FD3373"/>
<path d="M583.533 294.772H597.562V278.83C597.562 278.492 597.696 278.167 597.935 277.928C598.174 277.689 598.499 277.555 598.837 277.555C599.175 277.555 599.5 277.689 599.739 277.928C599.978 278.167 600.112 278.492 600.112 278.83V294.772H614.141C614.479 294.772 614.804 294.906 615.043 295.145C615.282 295.385 615.417 295.709 615.417 296.047C615.417 296.385 615.282 296.71 615.043 296.949C614.804 297.188 614.479 297.323 614.141 297.323H600.112V313.264C600.112 313.603 599.978 313.927 599.739 314.166C599.5 314.405 599.175 314.54 598.837 314.54C598.499 314.54 598.174 314.405 597.935 314.166C597.696 313.927 597.562 313.603 597.562 313.264V297.323H583.533C583.195 297.323 582.87 297.188 582.631 296.949C582.392 296.71 582.258 296.385 582.258 296.047C582.258 295.709 582.392 295.385 582.631 295.145C582.87 294.906 583.195 294.772 583.533 294.772Z" fill="white"/>
<path d="M681.734 520.888H885.789C891.368 520.882 896.717 518.663 900.662 514.718C904.607 510.773 906.826 505.424 906.833 499.845V385.574C906.826 379.995 904.607 374.647 900.662 370.702C896.717 366.757 891.368 364.538 885.789 364.531H681.734C676.155 364.538 670.806 366.757 666.861 370.702C662.916 374.647 660.697 379.995 660.691 385.574V499.845C660.697 505.424 662.916 510.773 666.861 514.718C670.806 518.663 676.155 520.882 681.734 520.888Z" fill="#FD3373"/>
</g>
<defs>
<clipPath id="clip0">
<rect width="1144.06" height="773.024" fill="white" transform="matrix(-1 0 0 1 1144.06 0)"/>
</clipPath>
</defs>
</svg>
