<svg width="988" height="710" viewBox="0 0 988 710" fill="none" xmlns="http://www.w3.org/2000/svg">
<path d="M143.391 629.97L115.4 301.211C114.693 292.838 117.128 284.499 122.266 277.693L261.926 92.501C265.658 87.5511 270.668 83.6147 276.464 81.0771C282.261 78.5394 288.645 77.4868 294.993 78.0229L773.11 118.398C780.681 119.037 787.856 121.904 793.654 126.606C799.459 131.308 803.596 137.616 805.504 144.662L871.194 386.914C872.812 392.871 872.768 399.13 871.07 405.067L806.795 630.793L143.391 629.97Z" fill="#F4F4F4"/>
<path d="M277.256 226.65H192.751V293.87H277.256V226.65Z" fill="white"/>
<path d="M271.256 232.703H198.768V287.817H271.256V232.703Z" fill="#F4F4F4"/>
<path d="M279.11 226.65H277.257V293.87H279.11V226.65Z" fill="#DADDDF"/>
<path d="M240.51 281.97V278.207H225.74V281.97H240.51Z" fill="#FD3373"/>
<path opacity="0.2" d="M233.124 273.766C236.624 273.765 240.043 272.77 242.952 270.907C245.861 269.044 248.129 266.397 249.468 263.299C250.807 260.202 251.158 256.794 250.477 253.505C249.795 250.217 248.111 247.197 245.639 244.825C243.166 242.453 240.015 240.836 236.583 240.18C233.153 239.523 229.595 239.856 226.361 241.136C223.127 242.416 220.362 244.586 218.415 247.371C216.468 250.157 215.425 253.433 215.42 256.785C215.417 259.014 215.873 261.223 216.761 263.283C217.65 265.344 218.953 267.216 220.598 268.793C222.242 270.37 224.194 271.621 226.344 272.474C228.494 273.328 230.798 273.766 233.124 273.766Z" fill="black"/>
<path d="M861.413 352.025V366.982V408.328H789.165H785.46H781.755H778.05H709.508H705.803V191.778H709.508H778.05V190.476H781.755H785.46H789.165V191.778H791.549H796.396H806.579H817.959L815.872 184.086H698.393V416.019H867.637L868.823 411.854V379.348L861.413 352.025Z" fill="#DADDDF"/>
<path d="M709.507 379.164V344.552V293.272V282.184V277.291V191.777H705.802V408.327H709.507V404.848V379.164Z" fill="#B2B6BB"/>
<path d="M789.165 407.734V408.326H861.413V366.98L817.996 407.734H789.165Z" fill="#F4F4F4"/>
<path d="M778.05 205.847V191.777H709.508V277.291L778.05 205.847Z" fill="#F4F4F4"/>
<path d="M709.508 293.273L778.05 221.604V210.865L709.508 282.185V293.273Z" fill="#F4F4F4"/>
<path d="M774.58 407.736L778.05 404.287V328.861L709.508 404.849V408.328H778.05V407.736H774.58Z" fill="#F4F4F4"/>
<path d="M789.165 393.238L854.886 327.948L837.312 263.154L789.165 316.534V393.238Z" fill="#F4F4F4"/>
<path d="M789.165 290.306L831.785 242.766L825.116 218.158L789.165 257.463V290.306Z" fill="#F4F4F4"/>
<path d="M789.165 209.983L806.578 191.777H796.396L789.165 199.303V209.983Z" fill="#F4F4F4"/>
<path d="M791.549 191.777H789.165V194.262L791.549 191.777Z" fill="#F4F4F4"/>
<path d="M709.508 379.162L778.05 302.707V269.615L709.508 344.55V379.162Z" fill="#F4F4F4"/>
<path d="M789.165 407.734H817.996L861.413 366.98V352.022L854.886 327.947L789.165 393.238V407.734Z" fill="#F4F4F4"/>
<path opacity="0.8" d="M789.165 407.734H817.996L861.413 366.98V352.022L854.886 327.947L789.165 393.238V407.734Z" fill="white"/>
<path d="M778.05 407.736V404.287L774.58 407.736H778.05Z" fill="#F4F4F4"/>
<path opacity="0.8" d="M778.05 407.736V404.287L774.58 407.736H778.05Z" fill="white"/>
<path d="M789.165 199.303L796.396 191.777H791.549L789.165 194.262V199.303Z" fill="#F4F4F4"/>
<path opacity="0.8" d="M789.165 199.303L796.396 191.777H791.549L789.165 194.262V199.303Z" fill="white"/>
<path d="M709.508 282.185L778.05 210.865V205.848L709.508 277.291V282.185Z" fill="#F4F4F4"/>
<path opacity="0.8" d="M709.508 282.185L778.05 210.865V205.848L709.508 277.291V282.185Z" fill="white"/>
<path d="M789.165 316.537L837.312 263.156L831.785 242.768L789.165 290.308V316.537Z" fill="#F4F4F4"/>
<path opacity="0.8" d="M789.165 316.537L837.312 263.156L831.785 242.768L789.165 290.308V316.537Z" fill="white"/>
<path d="M709.508 404.846L778.05 328.859V302.707L709.508 379.162V404.846Z" fill="#F4F4F4"/>
<path opacity="0.8" d="M709.508 404.846L778.05 328.859V302.707L709.508 379.162V404.846Z" fill="white"/>
<path d="M789.165 209.983V257.464L825.116 218.16L817.959 191.777H806.578L789.165 209.983Z" fill="#F4F4F4"/>
<path opacity="0.8" d="M789.165 209.983V257.464L825.116 218.16L817.959 191.777H806.578L789.165 209.983Z" fill="white"/>
<path d="M709.508 344.55L778.05 269.615V221.602L709.508 293.27V344.55Z" fill="#F4F4F4"/>
<path opacity="0.8" d="M709.508 344.55L778.05 269.615V221.602L709.508 293.27V344.55Z" fill="white"/>
<path d="M789.165 393.239V316.535V290.307V257.463V209.982V199.302V194.261V191.776V190.475H785.46V408.326H789.165V407.735V393.239Z" fill="#B2B6BB"/>
<path d="M785.46 190.475H781.755H778.05V191.776V205.846V210.863V221.602V269.616V302.708V328.86V404.285V407.735V408.326H781.755H785.46V190.475Z" fill="#DADDDF"/>
<path d="M674.638 174.689H742.439V517.708H741.513C740.451 517.708 739.296 517.619 738.876 517.619C738.734 517.619 738.259 517.88 738.135 517.88C737.653 517.88 735.375 520.4 734.702 520.4C734.029 520.4 733.109 518.945 732.349 518.945C730.768 518.945 730.064 516.691 729.262 517.708C729.181 517.809 729.033 517.708 728.922 517.708C728.366 517.708 726.668 519.176 724.723 519.383C723.84 519.496 722.945 519.482 722.068 519.341C721.16 519.164 719.703 517.708 719.116 517.708H718.653C718.264 517.708 716.554 520.442 715.281 520.619C714.744 520.658 714.207 520.658 713.67 520.619C711.002 520.619 709.113 517.708 708.39 517.708H708.038C707.303 517.708 704.006 520.264 703.098 520.312C702.617 520.312 702.135 520.312 701.653 520.312C700.684 520.312 698.634 517.708 698.411 517.708H698.016C697.565 517.708 695.873 521.205 695.293 521.258C694.459 521.347 693.62 521.347 692.786 521.258C692.169 521.211 689.371 517.708 688.809 517.708H688.396C687.834 517.708 685.345 520.554 684.808 520.578C683.857 520.613 684.579 520.69 683.635 520.578C682.079 520.394 678.824 517.708 678.182 517.708H674.619L674.638 174.689Z" fill="#B2B6BB"/>
<path opacity="0.2" d="M696.293 174.689H691.304V520.004C691.958 520.678 692.539 521.246 692.804 521.264C693.638 521.353 694.478 521.353 695.311 521.264C695.527 521.264 695.892 520.738 696.293 520.122V174.689Z" fill="black"/>
<path opacity="0.2" d="M705.426 174.727H701.789V520.295C702.234 520.295 702.678 520.295 703.117 520.295C703.555 520.295 704.469 519.704 705.426 519.112V174.727Z" fill="black"/>
<path opacity="0.2" d="M715.998 174.727H712.367V520.366C712.793 520.52 713.237 520.6 713.694 520.603C714.232 520.642 714.769 520.642 715.306 520.603C715.559 520.555 715.794 520.454 715.998 520.307V174.727Z" fill="black"/>
<path opacity="0.2" d="M726.223 174.727H722.592V519.39C723.309 519.467 724.031 519.467 724.747 519.39C725.254 519.328 725.754 519.201 726.223 519.011V174.727Z" fill="black"/>
<path opacity="0.2" d="M735.369 174.727H731.738V518.804C731.935 518.885 732.145 518.928 732.355 518.929C733.115 518.929 733.948 520.384 734.708 520.384C734.955 520.33 735.183 520.216 735.375 520.053V174.727H735.369Z" fill="black"/>
<path opacity="0.2" d="M686.135 174.727H682.504V520.165C682.863 520.357 683.252 520.491 683.653 520.562C684.598 520.674 683.875 520.597 684.826 520.562C685.326 520.315 685.771 519.977 686.135 519.568V174.727Z" fill="black"/>
<path d="M850.619 477.009V311.218L845.45 292.143V495.173L850.619 477.009Z" fill="#B2B6BB"/>
<path d="M837.151 517.708H837.516C837.997 517.858 838.448 518.091 838.843 518.394L841.82 507.945V278.757L833.953 249.766V517.708H837.151Z" fill="#B2B6BB"/>
<path d="M871.064 405.215C871.305 404.374 871.509 403.528 871.682 402.682V389.163C871.54 388.465 871.373 387.76 871.188 387.062L864.741 363.283V427.438L871.064 405.215Z" fill="#B2B6BB"/>
<path d="M861.104 440.2V349.893L855.608 329.629V459.488L861.104 440.2Z" fill="#B2B6BB"/>
<path d="M855.608 459.486V329.627L850.619 311.227V477.006L855.608 459.486Z" fill="#B2B6BB"/>
<path opacity="0.2" d="M855.608 459.486V329.627L850.619 311.227V477.006L855.608 459.486Z" fill="black"/>
<path d="M864.741 427.436V363.282L861.104 349.887V440.199L864.741 427.436Z" fill="#B2B6BB"/>
<path opacity="0.2" d="M864.741 427.436V363.282L861.104 349.887V440.199L864.741 427.436Z" fill="black"/>
<path d="M871.682 389.164V402.684C872.589 398.22 872.589 393.629 871.682 389.164Z" fill="#B2B6BB"/>
<path opacity="0.2" d="M871.682 389.164V402.684C872.589 398.22 872.589 393.629 871.682 389.164Z" fill="black"/>
<path d="M841.819 507.93L845.45 495.174V292.155L841.819 278.76V507.93Z" fill="#B2B6BB"/>
<path opacity="0.2" d="M841.819 507.93L845.45 495.174V292.155L841.819 278.76V507.93Z" fill="black"/>
<path d="M813.247 174.879H658.255V167.188H811.395L813.247 174.879Z" fill="#868A91"/>
<path opacity="0.2" d="M663.812 167.098H667.517C668.326 168.244 668.765 169.593 668.783 170.976C668.802 172.359 668.401 173.717 667.622 174.884H663.812V167.098Z" fill="black"/>
<path d="M660.108 178.429C664.202 178.429 667.518 175.25 667.518 171.329C667.518 167.408 664.202 164.229 660.108 164.229C656.014 164.229 652.698 167.408 652.698 171.329C652.698 175.25 656.014 178.429 660.108 178.429Z" fill="#868A91"/>
<path d="M417.732 442.733C418.35 439.674 418.739 436.911 419.048 433.977C419.364 431.046 419.519 428.101 419.511 425.155C419.522 422.081 419.24 419.013 418.665 415.99C417.998 412.878 417.01 409.482 414.398 406.334C412.335 403.844 409.358 402.202 406.074 401.743C405.074 401.605 404.063 401.562 403.054 401.612C399.318 401.885 395.762 403.257 392.872 405.541C390.28 407.534 388.076 409.953 386.363 412.683C384.586 415.378 383.37 418.378 382.782 421.516C382.416 423.396 382.576 425.335 383.245 427.137C383.712 428.294 384.532 429.289 385.598 429.995C386.617 430.64 387.798 431.014 389.019 431.077C390.276 431.15 391.528 430.859 392.612 430.243C393.549 429.685 394.342 428.933 394.934 428.042C395.858 426.606 396.477 425.01 396.756 423.344C397.268 420.382 397.239 417.357 396.669 414.404C396.186 411.453 395.063 408.631 393.372 406.121C392.457 404.792 391.228 403.689 389.784 402.902C388.276 402.118 386.536 401.843 384.844 402.121C381.596 402.677 379.108 404.535 377.033 406.511C372.951 410.612 370.111 415.517 367.82 420.563C370.512 415.724 373.779 411.061 377.984 407.482C380.077 405.766 382.553 404.287 385.085 404.139C387.617 403.991 389.642 405.464 390.846 407.63C392.047 409.89 392.745 412.364 392.897 414.895C393.125 417.411 392.9 419.944 392.23 422.386C391.957 423.434 391.473 424.421 390.803 425.291C390.593 425.543 390.324 425.745 390.019 425.883C389.836 425.936 389.64 425.936 389.457 425.883C389.192 425.823 388.889 425.693 388.84 425.605C388.751 425.478 388.692 425.335 388.667 425.184C388.535 424.337 388.603 423.472 388.864 422.652C390.099 418.404 393.576 414.026 397.435 411.641C399.115 410.509 401.123 409.909 403.178 409.925C403.608 409.948 404.034 410.011 404.45 410.115C404.795 410.196 405.127 410.322 405.438 410.487C406.043 410.799 406.557 411.25 406.932 411.801C407.803 413.061 408.408 415.185 408.649 417.469C408.877 419.902 408.877 422.349 408.649 424.782C408.424 427.342 408.062 429.89 407.562 432.415C407.074 434.929 406.451 437.598 405.765 439.899L417.732 442.733Z" fill="#FD3373"/>
<path opacity="0.1" d="M417.732 442.733C418.35 439.674 418.739 436.911 419.048 433.977C419.364 431.046 419.519 428.101 419.511 425.155C419.522 422.081 419.24 419.013 418.665 415.99C417.998 412.878 417.01 409.482 414.398 406.334C412.335 403.844 409.358 402.202 406.074 401.743C405.074 401.605 404.063 401.562 403.054 401.612C399.318 401.885 395.762 403.257 392.872 405.541C390.28 407.534 388.076 409.953 386.363 412.683C384.586 415.378 383.37 418.378 382.782 421.516C382.416 423.396 382.576 425.335 383.245 427.137C383.712 428.294 384.532 429.289 385.598 429.995C386.617 430.64 387.798 431.014 389.019 431.077C390.276 431.15 391.528 430.859 392.612 430.243C393.549 429.685 394.342 428.933 394.934 428.042C395.858 426.606 396.477 425.01 396.756 423.344C397.268 420.382 397.239 417.357 396.669 414.404C396.186 411.453 395.063 408.631 393.372 406.121C392.457 404.792 391.228 403.689 389.784 402.902C388.276 402.118 386.536 401.843 384.844 402.121C381.596 402.677 379.108 404.535 377.033 406.511C372.951 410.612 370.111 415.517 367.82 420.563C370.512 415.724 373.779 411.061 377.984 407.482C380.077 405.766 382.553 404.287 385.085 404.139C387.617 403.991 389.642 405.464 390.846 407.63C392.047 409.89 392.745 412.364 392.897 414.895C393.125 417.411 392.9 419.944 392.23 422.386C391.957 423.434 391.473 424.421 390.803 425.291C390.593 425.543 390.324 425.745 390.019 425.883C389.836 425.936 389.64 425.936 389.457 425.883C389.192 425.823 388.889 425.693 388.84 425.605C388.751 425.478 388.692 425.335 388.667 425.184C388.535 424.337 388.603 423.472 388.864 422.652C390.099 418.404 393.576 414.026 397.435 411.641C399.115 410.509 401.123 409.909 403.178 409.925C403.608 409.948 404.034 410.011 404.45 410.115C404.795 410.196 405.127 410.322 405.438 410.487C406.043 410.799 406.557 411.25 406.932 411.801C407.803 413.061 408.408 415.185 408.649 417.469C408.877 419.902 408.877 422.349 408.649 424.782C408.424 427.342 408.062 429.89 407.562 432.415C407.074 434.929 406.451 437.598 405.765 439.899L417.732 442.733Z" fill="#FD3373"/>
<path opacity="0.2" d="M408.248 428.325C408.248 428.325 415.158 418.219 416.275 409.131C416.275 409.131 419.11 417.053 419.493 422.148L407.143 435.756L408.248 428.325Z" fill="black"/>
<path d="M427.31 577.219C435.64 588.502 433.948 622.931 438.987 627.759C444.026 632.587 495.717 632.072 499.199 629.238C502.682 626.404 501.052 614.233 504.942 612.228C506.474 611.447 427.31 577.219 427.31 577.219Z" fill="#FD3373"/>
<path d="M648.01 577.773C637.612 592.169 643.231 622.929 638.192 627.757C633.153 632.585 581.457 632.071 577.98 629.237C574.504 626.403 576.091 613.575 574.028 611.138C572.941 609.842 648.01 577.773 648.01 577.773Z" fill="#FD3373"/>
<path opacity="0.3" d="M504.936 612.233C503.837 612.79 503.183 614.162 502.726 615.908C471.98 612.204 448.762 604.577 433.498 598.063C432.306 589.667 430.583 581.668 427.323 577.23C427.31 577.23 506.48 611.452 504.936 612.233Z" fill="black"/>
<path opacity="0.3" d="M648.017 577.77C644.139 583.142 642.46 590.786 641.676 598.513C625.472 605.495 603.131 612.713 575.182 616.133C574.991 613.832 574.695 611.932 574.034 611.139C572.935 609.844 648.017 577.77 648.017 577.77Z" fill="black"/>
<path d="M575.886 387.702C575.886 387.702 623.372 352.794 674.804 356.965C692.52 358.397 663.108 395.163 662.577 423.883L575.886 387.702Z" fill="#FD3373"/>
<path opacity="0.1" d="M575.886 387.702C575.886 387.702 623.372 352.794 674.804 356.965C692.52 358.397 663.108 395.163 662.577 423.883L575.886 387.702Z" fill="black"/>
<path opacity="0.3" d="M642.743 409.825C642.447 411.642 658.798 418.375 660.521 417.339C662.244 416.304 663.93 393.673 677.305 369.574C679.25 366.024 645.905 390.389 642.743 409.825Z" fill="black"/>
<path d="M534.199 369.051C430.218 369.051 390.427 447.038 390.427 492.674C390.427 537.699 420.684 614.232 534.199 614.232C647.714 614.232 685.425 549.403 685.425 491.638C685.425 433.874 639.242 369.051 534.199 369.051Z" fill="#FD3373"/>
<path opacity="0.15" d="M571.866 590.566C458.32 590.566 428.094 514.034 428.094 469.008C428.094 443.36 440.666 407.475 470.133 380.998C413.428 404.606 390.427 457.986 390.427 492.675C390.427 537.701 420.684 614.234 534.199 614.234C588.959 614.234 626.065 599.152 649.814 577.059C629.152 585.543 603.445 590.566 571.866 590.566Z" fill="black"/>
<path d="M569.711 385.335C569.711 385.335 611.022 348.651 662.454 352.823C680.17 354.255 650.758 391.021 650.227 419.74L569.711 385.335Z" fill="#FD3373"/>
<path opacity="0.3" d="M630.393 405.683C630.097 407.499 646.479 414.232 648.171 413.197C649.863 412.161 651.58 389.53 664.955 365.432C666.9 361.882 633.555 386.246 630.393 405.683Z" fill="black"/>
<path d="M675.681 446.607C677.953 453.116 698.572 447.844 703.771 451.98C711.953 458.488 709.687 539.191 702.209 545.694C698.01 549.344 669.636 547.072 663.065 551.504C656.495 555.936 675.681 446.607 675.681 446.607Z" fill="#FD3373"/>
<path opacity="0.3" d="M704.87 496.876C704.87 516.531 703.154 532.471 701.036 532.471C698.918 532.471 697.207 516.531 697.207 496.876C697.207 477.221 698.924 461.281 701.036 461.281C703.147 461.281 704.87 477.215 704.87 496.876Z" fill="black"/>
<path opacity="0.4" d="M487.646 395.684C488.023 395.566 526.147 383.685 561.629 392.98L565.167 380.591C525.647 370.242 485.114 382.957 483.404 383.502L487.652 395.684L485.528 389.59L487.646 395.684Z" fill="black"/>
<path d="M466.541 578.503C406.816 541.121 417.363 476.02 417.888 473.186C418.254 471.261 417.807 469.275 416.645 467.665C415.483 466.056 413.701 464.955 411.691 464.604C409.682 464.253 407.609 464.681 405.93 465.795C404.25 466.908 403.1 468.616 402.734 470.541C402.58 471.358 398.98 490.759 404.327 514.792C411.484 546.931 430.942 572.959 462.545 585.686C472.079 589.549 474.241 583.307 466.541 578.503Z" fill="white"/>
<path d="M638.26 486.824C644.33 486.824 649.258 480.681 649.258 473.104C649.258 465.526 644.33 459.383 638.26 459.383C632.184 459.383 627.263 465.526 627.263 473.104C627.263 480.681 632.184 486.824 638.26 486.824Z" fill="#21252B"/>
<path opacity="0.3" d="M639.113 459.424C642.917 461.583 645.56 466.364 645.56 471.92C645.56 479.493 640.62 485.641 634.568 485.641C634.29 485.64 634.006 485.624 633.729 485.593C635.099 486.391 636.668 486.816 638.273 486.824C644.343 486.824 649.265 480.676 649.265 473.103C649.252 465.873 644.782 459.956 639.113 459.424Z" fill="black"/>
<path d="M831.637 632.74L119.405 631.859C119.265 631.876 119.121 631.864 118.985 631.829C118.849 631.787 118.723 631.722 118.616 631.634C118.509 631.545 118.424 631.432 118.365 631.308C118.306 631.184 118.275 631.048 118.275 630.912C118.275 630.776 118.306 630.646 118.365 630.521C118.424 630.397 118.509 630.285 118.616 630.196C118.723 630.107 118.849 630.042 118.985 630.001C119.121 629.965 119.265 629.953 119.405 629.971L831.643 630.853C831.785 630.835 831.927 630.847 832.063 630.882C832.199 630.924 832.322 630.989 832.433 631.077C832.538 631.166 832.625 631.279 832.68 631.403C832.742 631.527 832.773 631.657 832.773 631.793C832.773 631.929 832.742 632.066 832.68 632.19C832.625 632.314 832.538 632.426 832.433 632.515C832.322 632.604 832.199 632.669 832.063 632.71C831.927 632.746 831.785 632.758 831.643 632.74H831.637Z" fill="#B2B6BB"/>
<path d="M243.567 610.162H161.705V620.12H243.567V610.162Z" fill="#61656D"/>
<path opacity="0.2" d="M177.111 610.162H161.543V620.12H177.111V610.162Z" fill="black"/>
<path opacity="0.2" d="M233.824 610.162H222.406V620.12H233.824V610.162Z" fill="white"/>
<path d="M243.567 590.252H161.705V600.21H243.567V590.252Z" fill="#61656D"/>
<path opacity="0.2" d="M177.111 590.252H161.543V600.21H177.111V590.252Z" fill="black"/>
<path opacity="0.2" d="M233.824 590.252H222.406V600.21H233.824V590.252Z" fill="white"/>
<path d="M243.567 560.385H161.705V570.343H243.567V560.385Z" fill="#61656D"/>
<path opacity="0.2" d="M177.111 560.385H161.543V570.343H177.111V560.385Z" fill="black"/>
<path opacity="0.2" d="M233.824 560.385H222.406V570.343H233.824V560.385Z" fill="white"/>
<path d="M253.31 620.119H171.448V630.077H253.31V620.119Z" fill="#61656D"/>
<path opacity="0.2" d="M187.429 619.562H171.862V629.52H187.429V619.562Z" fill="black"/>
<path opacity="0.2" d="M243.566 620.119H232.148V630.077H243.566V620.119Z" fill="white"/>
<path d="M253.31 580.295H171.448V590.253H253.31V580.295Z" fill="#61656D"/>
<path opacity="0.2" d="M187.429 580.295H171.862V590.253H187.429V580.295Z" fill="black"/>
<path opacity="0.2" d="M243.566 580.295H232.148V590.253H243.566V580.295Z" fill="white"/>
<path d="M253.31 570.338H171.448V580.296H253.31V570.338Z" fill="#61656D"/>
<path opacity="0.2" d="M187.429 570.338H171.862V580.296H187.429V570.338Z" fill="black"/>
<path opacity="0.2" d="M243.566 570.338H232.148V580.296H243.566V570.338Z" fill="white"/>
<path d="M253.31 600.205H171.448V610.163H253.31V600.205Z" fill="#61656D"/>
<path opacity="0.2" d="M187.429 600.205H171.862V610.163H187.429V600.205Z" fill="black"/>
<path opacity="0.2" d="M243.566 600.205H232.148V610.163H243.566V600.205Z" fill="white"/>
<g opacity="0.3">
<path opacity="0.3" d="M243.566 619.801H171.448V620.434H243.566V619.801Z" fill="black"/>
</g>
<g opacity="0.3">
<path opacity="0.3" d="M243.566 609.85H171.448V610.483H243.566V609.85Z" fill="black"/>
</g>
<g opacity="0.3">
<path opacity="0.3" d="M243.566 599.891H171.448V600.524H243.566V599.891Z" fill="black"/>
</g>
<g opacity="0.3">
<path opacity="0.3" d="M243.566 589.934H171.448V590.567H243.566V589.934Z" fill="black"/>
</g>
<g opacity="0.3">
<path opacity="0.3" d="M253.31 579.98H171.448V580.614H253.31V579.98Z" fill="black"/>
</g>
<g opacity="0.3">
<path opacity="0.3" d="M253.31 570.023H171.448V570.657H253.31V570.023Z" fill="black"/>
</g>
<path d="M789.073 612.273H713.466V621.468H789.073V612.273Z" fill="#61656D"/>
<path opacity="0.2" d="M727.693 612.273H713.312V621.468H727.693V612.273Z" fill="black"/>
<path opacity="0.2" d="M780.076 612.273H769.529V621.468H780.076V612.273Z" fill="white"/>
<path d="M789.073 593.885H713.466V603.079H789.073V593.885Z" fill="#61656D"/>
<path opacity="0.2" d="M727.693 593.885H713.312V603.079H727.693V593.885Z" fill="black"/>
<path opacity="0.2" d="M780.076 593.885H769.529V603.079H780.076V593.885Z" fill="white"/>
<path d="M789.073 566.303H713.466V575.497H789.073V566.303Z" fill="#61656D"/>
<path opacity="0.2" d="M727.693 566.303H713.312V575.497H727.693V566.303Z" fill="black"/>
<path opacity="0.2" d="M780.076 566.303H769.529V575.497H780.076V566.303Z" fill="white"/>
<path d="M798.07 621.469H722.463V630.663H798.07V621.469Z" fill="#61656D"/>
<path opacity="0.2" d="M737.227 620.959H722.846V630.154H737.227V620.959Z" fill="black"/>
<path opacity="0.2" d="M789.079 621.469H778.532V630.663H789.079V621.469Z" fill="white"/>
<path d="M798.07 584.691H722.463V593.885H798.07V584.691Z" fill="#61656D"/>
<path opacity="0.2" d="M737.227 584.691H722.846V593.885H737.227V584.691Z" fill="black"/>
<path opacity="0.2" d="M789.079 584.691H778.532V593.885H789.079V584.691Z" fill="white"/>
<path d="M798.07 575.496H722.463V584.691H798.07V575.496Z" fill="#61656D"/>
<path opacity="0.2" d="M737.227 575.496H722.846V584.691H737.227V575.496Z" fill="black"/>
<path opacity="0.2" d="M789.079 575.496H778.532V584.691H789.079V575.496Z" fill="white"/>
<path d="M798.07 603.078H722.463V612.273H798.07V603.078Z" fill="#61656D"/>
<path opacity="0.2" d="M737.227 603.078H722.846V612.273H737.227V603.078Z" fill="black"/>
<path opacity="0.2" d="M789.079 603.078H778.532V612.273H789.079V603.078Z" fill="white"/>
<g opacity="0.3">
<path opacity="0.3" d="M789.073 621.178H722.463V621.758H789.073V621.178Z" fill="black"/>
</g>
<g opacity="0.3">
<path opacity="0.3" d="M789.073 611.984H722.463V612.564H789.073V611.984Z" fill="black"/>
</g>
<g opacity="0.3">
<path opacity="0.3" d="M789.073 602.791H722.463V603.371H789.073V602.791Z" fill="black"/>
</g>
<g opacity="0.3">
<path opacity="0.3" d="M789.073 593.596H722.463V594.176H789.073V593.596Z" fill="black"/>
</g>
<g opacity="0.3">
<path opacity="0.3" d="M798.07 584.4H722.463V584.98H798.07V584.4Z" fill="black"/>
</g>
<g opacity="0.3">
<path opacity="0.3" d="M798.07 575.207H722.463V575.787H798.07V575.207Z" fill="black"/>
</g>
<path d="M529.075 342.049C534.62 342.974 539.862 345.128 544.383 348.341C548.903 351.553 552.576 355.735 555.108 360.55C557.64 365.366 558.962 370.683 558.966 376.076C558.97 381.469 557.658 386.787 555.133 391.607C556.056 391.784 556.976 391.982 557.894 392.198C560.574 387.169 561.925 381.586 561.832 375.939C561.738 370.292 560.202 364.753 557.357 359.807C554.512 354.861 550.445 350.658 545.513 347.567C540.58 344.475 534.932 342.588 529.062 342.072L529.075 342.049Z" fill="#61656D"/>
<path opacity="0.2" d="M529.075 342.049C534.62 342.974 539.862 345.128 544.383 348.341C548.903 351.553 552.576 355.735 555.108 360.55C557.64 365.366 558.962 370.683 558.966 376.076C558.97 381.469 557.658 386.787 555.133 391.607C556.056 391.784 556.976 391.982 557.894 392.198C560.574 387.169 561.925 381.586 561.832 375.939C561.738 370.292 560.202 364.753 557.357 359.807C554.512 354.861 550.445 350.658 545.513 347.567C540.58 344.475 534.932 342.588 529.062 342.072L529.075 342.049Z" fill="black"/>
<path d="M529.074 342.05C527.75 341.828 526.415 341.676 525.073 341.594C518.446 341.21 511.836 342.587 505.974 345.573C500.111 348.559 495.222 353.038 491.847 358.517C488.472 363.995 486.741 370.26 486.845 376.621C486.95 382.982 488.885 389.192 492.438 394.566C494.389 394.075 496.915 393.489 499.903 392.886C499.694 392.626 499.488 392.359 499.286 392.087L499.064 391.785C498.854 391.49 498.644 391.194 498.446 390.88C498.372 390.774 498.298 390.661 498.23 390.543C498.032 390.241 497.847 389.951 497.662 389.62L497.464 389.277C497.279 388.945 497.1 388.614 496.927 388.271L496.773 387.987C496.569 387.567 496.365 387.141 496.155 386.709V386.656C495.951 386.2 495.766 385.733 495.593 385.259L495.538 385.1C495.396 384.697 495.26 384.289 495.136 383.881C495.093 383.739 495.05 383.591 495.013 383.449C494.92 383.123 494.828 382.798 494.747 382.473C494.704 382.295 494.667 382.118 494.624 381.946C494.556 381.638 494.494 381.354 494.439 381.029C494.402 380.84 494.371 380.65 494.34 380.437C494.284 380.135 494.241 379.846 494.204 379.532C494.204 379.337 494.155 379.147 494.13 378.94C494.099 378.633 494.074 378.349 494.05 378.011C494.05 377.822 494.019 377.633 494.013 377.42C494.013 377.077 494.013 376.739 494.013 376.396C494.013 376.23 494.013 376.071 494.013 375.905C494.013 375.396 494.013 374.887 494.062 374.379C494.285 370.742 495.256 367.183 496.915 363.907C498.576 360.629 500.894 357.698 503.737 355.28C506.581 352.863 509.894 351.005 513.487 349.815C517.08 348.625 520.883 348.126 524.678 348.345C525.141 348.345 525.61 348.41 526.067 348.458L526.542 348.517L527.438 348.629L528.006 348.724L528.778 348.866L529.395 348.996C529.63 349.043 529.858 349.097 530.087 349.156L530.741 349.316L531.359 349.487L532.063 349.7L532.52 349.854C533.931 350.325 535.302 350.901 536.62 351.576L536.682 351.611C537.021 351.789 537.355 351.972 537.688 352.155L537.756 352.197C541.037 354.068 543.899 356.543 546.176 359.479C548.454 362.414 550.103 365.753 551.027 369.303C551.951 372.852 552.133 376.542 551.562 380.159C550.991 383.776 549.677 387.248 547.698 390.377C550.168 390.673 552.667 391.055 555.194 391.525C557.719 386.704 559.032 381.384 559.026 375.991C559.021 370.598 557.699 365.28 555.165 360.464C552.632 355.648 548.957 351.467 544.435 348.255C539.913 345.043 534.67 342.889 529.124 341.967L529.074 342.05Z" fill="#61656D"/>
<path opacity="0.2" d="M529.074 342.05C527.75 341.828 526.415 341.676 525.073 341.594C518.446 341.21 511.836 342.587 505.974 345.573C500.111 348.559 495.222 353.038 491.847 358.517C488.472 363.995 486.741 370.26 486.845 376.621C486.95 382.982 488.885 389.192 492.438 394.566C494.389 394.075 496.915 393.489 499.903 392.886C499.694 392.626 499.488 392.359 499.286 392.087L499.064 391.785C498.854 391.49 498.644 391.194 498.446 390.88C498.372 390.774 498.298 390.661 498.23 390.543C498.032 390.241 497.847 389.951 497.662 389.62L497.464 389.277C497.279 388.945 497.1 388.614 496.927 388.271L496.773 387.987C496.569 387.567 496.365 387.141 496.155 386.709V386.656C495.951 386.2 495.766 385.733 495.593 385.259L495.538 385.1C495.396 384.697 495.26 384.289 495.136 383.881C495.093 383.739 495.05 383.591 495.013 383.449C494.92 383.123 494.828 382.798 494.747 382.473C494.704 382.295 494.667 382.118 494.624 381.946C494.556 381.638 494.494 381.354 494.439 381.029C494.402 380.84 494.371 380.65 494.34 380.437C494.284 380.135 494.241 379.846 494.204 379.532C494.204 379.337 494.155 379.147 494.13 378.94C494.099 378.633 494.074 378.349 494.05 378.011C494.05 377.822 494.019 377.633 494.013 377.42C494.013 377.077 494.013 376.739 494.013 376.396C494.013 376.23 494.013 376.071 494.013 375.905C494.013 375.396 494.013 374.887 494.062 374.379C494.285 370.742 495.256 367.183 496.915 363.907C498.576 360.629 500.894 357.698 503.737 355.28C506.581 352.863 509.894 351.005 513.487 349.815C517.08 348.625 520.883 348.126 524.678 348.345C525.141 348.345 525.61 348.41 526.067 348.458L526.542 348.517L527.438 348.629L528.006 348.724L528.778 348.866L529.395 348.996C529.63 349.043 529.858 349.097 530.087 349.156L530.741 349.316L531.359 349.487L532.063 349.7L532.52 349.854C533.931 350.325 535.302 350.901 536.62 351.576L536.682 351.611C537.021 351.789 537.355 351.972 537.688 352.155L537.756 352.197C541.037 354.068 543.899 356.543 546.176 359.479C548.454 362.414 550.103 365.753 551.027 369.303C551.951 372.852 552.133 376.542 551.562 380.159C550.991 383.776 549.677 387.248 547.698 390.377C550.168 390.673 552.667 391.055 555.194 391.525C557.719 386.704 559.032 381.384 559.026 375.991C559.021 370.598 557.699 365.28 555.165 360.464C552.632 355.648 548.957 351.467 544.435 348.255C539.913 345.043 534.67 342.889 529.124 341.967L529.074 342.05Z" fill="white"/>
<path d="M499.07 391.784C498.86 391.488 498.65 391.192 498.453 390.879C498.65 391.187 498.86 391.488 499.07 391.784Z" fill="#61656D"/>
<path d="M495.545 385.098C495.403 384.695 495.267 384.287 495.144 383.879C495.267 384.287 495.403 384.695 495.545 385.098Z" fill="#61656D"/>
<path d="M495.018 383.447C494.925 383.122 494.833 382.796 494.752 382.471C494.833 382.808 494.925 383.122 495.018 383.447Z" fill="#61656D"/>
<path d="M496.771 387.985C496.568 387.565 496.364 387.139 496.154 386.707C496.364 387.139 496.568 387.541 496.771 387.985Z" fill="#61656D"/>
<path d="M497.463 389.275C497.278 388.944 497.099 388.613 496.926 388.27C497.086 388.613 497.278 388.944 497.463 389.275Z" fill="#61656D"/>
<path d="M494.617 381.944C494.549 381.637 494.487 381.353 494.432 381.027C494.5 381.335 494.561 381.625 494.617 381.944Z" fill="#61656D"/>
<path d="M498.23 390.542C498.032 390.24 497.847 389.95 497.662 389.619C497.847 389.909 498.032 390.24 498.23 390.542Z" fill="#61656D"/>
<path d="M537.707 352.278C539.434 353.268 541.05 354.426 542.53 355.733C538.109 352.497 532.032 349.875 526.086 349.532C522.291 349.314 518.489 349.814 514.897 351.004C511.305 352.195 507.992 354.052 505.15 356.47C502.307 358.888 499.989 361.819 498.329 365.095C496.669 368.372 495.7 371.93 495.476 375.566C495.254 379.068 496.341 383.009 497.385 386.162C498.108 388.495 499.146 390.726 500.472 392.801C504.986 391.907 510.506 391.026 516.669 390.393C514.421 389.405 513.384 387.434 513.619 383.671C513.681 382.509 513.844 381.353 514.106 380.216L520.01 380.559C519.904 381.079 519.836 381.605 519.806 382.133C519.658 384.5 519.732 385.813 522.128 385.949C524.524 386.085 524.783 385.287 524.974 382.275C525.067 380.796 525.098 380.287 524.289 379.524C522.634 377.844 518.342 376.524 516.354 374.974C514.57 373.649 514.255 371.891 514.551 367.146C514.891 361.697 516.712 359.957 522.152 360.017L522.35 356.863L525.703 357.052L525.505 360.206C530.489 360.703 532.137 362.484 531.835 367.306C531.774 368.347 531.639 369.383 531.427 370.406L525.58 370.069C525.664 369.494 525.717 368.916 525.74 368.335C525.876 366.2 525.623 365.111 523.387 364.981C521.473 364.868 520.917 365.448 520.745 367.998C520.578 370.649 520.745 370.915 522.48 371.785C524.394 372.761 526.271 373.436 527.926 374.294C530.248 375.554 531.816 376.157 531.483 381.394C531.23 385.535 530.612 388.103 529.106 389.6C535.294 389.45 541.486 389.737 547.631 390.458C549.61 387.33 550.922 383.857 551.494 380.24C552.065 376.623 551.884 372.933 550.959 369.384C550.035 365.834 548.387 362.496 546.109 359.559C543.832 356.623 540.97 354.148 537.689 352.278H537.707Z" fill="#61656D"/>
<path d="M528.747 348.945L529.364 349.075L528.747 348.945Z" fill="#61656D"/>
<path d="M527.408 348.709L527.976 348.804L527.408 348.709Z" fill="#61656D"/>
<path d="M526.035 348.539L526.511 348.598L526.035 348.539Z" fill="#61656D"/>
<path d="M494.345 380.442C494.29 380.141 494.247 379.851 494.21 379.537C494.247 379.851 494.29 380.158 494.345 380.442Z" fill="#61656D"/>
<path d="M530.049 349.238L530.703 349.398L530.049 349.238Z" fill="#61656D"/>
<path d="M494.137 378.968C494.106 378.66 494.081 378.376 494.056 378.039C494.081 378.353 494.106 378.666 494.137 378.968Z" fill="#61656D"/>
<path d="M536.607 351.691C536.947 351.869 537.28 352.052 537.614 352.236C537.305 352.041 536.972 351.869 536.607 351.691Z" fill="#61656D"/>
<path d="M494 375.956C494 375.447 494 374.939 494.05 374.43C494 374.939 494 375.447 494 375.956Z" fill="#61656D"/>
<path d="M496.161 386.654C495.957 386.199 495.772 385.731 495.599 385.258C495.772 385.731 495.957 386.199 496.161 386.654Z" fill="#61656D"/>
<path d="M499.903 392.867C499.699 392.607 499.489 392.341 499.285 392.068C499.486 392.352 499.693 392.619 499.903 392.867Z" fill="#61656D"/>
<path d="M531.311 349.568L532.015 349.781L531.311 349.568Z" fill="#61656D"/>
<path d="M532.471 349.936C533.88 350.41 535.251 350.985 536.571 351.657C535.253 350.983 533.882 350.407 532.471 349.936Z" fill="#61656D"/>
<path d="M527.963 348.805L528.735 348.947L527.963 348.805Z" fill="#61656D"/>
<path opacity="0.2" d="M527.963 348.805L528.735 348.947L527.963 348.805Z" fill="white"/>
<path opacity="0.2" d="M527.963 348.805L528.735 348.947L527.963 348.805Z" fill="black"/>
<path d="M526.51 348.598L527.406 348.71L526.51 348.598Z" fill="#61656D"/>
<path opacity="0.2" d="M526.51 348.598L527.406 348.71L526.51 348.598Z" fill="white"/>
<path opacity="0.2" d="M526.51 348.598L527.406 348.71L526.51 348.598Z" fill="black"/>
<path d="M524.646 348.426C525.109 348.426 525.578 348.491 526.035 348.538C525.578 348.491 525.109 348.449 524.646 348.426Z" fill="#61656D"/>
<path opacity="0.2" d="M524.646 348.426C525.109 348.426 525.578 348.491 526.035 348.538C525.578 348.491 525.109 348.449 524.646 348.426Z" fill="white"/>
<path opacity="0.2" d="M524.646 348.426C525.109 348.426 525.578 348.491 526.035 348.538C525.578 348.491 525.109 348.449 524.646 348.426Z" fill="black"/>
<path d="M529.359 349.084C529.594 349.131 529.822 349.185 530.051 349.244C529.816 349.179 529.594 349.125 529.359 349.084Z" fill="#61656D"/>
<path opacity="0.2" d="M529.359 349.084C529.594 349.131 529.822 349.185 530.051 349.244C529.816 349.179 529.594 349.125 529.359 349.084Z" fill="white"/>
<path opacity="0.2" d="M529.359 349.084C529.594 349.131 529.822 349.185 530.051 349.244C529.816 349.179 529.594 349.125 529.359 349.084Z" fill="black"/>
<path d="M494.443 381.033C494.407 380.844 494.376 380.654 494.345 380.441C494.376 380.648 494.407 380.838 494.443 381.033Z" fill="#61656D"/>
<path opacity="0.2" d="M494.443 381.033C494.407 380.844 494.376 380.654 494.345 380.441C494.376 380.648 494.407 380.838 494.443 381.033Z" fill="white"/>
<path opacity="0.2" d="M494.443 381.033C494.407 380.844 494.376 380.654 494.345 380.441C494.376 380.648 494.407 380.838 494.443 381.033Z" fill="black"/>
<path d="M498.448 390.88C498.373 390.774 498.299 390.661 498.231 390.543C498.324 390.661 498.373 390.774 498.448 390.88Z" fill="#61656D"/>
<path opacity="0.2" d="M498.448 390.88C498.373 390.774 498.299 390.661 498.231 390.543C498.324 390.661 498.373 390.774 498.448 390.88Z" fill="white"/>
<path opacity="0.2" d="M498.448 390.88C498.373 390.774 498.299 390.661 498.231 390.543C498.324 390.661 498.373 390.774 498.448 390.88Z" fill="black"/>
<path d="M497.661 389.619L497.463 389.275L497.661 389.619Z" fill="#61656D"/>
<path opacity="0.2" d="M497.661 389.619L497.463 389.275L497.661 389.619Z" fill="white"/>
<path opacity="0.2" d="M497.661 389.619L497.463 389.275L497.661 389.619Z" fill="black"/>
<path d="M496.925 388.27L496.771 387.986L496.925 388.27Z" fill="#61656D"/>
<path opacity="0.2" d="M496.925 388.27L496.771 387.986L496.925 388.27Z" fill="white"/>
<path opacity="0.2" d="M496.925 388.27L496.771 387.986L496.925 388.27Z" fill="black"/>
<path d="M499.292 392.085L499.07 391.783L499.292 392.085Z" fill="#61656D"/>
<path opacity="0.2" d="M499.292 392.085L499.07 391.783L499.292 392.085Z" fill="white"/>
<path opacity="0.2" d="M499.292 392.085L499.07 391.783L499.292 392.085Z" fill="black"/>
<path d="M530.705 349.396L531.323 349.568L530.705 349.396Z" fill="#61656D"/>
<path opacity="0.2" d="M530.705 349.396L531.323 349.568L530.705 349.396Z" fill="white"/>
<path opacity="0.2" d="M530.705 349.396L531.323 349.568L530.705 349.396Z" fill="black"/>
<path d="M536.571 351.656L536.634 351.692L536.571 351.656Z" fill="#61656D"/>
<path opacity="0.2" d="M536.571 351.656L536.634 351.692L536.571 351.656Z" fill="white"/>
<path opacity="0.2" d="M536.571 351.656L536.634 351.692L536.571 351.656Z" fill="black"/>
<path d="M537.64 352.238L537.71 352.28L537.64 352.238Z" fill="#61656D"/>
<path opacity="0.2" d="M537.64 352.238L537.71 352.28L537.64 352.238Z" fill="white"/>
<path opacity="0.2" d="M537.64 352.238L537.71 352.28L537.64 352.238Z" fill="black"/>
<path d="M494.752 382.47C494.709 382.292 494.673 382.115 494.63 381.943C494.673 382.115 494.709 382.292 494.752 382.47Z" fill="#61656D"/>
<path opacity="0.2" d="M494.752 382.47C494.709 382.292 494.673 382.115 494.63 381.943C494.673 382.115 494.709 382.292 494.752 382.47Z" fill="white"/>
<path opacity="0.2" d="M494.752 382.47C494.709 382.292 494.673 382.115 494.63 381.943C494.673 382.115 494.709 382.292 494.752 382.47Z" fill="black"/>
<path d="M494.21 379.555L494.135 378.963C494.16 379.17 494.185 379.359 494.21 379.555Z" fill="#61656D"/>
<path opacity="0.2" d="M494.21 379.555L494.135 378.963C494.16 379.17 494.185 379.359 494.21 379.555Z" fill="white"/>
<path opacity="0.2" d="M494.21 379.555L494.135 378.963C494.16 379.17 494.185 379.359 494.21 379.555Z" fill="black"/>
<path d="M494.056 378.039C494.056 377.85 494.025 377.66 494.019 377.447C494.001 377.66 494.044 377.85 494.056 378.039Z" fill="#61656D"/>
<path opacity="0.2" d="M494.056 378.039C494.056 377.85 494.025 377.66 494.019 377.447C494.001 377.66 494.044 377.85 494.056 378.039Z" fill="white"/>
<path opacity="0.2" d="M494.056 378.039C494.056 377.85 494.025 377.66 494.019 377.447C494.001 377.66 494.044 377.85 494.056 378.039Z" fill="black"/>
<path d="M532.013 349.781L532.47 349.935L532.013 349.781Z" fill="#61656D"/>
<path opacity="0.2" d="M532.013 349.781L532.47 349.935L532.013 349.781Z" fill="white"/>
<path opacity="0.2" d="M532.013 349.781L532.47 349.935L532.013 349.781Z" fill="black"/>
<path d="M495.6 385.257L495.543 385.098L495.6 385.257Z" fill="#61656D"/>
<path opacity="0.2" d="M495.6 385.257L495.543 385.098L495.6 385.257Z" fill="white"/>
<path opacity="0.2" d="M495.6 385.257L495.543 385.098L495.6 385.257Z" fill="black"/>
<path d="M495.141 383.879C495.098 383.737 495.055 383.589 495.018 383.447C495.055 383.589 495.098 383.737 495.141 383.879Z" fill="#61656D"/>
<path opacity="0.2" d="M495.141 383.879C495.098 383.737 495.055 383.589 495.018 383.447C495.055 383.589 495.098 383.737 495.141 383.879Z" fill="white"/>
<path opacity="0.2" d="M495.141 383.879C495.098 383.737 495.055 383.589 495.018 383.447C495.055 383.589 495.098 383.737 495.141 383.879Z" fill="black"/>
<path d="M495.476 375.538C495.7 371.902 496.669 368.344 498.329 365.067C499.989 361.79 502.306 358.859 505.149 356.442C507.992 354.024 511.305 352.167 514.897 350.976C518.489 349.786 522.292 349.286 526.086 349.504C532.057 349.848 538.109 352.463 542.53 355.705C541.05 354.398 539.434 353.24 537.707 352.25L537.639 352.208C537.306 352.025 536.972 351.842 536.633 351.664L536.571 351.629C535.252 350.956 533.881 350.381 532.471 349.907L532.014 349.753L531.31 349.54L530.692 349.368L530.038 349.209C529.809 349.149 529.581 349.096 529.346 349.049L528.729 348.919L527.957 348.777L527.389 348.682L526.493 348.57L526.018 348.51C525.561 348.463 525.092 348.422 524.628 348.398C520.834 348.179 517.031 348.678 513.438 349.868C509.845 351.058 506.531 352.915 503.688 355.333C500.845 357.751 498.527 360.682 496.866 363.959C495.206 367.236 494.237 370.795 494.013 374.431C494.013 374.94 493.97 375.449 493.963 375.958C493.963 376.124 493.963 376.283 493.963 376.449C493.963 376.792 493.963 377.135 493.963 377.473C493.963 377.662 493.963 377.851 494 378.064C494 378.378 494.05 378.656 494.081 378.993L494.155 379.585C494.192 379.887 494.235 380.176 494.291 380.49C494.322 380.679 494.352 380.869 494.389 381.082C494.445 381.389 494.507 381.673 494.575 381.999C494.618 382.17 494.655 382.348 494.698 382.525C494.778 382.851 494.871 383.176 494.964 383.502C495.001 383.644 495.044 383.792 495.087 383.934C495.211 384.342 495.347 384.75 495.489 385.152L495.544 385.312C495.717 385.785 495.902 386.253 496.106 386.708V386.762C496.291 387.194 496.495 387.62 496.724 388.04L496.878 388.324C497.051 388.667 497.23 388.998 497.415 389.33L497.613 389.673C497.798 389.986 497.983 390.264 498.181 390.596C498.249 390.714 498.323 390.826 498.397 390.933C498.601 391.241 498.811 391.525 499.015 391.838L499.237 392.14C499.434 392.412 499.644 392.678 499.854 392.939L500.429 392.826C499.102 390.752 498.064 388.52 497.341 386.188C496.341 382.981 495.235 379.04 495.476 375.538Z" fill="#61656D"/>
<path opacity="0.2" d="M495.476 375.538C495.7 371.902 496.669 368.344 498.329 365.067C499.989 361.79 502.306 358.859 505.149 356.442C507.992 354.024 511.305 352.167 514.897 350.976C518.489 349.786 522.292 349.286 526.086 349.504C532.057 349.848 538.109 352.463 542.53 355.705C541.05 354.398 539.434 353.24 537.707 352.25L537.639 352.208C537.306 352.025 536.972 351.842 536.633 351.664L536.571 351.629C535.252 350.956 533.881 350.381 532.471 349.907L532.014 349.753L531.31 349.54L530.692 349.368L530.038 349.209C529.809 349.149 529.581 349.096 529.346 349.049L528.729 348.919L527.957 348.777L527.389 348.682L526.493 348.57L526.018 348.51C525.561 348.463 525.092 348.422 524.628 348.398C520.834 348.179 517.031 348.678 513.438 349.868C509.845 351.058 506.531 352.915 503.688 355.333C500.845 357.751 498.527 360.682 496.866 363.959C495.206 367.236 494.237 370.795 494.013 374.431C494.013 374.94 493.97 375.449 493.963 375.958C493.963 376.124 493.963 376.283 493.963 376.449C493.963 376.792 493.963 377.135 493.963 377.473C493.963 377.662 493.963 377.851 494 378.064C494 378.378 494.05 378.656 494.081 378.993L494.155 379.585C494.192 379.887 494.235 380.176 494.291 380.49C494.322 380.679 494.352 380.869 494.389 381.082C494.445 381.389 494.507 381.673 494.575 381.999C494.618 382.17 494.655 382.348 494.698 382.525C494.778 382.851 494.871 383.176 494.964 383.502C495.001 383.644 495.044 383.792 495.087 383.934C495.211 384.342 495.347 384.75 495.489 385.152L495.544 385.312C495.717 385.785 495.902 386.253 496.106 386.708V386.762C496.291 387.194 496.495 387.62 496.724 388.04L496.878 388.324C497.051 388.667 497.23 388.998 497.415 389.33L497.613 389.673C497.798 389.986 497.983 390.264 498.181 390.596C498.249 390.714 498.323 390.826 498.397 390.933C498.601 391.241 498.811 391.525 499.015 391.838L499.237 392.14C499.434 392.412 499.644 392.678 499.854 392.939L500.429 392.826C499.102 390.752 498.064 388.52 497.341 386.188C496.341 382.981 495.235 379.04 495.476 375.538Z" fill="black"/>
<path d="M527.962 374.282C526.307 373.424 524.43 372.75 522.516 371.773C520.756 370.904 520.614 370.637 520.781 367.987C520.935 365.437 521.509 364.857 523.423 364.969C525.659 365.099 525.893 366.188 525.776 368.324C525.753 368.904 525.7 369.482 525.616 370.058L531.463 370.395C531.674 369.372 531.81 368.336 531.871 367.294C532.173 362.455 530.525 360.674 525.541 360.194L525.739 357.041L522.386 356.852L522.188 360.005C516.748 359.946 514.927 361.685 514.587 367.135C514.291 371.868 514.587 373.643 516.39 374.963C518.378 376.513 522.67 377.832 524.325 379.512C525.134 380.276 525.103 380.784 525.01 382.264C524.819 385.275 524.504 386.074 522.164 385.938C519.823 385.802 519.694 384.465 519.842 382.122C519.872 381.593 519.939 381.067 520.046 380.548L514.142 380.205C513.88 381.341 513.717 382.497 513.655 383.66C513.42 387.447 514.457 389.393 516.705 390.381C520.62 389.991 524.794 389.707 529.141 389.618C530.648 388.121 531.266 385.536 531.519 381.412C531.821 376.146 530.253 375.542 527.962 374.282Z" fill="#F4F4F4"/>
<path opacity="0.3" d="M490.295 390.878C490.295 390.878 526.11 379.927 559.455 388.802L557.602 392.352L554.515 391.683C535.372 388.216 513.76 389.399 492.147 394.724L490.295 390.878Z" fill="black"/>
<path d="M494.647 248.078L489.633 247.486C500.217 248.758 507.263 263.952 505.527 282.395C503.731 301.594 493.11 317.072 481.809 316.942C481.374 316.936 480.939 316.907 480.506 316.853L485.52 317.445C485.953 317.499 486.388 317.528 486.823 317.534C498.124 317.664 508.745 302.186 510.542 282.986C512.271 264.544 505.225 249.35 494.647 248.078Z" fill="#61656D"/>
<path opacity="0.2" d="M494.647 248.078L489.633 247.486C500.217 248.758 507.263 263.952 505.527 282.395C503.731 301.594 493.11 317.072 481.809 316.942C481.374 316.936 480.939 316.907 480.506 316.853L485.52 317.445C485.953 317.499 486.388 317.528 486.823 317.534C498.124 317.664 508.745 302.186 510.542 282.986C512.271 264.544 505.225 249.35 494.647 248.078Z" fill="black"/>
<path d="M505.528 282.396C503.731 301.596 493.11 317.074 481.809 316.944C470.509 316.814 462.809 301.123 464.612 281.923C466.415 262.723 477.03 247.263 488.33 247.393C499.63 247.524 507.331 263.191 505.528 282.396Z" fill="#61656D"/>
<g opacity="0.2">
<path opacity="0.2" d="M505.528 282.396C503.731 301.596 493.11 317.074 481.809 316.944C470.509 316.814 462.809 301.123 464.612 281.923C466.415 262.723 477.03 247.263 488.33 247.393C499.63 247.524 507.331 263.191 505.528 282.396Z" fill="white"/>
</g>
<path d="M501.058 282.515C499.563 298.49 490.727 311.359 481.329 311.252C471.93 311.146 465.521 298.094 467.021 282.119C468.522 266.144 477.352 253.281 486.781 253.393C496.21 253.506 502.558 266.54 501.058 282.515Z" fill="#61656D"/>
<path d="M501.058 282.515C499.563 298.49 490.727 311.359 481.329 311.252C471.93 311.146 465.521 298.094 467.021 282.119C468.522 266.144 477.352 253.281 486.781 253.393C496.21 253.506 502.558 266.54 501.058 282.515Z" fill="#61656D"/>
<path opacity="0.2" d="M468.225 282.693C469.719 266.718 478.555 253.861 487.985 253.967C489.26 253.985 490.519 254.244 491.69 254.73C490.208 253.877 488.516 253.416 486.787 253.393C477.388 253.281 468.552 266.144 467.027 282.119C465.73 295.893 470.324 307.489 477.641 310.489C471.022 306.768 467.002 295.703 468.225 282.693Z" fill="black"/>
<path d="M479.421 301.443L480.039 297.579C476.513 295.585 474.963 293.201 475.784 287.941C475.948 286.838 476.192 285.747 476.513 284.675L480.996 286.941C480.897 287.32 480.78 287.793 480.675 288.438C480.323 290.716 480.243 292.071 482.064 292.988C483.886 293.905 484.164 293.195 484.621 290.266C484.843 288.829 484.923 288.338 484.38 287.308C483.287 285.101 480.138 282.385 478.779 280.208C477.544 278.303 477.489 276.457 478.205 271.848C479.032 266.523 480.601 265.41 484.763 267.245L485.238 264.174L487.782 265.464L487.307 268.529C491.074 270.647 492.154 272.96 491.419 277.67C491.278 278.667 491.072 279.655 490.802 280.628L486.356 278.38C486.467 277.954 486.541 277.463 486.659 276.717C486.98 274.635 486.899 273.469 485.207 272.611C483.75 271.877 483.256 272.268 482.867 274.747C482.466 277.327 482.546 277.634 483.806 279.072C485.17 280.67 486.541 281.953 487.721 283.35C489.369 285.361 490.506 286.468 489.709 291.574C488.591 298.763 487.109 300.692 482.608 298.84L481.99 302.751L479.421 301.443Z" fill="#F4F4F4"/>
<g opacity="0.15">
<path opacity="0.15" d="M383.135 276.396C383.079 276.396 383.024 276.382 382.975 276.355C382.927 276.329 382.886 276.291 382.857 276.245C382.828 276.2 382.812 276.148 382.809 276.095C382.807 276.041 382.819 275.988 382.845 275.94L386.827 268.432C386.844 268.392 386.87 268.355 386.902 268.324C386.935 268.293 386.974 268.27 387.016 268.254C387.059 268.239 387.105 268.232 387.15 268.235C387.196 268.237 387.24 268.249 387.28 268.269C387.321 268.289 387.357 268.317 387.386 268.35C387.414 268.384 387.435 268.424 387.447 268.466C387.459 268.508 387.462 268.551 387.455 268.595C387.449 268.638 387.433 268.679 387.408 268.716L383.431 276.224C383.402 276.276 383.36 276.319 383.308 276.349C383.255 276.379 383.196 276.395 383.135 276.396Z" fill="black"/>
</g>
<path d="M713.713 629.078C731.28 623.297 740.629 604.956 734.596 588.121C728.557 571.285 709.421 562.325 691.847 568.109C674.279 573.893 664.924 592.229 670.963 609.068C677.002 625.907 696.139 634.865 713.713 629.078Z" fill="#61656D"/>
<path opacity="0.2" d="M713.713 629.078C731.28 623.297 740.629 604.956 734.596 588.121C728.557 571.285 709.421 562.325 691.847 568.109C674.279 573.893 664.924 592.229 670.963 609.068C677.002 625.907 696.139 634.865 713.713 629.078Z" fill="black"/>
<path d="M702.567 630.431C721.098 629.1 734.992 613.633 733.608 595.877C732.219 578.126 716.078 564.811 697.546 566.14C679.022 567.469 665.128 582.937 666.511 600.688C667.9 618.444 684.042 631.756 702.567 630.431Z" fill="#61656D"/>
<path opacity="0.2" d="M702.567 630.431C721.098 629.1 734.992 613.633 733.608 595.877C732.219 578.126 716.078 564.811 697.546 566.14C679.022 567.469 665.128 582.937 666.511 600.688C667.9 618.444 684.042 631.756 702.567 630.431Z" fill="white"/>
<path d="M713.75 620.51C726.606 613.286 730.916 597.441 723.377 585.124C715.837 572.806 699.307 568.676 686.45 575.901C673.594 583.124 669.284 598.967 676.823 611.286C684.363 623.604 700.894 627.728 713.75 620.51Z" fill="#61656D"/>
<path opacity="0.2" d="M674.52 597.152C675.119 590.319 678.528 583.993 683.993 579.567C689.458 575.141 696.534 572.976 703.666 573.55C709.224 573.999 714.781 576.567 718.851 579.679C716.313 577.281 713.299 575.39 709.996 574.113C706.686 572.837 703.148 572.201 699.585 572.242C696.022 572.284 692.496 573.002 689.223 574.355C685.95 575.709 682.992 577.67 680.51 580.127C678.034 582.583 676.089 585.485 674.792 588.666C673.489 591.845 672.859 595.241 672.939 598.661C673.02 602.075 673.804 605.441 675.249 608.565C676.694 611.689 678.769 614.506 681.356 616.854C678.874 613.997 677.07 610.66 676.058 607.074C675.156 604.092 674.236 600.412 674.52 597.152Z" fill="black"/>
<path d="M696.892 615.955L697.213 612.263C692.89 611.719 690.816 610.121 691.26 605.092C691.347 604.009 691.52 602.939 691.791 601.885L697.287 602.323C697.182 602.808 697.102 603.299 697.059 603.791C696.867 605.974 696.91 607.216 699.139 607.394C701.369 607.571 701.61 606.832 701.875 604.033C701.999 602.655 702.036 602.181 701.301 601.453C699.8 599.85 695.824 598.525 694.008 597.046C692.372 595.762 692.119 594.087 692.508 589.703C692.952 584.626 694.687 583.047 699.757 583.195L700.016 580.236L703.104 580.485L702.851 583.443C707.488 584.035 708.989 585.703 708.593 590.212C708.513 591.181 708.359 592.147 708.136 593.093L702.69 592.655C702.783 592.123 702.851 591.585 702.882 591.046C703.054 589.052 702.844 588.029 700.764 587.863C698.985 587.721 698.436 588.247 698.232 590.62C698.016 593.087 698.139 593.342 699.763 594.17C701.523 595.123 703.264 595.791 704.783 596.625C706.92 597.85 708.365 598.448 707.939 603.335C707.321 610.216 705.79 612.482 700.307 612.423L699.979 616.168L696.892 615.955Z" fill="#F4F4F4"/>
<path d="M386.277 277.361C386.088 277.265 385.868 277.238 385.66 277.284C385.451 277.331 385.266 277.449 385.141 277.615L379.386 282.544H379.04L383.764 273.408C383.874 273.184 383.89 272.927 383.807 272.692C383.725 272.457 383.552 272.261 383.323 272.146C383.094 272.03 382.827 272.003 382.578 272.071C382.329 272.139 382.117 272.295 381.986 272.509L380.411 274.828L382.226 271.142C382.35 270.88 382.37 270.583 382.281 270.307C382.192 270.031 382.002 269.796 381.745 269.645C381.469 269.49 381.141 269.444 380.83 269.515C380.519 269.587 380.249 269.772 380.077 270.03L373.785 279.716L373.316 279.609L377.249 271.503C377.349 271.3 377.364 271.066 377.289 270.852C377.214 270.639 377.056 270.461 376.848 270.355C376.654 270.258 376.431 270.23 376.217 270.275C376.003 270.321 375.814 270.437 375.681 270.604L373.063 274.462L369.778 279.402L369.611 278.716C371.247 273.811 370.438 273.113 369.796 272.562C369.739 272.516 369.671 272.484 369.599 272.467C369.526 272.45 369.45 272.451 369.378 272.469C369.305 272.486 369.238 272.52 369.182 272.567C369.126 272.614 369.082 272.674 369.055 272.74L365.424 281.55L362.473 292.146L363.59 292.951L362.534 292.283L333.512 330.208L310.603 338.273L317.457 355.236L342.293 345.432C344.524 344.552 346.387 342.984 347.585 340.977L370.463 297.477L376.904 290.916C378.581 288.924 380.135 286.84 381.559 284.674L386.672 278.514C386.727 278.414 386.761 278.304 386.771 278.192C386.78 278.079 386.766 277.965 386.729 277.858C386.693 277.75 386.633 277.651 386.556 277.565C386.478 277.48 386.383 277.41 386.277 277.361Z" fill="#FC9D9D"/>
<path opacity="0.1" d="M386.277 277.361C386.088 277.265 385.868 277.238 385.66 277.284C385.451 277.331 385.266 277.449 385.141 277.615L379.386 282.544H379.04L383.764 273.408C383.874 273.184 383.89 272.927 383.807 272.692C383.725 272.457 383.552 272.261 383.323 272.146C383.094 272.03 382.827 272.003 382.578 272.071C382.329 272.139 382.117 272.295 381.986 272.509L380.411 274.828L382.226 271.142C382.35 270.88 382.37 270.583 382.281 270.307C382.192 270.031 382.002 269.796 381.745 269.645C381.469 269.49 381.141 269.444 380.83 269.515C380.519 269.587 380.249 269.772 380.077 270.03L373.785 279.716L373.316 279.609L377.249 271.503C377.349 271.3 377.364 271.066 377.289 270.852C377.214 270.639 377.056 270.461 376.848 270.355C376.654 270.258 376.431 270.23 376.217 270.275C376.003 270.321 375.814 270.437 375.681 270.604L373.063 274.462L369.778 279.402L369.611 278.716C371.247 273.811 370.438 273.113 369.796 272.562C369.739 272.516 369.671 272.484 369.599 272.467C369.526 272.45 369.45 272.451 369.378 272.469C369.305 272.486 369.238 272.52 369.182 272.567C369.126 272.614 369.082 272.674 369.055 272.74L365.424 281.55L362.473 292.146L363.59 292.951L362.534 292.283L333.512 330.208L310.603 338.273L317.457 355.236L342.293 345.432C344.524 344.552 346.387 342.984 347.585 340.977L370.463 297.477L376.904 290.916C378.581 288.924 380.135 286.84 381.559 284.674L386.672 278.514C386.727 278.414 386.761 278.304 386.771 278.192C386.78 278.079 386.766 277.965 386.729 277.858C386.693 277.75 386.633 277.651 386.556 277.565C386.478 277.48 386.383 277.41 386.277 277.361Z" fill="black"/>
<path d="M295.621 340.717L314.652 336.297L315.912 339.734L296.856 344.858L295.621 340.717Z" fill="#21252B"/>
<path opacity="0.3" d="M295.621 340.717L314.652 336.297L315.912 339.734L296.856 344.858L295.621 340.717Z" fill="black"/>
<path d="M292.473 620.991L321.761 621.683L310.072 613.684C308.127 612.346 307.46 610.228 307.367 607.933L307.509 599.158L291.578 599.2L292.473 620.991Z" fill="#FC9D9D"/>
<path opacity="0.15" d="M295.721 610.742V610.6C295.671 610.132 295.813 609.665 296.115 609.292C296.418 608.919 296.859 608.677 297.345 608.612L307.225 607.316L307.132 605.541H292.078L292.386 620.415L305.156 619.078L300.957 617.475C299.518 616.931 298.266 616.008 297.341 614.818C296.416 613.629 295.856 612.221 295.721 610.742Z" fill="black"/>
<path d="M290.442 616.018V626.958C290.441 627.378 290.526 627.793 290.692 628.183C290.859 628.574 291.105 628.929 291.415 629.224C291.725 629.52 292.093 629.757 292.498 629.917C292.904 630.076 293.338 630.159 293.777 630.159H332.593C332.963 630.153 333.317 630.011 333.578 629.763C333.839 629.508 333.987 629.171 333.989 628.816C333.984 627.544 333.564 626.307 332.789 625.278C332.014 624.248 330.922 623.473 329.666 623.065L320.916 620.302L309.801 612.019C309.242 611.605 308.551 611.386 307.844 611.403C307.137 611.415 306.456 611.664 305.917 612.102L300.977 616.125C300.622 616.415 300.195 616.616 299.738 616.711C299.279 616.799 298.805 616.776 298.359 616.646L292.128 614.782C291.93 614.728 291.722 614.723 291.521 614.764C291.32 614.8 291.13 614.882 290.967 615.001C290.805 615.125 290.673 615.279 290.581 615.45C290.491 615.628 290.443 615.823 290.442 616.018Z" fill="#21252B"/>
<path opacity="0.3" d="M293.777 630.159H332.593C332.963 630.153 333.317 630.011 333.578 629.762C333.839 629.508 333.986 629.171 333.988 628.816C333.998 628.366 333.938 627.91 333.809 627.479H290.485C290.616 628.224 291.018 628.904 291.62 629.396C292.222 629.887 292.986 630.153 293.777 630.159Z" fill="black"/>
<path d="M309.572 616.409C309.497 616.415 309.423 616.397 309.359 616.356C309.296 616.321 309.249 616.261 309.224 616.196C309.198 616.125 309.197 616.054 309.22 615.983C309.242 615.918 309.288 615.859 309.35 615.818L311.696 613.398C311.727 613.362 311.765 613.327 311.81 613.309C311.854 613.285 311.902 613.273 311.952 613.268C312.002 613.268 312.052 613.274 312.098 613.291C312.145 613.309 312.187 613.333 312.223 613.368C312.258 613.398 312.285 613.439 312.303 613.486C312.32 613.528 312.328 613.575 312.325 613.623C312.322 613.676 312.308 613.717 312.285 613.765C312.262 613.806 312.23 613.842 312.19 613.871L309.844 616.291C309.765 616.35 309.671 616.392 309.572 616.409Z" fill="white"/>
<path d="M311.424 617.796C311.34 617.79 311.259 617.76 311.196 617.707C311.131 617.642 311.095 617.559 311.095 617.47C311.095 617.381 311.131 617.299 311.196 617.233L313.542 614.808C313.575 614.778 313.614 614.748 313.657 614.731C313.7 614.719 313.746 614.707 313.793 614.707C313.839 614.707 313.885 614.719 313.928 614.731C313.97 614.748 314.01 614.778 314.043 614.808C314.075 614.837 314.101 614.879 314.119 614.914C314.137 614.956 314.146 615.003 314.146 615.044C314.146 615.092 314.137 615.133 314.119 615.174C314.101 615.216 314.075 615.257 314.043 615.287L311.696 617.707C311.613 617.754 311.52 617.784 311.424 617.796Z" fill="white"/>
<path d="M313.277 619.178C313.191 619.178 313.11 619.143 313.048 619.09C312.983 619.024 312.947 618.942 312.947 618.853C312.947 618.764 312.983 618.681 313.048 618.616L315.395 616.19C315.46 616.125 315.549 616.096 315.642 616.096C315.734 616.096 315.822 616.125 315.889 616.19C315.953 616.255 315.99 616.338 315.99 616.427C315.99 616.522 315.953 616.605 315.889 616.67L313.542 619.09C313.469 619.149 313.373 619.184 313.277 619.178Z" fill="white"/>
<path d="M231.919 607.282L258.688 618.695L251.099 607.01C249.864 605.057 250.074 602.868 250.908 600.709L254.557 592.656L239.83 586.834L231.919 607.282Z" fill="#FC9D9D"/>
<path opacity="0.15" d="M239.028 599.015L239.102 598.855C239.417 597.903 239.812 598.554 240.782 598.802L250.427 601.24L251.045 599.571L237.12 594.033L232.057 606.695L244.407 610.156L241.171 607.133C240.066 606.103 239.281 604.796 238.902 603.364C238.524 601.932 238.568 600.423 239.028 599.015Z" fill="black"/>
<path d="M232.043 601.945L227.659 612.045C227.489 612.429 227.401 612.849 227.399 613.269C227.397 613.689 227.482 614.104 227.65 614.494C227.816 614.885 228.062 615.234 228.372 615.535C228.682 615.831 229.05 616.068 229.456 616.228L265.271 630.511C265.443 630.582 265.627 630.617 265.812 630.617C265.998 630.617 266.182 630.582 266.355 630.516C266.527 630.445 266.683 630.345 266.815 630.221C266.947 630.096 267.052 629.948 267.123 629.783C267.627 628.605 267.734 627.31 267.43 626.067C267.125 624.831 266.424 623.712 265.425 622.878L258.454 617.109L251.513 605.4C251.162 604.814 250.611 604.359 249.953 604.11C249.294 603.868 248.567 603.844 247.894 604.051L241.719 605.956C241.275 606.092 240.801 606.122 240.342 606.039C239.883 605.951 239.454 605.755 239.095 605.471L234.093 601.466C233.933 601.347 233.747 601.259 233.549 601.217C233.35 601.176 233.144 601.182 232.947 601.229C232.749 601.27 232.565 601.359 232.408 601.483C232.252 601.608 232.127 601.767 232.043 601.945Z" fill="#21252B"/>
<path opacity="0.3" d="M229.458 616.227L265.273 630.51C265.444 630.581 265.628 630.616 265.814 630.616C266 630.616 266.184 630.581 266.357 630.516C266.528 630.445 266.685 630.344 266.817 630.22C266.949 630.096 267.054 629.948 267.125 629.782C267.316 629.368 267.44 628.93 267.496 628.48L227.494 612.541C227.314 613.281 227.413 614.056 227.772 614.73C228.132 615.405 228.729 615.931 229.458 616.227Z" fill="black"/>
<path d="M249.55 609.34C249.474 609.31 249.412 609.251 249.378 609.18C249.343 609.097 249.344 609.008 249.379 608.925C249.415 608.843 249.483 608.778 249.569 608.742L252.706 607.369C252.748 607.352 252.794 607.346 252.84 607.346C252.886 607.346 252.932 607.352 252.975 607.369C253.017 607.387 253.056 607.411 253.088 607.44C253.121 607.476 253.146 607.511 253.163 607.553C253.198 607.636 253.198 607.724 253.163 607.807C253.129 607.89 253.062 607.955 252.978 607.991L249.841 609.363C249.743 609.381 249.644 609.369 249.55 609.34Z" fill="white"/>
<path d="M250.705 611.299C250.629 611.269 250.567 611.21 250.532 611.139C250.498 611.056 250.498 610.968 250.534 610.885C250.57 610.802 250.638 610.737 250.724 610.701L253.861 609.329C253.945 609.305 254.035 609.311 254.114 609.346C254.192 609.382 254.255 609.447 254.288 609.524C254.321 609.601 254.323 609.69 254.293 609.766C254.263 609.843 254.203 609.908 254.126 609.95L250.989 611.323C250.894 611.334 250.797 611.328 250.705 611.299Z" fill="white"/>
<path d="M251.859 613.257C251.782 613.227 251.72 613.168 251.686 613.097C251.651 613.014 251.652 612.92 251.687 612.843C251.723 612.76 251.792 612.695 251.877 612.659L255.014 611.287C255.089 611.281 255.164 611.292 255.229 611.328C255.294 611.369 255.344 611.423 255.374 611.488C255.404 611.553 255.411 611.63 255.394 611.701C255.376 611.766 255.337 611.831 255.279 611.878L252.143 613.251C252.098 613.269 252.05 613.281 252.001 613.281C251.952 613.281 251.904 613.275 251.859 613.257Z" fill="white"/>
<path d="M308.472 429.918L312.294 517.715L308.472 605.549H290.255L286.803 517.715L275.793 430.959L308.472 429.918Z" fill="#FD3373"/>
<path opacity="0.2" d="M283.44 430.957L290.257 605.545H297.976L301.551 519.393L302.644 436.199L302.465 436.193L283.44 430.957Z" fill="black"/>
<path d="M306.347 429.883L290.335 515.603L253.446 600.838L236.106 594.59L265.524 511.545L265.641 462.673C265.658 457.062 265.07 451.465 263.888 445.97L262.795 440.911L290.582 429.883H306.347Z" fill="#FD3373"/>
<path opacity="0.2" d="M274.787 436.141L262.77 440.909L263.863 445.968C265.048 451.467 265.638 457.068 265.623 462.683L265.506 511.554L236.106 594.074L242.738 596.683L243.665 596.837L273.15 512.075L274.787 436.141Z" fill="black"/>
<path d="M302.989 301.307L303.922 304.028C304.876 306.803 305.012 309.776 304.311 312.619L304.138 313.288L304.169 313.566L307.157 318.033C307.241 318.158 307.297 318.299 307.32 318.446C307.343 318.593 307.334 318.744 307.293 318.887C307.251 319.031 307.179 319.164 307.08 319.279C306.981 319.394 306.858 319.487 306.719 319.554L304.866 320.423L304.484 326.163C304.432 326.909 304.219 327.637 303.858 328.3C303.498 328.964 302.998 329.549 302.39 330.018C301.782 330.488 301.079 330.831 300.325 331.027C299.572 331.222 298.784 331.267 298.012 331.156L293.69 330.535L294.449 346.687L274.455 337.534L276.023 321.755L275.017 306.413L302.989 301.307Z" fill="#FC9D9D"/>
<path d="M300.025 293.987C298.006 294.378 296.054 295.029 294.159 294.313L291.806 293.029C288.15 291.254 282.253 292.573 280.691 295.455C280.265 295.875 279.647 297.194 278.363 296.969C274.88 296.443 271.57 298.585 270.99 300.939L270.947 301.105C269.279 307.886 273.065 316.021 275.887 322.642C275.887 322.642 279.561 322.05 280.938 318.926L281.277 315.216L285.952 314.323L286.069 315.631C286.08 315.76 286.117 315.885 286.179 316C286.242 316.115 286.326 316.217 286.43 316.3C286.533 316.383 286.653 316.445 286.782 316.484C286.91 316.522 287.046 316.536 287.181 316.524C287.432 316.502 287.667 316.394 287.841 316.219C288.014 316.043 288.116 315.813 288.126 315.571L288.261 312.021L290.237 311.743C292.207 311.359 293.553 310.424 293.782 308.531L293.998 307.081C294.049 306.7 294.212 306.341 294.47 306.046C294.727 305.751 295.067 305.534 295.449 305.418L303.557 302.596C308.911 299.656 305.422 292.81 300.025 293.987Z" fill="#21252B"/>
<path d="M310.263 442.47L312.622 390.191C313.857 375.931 313.091 366.642 306.447 354.643L295.622 341.899C290.448 339.81 289.126 341.479 285.125 337.757L274.627 334.207L272.775 335.39C268.749 340.207 265.365 347.082 263.401 354.123C261.991 359.366 261.45 364.789 261.796 370.192L266.618 410.923C266.776 412.441 266.756 413.971 266.556 415.484L262.574 443.594C262.574 443.594 273.034 451.333 310.263 442.47Z" fill="#21252B"/>
<path opacity="0.15" d="M293.645 330.476L290.137 329.731C289.98 329.689 289.813 329.699 289.662 329.759C289.512 329.819 289.387 329.926 289.307 330.062C289.228 330.199 289.198 330.357 289.223 330.511C289.248 330.665 289.327 330.807 289.446 330.914L293.805 334.647L293.645 330.476Z" fill="black"/>
<path d="M396.329 311.664C414.992 305.258 424.701 285.568 418.015 267.686C411.329 249.804 390.78 240.501 372.117 246.907C353.454 253.314 343.745 273.003 350.431 290.885C357.117 308.768 377.666 318.07 396.329 311.664Z" fill="#61656D"/>
<path opacity="0.2" d="M396.329 311.664C414.992 305.258 424.701 285.568 418.015 267.686C411.329 249.804 390.78 240.501 372.117 246.907C353.454 253.314 343.745 273.003 350.431 290.885C357.117 308.768 377.666 318.07 396.329 311.664Z" fill="black"/>
<path d="M384.535 313.137C404.282 311.468 418.879 294.776 417.138 275.855C415.396 256.933 397.976 242.947 378.228 244.616C358.48 246.285 343.883 262.976 345.625 281.898C347.367 300.819 364.787 314.806 384.535 313.137Z" fill="#61656D"/>
<path opacity="0.2" d="M384.535 313.137C404.282 311.468 418.879 294.776 417.138 275.855C415.396 256.933 397.976 242.947 378.228 244.616C358.48 246.285 343.883 262.976 345.625 281.898C347.367 300.819 364.787 314.806 384.535 313.137Z" fill="white"/>
<path d="M398.733 302.723C412.41 294.8 416.793 277.755 408.523 264.65C400.254 251.546 382.463 247.346 368.787 255.27C355.111 263.193 350.728 280.24 358.998 293.343C367.267 306.447 385.057 310.647 398.733 302.723Z" fill="#61656D"/>
<path opacity="0.2" d="M354.068 278.083C354.608 270.784 358.15 263.99 363.917 259.193C369.684 254.397 377.202 251.991 384.82 252.505C390.76 252.907 396.75 255.576 401.116 258.842C398.374 256.305 395.134 254.314 391.583 252.987C388.032 251.659 384.242 251.02 380.431 251.107C376.621 251.194 372.866 252.006 369.385 253.494C365.904 254.982 362.767 257.118 360.154 259.778C357.542 262.437 355.507 265.567 354.167 268.986C352.827 272.405 352.209 276.045 352.349 279.695C352.489 283.344 353.383 286.931 354.981 290.247C356.58 293.562 358.849 296.542 361.657 299.01C358.967 295.995 356.988 292.459 355.853 288.644C354.852 285.49 353.827 281.556 354.068 278.083Z" fill="black"/>
<path d="M378.212 297.838L378.502 293.885C373.865 293.371 371.648 291.69 372.043 286.318C372.123 285.163 372.296 284.016 372.562 282.886L378.434 283.289C378.327 283.805 378.252 284.326 378.212 284.851C378.039 287.182 378.101 288.513 380.484 288.673C382.868 288.833 383.139 288.04 383.356 285.046C383.467 283.579 383.504 283.07 382.707 282.301C381.077 280.614 376.822 279.254 374.859 277.697C373.099 276.354 372.802 274.603 373.148 269.887C373.55 264.462 375.377 262.752 380.793 262.864L381.028 259.729L384.356 259.953L384.127 263.089C389.067 263.628 390.71 265.42 390.352 270.237C390.281 271.271 390.134 272.299 389.913 273.313L384.09 272.923C384.181 272.352 384.241 271.778 384.269 271.201C384.43 269.071 384.189 267.982 381.966 267.834C380.064 267.704 379.496 268.278 379.305 270.793C379.107 273.432 379.249 273.698 380.991 274.579C382.886 275.573 384.751 276.26 386.387 277.135C388.685 278.407 390.234 279.023 389.845 284.235C389.308 291.584 387.69 294.022 381.818 294.033L381.522 298.033L378.212 297.838Z" fill="#F4F4F4"/>
<path opacity="0.15" d="M281.005 318.98C281.492 319.659 282.07 320.273 282.722 320.809L278.461 321.72C279.056 321.451 279.588 321.07 280.025 320.599C280.462 320.128 280.796 319.578 281.005 318.98Z" fill="black"/>
<path d="M301.748 315.198C301.995 315.198 302.237 315.126 302.442 314.993C302.646 314.859 302.804 314.669 302.895 314.449C302.985 314.228 303.004 313.986 302.95 313.755C302.896 313.523 302.77 313.313 302.589 313.151C302.408 312.989 302.181 312.883 301.936 312.846C301.692 312.81 301.441 312.844 301.217 312.946C300.993 313.047 300.807 313.211 300.681 313.415C300.555 313.62 300.497 313.855 300.513 314.092C300.525 314.396 300.66 314.682 300.892 314.89C301.124 315.097 301.432 315.208 301.748 315.198Z" fill="#21252B"/>
<path d="M300.938 315.246C300.981 315.24 301.02 315.22 301.047 315.188C301.075 315.156 301.089 315.116 301.086 315.075C301.085 315.054 301.079 315.034 301.069 315.015C301.059 314.997 301.046 314.98 301.029 314.967C301.012 314.954 300.993 314.944 300.972 314.938C300.951 314.932 300.929 314.93 300.907 314.933C300.886 314.934 300.866 314.94 300.847 314.949C300.828 314.958 300.811 314.971 300.797 314.986C300.784 315.001 300.773 315.019 300.767 315.039C300.76 315.058 300.758 315.078 300.759 315.098C300.761 315.12 300.767 315.14 300.776 315.159C300.786 315.178 300.8 315.194 300.817 315.208C300.833 315.222 300.853 315.232 300.873 315.239C300.894 315.246 300.917 315.248 300.938 315.246Z" fill="white"/>
<path d="M286.712 321.785C285.117 321.92 283.532 321.444 282.303 320.461C281.074 319.479 280.301 318.07 280.154 316.543L280.024 315.123C279.972 314.365 280.231 313.617 280.747 313.041C281.263 312.464 281.994 312.103 282.784 312.036C283.574 311.97 284.359 312.203 284.972 312.684C285.585 313.166 285.977 313.859 286.063 314.614L286.712 321.785Z" fill="#FC9D9D"/>
<g opacity="0.3">
<path opacity="0.3" d="M284.7 316.691C284.58 316.695 284.463 316.656 284.371 316.584C284.279 316.51 284.217 316.407 284.2 316.294L284.088 315.111C284.058 314.823 283.912 314.558 283.682 314.373C283.451 314.187 283.154 314.095 282.853 314.117C282.689 314.125 282.53 314.17 282.388 314.249C282.246 314.329 282.126 314.439 282.038 314.573C281.967 314.652 281.867 314.703 281.759 314.716C281.65 314.73 281.54 314.704 281.45 314.645C281.36 314.586 281.295 314.497 281.269 314.395C281.244 314.293 281.258 314.186 281.31 314.093C281.478 313.864 281.698 313.676 281.954 313.54C282.209 313.405 282.494 313.327 282.785 313.312C283.31 313.274 283.83 313.434 284.234 313.758C284.637 314.081 284.894 314.544 284.947 315.046L285.058 316.229C285.138 316.489 284.984 316.667 284.7 316.691Z" fill="#21252B"/>
</g>
<path d="M387.975 279.105C387.781 279.018 387.56 279.001 387.354 279.059C387.149 279.117 386.971 279.245 386.858 279.419L381.374 284.643H381.028L385.252 275.236C385.352 275.007 385.355 274.75 385.261 274.518C385.167 274.286 384.984 274.098 384.749 273.993C384.514 273.887 384.246 273.873 384 273.953C383.755 274.032 383.55 274.199 383.431 274.419L381.986 276.827L383.597 273.035C383.708 272.767 383.713 272.469 383.61 272.198C383.508 271.927 383.306 271.7 383.042 271.562C382.759 271.42 382.43 271.389 382.123 271.476C381.817 271.562 381.558 271.758 381.399 272.023L375.625 282.081L375.156 281.999L378.651 273.668C378.74 273.458 378.741 273.223 378.655 273.012C378.569 272.801 378.402 272.629 378.188 272.532C377.99 272.443 377.765 272.425 377.554 272.482C377.343 272.538 377.16 272.665 377.039 272.84L374.625 276.839L371.612 281.963L371.408 281.283C372.779 276.277 371.933 275.615 371.266 275.1C371.206 275.055 371.137 275.025 371.063 275.012C370.989 274.999 370.913 275.003 370.84 275.023C370.769 275.045 370.703 275.082 370.649 275.132C370.595 275.183 370.554 275.245 370.531 275.313L367.376 284.336L363.708 294.648L364.862 295.4L363.782 294.755L336.284 331.687L314.672 339.911L321.594 357.365L345.874 346.301C348.06 345.307 349.836 343.641 350.919 341.568L373.254 300.11L379.337 293.205C380.909 291.119 382.353 288.945 383.659 286.696L388.408 280.235C388.457 280.134 388.485 280.025 388.491 279.913C388.496 279.801 388.478 279.689 388.438 279.584C388.398 279.479 388.336 279.382 388.256 279.301C388.177 279.218 388.082 279.152 387.975 279.105Z" fill="#FC9D9D"/>
<path opacity="0.1" d="M373.012 300.318L350.918 341.54C349.835 343.613 348.059 345.28 345.873 346.273L321.593 357.367L320.067 353.817L343.588 343.025C345.479 342.155 347.044 340.748 348.071 338.996L371.536 298.904C371.536 298.904 377.859 293.165 379.792 290.781L382.688 286.497L388.406 279.551C388.406 279.551 388.882 279.74 388.196 280.503L383.386 287.089L381.891 289.544C380.819 291.317 379.58 292.99 378.186 294.544L373.012 300.318Z" fill="black"/>
<path d="M295.831 340.492C295.831 340.492 283.271 337.759 274.626 333.617L272.464 335.611C272.464 335.611 274.731 336.487 278.207 337.93C281.798 339.42 285.517 340.608 289.322 341.48C295.139 342.812 296.874 342.474 296.874 342.474L295.831 340.492Z" fill="#FD3373"/>
<path d="M303.879 310.127H303.811L298.303 311.116C298.089 311.156 297.886 311.237 297.705 311.354C297.525 311.471 297.37 311.621 297.25 311.795C297.131 311.97 297.049 312.166 297.009 312.37C296.969 312.576 296.973 312.787 297.018 312.991L297.253 314.174C297.471 315.29 298.144 316.277 299.122 316.917C300.1 317.558 301.304 317.801 302.468 317.591C303.632 317.382 304.662 316.738 305.331 315.8C306 314.863 306.252 313.71 306.034 312.595L305.799 311.411C305.724 311.068 305.533 310.759 305.256 310.53C304.864 310.239 304.374 310.095 303.879 310.127ZM305.157 311.494L305.398 312.678C305.555 313.614 305.326 314.572 304.759 315.35C304.192 316.127 303.331 316.662 302.359 316.842C301.387 317.022 300.38 316.832 299.552 316.313C298.723 315.794 298.138 314.987 297.92 314.062L297.685 312.879C297.661 312.754 297.663 312.627 297.69 312.504C297.717 312.381 297.77 312.263 297.844 312.16C297.919 312.056 298.014 311.967 298.125 311.898C298.235 311.83 298.359 311.783 298.488 311.76L303.996 310.766H304.045C304.169 310.742 304.295 310.742 304.418 310.766C304.541 310.79 304.658 310.837 304.762 310.905C304.865 310.973 304.954 311.06 305.022 311.161C305.09 311.262 305.136 311.375 305.157 311.494Z" fill="#21252B"/>
<path d="M304.731 322.524C302.316 322.524 301.458 321.678 301.458 321.678C301.458 321.678 301.995 323.565 304.613 324.257L304.731 322.524Z" fill="white"/>
<path opacity="0.15" d="M303.44 321.73L302.971 321.991L303.378 322.724L303.44 321.73Z" fill="black"/>
<path opacity="0.3" d="M292.035 368.686C292.035 368.686 299.994 374.206 312.628 371.958C312.628 371.958 311.69 364.858 310.776 363.745L309.843 362.609L292.035 368.686Z" fill="black"/>
<path d="M323.069 357.608L315.955 338.355L292.033 345.621C290.447 346.142 288.988 346.968 287.746 348.048C286.504 349.129 285.505 350.441 284.812 351.904C284.119 353.367 283.744 354.951 283.712 356.558C283.68 358.164 283.991 359.761 284.626 361.248C285.261 362.736 286.206 364.084 287.404 365.208C288.602 366.334 290.027 367.212 291.592 367.79C293.157 368.368 294.829 368.635 296.505 368.571C298.181 368.509 299.826 368.118 301.339 367.424L323.069 357.608Z" fill="#21252B"/>
<g opacity="0.3">
<path opacity="0.3" d="M288.279 367.236C285.112 363.443 283.747 359.609 284.21 355.846C284.902 350.237 289.379 346.841 289.564 346.699L289.947 347.167C289.903 347.167 285.476 350.557 284.821 355.917C284.377 359.521 285.704 363.201 288.761 366.863L288.279 367.236Z" fill="black"/>
</g>
<path opacity="0.3" d="M270.224 405.038L262.814 378.727L266.624 410.925C266.783 412.443 266.763 413.973 266.562 415.487L262.58 443.597C262.58 443.597 265.667 445.904 274.571 446.555L273.299 423.445C272.953 417.222 271.922 411.053 270.224 405.038Z" fill="black"/>
</svg>
