<svg width="122" height="93" viewBox="0 0 122 93" fill="none" xmlns="http://www.w3.org/2000/svg">
<rect x="12" y="41" width="32" height="3" rx="1.5" fill="#282828"/>
<rect x="46" y="41" width="19" height="3" rx="1.5" fill="#282828"/>
<rect x="12" y="28" width="53" height="3" rx="1.5" fill="#282828"/>
<rect x="12" y="54" width="53" height="3" rx="1.5" fill="#282828"/>
<rect x="2" y="2" width="118" height="89" rx="10" stroke="#282828" stroke-width="4"/>
<path fill-rule="evenodd" clip-rule="evenodd" d="M96.578 50.5837C95.0612 51.4165 93.3309 51.8874 91.5 51.8874C85.5781 51.8874 80.709 46.9608 80.709 40.7982C80.709 34.6356 85.5781 29.709 91.5 29.709C97.4219 29.709 102.291 34.6356 102.291 40.7982C102.291 44.9001 100.134 48.4544 96.9449 50.3728L96.5655 50.5581L96.578 50.5837ZM97.3295 52.1224C95.589 53.0636 93.6053 53.5965 91.5 53.5965C88.8595 53.5965 86.4102 52.7582 84.3921 51.3274L81.1993 57.8655C81.0596 58.1515 81.3523 58.4563 81.6437 58.3285L89.8426 54.7308C90.3678 54.5004 90.9655 54.5004 91.4907 54.7308L99.6896 58.3285C99.981 58.4563 100.274 58.1515 100.134 57.8655L97.3295 52.1224ZM83.0339 50.2142C80.5538 47.8754 79 44.5226 79 40.7982C79 33.73 84.5964 28 91.5 28C98.4036 28 104 33.73 104 40.7982C104 45.0848 101.942 48.8792 98.7818 51.2018L101.67 57.1155C102.508 58.8315 100.752 60.6608 99.0029 59.8934L90.804 56.2958C90.7165 56.2574 90.6169 56.2574 90.5293 56.2958L82.3304 59.8934C80.5817 60.6608 78.8256 58.8315 79.6636 57.1155L83.0339 50.2142Z" fill="#44F9BD"/>
<path d="M99.8332 41.0961C99.8332 46.064 96.0666 50.0246 91.4999 50.0246C86.9331 50.0246 83.1665 46.064 83.1665 41.0961C83.1665 36.1282 86.9331 32.1675 91.4999 32.1675C96.0666 32.1675 99.8332 36.1282 99.8332 41.0961Z" stroke="#44F9BD" stroke-width="1.19048"/>
<path d="M83.7617 57.761C83.7617 57.2319 85.7458 53.5723 86.7379 51.8086M98.0474 57.761C98.0474 57.2319 96.4601 54.0132 95.6665 52.47" stroke="#44F9BD" stroke-width="0.833333"/>
<path d="M91 35L92.3471 39.1459H96.7063L93.1796 41.7082L94.5267 45.8541L91 43.2918L87.4733 45.8541L88.8204 41.7082L85.2937 39.1459H89.6529L91 35Z" fill="#44F9BD"/>
</svg>
