<svg width="166" height="120" viewBox="0 0 166 120" fill="none" xmlns="http://www.w3.org/2000/svg">
<path d="M18.9547 19.0294H18.3537C14.3706 19.0294 11.1416 22.2584 11.1416 26.2415V100.767C11.1416 104.75 14.3706 107.979 18.3537 107.979H63.6325C64.6864 107.979 65.7274 108.21 66.6824 108.655L80.2129 114.97C82.1461 115.872 84.3795 115.872 86.3127 114.97L99.8432 108.656C100.798 108.21 101.839 107.979 102.893 107.979H148.172C152.155 107.979 155.384 104.75 155.384 100.767V26.2415C155.384 22.2584 152.155 19.0294 148.172 19.0294H147.571M83.2628 19.6522V94.015C83.2628 98.6658 87.9842 101.828 92.2847 100.057C93.0739 99.7319 93.9191 99.5647 94.7726 99.5647H137.955C141.938 99.5647 145.167 96.3358 145.167 92.3526V17.8274C145.167 13.8442 141.938 10.6152 137.955 10.6152H94.9067C93.9647 10.6152 93.0318 10.7998 92.1607 11.1585L87.7289 12.9833C85.0265 14.0961 83.2628 16.7297 83.2628 19.6522ZM71.6189 10.6152H28.5709C24.5878 10.6152 21.3588 13.8442 21.3588 17.8274V92.3526C21.3588 96.3358 24.5877 99.5647 28.5709 99.5647H71.753C72.6065 99.5647 73.4517 99.7319 74.2409 100.057V100.057C78.5414 101.828 83.2628 98.6658 83.2628 94.015V19.6522C83.2628 16.7297 81.4991 14.0961 78.7967 12.9833L74.3649 11.1585C73.4938 10.7998 72.5609 10.6152 71.6189 10.6152Z" stroke="#282828" stroke-width="4.80808"/>
<rect x="32.1768" y="20.832" width="42.0707" height="3.60606" rx="1.80303" fill="#282828"/>
<rect x="32.1768" y="44.873" width="42.0707" height="3.60606" rx="1.80303" fill="#282828"/>
<rect x="32.1768" y="56.8926" width="42.0707" height="3.60606" rx="1.80303" fill="#282828"/>
<rect x="32.1768" y="70.1152" width="42.0707" height="3.60606" rx="1.80303" fill="#282828"/>
<rect x="92.2778" y="83.3379" width="44.4748" height="3.60606" rx="1.80303" fill="#282828"/>
<rect x="94.6816" y="20.832" width="42.0707" height="3.60606" rx="1.80303" fill="#282828"/>
<rect x="92.2778" y="44.873" width="44.4748" height="3.60606" rx="1.80303" fill="#282828"/>
<rect x="32.1768" y="32.8516" width="21.6364" height="3.60606" rx="1.80303" fill="#282828"/>
<rect x="32.1768" y="83.3379" width="26.4444" height="3.60606" rx="1.80303" fill="#282828"/>
<rect x="63.4292" y="83.3379" width="10.8182" height="3.60606" rx="1.80303" fill="#282828"/>
<rect x="56.2173" y="32.8516" width="18.0303" height="3.60606" rx="1.80303" fill="#282828"/>
<rect x="92.2778" y="32.8516" width="22.8384" height="3.60606" rx="1.80303" fill="#282828"/>
<rect x="117.52" y="32.8516" width="19.2323" height="3.60606" rx="1.80303" fill="#282828"/>
<rect x="91.6768" y="70.7168" width="27.6465" height="3.60606" rx="1.80303" fill="#282828"/>
<rect x="124.131" y="70.7168" width="12.0202" height="3.60606" rx="1.80303" fill="#282828"/>
<rect width="22.8384" height="3.60606" rx="1.80303" transform="matrix(-1 0 0 1 136.752 58.0938)" fill="#282828"/>
<rect width="19.2323" height="3.60606" rx="1.80303" transform="matrix(-1 0 0 1 111.51 58.0938)" fill="#282828"/>
<rect x="0.323242" y="81.5352" width="4.80808" height="19.2323" rx="2.40404" fill="#44F9BD"/>
<rect x="14.7476" y="119.398" width="4.80808" height="16.8283" rx="2.40404" transform="rotate(-90 14.7476 119.398)" fill="#44F9BD"/>
<path d="M2.72763 92.9551C2.72763 92.9551 2.38905 103.803 2.72763 107.379C2.95541 109.785 5.13186 112.788 5.13186 112.788C5.13186 112.788 7.93164 115.308 10.5408 116.394C12.9342 117.391 26.1671 116.995 26.1671 116.995" stroke="#44F9BD" stroke-width="4.80808"/>
<rect x="165" y="38.8613" width="4.80808" height="19.2323" rx="2.40404" transform="rotate(-180 165 38.8613)" fill="#44F9BD"/>
<rect x="150.576" y="0.998047" width="4.80808" height="16.8283" rx="2.40404" transform="rotate(90 150.576 0.998047)" fill="#44F9BD"/>
<path d="M162.596 27.4434C162.596 27.4434 162.934 16.595 162.596 13.0191C162.368 10.6134 160.191 7.61002 160.191 7.61002C160.191 7.61002 157.392 5.09011 154.782 4.00396C152.389 3.00765 139.156 3.40295 139.156 3.40295" stroke="#44F9BD" stroke-width="4.80808"/>
<rect x="160.192" y="97.1602" width="42.0707" height="4.80808" rx="2.40404" transform="rotate(-90 160.192 97.1602)" fill="#44F9BD"/>
<circle cx="36.6845" cy="117.296" r="2.70455" fill="#44F9BD"/>
</svg>
