<svg width="50" height="50" viewBox="0 0 50 50" fill="none" xmlns="http://www.w3.org/2000/svg">
<path d="M47.9986 36.4401V43.3649C48.0012 44.0078 47.8692 44.6441 47.6112 45.2331C47.3531 45.8222 46.9747 46.3509 46.5 46.7855C46.0254 47.2201 45.465 47.551 44.8548 47.7569C44.2446 47.9629 43.5981 48.0394 42.9565 47.9815C35.8394 47.2097 29.003 44.7826 22.9965 40.8951C17.4082 37.3511 12.6703 32.6226 9.11928 27.0454C5.21048 21.0235 2.77796 14.1674 2.01877 7.03253C1.96098 6.39421 2.03699 5.75088 2.24197 5.14349C2.44694 4.53609 2.7764 3.97795 3.20936 3.5046C3.64232 3.03124 4.16929 2.65304 4.75672 2.39408C5.34416 2.13512 5.97919 2.00107 6.62138 2.00047H13.56C14.6824 1.98944 15.7706 2.38613 16.6217 3.1166C17.4727 3.84707 18.0286 4.86146 18.1857 5.97072C18.4786 8.18682 19.0217 10.3628 19.8047 12.457C20.1159 13.2832 20.1833 14.1811 19.9988 15.0443C19.8143 15.9075 19.3858 16.6999 18.7639 17.3275L15.8266 20.259C19.1191 26.0379 23.9134 30.8227 29.7038 34.1087L32.6411 31.1772C33.27 30.5566 34.0639 30.1289 34.9288 29.9448C35.7938 29.7607 36.6935 29.8279 37.5213 30.1385C39.6197 30.9199 41.7999 31.462 44.0204 31.7543C45.144 31.9124 46.17 32.4772 46.9035 33.3412C47.637 34.2052 48.0267 35.308 47.9986 36.4401Z" stroke="#FD3373" stroke-width="4" stroke-linecap="round" stroke-linejoin="round"/>
</svg>
