<svg width="60" height="60" viewBox="0 0 60 60" fill="none" xmlns="http://www.w3.org/2000/svg">
<circle cx="30" cy="30.0002" r="30" fill="#FD98B8"/>
<path d="M34.5104 29.3924L39.1923 24.7104L24.0699 16.2111C23.0677 15.6696 22.1288 15.5936 21.3054 16.1858L34.5104 29.3924ZM39.9903 34.8739L44.8575 32.1363C45.8075 31.6043 46.3284 30.8506 46.3284 30.0146C46.3284 29.1802 45.8075 28.4249 44.8591 27.8929L40.4527 25.4182L35.4921 30.3772L39.9903 34.8739ZM20.4916 17.3368C20.3903 17.6488 20.3333 17.9971 20.3333 18.3787V41.6616C20.3333 42.2649 20.4663 42.7842 20.7069 43.1974L33.5272 30.3756L20.4916 17.3368ZM34.5104 31.3573L21.7614 44.1079C22.0053 44.2013 22.2681 44.2504 22.5452 44.2504C23.0392 44.2504 23.5538 44.1047 24.0778 43.8134L38.7316 35.5848L34.5104 31.3573Z" fill="#FAFAFA"/>
</svg>
