<svg width="687" height="506" viewBox="0 0 687 506" fill="none" xmlns="http://www.w3.org/2000/svg">
<g clip-path="url(#clip0)">
<path opacity="0.1" d="M399.153 103.809C355.112 102.283 313.163 88.0568 273.11 72.5047C233.057 56.9527 193.375 39.7166 150.392 31.4724C122.742 26.1708 91.1218 25.4352 68.8459 40.2455C47.403 54.5086 40.4783 79.156 36.7576 101.986C33.9548 119.179 32.3073 137.248 39.9798 153.366C45.3116 164.534 54.7776 173.927 61.3254 184.628C84.0937 221.872 68.013 267.793 43.3175 304.15C31.7662 321.21 18.3119 337.479 9.38092 355.639C0.449924 373.8 -3.68424 394.599 4.12811 413.117C11.8797 431.478 30.3375 445.267 50.3334 454.964C90.9515 474.663 138.817 480.305 185.49 483.497C288.814 490.537 392.684 487.497 496.275 484.457C534.614 483.321 573.116 482.171 610.834 476.244C631.773 472.955 653.392 467.732 668.591 455.116C687.894 439.102 692.678 411.987 679.741 391.887C658.049 358.211 598.061 349.845 582.898 313.701C574.551 293.808 583.123 271.647 595.252 253.195C621.273 213.61 664.888 178.888 667.186 133.643C668.767 102.569 647.798 71.4468 615.382 56.746C581.397 41.3338 534.279 43.2732 509.207 68.7839C483.405 95.0546 438.039 105.159 399.153 103.809Z" fill="#FD3373"/>
<path d="M403.798 459.564L285.245 458.044L285.591 455.004L291.324 404.846H395.438L403.099 455.004L403.682 458.804L403.798 459.564Z" fill="#D0D2D5"/>
<path opacity="0.1" d="M403.682 458.804H344.521L285.245 458.044L285.591 455.004H403.099L403.682 458.804Z" fill="black"/>
<path d="M422.797 455.764H265.486V459.564H422.797V455.764Z" fill="#D0D2D5"/>
<path d="M572.885 103.581C572.891 102.282 572.642 100.994 572.151 99.7919C571.659 98.5893 570.936 97.4953 570.022 96.5722C569.108 95.6492 568.021 94.9152 566.824 94.4122C565.626 93.9092 564.341 93.647 563.042 93.6406H123.721C122.421 93.6462 121.136 93.9078 119.937 94.4104C118.739 94.9131 117.651 95.6469 116.737 96.5701C115.822 97.4932 115.098 98.5875 114.607 99.7905C114.115 100.993 113.865 102.282 113.872 103.581V369.875H572.885V103.581Z" fill="#444053"/>
<path d="M113.872 367.23V398.42C113.872 401.032 114.91 403.537 116.757 405.384C118.604 407.231 121.109 408.269 123.721 408.269H563.042C565.654 408.267 568.157 407.229 570.003 405.382C571.849 403.535 572.885 401.031 572.885 398.42V367.23H113.872Z" fill="#D0D2D5"/>
<path opacity="0.1" d="M556.166 110.359H132.871V349.75H556.166V110.359Z" fill="#FD3373"/>
<path d="M345.658 396.432C347.213 396.433 348.747 396.081 350.146 395.402C351.544 394.724 352.771 393.737 353.732 392.516C354.024 392.143 354.29 391.751 354.529 391.343L348.899 390.419L354.979 390.467C355.565 389.197 355.885 387.819 355.918 386.42C355.952 385.021 355.698 383.63 355.173 382.333L347.008 386.588L354.541 381.056C353.833 379.842 352.883 378.786 351.751 377.954C350.618 377.123 349.327 376.532 347.956 376.221C346.586 375.909 345.166 375.882 343.785 376.141C342.404 376.401 341.091 376.942 339.928 377.73C338.764 378.518 337.775 379.537 337.022 380.723C336.269 381.909 335.767 383.238 335.549 384.626C335.33 386.014 335.399 387.433 335.751 388.793C336.104 390.153 336.732 391.427 337.597 392.534C338.558 393.751 339.784 394.734 341.18 395.409C342.576 396.084 344.107 396.434 345.658 396.432Z" fill="#FD3373"/>
<path opacity="0.1" d="M355.921 408.268L403.214 455.763L395.961 408.268H355.921Z" fill="black"/>
<path d="M421.563 153.551H146.884C146.011 153.551 145.304 154.259 145.304 155.132V318.556C145.304 319.429 146.011 320.136 146.884 320.136H421.563C422.436 320.136 423.144 319.429 423.144 318.556V155.132C423.144 154.259 422.436 153.551 421.563 153.551Z" fill="white"/>
<path d="M556.287 110.385H133.144V124.368H556.287V110.385Z" fill="white"/>
<path d="M146.653 112.816H135.442C135.181 112.816 134.968 113.029 134.968 113.291V120.854C134.968 121.116 135.181 121.328 135.442 121.328H146.653C146.915 121.328 147.128 121.116 147.128 120.854V113.291C147.128 113.029 146.915 112.816 146.653 112.816Z" fill="#FD3373"/>
<path opacity="0.3" d="M406.983 112.816H280.016C279.821 112.816 279.664 112.974 279.664 113.169V120.975C279.664 121.17 279.821 121.328 280.016 121.328H406.983C407.178 121.328 407.336 121.17 407.336 120.975V113.169C407.336 112.974 407.178 112.816 406.983 112.816Z" fill="#FD3373"/>
<path d="M403.549 117.947H403.239L403.123 117.85C403.513 117.387 403.728 116.801 403.731 116.196C403.728 115.699 403.577 115.214 403.298 114.802C403.019 114.39 402.624 114.071 402.163 113.883C401.703 113.696 401.197 113.649 400.71 113.748C400.223 113.848 399.776 114.09 399.426 114.443C399.076 114.796 398.839 115.245 398.744 115.734C398.649 116.222 398.7 116.727 398.892 117.186C399.084 117.645 399.408 118.036 399.822 118.311C400.236 118.586 400.723 118.732 401.22 118.731C401.826 118.728 402.41 118.513 402.874 118.123L402.989 118.221V118.537L404.935 120.482L405.543 119.874L403.549 117.947ZM401.214 117.947C400.866 117.948 400.526 117.846 400.236 117.653C399.946 117.461 399.72 117.186 399.586 116.865C399.452 116.544 399.417 116.19 399.485 115.849C399.552 115.507 399.72 115.194 399.966 114.948C400.212 114.701 400.525 114.534 400.867 114.466C401.208 114.399 401.562 114.434 401.883 114.568C402.205 114.702 402.479 114.928 402.672 115.218C402.864 115.507 402.966 115.848 402.965 116.196C402.967 116.426 402.923 116.655 402.835 116.868C402.748 117.081 402.619 117.275 402.456 117.438C402.293 117.601 402.099 117.73 401.886 117.817C401.673 117.904 401.445 117.949 401.214 117.947Z" fill="#444053"/>
<path d="M550.208 121.328C552.558 121.328 554.464 119.423 554.464 117.072C554.464 114.722 552.558 112.816 550.208 112.816C547.858 112.816 545.952 114.722 545.952 117.072C545.952 119.423 547.858 121.328 550.208 121.328Z" fill="#FD3373"/>
<path d="M481.246 139.566H444.683C443.867 139.566 443.206 140.228 443.206 141.044V164.84C443.206 165.656 443.867 166.317 444.683 166.317H481.246C482.062 166.317 482.724 165.656 482.724 164.84V141.044C482.724 140.228 482.062 139.566 481.246 139.566Z" fill="white"/>
<path d="M543.757 139.566H493.43C493.225 139.566 493.059 139.732 493.059 139.937V143.451C493.059 143.656 493.225 143.822 493.43 143.822H543.757C543.962 143.822 544.128 143.656 544.128 143.451V139.937C544.128 139.732 543.962 139.566 543.757 139.566Z" fill="white"/>
<path d="M543.757 148.686H493.43C493.225 148.686 493.059 148.852 493.059 149.056V152.571C493.059 152.775 493.225 152.941 493.43 152.941H543.757C543.962 152.941 544.128 152.775 544.128 152.571V149.056C544.128 148.852 543.962 148.686 543.757 148.686Z" fill="white"/>
<path d="M543.757 157.807H493.43C493.225 157.807 493.059 157.973 493.059 158.178V161.692C493.059 161.896 493.225 162.062 493.43 162.062H543.757C543.962 162.062 544.128 161.896 544.128 161.692V158.178C544.128 157.973 543.962 157.807 543.757 157.807Z" fill="white"/>
<path d="M481.246 181.518H444.683C443.867 181.518 443.206 182.179 443.206 182.995V206.791C443.206 207.607 443.867 208.269 444.683 208.269H481.246C482.062 208.269 482.724 207.607 482.724 206.791V182.995C482.724 182.179 482.062 181.518 481.246 181.518Z" fill="white"/>
<path d="M543.757 181.518H493.43C493.225 181.518 493.059 181.684 493.059 181.888V185.403C493.059 185.607 493.225 185.773 493.43 185.773H543.757C543.962 185.773 544.128 185.607 544.128 185.403V181.888C544.128 181.684 543.962 181.518 543.757 181.518Z" fill="white"/>
<path d="M543.757 190.637H493.43C493.225 190.637 493.059 190.803 493.059 191.008V194.522C493.059 194.727 493.225 194.893 493.43 194.893H543.757C543.962 194.893 544.128 194.727 544.128 194.522V191.008C544.128 190.803 543.962 190.637 543.757 190.637Z" fill="white"/>
<path d="M543.727 199.756H493.46C493.239 199.756 493.059 199.936 493.059 200.157V203.61C493.059 203.832 493.239 204.012 493.46 204.012H543.727C543.949 204.012 544.128 203.832 544.128 203.61V200.157C544.128 199.936 543.949 199.756 543.727 199.756Z" fill="white"/>
<path d="M481.246 223.467H444.683C443.867 223.467 443.206 224.128 443.206 224.944V248.74C443.206 249.556 443.867 250.218 444.683 250.218H481.246C482.062 250.218 482.724 249.556 482.724 248.74V224.944C482.724 224.128 482.062 223.467 481.246 223.467Z" fill="white"/>
<path d="M543.727 223.467H493.46C493.239 223.467 493.059 223.646 493.059 223.868V227.321C493.059 227.543 493.239 227.723 493.46 227.723H543.727C543.949 227.723 544.128 227.543 544.128 227.321V223.868C544.128 223.646 543.949 223.467 543.727 223.467Z" fill="white"/>
<path d="M543.727 232.588H493.46C493.239 232.588 493.059 232.768 493.059 232.989V236.442C493.059 236.664 493.239 236.844 493.46 236.844H543.727C543.949 236.844 544.128 236.664 544.128 236.442V232.989C544.128 232.768 543.949 232.588 543.727 232.588Z" fill="white"/>
<path d="M543.727 241.707H493.46C493.239 241.707 493.059 241.887 493.059 242.108V245.562C493.059 245.783 493.239 245.963 493.46 245.963H543.727C543.949 245.963 544.128 245.783 544.128 245.562V242.108C544.128 241.887 543.949 241.707 543.727 241.707Z" fill="white"/>
<path d="M481.246 265.418H444.683C443.867 265.418 443.206 266.079 443.206 266.895V290.692C443.206 291.508 443.867 292.169 444.683 292.169H481.246C482.062 292.169 482.724 291.508 482.724 290.692V266.895C482.724 266.079 482.062 265.418 481.246 265.418Z" fill="white"/>
<path d="M543.727 265.418H493.46C493.239 265.418 493.059 265.598 493.059 265.819V269.273C493.059 269.494 493.239 269.674 493.46 269.674H543.727C543.949 269.674 544.128 269.494 544.128 269.273V265.819C544.128 265.598 543.949 265.418 543.727 265.418Z" fill="white"/>
<path d="M543.727 274.537H493.46C493.239 274.537 493.059 274.717 493.059 274.938V278.392C493.059 278.613 493.239 278.793 493.46 278.793H543.727C543.949 278.793 544.128 278.613 544.128 278.392V274.938C544.128 274.717 543.949 274.537 543.727 274.537Z" fill="white"/>
<path d="M543.727 283.658H493.46C493.239 283.658 493.059 283.838 493.059 284.059V287.513C493.059 287.734 493.239 287.914 493.46 287.914H543.727C543.949 287.914 544.128 287.734 544.128 287.513V284.059C544.128 283.838 543.949 283.658 543.727 283.658Z" fill="white"/>
<path d="M481.246 307.369H444.683C443.867 307.369 443.206 308.031 443.206 308.847V332.643C443.206 333.459 443.867 334.12 444.683 334.12H481.246C482.062 334.12 482.724 333.459 482.724 332.643V308.847C482.724 308.031 482.062 307.369 481.246 307.369Z" fill="white"/>
<path d="M543.727 307.369H493.46C493.239 307.369 493.059 307.549 493.059 307.77V311.224C493.059 311.445 493.239 311.625 493.46 311.625H543.727C543.949 311.625 544.128 311.445 544.128 311.224V307.77C544.128 307.549 543.949 307.369 543.727 307.369Z" fill="white"/>
<path d="M543.727 316.488H493.46C493.239 316.488 493.059 316.668 493.059 316.89V320.343C493.059 320.564 493.239 320.744 493.46 320.744H543.727C543.949 320.744 544.128 320.564 544.128 320.343V316.89C544.128 316.668 543.949 316.488 543.727 316.488Z" fill="white"/>
<path d="M543.727 325.607H493.46C493.239 325.607 493.059 325.787 493.059 326.009V329.462C493.059 329.684 493.239 329.863 493.46 329.863H543.727C543.949 329.863 544.128 329.684 544.128 329.462V326.009C544.128 325.787 543.949 325.607 543.727 325.607Z" fill="white"/>
<path opacity="0.1" d="M247.897 197.695H185.38V200.936H247.897V197.695Z" fill="#FD3373"/>
<path opacity="0.1" d="M196.956 180.562H190.938V197.695H196.956V180.562Z" fill="#FD3373"/>
<path opacity="0.1" d="M205.754 180.562H199.735V197.695H205.754V180.562Z" fill="#FD3373"/>
<path opacity="0.1" d="M214.551 180.562H208.532V197.695H214.551V180.562Z" fill="#FD3373"/>
<path opacity="0.1" d="M223.348 180.562H217.329V197.695H223.348V180.562Z" fill="#FD3373"/>
<path opacity="0.1" d="M232.145 180.562H226.126V197.695H232.145V180.562Z" fill="#FD3373"/>
<path opacity="0.1" d="M240.949 180.562H234.93V197.695H240.949V180.562Z" fill="#FD3373"/>
<path opacity="0.1" d="M196.956 183.803H190.938V185.657H196.956V183.803Z" fill="#FD3373"/>
<path opacity="0.1" d="M205.754 183.803H199.735V185.657H205.754V183.803Z" fill="#FD3373"/>
<path opacity="0.1" d="M214.551 183.803H208.532V185.657H214.551V183.803Z" fill="#FD3373"/>
<path opacity="0.1" d="M223.348 183.803H217.329V185.657H223.348V183.803Z" fill="#FD3373"/>
<path opacity="0.1" d="M232.145 183.803H226.126V185.657H232.145V183.803Z" fill="#FD3373"/>
<path opacity="0.1" d="M240.949 183.803H234.93V185.657H240.949V183.803Z" fill="#FD3373"/>
<path opacity="0.1" d="M196.956 192.139H190.938V193.993H196.956V192.139Z" fill="#FD3373"/>
<path opacity="0.1" d="M205.754 192.139H199.735V193.993H205.754V192.139Z" fill="#FD3373"/>
<path opacity="0.1" d="M214.551 192.139H208.532V193.993H214.551V192.139Z" fill="#FD3373"/>
<path opacity="0.1" d="M223.348 192.139H217.329V193.993H223.348V192.139Z" fill="#FD3373"/>
<path opacity="0.1" d="M232.145 192.139H226.126V193.993H232.145V192.139Z" fill="#FD3373"/>
<path opacity="0.1" d="M240.949 192.139H234.93V193.993H240.949V192.139Z" fill="#FD3373"/>
<path opacity="0.1" d="M384.963 206.031H322.446V209.272H384.963V206.031Z" fill="#FD3373"/>
<path opacity="0.1" d="M334.022 188.898H328.003V206.031H334.022V188.898Z" fill="#FD3373"/>
<path opacity="0.1" d="M342.819 188.898H336.8V206.031H342.819V188.898Z" fill="#FD3373"/>
<path opacity="0.1" d="M351.616 188.898H345.598V206.031H351.616V188.898Z" fill="#FD3373"/>
<path opacity="0.1" d="M360.42 188.898H354.401V206.031H360.42V188.898Z" fill="#FD3373"/>
<path opacity="0.1" d="M369.217 188.898H363.198V206.031H369.217V188.898Z" fill="#FD3373"/>
<path opacity="0.1" d="M378.014 188.898H371.995V206.031H378.014V188.898Z" fill="#FD3373"/>
<path opacity="0.1" d="M334.022 192.139H328.003V193.993H334.022V192.139Z" fill="#FD3373"/>
<path opacity="0.1" d="M342.819 192.139H336.8V193.993H342.819V192.139Z" fill="#FD3373"/>
<path opacity="0.1" d="M351.616 192.139H345.598V193.993H351.616V192.139Z" fill="#FD3373"/>
<path opacity="0.1" d="M360.42 192.139H354.401V193.993H360.42V192.139Z" fill="#FD3373"/>
<path opacity="0.1" d="M369.217 192.139H363.198V193.993H369.217V192.139Z" fill="#FD3373"/>
<path opacity="0.1" d="M378.014 192.139H371.995V193.993H378.014V192.139Z" fill="#FD3373"/>
<path opacity="0.1" d="M334.022 200.475H328.003V202.329H334.022V200.475Z" fill="#FD3373"/>
<path opacity="0.1" d="M342.819 200.475H336.8V202.329H342.819V200.475Z" fill="#FD3373"/>
<path opacity="0.1" d="M351.616 200.475H345.598V202.329H351.616V200.475Z" fill="#FD3373"/>
<path opacity="0.1" d="M360.42 200.475H354.401V202.329H360.42V200.475Z" fill="#FD3373"/>
<path opacity="0.1" d="M369.217 200.475H363.198V202.329H369.217V200.475Z" fill="#FD3373"/>
<path opacity="0.1" d="M378.014 200.475H371.995V202.329H378.014V200.475Z" fill="#FD3373"/>
<path opacity="0.1" d="M384.963 229.645H322.446V232.885H384.963V229.645Z" fill="#FD3373"/>
<path opacity="0.1" d="M334.022 212.512H328.003V229.644H334.022V212.512Z" fill="#FD3373"/>
<path opacity="0.1" d="M342.819 212.512H336.8V229.644H342.819V212.512Z" fill="#FD3373"/>
<path opacity="0.1" d="M351.616 212.512H345.598V229.644H351.616V212.512Z" fill="#FD3373"/>
<path opacity="0.1" d="M360.42 212.512H354.401V229.644H360.42V212.512Z" fill="#FD3373"/>
<path opacity="0.1" d="M369.217 212.512H363.198V229.644H369.217V212.512Z" fill="#FD3373"/>
<path opacity="0.1" d="M378.014 212.512H371.995V229.644H378.014V212.512Z" fill="#FD3373"/>
<path opacity="0.1" d="M334.022 215.752H328.003V217.606H334.022V215.752Z" fill="#FD3373"/>
<path opacity="0.1" d="M342.819 215.752H336.8V217.606H342.819V215.752Z" fill="#FD3373"/>
<path opacity="0.1" d="M351.616 215.752H345.598V217.606H351.616V215.752Z" fill="#FD3373"/>
<path opacity="0.1" d="M360.42 215.752H354.401V217.606H360.42V215.752Z" fill="#FD3373"/>
<path opacity="0.1" d="M369.217 215.752H363.198V217.606H369.217V215.752Z" fill="#FD3373"/>
<path opacity="0.1" d="M378.014 215.752H371.995V217.606H378.014V215.752Z" fill="#FD3373"/>
<path opacity="0.1" d="M334.022 224.088H328.003V225.942H334.022V224.088Z" fill="#FD3373"/>
<path opacity="0.1" d="M342.819 224.088H336.8V225.942H342.819V224.088Z" fill="#FD3373"/>
<path opacity="0.1" d="M351.616 224.088H345.598V225.942H351.616V224.088Z" fill="#FD3373"/>
<path opacity="0.1" d="M360.42 224.088H354.401V225.942H360.42V224.088Z" fill="#FD3373"/>
<path opacity="0.1" d="M369.217 224.088H363.198V225.942H369.217V224.088Z" fill="#FD3373"/>
<path opacity="0.1" d="M378.014 224.088H371.995V225.942H378.014V224.088Z" fill="#FD3373"/>
<path opacity="0.1" d="M223.731 234.338C223.265 233.74 222.838 233.113 222.454 232.459L231.458 230.982L221.731 231.055C220.798 229.023 220.288 226.823 220.234 224.588C220.18 222.353 220.581 220.131 221.414 218.056L234.455 224.817L222.411 215.965C223.532 213.999 225.047 212.286 226.861 210.933C228.675 209.581 230.749 208.618 232.953 208.105C235.156 207.592 237.443 207.54 239.667 207.953C241.892 208.366 244.007 209.234 245.881 210.504C247.754 211.773 249.344 213.416 250.553 215.329C251.761 217.242 252.56 219.385 252.901 221.622C253.241 223.859 253.116 226.142 252.532 228.328C251.948 230.514 250.919 232.556 249.508 234.326C250.241 235.25 250.869 236.254 251.381 237.317L239.696 243.397L252.153 239.22C253.025 241.803 253.239 244.562 252.777 247.248C252.316 249.935 251.192 252.464 249.508 254.608C251.417 257.028 252.606 259.937 252.939 263.001C253.271 266.066 252.735 269.162 251.39 271.935C250.045 274.709 247.946 277.048 245.334 278.684C242.722 280.32 239.702 281.188 236.62 281.188C233.537 281.188 230.517 280.32 227.905 278.684C225.293 277.048 223.194 274.709 221.849 271.935C220.505 269.162 219.968 266.066 220.301 263.001C220.633 259.937 221.822 257.028 223.731 254.608C221.457 251.715 220.221 248.143 220.221 244.464C220.221 240.784 221.457 237.212 223.731 234.319V234.338Z" fill="#FD3373"/>
<path opacity="0.1" d="M253.023 244.48C253.023 248.156 251.785 251.724 249.508 254.609C251.417 257.029 252.606 259.938 252.939 263.003C253.271 266.067 252.735 269.163 251.39 271.937C250.045 274.71 247.946 277.049 245.334 278.686C242.722 280.322 239.702 281.19 236.62 281.19C233.537 281.19 230.517 280.322 227.905 278.686C225.293 277.049 223.194 274.71 221.849 271.937C220.505 269.163 219.968 266.067 220.301 263.003C220.633 259.938 221.822 257.029 223.731 254.609C221.524 251.831 253.023 242.638 253.023 244.48Z" fill="#FD3373"/>
<path opacity="0.2" d="M239.246 285.543C239.275 285.586 239.301 285.63 239.325 285.676H233.756C233.787 285.634 233.805 285.585 233.835 285.543C233.356 284.709 233.108 283.762 233.118 282.801C233.115 282.142 233.229 281.487 233.452 280.867C233.762 280.916 234.145 280.971 234.589 281.019C235.881 281.148 237.182 281.148 238.474 281.019C238.847 280.983 239.23 280.934 239.623 280.873C239.62 280.883 239.62 280.894 239.623 280.904C239.845 281.514 239.956 282.158 239.951 282.807C239.964 283.765 239.72 284.709 239.246 285.543Z" fill="#3F3D56"/>
<path opacity="0.1" d="M219.232 285.676H188.226C188.159 285.5 188.098 285.311 188.043 285.129C186.951 281.616 187.077 277.837 188.402 274.404C185.375 272.312 183.139 269.262 182.053 265.746C180.967 262.23 181.094 258.451 182.414 255.016C181.79 254.587 181.199 254.114 180.644 253.599L188.803 249.532L179.526 252.475C178.034 250.81 176.898 248.859 176.187 246.74C175.476 244.62 175.205 242.378 175.392 240.151L189.867 242.765L175.75 237.859C176.237 235.647 177.177 233.559 178.51 231.728C179.843 229.896 181.541 228.36 183.496 227.217C185.452 226.074 187.623 225.347 189.872 225.084C192.122 224.821 194.402 225.026 196.569 225.686C198.736 226.347 200.742 227.449 202.462 228.923C204.182 230.397 205.579 232.211 206.564 234.251C207.549 236.291 208.101 238.513 208.185 240.776C208.27 243.04 207.885 245.297 207.054 247.404C208.033 248.086 208.936 248.87 209.748 249.745L200.373 258.992L211.043 251.32C212.642 253.532 213.664 256.108 214.016 258.815C214.368 261.523 214.04 264.275 213.061 266.823C216.006 268.862 218.202 271.808 219.316 275.212C220.431 278.616 220.401 282.291 219.232 285.676Z" fill="#FD3373"/>
<path opacity="0.1" d="M219.232 285.677H188.226C188.159 285.5 188.098 285.312 188.043 285.13C186.951 281.616 187.077 277.837 188.402 274.405C185.484 272.386 212.86 254.299 213.402 256.062C214.494 259.577 214.367 263.359 213.043 266.793C215.997 268.831 218.202 271.781 219.319 275.192C220.437 278.602 220.406 282.285 219.232 285.677Z" fill="#FD3373"/>
<path opacity="0.1" d="M359.52 263.461C357.637 266.622 354.743 269.055 351.306 270.368C351.453 271.538 351.476 272.72 351.373 273.894L338.235 273.104L351.069 275.888C350.691 277.638 350.03 279.314 349.112 280.85C347.993 282.731 346.504 284.365 344.734 285.653H326.848V286.121H308.609C308.645 285.963 308.682 285.811 308.724 285.653C309.39 283.137 310.644 280.816 312.383 278.881C314.121 276.945 316.296 275.451 318.725 274.521C318.259 270.871 319.032 267.17 320.92 264.013C322.809 260.855 325.704 258.423 329.14 257.108C329.044 256.356 328.999 255.598 329.006 254.84L337.487 258.19L329.097 253.26C329.345 251.037 330.043 248.889 331.15 246.947C332.258 245.004 333.75 243.309 335.536 241.963L343.263 254.476L337.469 240.699C340.625 238.952 344.268 238.294 347.836 238.826C351.404 239.357 354.697 241.049 357.207 243.64C359.716 246.231 361.303 249.576 361.721 253.159C362.139 256.742 361.366 260.362 359.52 263.461Z" fill="#FD3373"/>
<path opacity="0.1" d="M349.112 280.873C347.993 282.754 346.504 284.388 344.734 285.676H326.848V286.144H308.609C308.645 285.986 308.682 285.834 308.724 285.676C309.39 283.161 310.644 280.84 312.383 278.904C314.121 276.969 316.296 275.474 318.725 274.544C318.573 273.328 322.106 273.511 326.817 274.301C336.052 275.851 349.738 279.827 349.112 280.873Z" fill="#FD3373"/>
<path d="M271.584 237.092C271.584 237.092 273.833 249.252 268.812 253.222C263.79 257.192 273.067 280.988 288.376 278.21C303.685 275.431 309.922 255.471 309.922 255.471C309.922 255.471 294.589 252.298 300.274 236.168L271.584 237.092Z" fill="#EE8E9E"/>
<path opacity="0.1" d="M271.584 237.092C271.584 237.092 273.833 249.252 268.812 253.222C263.79 257.192 273.067 280.988 288.376 278.21C303.685 275.431 309.922 255.471 309.922 255.471C309.922 255.471 294.589 252.298 300.274 236.168L271.584 237.092Z" fill="black"/>
<path d="M285.135 246.018C299.154 246.018 310.518 234.654 310.518 220.635C310.518 206.616 299.154 195.252 285.135 195.252C271.117 195.252 259.753 206.616 259.753 220.635C259.753 234.654 271.117 246.018 285.135 246.018Z" fill="#EE8E9E"/>
<path d="M326.848 268.891V286.145H243.034V269.675C243.034 267.586 243.649 265.544 244.802 263.803C245.956 262.063 247.597 260.7 249.521 259.887L251.922 258.865C258.002 256.275 265.389 253.059 267.802 251.721C268.067 251.589 268.315 251.428 268.544 251.241C269.863 249.922 269.602 251.636 269.602 251.636C269.602 251.636 269.565 251.965 269.541 252.53C269.395 256.415 269.954 271.681 287.847 270.411C305.301 269.195 306.086 257.388 305.909 253.916C305.899 253.595 305.873 253.274 305.83 252.956C307.038 253.243 308.219 253.629 309.363 254.111C313.01 255.46 318.397 257.625 319.838 258.646C320.288 258.962 320.835 259.291 321.431 259.625C322.107 260.002 322.739 260.453 323.315 260.969C324.427 261.967 325.316 263.189 325.925 264.554C326.534 265.919 326.848 267.396 326.848 268.891Z" fill="#FD3373"/>
<path opacity="0.1" d="M309.363 254.111C307.886 260.957 303.247 273.779 286.528 274.113C268.714 274.466 267.681 256.749 267.796 251.721C268.065 251.593 268.316 251.432 268.544 251.241C269.87 249.922 269.602 251.636 269.602 251.636C269.602 251.636 267.359 271.864 287.841 270.411C308.323 268.958 305.806 252.962 305.806 252.962C305.806 252.864 307.332 253.393 309.363 254.111Z" fill="black"/>
<path d="M255.09 221.905C255.933 221.695 256.819 221.741 257.635 222.039C258.451 222.337 259.159 222.873 259.668 223.577C260.592 224.872 260.732 226.435 260.847 227.93C261.948 228.161 262.568 226.915 262.671 225.973C263.079 222.136 263.109 218.227 264.398 214.518C265.687 210.81 268.502 207.223 272.824 205.806C274.301 205.294 275.88 205.144 277.427 205.368C278.345 205.52 279.208 205.842 280.12 205.976C283.281 206.499 286.716 205.003 289.677 206.043C291.537 206.7 292.717 208.214 293.586 209.727C293.964 210.544 294.478 211.29 295.106 211.934C296.365 213.065 298.334 213.357 300.14 213.71C301.946 214.062 303.916 214.676 304.688 216.069C305.381 217.327 304.87 218.78 304.639 220.142C304.282 222.299 304.643 224.514 305.667 226.447C306.001 227.055 306.682 227.79 307.49 227.59C307.852 227.467 308.159 227.219 308.354 226.891C310.427 223.985 310.372 220.203 312.974 217.583C313.844 216.707 314.968 216.026 315.813 215.151C316.453 214.502 316.922 213.705 317.179 212.831C317.435 211.957 317.472 211.032 317.285 210.141C316.817 208.135 315.212 206.493 313.917 204.73C312.235 202.496 311.01 199.953 310.311 197.246C310.189 196.931 310.189 196.582 310.311 196.267C310.557 195.948 310.873 195.69 311.235 195.513C311.94 195.04 312.449 194.327 312.666 193.507C312.883 192.687 312.794 191.816 312.415 191.057C311.679 189.555 310.062 188.412 308.238 187.731C306.388 187.123 304.478 186.715 302.542 186.515C301.265 186.697 299.769 185.974 299.374 184.952C299.198 184.496 299.198 184.004 299.021 183.548C298.782 183.09 298.436 182.696 298.013 182.4C297.59 182.104 297.102 181.914 296.59 181.846C295.502 181.67 294.389 181.749 293.337 182.077C292.121 182.417 290.741 182.928 289.689 182.332C289.136 182.022 288.832 181.457 288.236 181.201C287.02 180.691 285.768 181.724 284.898 182.575C284.061 183.468 283.032 184.16 281.889 184.6C281.286 184.83 280.64 184.926 279.995 184.883C279.351 184.84 278.724 184.659 278.156 184.351C277.323 183.822 276.904 182.97 276.241 182.296C274.989 181.179 273.388 180.534 271.712 180.472C269.988 180.38 268.262 180.569 266.599 181.031C263.425 181.804 260.394 183.077 257.619 184.8C256.223 185.568 255.039 186.668 254.172 188.004C253.659 189.029 253.394 190.16 253.4 191.306C253.266 194.899 254.458 198.681 257.564 201.198C255.667 201.988 255.029 203.927 254.585 205.648C253.874 208.396 253.163 211.187 253.43 213.983C253.564 215.43 253.959 216.877 253.746 218.318C253.576 218.997 253.482 219.692 253.467 220.391C253.556 220.777 253.758 221.126 254.047 221.396C254.337 221.666 254.699 221.843 255.09 221.905Z" fill="#454B69"/>
<g opacity="0.1">
<path opacity="0.1" d="M316.89 209.01C316.617 209.606 316.247 210.152 315.795 210.627C314.95 211.515 313.826 212.202 312.956 213.059C310.354 215.661 310.409 219.467 308.336 222.373C308.142 222.702 307.835 222.948 307.472 223.066C306.682 223.273 306.001 222.555 305.648 221.923C305.247 221.153 304.942 220.336 304.743 219.491C304.7 219.704 304.657 219.917 304.621 220.099C304.264 222.257 304.625 224.472 305.648 226.404C305.983 227.012 306.664 227.748 307.472 227.547C307.834 227.425 308.141 227.177 308.336 226.848C310.409 223.942 310.354 220.16 312.956 217.54C313.826 216.664 314.95 215.983 315.795 215.108C316.435 214.459 316.904 213.662 317.161 212.788C317.417 211.914 317.454 210.99 317.267 210.098C317.173 209.725 317.047 209.361 316.89 209.01Z" fill="black"/>
<path opacity="0.1" d="M311.223 191.014C310.86 191.189 310.543 191.448 310.299 191.768C310.178 192.081 310.178 192.428 310.299 192.741C310.539 193.686 310.846 194.612 311.217 195.514C311.922 195.041 312.43 194.328 312.647 193.508C312.865 192.688 312.775 191.816 312.397 191.057C312.278 190.807 312.136 190.568 311.971 190.346C311.755 190.603 311.503 190.829 311.223 191.014Z" fill="black"/>
<path opacity="0.1" d="M257.601 196.65C255.447 194.875 254.029 192.364 253.619 189.604C253.51 190.148 253.449 190.702 253.437 191.257C253.297 193.912 253.997 196.543 255.437 198.778C255.873 197.827 256.643 197.069 257.601 196.65Z" fill="black"/>
<path opacity="0.1" d="M304.639 215.661C304.87 214.293 305.381 212.84 304.688 211.588C303.915 210.189 301.946 209.581 300.14 209.229C298.334 208.876 296.365 208.578 295.106 207.454C294.478 206.809 293.964 206.063 293.586 205.247C292.729 203.733 291.537 202.207 289.677 201.562C286.716 200.523 283.281 202.012 280.12 201.495C279.208 201.343 278.344 201.027 277.426 200.887C275.879 200.661 274.301 200.811 272.824 201.325C268.502 202.748 265.687 206.335 264.398 210.037C263.109 213.74 263.078 217.649 262.671 221.492C262.568 222.428 261.948 223.68 260.847 223.449C260.732 221.948 260.592 220.409 259.668 219.09C259.158 218.387 258.45 217.853 257.634 217.556C256.818 217.259 255.932 217.213 255.09 217.424C254.579 217.31 254.125 217.02 253.807 216.604C253.874 217.161 253.874 217.724 253.807 218.282C253.636 218.96 253.543 219.655 253.527 220.355C253.606 220.744 253.799 221.101 254.081 221.379C254.364 221.658 254.724 221.845 255.114 221.917C255.957 221.707 256.843 221.753 257.659 222.051C258.475 222.349 259.183 222.885 259.692 223.589C260.616 224.884 260.756 226.447 260.872 227.942C261.972 228.173 262.592 226.927 262.695 225.985C263.103 222.148 263.133 218.239 264.422 214.53C265.711 210.822 268.526 207.235 272.848 205.818C274.325 205.306 275.904 205.156 277.451 205.38C278.369 205.532 279.232 205.855 280.144 205.988C283.305 206.511 286.74 205.016 289.701 206.055C291.562 206.712 292.741 208.226 293.61 209.74C293.989 210.556 294.503 211.302 295.13 211.946C296.389 213.077 298.359 213.369 300.164 213.722C301.97 214.074 303.812 214.646 304.621 215.935C304.59 215.844 304.621 215.752 304.639 215.661Z" fill="black"/>
<path opacity="0.1" d="M253.783 213.771C253.883 212.639 253.815 211.498 253.582 210.385C253.404 211.56 253.365 212.751 253.467 213.935C253.467 214.239 253.534 214.543 253.576 214.841C253.643 214.483 253.734 214.13 253.783 213.771Z" fill="black"/>
</g>
<path d="M224.029 310.676V299.702C224.029 299.62 224.061 299.541 224.12 299.483C224.178 299.425 224.257 299.392 224.339 299.392H225.585C225.667 299.392 225.746 299.425 225.804 299.483C225.863 299.541 225.895 299.62 225.895 299.702V304.268L230.954 299.58C231.072 299.481 231.217 299.417 231.37 299.396C231.524 299.375 231.68 299.398 231.821 299.461C231.963 299.524 232.083 299.626 232.169 299.755C232.256 299.883 232.304 300.034 232.309 300.188V310.129C232.304 310.284 232.256 310.434 232.169 310.562C232.083 310.691 231.963 310.793 231.821 310.856C231.68 310.919 231.524 310.942 231.37 310.921C231.217 310.9 231.072 310.836 230.954 310.737L225.895 306.08V310.621C225.895 310.703 225.863 310.782 225.804 310.84C225.746 310.899 225.667 310.931 225.585 310.931H224.339C224.265 310.932 224.194 310.907 224.137 310.861C224.08 310.814 224.042 310.748 224.029 310.676Z" fill="#444053"/>
<path d="M346.248 299.702V310.676C346.248 310.717 346.24 310.758 346.224 310.796C346.208 310.834 346.185 310.868 346.155 310.897C346.126 310.926 346.091 310.949 346.052 310.964C346.014 310.979 345.973 310.987 345.932 310.986H344.716C344.634 310.986 344.555 310.953 344.497 310.895C344.439 310.837 344.406 310.758 344.406 310.676V306.11L339.348 310.791C339.228 310.89 339.083 310.953 338.93 310.974C338.776 310.995 338.62 310.972 338.478 310.909C338.337 310.846 338.216 310.744 338.129 310.616C338.042 310.488 337.992 310.338 337.986 310.183V300.206C337.992 300.051 338.042 299.902 338.129 299.773C338.216 299.645 338.337 299.544 338.478 299.481C338.62 299.417 338.776 299.395 338.93 299.416C339.083 299.437 339.228 299.5 339.348 299.598L344.406 304.255V299.72C344.406 299.638 344.439 299.559 344.497 299.501C344.555 299.442 344.634 299.41 344.716 299.41H345.932C346.012 299.408 346.09 299.438 346.149 299.492C346.208 299.546 346.243 299.622 346.248 299.702Z" fill="#444053"/>
<path d="M283.075 311.15H280.6C280.278 311.15 279.968 311.022 279.74 310.794C279.512 310.566 279.384 310.256 279.384 309.934V300.851C279.384 300.528 279.512 300.219 279.74 299.991C279.968 299.763 280.278 299.635 280.6 299.635H283.075C283.397 299.635 283.706 299.763 283.934 299.991C284.162 300.219 284.291 300.528 284.291 300.851V309.934C284.291 310.256 284.162 310.566 283.934 310.794C283.706 311.022 283.397 311.15 283.075 311.15ZM290.917 309.934V300.851C290.917 300.528 290.789 300.219 290.561 299.991C290.333 299.763 290.024 299.635 289.701 299.635H287.203C286.88 299.635 286.571 299.763 286.343 299.991C286.115 300.219 285.987 300.528 285.987 300.851V309.934C285.987 310.256 286.115 310.566 286.343 310.794C286.571 311.022 286.88 311.15 287.203 311.15H289.677C289.839 311.153 290 311.124 290.15 311.064C290.3 311.005 290.437 310.916 290.553 310.802C290.668 310.689 290.76 310.554 290.823 310.405C290.885 310.256 290.917 310.096 290.917 309.934Z" fill="#444053"/>
<path opacity="0.6" d="M358.091 284.91H212.18V286.533H358.091V284.91Z" fill="#444053"/>
<path d="M257.236 289.568C259.362 289.568 261.085 287.845 261.085 285.72C261.085 283.594 259.362 281.871 257.236 281.871C255.111 281.871 253.388 283.594 253.388 285.72C253.388 287.845 255.111 289.568 257.236 289.568Z" fill="#444053"/>
<path d="M257.236 284.91H212.18V286.533H257.236V284.91Z" fill="#444053"/>
<path d="M581.871 468.129C601.839 468.129 618.027 465.015 618.027 461.174C618.027 457.333 601.839 454.219 581.871 454.219C561.903 454.219 545.715 457.333 545.715 461.174C545.715 465.015 561.903 468.129 581.871 468.129Z" fill="#FD3373"/>
<path d="M581.269 463.727C583.593 463.727 585.476 461.261 585.476 458.219C585.476 455.177 583.593 452.711 581.269 452.711C578.946 452.711 577.062 455.177 577.062 458.219C577.062 461.261 578.946 463.727 581.269 463.727Z" fill="#3F3D56"/>
<path d="M581.269 456.991C583.593 456.991 585.476 454.525 585.476 451.483C585.476 448.441 583.593 445.975 581.269 445.975C578.946 445.975 577.062 448.441 577.062 451.483C577.062 454.525 578.946 456.991 581.269 456.991Z" fill="#3F3D56"/>
<path d="M581.269 450.261C583.593 450.261 585.476 447.795 585.476 444.752C585.476 441.71 583.593 439.244 581.269 439.244C578.946 439.244 577.062 441.71 577.062 444.752C577.062 447.795 578.946 450.261 581.269 450.261Z" fill="#3F3D56"/>
<path d="M581.269 443.524C583.593 443.524 585.476 441.058 585.476 438.016C585.476 434.974 583.593 432.508 581.269 432.508C578.946 432.508 577.062 434.974 577.062 438.016C577.062 441.058 578.946 443.524 581.269 443.524Z" fill="#3F3D56"/>
<path d="M581.269 436.788C583.593 436.788 585.476 434.322 585.476 431.28C585.476 428.238 583.593 425.771 581.269 425.771C578.946 425.771 577.062 428.238 577.062 431.28C577.062 434.322 578.946 436.788 581.269 436.788Z" fill="#3F3D56"/>
<path d="M581.269 430.052C583.593 430.052 585.476 427.586 585.476 424.543C585.476 421.501 583.593 419.035 581.269 419.035C578.946 419.035 577.062 421.501 577.062 424.543C577.062 427.586 578.946 430.052 581.269 430.052Z" fill="#3F3D56"/>
<path d="M581.269 423.315C583.593 423.315 585.476 420.849 585.476 417.807C585.476 414.765 583.593 412.299 581.269 412.299C578.946 412.299 577.062 414.765 577.062 417.807C577.062 420.849 578.946 423.315 581.269 423.315Z" fill="#3F3D56"/>
<path d="M597.021 371.724C597.595 370.99 598.119 370.218 598.59 369.413L587.525 367.589L599.49 367.681C600.635 365.183 601.26 362.478 601.326 359.731C601.392 356.984 600.897 354.253 599.873 351.703L583.835 360.032L598.632 349.156C597.246 346.759 595.381 344.673 593.153 343.028C590.925 341.383 588.383 340.215 585.684 339.596C582.985 338.977 580.187 338.921 577.465 339.43C574.744 339.94 572.156 341.004 569.863 342.558C567.571 344.111 565.623 346.12 564.141 348.459C562.659 350.798 561.675 353.418 561.249 356.154C560.824 358.89 560.966 361.685 561.668 364.363C562.37 367.042 563.616 369.548 565.328 371.724C564.437 372.856 563.666 374.078 563.03 375.372L577.39 382.831L562.082 377.694C561.007 380.871 560.741 384.266 561.308 387.571C561.875 390.877 563.256 393.989 565.328 396.626C562.99 399.6 561.537 403.172 561.133 406.934C560.729 410.695 561.392 414.494 563.045 417.896C564.698 421.299 567.275 424.167 570.482 426.174C573.688 428.181 577.395 429.246 581.178 429.246C584.961 429.246 588.667 428.181 591.874 426.174C595.08 424.167 597.657 421.299 599.311 417.896C600.964 414.494 601.627 410.695 601.223 406.934C600.819 403.172 599.365 399.6 597.027 396.626C599.82 393.072 601.338 388.683 601.338 384.163C601.338 379.643 599.82 375.254 597.027 371.699L597.021 371.724Z" fill="#FD3373"/>
<path opacity="0.1" d="M561.018 384.187C561.009 388.709 562.528 393.101 565.328 396.651C562.99 399.625 561.537 403.197 561.133 406.958C560.729 410.719 561.392 414.518 563.045 417.921C564.698 421.323 567.275 424.192 570.482 426.199C573.688 428.206 577.395 429.27 581.178 429.27C584.961 429.27 588.667 428.206 591.874 426.199C595.08 424.192 597.657 421.323 599.311 417.921C600.964 414.518 601.626 410.719 601.223 406.958C600.819 403.197 599.365 399.625 597.027 396.651C599.727 393.228 561.018 381.926 561.018 384.187Z" fill="black"/>
<path opacity="0.1" d="M176.31 505.568C209.551 505.568 236.498 499.852 236.498 492.801C236.498 485.749 209.551 480.033 176.31 480.033C143.068 480.033 116.121 485.749 116.121 492.801C116.121 499.852 143.068 505.568 176.31 505.568Z" fill="#FD3373"/>
<path d="M196.464 491.317C195.248 490.874 193.947 490.947 192.676 490.807C190.038 490.502 187.581 489.31 185.709 487.426C184.505 486.209 183.558 484.761 182.925 483.17C183.326 483.316 183.727 483.468 184.141 483.633C182.925 480.793 184.201 477.608 185.32 474.738C187.217 469.874 189.01 464.984 190.7 460.067C194.956 447.61 198.604 434.654 198.525 421.4C198.525 416.609 197.643 412.08 197.473 407.295C197.346 403.744 197.893 400.2 197.868 396.643C197.868 396.145 197.868 395.652 197.832 395.154C198.919 394.202 199.774 393.013 200.329 391.678C200.885 390.344 201.127 388.899 201.036 387.457C200.974 386.705 200.866 385.958 200.714 385.219C200.498 383.936 200.214 382.666 199.862 381.413C199.461 380.094 198.914 378.83 198.446 377.541C197.54 375.042 196.926 372.44 196.154 369.898C196.44 369.928 196.719 370.004 196.981 370.123C196.786 369.895 196.652 369.621 196.592 369.327C196.138 367.709 195.892 366.04 195.862 364.36L196.379 364.129C196.612 362.488 196.527 360.819 196.13 359.21C196.421 356.602 196.877 353.975 197.157 351.379C197.26 350.407 197.218 349.185 196.324 348.948C196.142 347.555 196.069 346.145 195.996 344.74C195.74 339.84 195.487 334.942 195.236 330.046C194.981 325.127 194.725 320.215 194.628 315.29C194.561 312.165 194.525 308.931 193.783 305.939C193.911 304.506 193.765 303.062 193.351 301.683C192.22 298.102 188.706 295.263 185.144 295.464C184.081 293.944 182.767 292.615 181.259 291.536C181.97 289.943 182.821 288.302 183.52 287.013C189.223 285.159 193.394 279.535 193.394 272.847C193.402 270.399 192.829 267.984 191.722 265.801C191.826 265.532 191.916 265.258 191.989 264.98C192.295 263.667 192.199 262.292 191.716 261.034C191.545 260.551 191.342 260.08 191.108 259.624C190.95 259.32 190.779 259.016 190.603 258.724L190.293 258.256C190.105 257.97 189.91 257.696 189.685 257.429C189.253 256.849 188.791 256.293 188.299 255.763C187.694 255.108 187.026 254.513 186.305 253.988C185.327 253.261 184.209 252.746 183.022 252.474C182.335 252.338 181.636 252.275 180.937 252.285C180.517 252.285 180.091 252.285 179.672 252.322C178.821 252.37 177.976 252.431 177.131 252.425C176.851 252.425 176.565 252.425 176.286 252.383C174.798 252.184 173.327 251.877 171.884 251.465L171.154 251.313C170.905 251.264 170.662 251.221 170.413 251.191C169.746 251.102 169.073 251.061 168.4 251.069H167.725C167.051 251.102 166.38 251.171 165.713 251.276L165.044 251.379C163.356 251.644 161.71 252.133 160.15 252.833C159.95 252.924 159.743 253.027 159.542 253.137L159.421 253.203C159.257 253.289 159.092 253.38 158.934 253.477L158.843 253.532L158.326 253.86L158.284 253.89C153.457 257.137 150.605 263.29 149.882 269.394C149.073 276.246 150.49 283.152 151.906 289.895L153.183 295.975C153.238 296.248 153.298 296.516 153.353 296.789C151.558 298.262 150.177 300.177 149.347 302.346C148.131 305.386 148.1 308.675 148.198 311.97C148.198 312.639 148.234 313.308 148.301 313.977C148.149 315.241 148.015 316.512 147.93 317.789C147.547 323.686 148.265 329.614 148.076 335.523C147.93 340.077 147.243 344.643 147.578 349.166C147.869 353.179 148.945 357.07 150.009 360.943L151.541 366.463C151.591 366.749 151.724 367.013 151.924 367.223C152.176 367.392 152.484 367.456 152.782 367.4C151.785 369.664 150.952 371.996 150.289 374.379C149.831 375.839 149.529 377.343 149.389 378.866C149.189 381.651 149.833 384.417 150.478 387.122C151.45 391.176 152.419 395.245 153.384 399.331C154.065 402.188 154.743 405.043 155.42 407.897C156.758 413.527 158.101 419.193 158.351 424.987C158.49 427.897 158.286 430.813 157.743 433.675C155.989 442.246 155.734 451.057 156.989 459.715C158.003 467.019 159.649 474.223 161.907 481.243C162.4 480.982 162.898 480.739 163.409 480.514L163.196 480.909C162.495 482.125 161.846 483.371 161.251 484.648C160.849 485.478 160.502 486.333 160.211 487.207C159.433 489.639 159.311 492.229 159.202 494.789C159.146 495.281 159.19 495.779 159.329 496.254C159.664 497.172 160.624 497.64 161.518 497.896C164.145 498.643 166.874 498.376 169.604 498.023C169.617 498.084 169.635 498.143 169.659 498.2C169.993 499.118 170.948 499.586 171.847 499.841C175.605 500.911 179.569 499.902 183.441 499.537C187.314 499.172 191.12 499.44 194.847 498.546C195.402 498.427 195.936 498.222 196.427 497.938C197.386 497.268 198.089 496.293 198.422 495.172C198.538 494.882 198.616 494.577 198.653 494.266C198.805 492.935 197.668 491.761 196.464 491.317ZM183.606 435.013C183.396 436.437 182.987 437.825 182.39 439.135C179.465 445.354 177.368 451.929 176.152 458.693C175.354 463.162 174.893 467.683 174.772 472.221C174.711 475.565 174.839 479.067 173.446 482.07L173.951 481.991C173.793 482.283 173.641 482.599 173.495 482.83L173.422 482.964C172.58 481.53 172.017 479.95 171.762 478.307C171.762 478.252 171.489 478.209 171.069 478.185C169.351 468.581 168.755 458.81 169.294 449.069C169.302 447.888 169.466 446.712 169.78 445.573C170.09 444.594 170.613 443.701 170.996 442.752C171.604 441.159 172.012 439.497 172.212 437.803C172.874 433.475 173.131 429.095 172.978 424.72C172.832 420.591 173.787 416.488 174.602 412.378C174.991 410.426 175.349 408.468 175.544 406.511L175.58 406.116C179.198 412.083 181.725 418.646 183.046 425.498C183.78 428.613 183.97 431.833 183.606 435.013ZM157.585 347.148L157.779 347.318C158.367 347.835 158.908 348.403 159.396 349.014C159.639 349.281 159.815 349.602 159.907 349.951C160.089 350.838 159.354 351.592 158.752 352.243C158.49 352.525 158.245 352.821 158.016 353.13C157.887 351.136 157.749 349.142 157.603 347.148H157.585Z" fill="url(#paint0_linear)"/>
<path d="M149.17 309.041L148.501 314.203C148.276 315.954 148.051 317.699 147.93 319.456C147.523 325.304 148.276 331.177 148.082 337.038C147.924 341.55 147.206 346.055 147.553 350.56C147.863 354.536 148.994 358.403 150.125 362.233L151.73 367.705C151.784 367.991 151.924 368.253 152.131 368.459C152.44 368.642 152.807 368.7 153.158 368.623L160.284 367.978C159.828 365.887 159.323 363.722 159.068 361.576C158.873 359.898 158.758 358.208 158.636 356.518C158.259 351.253 157.828 345.988 157.42 340.711L156.66 331.469C156.338 327.457 156.004 323.426 154.994 319.529C153.982 315.592 151.976 311.981 149.17 309.041Z" fill="#FD3373"/>
<path opacity="0.1" d="M149.17 309.041L148.501 314.203C148.276 315.954 148.051 317.699 147.93 319.456C147.523 325.304 148.276 331.177 148.082 337.038C147.924 341.55 147.206 346.055 147.553 350.56C147.863 354.536 148.994 358.403 150.125 362.233L151.73 367.705C151.784 367.991 151.924 368.253 152.131 368.459C152.44 368.642 152.807 368.7 153.158 368.623L160.284 367.978C159.828 365.887 159.323 363.722 159.068 361.576C158.873 359.898 158.758 358.208 158.636 356.518C158.259 351.253 157.828 345.988 157.42 340.711L156.66 331.469C156.338 327.457 156.004 323.426 154.994 319.529C153.982 315.592 151.976 311.981 149.17 309.041Z" fill="black"/>
<path d="M161.864 484.757C161.446 485.58 161.081 486.429 160.77 487.299C159.955 489.7 159.834 492.278 159.712 494.813C159.659 495.302 159.704 495.796 159.846 496.266C160.199 497.178 161.208 497.64 162.15 497.89C166.096 498.954 170.254 497.957 174.31 497.592C178.365 497.227 182.371 497.495 186.286 496.613C186.865 496.501 187.424 496.307 187.946 496.035C188.938 495.39 189.678 494.424 190.044 493.299C190.162 493.011 190.241 492.709 190.281 492.4C190.408 491.062 189.247 489.907 187.983 489.469C186.718 489.031 185.338 489.098 184.007 488.965C181.264 488.684 178.691 487.507 176.686 485.615C174.681 483.723 173.357 481.223 172.917 478.501C172.869 478.21 166.327 478.386 165.622 478.763C164.819 479.207 164.333 480.307 163.877 481.055C163.159 482.259 162.489 483.493 161.864 484.757Z" fill="#A26565"/>
<path opacity="0.1" d="M161.864 484.757C161.446 485.58 161.081 486.429 160.77 487.299C159.955 489.7 159.834 492.278 159.712 494.813C159.659 495.302 159.704 495.796 159.846 496.266C160.199 497.178 161.208 497.64 162.15 497.89C166.096 498.954 170.254 497.957 174.31 497.592C178.365 497.227 182.371 497.495 186.286 496.613C186.865 496.501 187.424 496.307 187.946 496.035C188.938 495.39 189.678 494.424 190.044 493.299C190.162 493.011 190.241 492.709 190.281 492.4C190.408 491.062 189.247 489.907 187.983 489.469C186.718 489.031 185.338 489.098 184.007 488.965C181.264 488.684 178.691 487.507 176.686 485.615C174.681 483.723 173.357 481.223 172.917 478.501C172.869 478.21 166.327 478.386 165.622 478.763C164.819 479.207 164.333 480.307 163.877 481.055C163.159 482.259 162.489 483.493 161.864 484.757Z" fill="black"/>
<path d="M172.717 486.692C172.296 487.512 171.93 488.359 171.623 489.227C170.802 491.659 170.68 494.206 170.565 496.742C170.508 497.23 170.554 497.725 170.698 498.195C171.045 499.107 172.054 499.569 172.997 499.824C176.942 500.882 181.107 499.885 185.156 499.52C189.205 499.155 193.223 499.423 197.133 498.541C197.714 498.424 198.273 498.219 198.792 497.933C199.785 497.289 200.526 496.323 200.89 495.197C201.008 494.909 201.088 494.607 201.127 494.298C201.255 492.966 200.093 491.805 198.829 491.367C197.564 490.929 196.184 491.002 194.853 490.863C192.112 490.581 189.54 489.404 187.535 487.514C185.531 485.624 184.205 483.125 183.764 480.405C183.715 480.114 177.173 480.284 176.468 480.661C175.659 481.105 175.173 482.205 174.717 482.953C174.024 484.187 173.343 485.427 172.717 486.692Z" fill="#A26565"/>
<path d="M201.005 422.106C201.09 435.245 197.272 448.085 192.792 460.409C191.016 465.297 189.134 470.142 187.144 474.945C185.964 477.791 184.633 480.952 185.897 483.761C182.25 482.375 178.541 481.56 174.705 482.199C176.164 479.219 176.024 475.754 176.091 472.471C176.215 467.971 176.695 463.489 177.526 459.065C178.813 452.332 181.021 445.808 184.086 439.677C184.705 438.384 185.133 437.007 185.356 435.591C185.855 432.466 185.466 429.256 184.815 426.161C183.416 419.326 180.756 412.811 176.972 406.949L176.936 407.338C176.709 409.294 176.38 411.236 175.951 413.157C175.094 417.224 174.091 421.298 174.243 425.389C174.401 429.728 174.133 434.071 173.44 438.357C173.217 440.04 172.778 441.687 172.133 443.258C171.714 444.2 171.166 445.082 170.838 446.06C170.509 447.187 170.338 448.353 170.327 449.526C169.841 459.418 170.327 469.461 172.346 479.159C168.96 478.891 165.573 479.87 162.545 481.39C160.178 474.448 158.448 467.306 157.378 460.05C156.059 451.469 156.327 442.719 158.168 434.235C158.742 431.406 158.957 428.516 158.806 425.632C158.545 419.887 157.135 414.269 155.73 408.688L153.59 400.176C152.577 396.123 151.564 392.088 150.55 388.072C149.875 385.391 149.195 382.649 149.407 379.888C149.556 378.374 149.874 376.881 150.356 375.438C151.874 370.529 154.144 365.886 157.086 361.673C168.801 362.33 180.657 361.236 192.348 360.336C192.915 360.224 193.503 360.323 194.002 360.615C194.4 361.02 194.638 361.556 194.67 362.123L199.066 387.05C199.778 390.515 200.195 394.033 200.312 397.568C200.312 401.095 199.765 404.609 199.899 408.129C200.081 412.871 200.981 417.358 201.005 422.106Z" fill="#454B69"/>
<path opacity="0.1" d="M176.948 407.337C176.721 409.293 176.393 411.235 175.963 413.156C173.416 408.748 170.668 404.45 168.321 399.932C167.713 398.771 167.142 397.592 166.564 396.412L164.832 392.886C164.509 392.223 164.187 391.56 163.895 390.886C163.42 389.916 163.055 388.896 162.807 387.846C163.658 387.688 165.762 389.986 166.394 390.588C167.684 391.865 168.902 393.212 170.042 394.625C171.427 396.194 172.699 397.86 173.848 399.61C175.319 401.988 176.368 404.602 176.948 407.337Z" fill="black"/>
<path d="M186.706 286.405C186.706 286.405 180.201 296.771 181.404 298.942C182.608 301.112 160.916 297.015 160.916 297.015C160.916 297.015 172.729 286.649 171.519 282.308C170.309 277.967 186.706 286.405 186.706 286.405Z" fill="#EFB7B9"/>
<path d="M180.924 289.543C189.046 289.543 195.631 282.958 195.631 274.836C195.631 266.713 189.046 260.129 180.924 260.129C172.802 260.129 166.217 266.713 166.217 274.836C166.217 282.958 172.802 289.543 180.924 289.543Z" fill="#EFB7B9"/>
<path d="M186.925 297.275C185.35 295.09 183.214 293.372 180.742 292.302C179.317 291.792 177.844 291.429 176.346 291.22L170.479 290.186C169.044 289.931 167.506 289.694 166.169 290.284C165.493 290.631 164.877 291.084 164.345 291.627C162.308 293.518 160.332 295.591 157.773 296.686C157.074 296.984 156.344 297.202 155.645 297.5C152.781 298.716 150.641 301.306 149.432 304.188C148.155 307.192 148.118 310.456 148.216 313.721C148.214 314.848 148.326 315.973 148.55 317.077C148.843 318.129 149.215 319.158 149.663 320.154C150.471 322.285 151.149 324.464 151.693 326.677C153.213 332.493 154.478 338.371 155.487 344.308C155.572 345.159 155.822 345.985 156.222 346.74C156.789 347.497 157.475 348.156 158.253 348.692C158.87 349.199 159.438 349.763 159.949 350.376C160.204 350.627 160.394 350.936 160.503 351.276C160.691 352.151 159.895 352.905 159.287 353.544C157.978 354.879 157.032 356.526 156.539 358.328C156.234 358.698 156.078 359.169 156.101 359.648C156.228 359.981 156.275 360.339 156.241 360.693C156.121 361.016 155.932 361.309 155.687 361.551C155.407 361.916 155.208 362.338 155.103 362.786C154.998 363.235 154.99 363.701 155.08 364.153C159.637 366.133 164.514 367.274 169.476 367.521C170.692 367.582 171.908 367.582 173.124 367.728C173.987 367.837 174.838 368.014 175.702 368.117C176.954 368.234 178.214 368.267 179.471 368.214C186.019 368.08 192.755 367.916 198.768 365.32C199.333 362.238 198.111 359.094 197.345 356.055C196.129 351.191 195.825 346.211 194.913 341.305C194.305 337.955 193.393 334.654 192.877 331.28C192.36 327.905 192.269 324.409 193.169 321.126C193.989 318.22 194.239 315.253 195.09 312.353C195.941 309.453 196.537 306.31 195.576 303.44C194.36 299.89 190.67 297.075 186.925 297.275Z" fill="#FD3373"/>
<path d="M194.147 267.035C194.865 264.427 193.454 261.71 191.776 259.588C189.952 257.308 187.63 255.253 184.778 254.681C182.462 254.213 180.061 254.779 177.702 254.59C175.616 254.426 173.61 253.672 171.537 253.374C169.656 253.171 167.756 253.243 165.895 253.587C164.13 253.849 162.404 254.331 160.758 255.022C154.496 257.8 150.83 264.646 149.979 271.437C149.127 278.228 150.617 285.074 152.1 291.756L153.444 297.799C154.842 304.092 156.241 310.408 156.611 316.841C156.982 323.273 156.289 329.876 153.645 335.749C162.197 331.155 168.824 323.652 172.327 314.597C173.276 312.111 173.981 309.527 175.039 307.083C175.945 304.979 177.106 302.985 177.908 300.839C178.816 298.417 179.251 295.843 179.191 293.257C179.143 291.312 178.82 289.379 178.875 287.433C178.93 285.487 179.428 283.463 180.772 282.052C181.988 280.806 183.66 280.228 185.198 279.42C187.619 278.176 189.735 276.411 191.393 274.252C192.36 272.987 192.415 272.428 192.658 270.993C192.901 269.559 193.77 268.416 194.147 267.035Z" fill="#A26565"/>
<path d="M194.166 377.511C194.318 379.025 194.044 380.551 194.372 382.053C194.622 383.171 195.199 384.181 195.54 385.275C195.877 386.539 196.05 387.84 196.056 389.148C196.105 390.242 196.02 391.58 195.047 392.09C194.622 392.315 194.111 392.315 193.667 392.51C193.223 392.705 192.846 393.233 193.102 393.647C193.357 394.06 193.795 393.993 194.196 394.073C194.597 394.152 195.029 394.565 194.804 394.899C194.712 395.009 194.589 395.087 194.451 395.124C194.046 395.249 193.66 395.434 193.308 395.671C193.136 395.797 193.002 395.966 192.919 396.163C192.837 396.359 192.81 396.574 192.84 396.784C192.865 396.885 192.912 396.979 192.978 397.059C193.044 397.138 193.127 397.203 193.221 397.246C193.315 397.289 193.418 397.31 193.521 397.308C193.625 397.306 193.727 397.281 193.819 397.234C193.641 397.615 193.543 398.029 193.533 398.45C195.09 399.119 196.835 398.243 198.294 397.398C198.925 397.046 199.534 396.656 200.118 396.231C201.298 395.325 202.239 394.143 202.857 392.79C203.476 391.437 203.755 389.953 203.668 388.467C203.599 387.721 203.483 386.98 203.322 386.248C203.097 384.973 202.799 383.712 202.428 382.472C202.008 381.165 201.437 379.919 200.944 378.636C199.899 375.906 199.224 373.049 198.276 370.282C198.212 369.996 198.051 369.74 197.82 369.559C197.61 369.456 197.377 369.412 197.145 369.431C196.08 369.375 195.013 369.474 193.977 369.723C193.369 369.905 192.33 370.331 192.044 370.939C191.758 371.547 192.214 372.058 192.488 372.562C193.362 374.088 193.931 375.769 194.166 377.511Z" fill="#EFB7B9"/>
<path opacity="0.1" d="M193.175 303.635C193.487 303.954 193.749 304.319 193.953 304.717C196.044 308.517 196.069 313.058 196.166 317.393C196.275 322.257 196.543 327.121 196.81 332.015L197.607 346.607C197.686 347.999 197.759 349.391 197.959 350.771C198.896 351.008 198.932 352.224 198.829 353.203C198.154 359.149 196.482 365.271 198.221 370.992C198.288 371.286 198.428 371.558 198.628 371.783C197.745 371.506 196.801 371.493 195.911 371.746C195.041 371.929 194.202 372.251 193.327 372.452C192.22 372.701 190.968 372.81 190.214 373.668C189.36 371.098 188.679 368.474 188.177 365.813C187.764 363.381 187.648 360.876 186.663 358.626C186.268 357.72 185.733 356.881 185.247 356.012C182.7 351.464 181.447 346.327 180.225 341.256C179.677 338.853 179.545 336.372 179.836 333.924C180.013 332.807 180.114 331.68 180.14 330.55C180.066 329.357 179.91 328.171 179.672 326.999C179.155 323.562 179.398 320.052 180.383 316.718C181.295 313.624 182.098 310.365 184.031 307.763C185.964 305.161 189.947 303.677 193.175 303.635Z" fill="black"/>
<path d="M193.898 303.148C194.21 303.47 194.473 303.837 194.676 304.237C196.768 308.03 196.792 312.578 196.889 316.913C196.999 321.777 197.266 326.641 197.534 331.504L198.33 346.096C198.409 347.488 198.482 348.88 198.683 350.261C199.619 350.498 199.655 351.714 199.546 352.692C198.877 358.638 197.205 364.755 198.938 370.482C199.005 370.775 199.145 371.047 199.345 371.272C198.462 370.995 197.518 370.983 196.628 371.236C195.758 371.418 194.919 371.74 194.044 371.935C192.937 372.19 191.685 372.294 190.931 373.151C190.08 370.569 189.405 367.933 188.913 365.259C188.499 362.827 188.384 360.329 187.399 358.079C186.971 357.184 186.498 356.312 185.982 355.465C183.429 350.917 182.183 345.774 180.961 340.703C180.412 338.299 180.28 335.819 180.571 333.371C181.029 331.079 180.973 328.714 180.407 326.446C179.891 323.01 180.134 319.503 181.119 316.171C182.031 313.077 182.833 309.818 184.766 307.216C186.7 304.614 190.67 303.197 193.898 303.148Z" fill="#FD3373"/>
<g opacity="0.1">
<path opacity="0.1" d="M191.776 259.588C189.952 257.308 187.63 255.253 184.779 254.681C182.462 254.213 180.061 254.779 177.702 254.59C175.617 254.426 173.61 253.672 171.537 253.374C169.656 253.171 167.756 253.243 165.895 253.587C164.13 253.849 162.404 254.331 160.758 255.022C159.869 255.42 159.02 255.903 158.223 256.463C159.688 255.893 161.211 255.486 162.764 255.247C164.622 254.902 166.521 254.831 168.4 255.034C170.479 255.301 172.479 256.049 174.571 256.213C176.924 256.402 179.325 255.843 181.648 256.305C184.499 256.876 186.833 258.937 188.639 261.217C190.323 263.333 191.728 266.05 191.016 268.665C190.639 270.039 189.764 271.243 189.527 272.659C189.29 274.076 189.229 274.653 188.256 275.918C187.009 277.54 185.501 278.943 183.794 280.07C184.262 279.852 184.742 279.633 185.198 279.396C187.619 278.152 189.735 276.387 191.393 274.228C192.36 272.963 192.415 272.404 192.658 270.969C192.901 269.534 193.77 268.355 194.147 266.975C194.865 264.427 193.454 261.71 191.776 259.588Z" fill="black"/>
<path opacity="0.1" d="M180.772 282.088C181.024 281.827 181.298 281.589 181.593 281.377C180.188 282.058 178.711 282.654 177.635 283.809C176.291 285.213 175.811 287.244 175.738 289.189C175.665 291.135 176.012 293.068 176.054 295.008C176.114 297.596 175.678 300.171 174.771 302.595C173.969 304.741 172.808 306.73 171.902 308.839C170.85 311.271 170.145 313.861 169.196 316.348C166.157 324.198 160.76 330.914 153.748 335.572C153.711 335.651 153.681 335.736 153.645 335.815C162.197 331.221 168.824 323.718 172.327 314.664C173.276 312.177 173.981 309.593 175.039 307.149C175.945 305.045 177.106 303.051 177.908 300.905C178.816 298.483 179.251 295.91 179.191 293.324C179.143 291.378 178.82 289.445 178.875 287.499C178.93 285.554 179.428 283.499 180.772 282.088Z" fill="black"/>
</g>
</g>
<defs>
<linearGradient id="paint0_linear" x1="174.291" y1="500.297" x2="174.291" y2="251.088" gradientUnits="userSpaceOnUse">
<stop stop-color="#808080" stop-opacity="0.25"/>
<stop offset="0.54" stop-color="#808080" stop-opacity="0.12"/>
<stop offset="1" stop-color="#808080" stop-opacity="0.1"/>
</linearGradient>
<clipPath id="clip0">
<rect width="687" height="505.569" fill="white"/>
</clipPath>
</defs>
</svg>
