<svg width="687" height="500" viewBox="0 0 687 500" fill="none" xmlns="http://www.w3.org/2000/svg">
<g clip-path="url(#clip0)">
<path d="M686.007 496.165H0.992775C0.729474 496.165 0.476957 496.06 0.290776 495.872C0.104595 495.685 0 495.43 0 495.165C0 494.9 0.104595 494.645 0.290776 494.458C0.476957 494.27 0.729474 494.165 0.992775 494.165H686.007C686.271 494.165 686.523 494.27 686.709 494.458C686.895 494.645 687 494.9 687 495.165C687 495.43 686.895 495.685 686.709 495.872C686.523 496.06 686.271 496.165 686.007 496.165Z" fill="#CCCCCC"/>
<path d="M618.205 321.721H215.139C213.427 321.721 211.786 322.406 210.576 323.625C209.365 324.844 208.686 326.498 208.686 328.222C208.686 329.947 209.365 331.6 210.576 332.82C211.786 334.039 213.427 334.724 215.139 334.724H226.555V490.262C226.555 491.987 227.235 493.64 228.446 494.86C229.656 496.079 231.297 496.764 233.009 496.764C234.72 496.764 236.361 496.079 237.572 494.86C238.782 493.64 239.462 491.987 239.462 490.262L239.56 334.724H592.889V490.262C592.889 491.987 593.569 493.64 594.779 494.86C595.989 496.079 597.631 496.764 599.342 496.764C601.054 496.764 602.695 496.079 603.905 494.86C605.115 493.64 605.795 491.987 605.795 490.262V338.152L607.673 334.724H618.205C619.916 334.724 621.558 334.039 622.768 332.82C623.978 331.6 624.658 329.947 624.658 328.222C624.658 326.498 623.978 324.844 622.768 323.625C621.558 322.406 619.916 321.721 618.205 321.721Z" fill="#CCCCCC"/>
<path d="M438.602 325.123H316.509C314.145 325.121 311.878 324.173 310.206 322.489C308.535 320.805 307.594 318.521 307.592 316.139V248.413C307.594 246.032 308.535 243.748 310.206 242.064C311.878 240.38 314.145 239.432 316.509 239.429H438.602C440.966 239.432 443.233 240.38 444.904 242.064C446.576 243.748 447.516 246.032 447.519 248.413V316.139C447.516 318.521 446.576 320.805 444.904 322.489C443.233 324.173 440.966 325.121 438.602 325.123Z" fill="#3F3D56"/>
<path d="M438.601 246.344H316.509C315.964 246.345 315.442 246.564 315.057 246.952C314.672 247.34 314.455 247.866 314.454 248.414V316.141C314.455 316.69 314.672 317.216 315.057 317.604C315.442 317.992 315.964 318.21 316.509 318.212H438.601C439.146 318.21 439.668 317.992 440.053 317.604C440.438 317.216 440.655 316.69 440.656 316.141V248.414C440.655 247.866 440.438 247.34 440.053 246.952C439.668 246.564 439.146 246.345 438.601 246.344Z" fill="white"/>
<path d="M387.968 294.294C387.968 294.294 373.352 290.9 365.313 297.121C357.275 303.342 375.544 317.481 375.544 317.481L387.968 294.294Z" fill="#2F2E41"/>
<path d="M378.271 287.882C385.885 287.882 392.058 281.663 392.058 273.992C392.058 266.32 385.885 260.101 378.271 260.101C370.657 260.101 364.484 266.32 364.484 273.992C364.484 281.663 370.657 287.882 378.271 287.882Z" fill="#A0616A"/>
<path d="M367.61 254.493C368.529 252.921 369.862 251.635 371.461 250.778C373.06 249.921 374.863 249.526 376.671 249.636C378.562 249.875 380.407 250.395 382.146 251.18L391.159 254.722C393.491 255.639 396.045 256.762 397.057 259.068C397.997 261.21 397.296 263.682 396.586 265.911L393.214 276.507C392.841 274.109 392.2 271.761 391.304 269.508C390.393 267.24 388.747 265.349 386.633 264.143C384.292 262.933 381.533 262.958 378.905 263.085C375.183 263.266 371.136 263.743 368.491 266.388C367.087 267.89 366.136 269.763 365.747 271.788C365.364 273.803 365.171 275.85 365.171 277.902C363.645 275.258 362.359 272.481 361.33 269.604C360.483 267.462 360 265.191 359.902 262.888C359.814 260.564 360.579 258.29 362.051 256.499C362.799 255.624 363.774 254.977 364.867 254.63C365.96 254.284 367.127 254.252 368.237 254.538L367.61 254.493Z" fill="#2F2E41"/>
<path d="M411.19 306.339C411.061 305.87 410.797 305.449 410.431 305.131C410.066 304.812 409.615 304.61 409.135 304.548C409.104 304.526 409.07 304.506 409.036 304.488L388.454 292.867C387.867 292.535 387.175 292.445 386.522 292.614C385.87 292.783 385.307 293.199 384.952 293.776L379.323 302.958L370.844 294.416L370.71 294.28C370.274 293.842 369.7 293.572 369.087 293.518C368.474 293.464 367.862 293.629 367.358 293.985L350.443 305.919C350.413 305.919 350.383 305.929 350.353 305.929C349.544 306.065 348.804 306.475 348.258 307.091C347.711 307.708 347.389 308.494 347.345 309.319L346.908 318.212H414.457L411.19 306.339Z" fill="#FD3373"/>
<path d="M448.89 316.83H435.858C435.858 316.464 435.713 316.112 435.456 315.853C435.199 315.594 434.85 315.448 434.486 315.448H430.37C430.007 315.448 429.658 315.594 429.4 315.853C429.143 316.112 428.999 316.464 428.999 316.83H424.883C424.883 316.464 424.739 316.112 424.481 315.853C424.224 315.594 423.875 315.448 423.511 315.448H419.396C419.032 315.448 418.683 315.594 418.426 315.853C418.168 316.112 418.024 316.464 418.024 316.83H413.908C413.908 316.464 413.764 316.112 413.507 315.853C413.249 315.594 412.9 315.448 412.537 315.448H408.421C408.057 315.448 407.708 315.594 407.451 315.853C407.194 316.112 407.049 316.464 407.049 316.83H402.934C402.934 316.464 402.789 316.112 402.532 315.853C402.275 315.594 401.926 315.448 401.562 315.448H397.446C397.083 315.448 396.734 315.594 396.476 315.853C396.219 316.112 396.075 316.464 396.075 316.83H391.959C391.959 316.464 391.815 316.112 391.557 315.853C391.3 315.594 390.951 315.448 390.587 315.448H386.472C386.108 315.448 385.759 315.594 385.502 315.853C385.245 316.112 385.1 316.464 385.1 316.83H380.984C380.984 316.464 380.84 316.112 380.583 315.853C380.325 315.594 379.976 315.448 379.613 315.448H375.497C375.133 315.448 374.784 315.594 374.527 315.853C374.27 316.112 374.125 316.464 374.125 316.83H370.01C370.01 316.464 369.865 316.112 369.608 315.853C369.351 315.594 369.002 315.448 368.638 315.448H364.522C364.159 315.448 363.81 315.594 363.552 315.853C363.295 316.112 363.151 316.464 363.151 316.83H359.035C359.035 316.464 358.891 316.112 358.633 315.853C358.376 315.594 358.027 315.448 357.663 315.448H353.548C353.184 315.448 352.835 315.594 352.578 315.853C352.32 316.112 352.176 316.464 352.176 316.83H348.06C348.06 316.464 347.916 316.112 347.659 315.853C347.401 315.594 347.052 315.448 346.689 315.448H342.573C342.209 315.448 341.86 315.594 341.603 315.853C341.346 316.112 341.201 316.464 341.201 316.83H337.086C337.086 316.464 336.941 316.112 336.684 315.853C336.427 315.594 336.078 315.448 335.714 315.448H331.598C331.235 315.448 330.886 315.594 330.628 315.853C330.371 316.112 330.227 316.464 330.227 316.83H326.111C326.111 316.464 325.967 316.112 325.709 315.853C325.452 315.594 325.103 315.448 324.739 315.448H320.624C320.26 315.448 319.911 315.594 319.654 315.853C319.396 316.112 319.252 316.464 319.252 316.83H306.219C305.129 316.832 304.084 317.27 303.314 318.047C302.543 318.824 302.11 319.878 302.11 320.977C302.11 322.075 302.543 323.129 303.314 323.907C304.084 324.684 305.129 325.122 306.219 325.123H448.89C449.982 325.123 451.029 324.686 451.8 323.909C452.572 323.131 453.006 322.076 453.006 320.977C453.006 319.877 452.572 318.822 451.8 318.045C451.029 317.267 449.982 316.83 448.89 316.83Z" fill="#3F3D56"/>
<path d="M285.005 292.751V320.283H216.541C214.706 320.347 212.878 320.039 211.165 319.376C209.451 318.713 207.888 317.709 206.567 316.425C205.247 315.14 204.197 313.601 203.48 311.899C202.763 310.196 202.394 308.366 202.394 306.517C202.394 304.668 202.763 302.837 203.48 301.135C204.197 299.433 205.247 297.893 206.567 296.609C207.888 295.324 209.451 294.32 211.165 293.658C212.878 292.995 214.706 292.686 216.541 292.751H285.005Z" fill="#F2F2F2"/>
<path d="M286.686 320.071C286.686 320.352 286.575 320.621 286.378 320.82C286.181 321.018 285.914 321.13 285.635 321.13H215.321C211.502 321.13 207.84 319.602 205.139 316.881C202.439 314.16 200.922 310.47 200.922 306.623C200.922 302.775 202.439 299.085 205.139 296.364C207.84 293.644 211.502 292.115 215.321 292.115H285.635C285.914 292.115 286.181 292.227 286.378 292.425C286.575 292.624 286.686 292.893 286.686 293.174C286.686 293.455 286.575 293.724 286.378 293.923C286.181 294.121 285.914 294.233 285.635 294.233H215.321C212.062 294.236 208.937 295.543 206.633 297.866C204.329 300.189 203.035 303.339 203.035 306.623C203.035 309.907 204.329 313.056 206.633 315.379C208.937 317.703 212.062 319.009 215.321 319.012H285.635C285.914 319.012 286.181 319.124 286.378 319.323C286.575 319.521 286.686 319.79 286.686 320.071Z" fill="#FD3373"/>
<path d="M285.005 299.104H211.432C211.405 299.104 211.377 299.099 211.351 299.088C211.326 299.078 211.302 299.062 211.283 299.043C211.263 299.023 211.248 299 211.237 298.974C211.226 298.948 211.221 298.92 211.221 298.892C211.221 298.864 211.226 298.837 211.237 298.811C211.248 298.785 211.263 298.762 211.283 298.742C211.302 298.722 211.326 298.707 211.351 298.696C211.377 298.686 211.405 298.68 211.432 298.681H285.005C285.06 298.681 285.113 298.703 285.152 298.743C285.191 298.783 285.213 298.836 285.213 298.892C285.213 298.948 285.191 299.002 285.152 299.042C285.113 299.081 285.06 299.104 285.005 299.104Z" fill="#CCCCCC"/>
<path d="M285.005 304.187H211.432C211.405 304.187 211.377 304.182 211.351 304.171C211.326 304.161 211.302 304.145 211.283 304.126C211.263 304.106 211.248 304.082 211.237 304.057C211.226 304.031 211.221 304.003 211.221 303.975C211.221 303.947 211.226 303.92 211.237 303.894C211.248 303.868 211.263 303.845 211.283 303.825C211.302 303.805 211.326 303.79 211.351 303.779C211.377 303.769 211.405 303.763 211.432 303.764H285.005C285.06 303.764 285.113 303.786 285.152 303.826C285.191 303.866 285.213 303.919 285.213 303.975C285.213 304.031 285.191 304.085 285.152 304.125C285.113 304.164 285.06 304.187 285.005 304.187Z" fill="#CCCCCC"/>
<path d="M285.005 309.27H211.432C211.405 309.27 211.377 309.265 211.351 309.254C211.326 309.244 211.302 309.228 211.283 309.209C211.263 309.189 211.248 309.165 211.237 309.14C211.226 309.114 211.221 309.086 211.221 309.058C211.221 309.03 211.226 309.003 211.237 308.977C211.248 308.951 211.263 308.928 211.283 308.908C211.302 308.888 211.326 308.873 211.351 308.862C211.377 308.852 211.405 308.846 211.432 308.846H285.005C285.06 308.847 285.113 308.869 285.152 308.909C285.191 308.949 285.213 309.002 285.213 309.058C285.213 309.114 285.191 309.168 285.152 309.207C285.113 309.247 285.06 309.27 285.005 309.27Z" fill="#CCCCCC"/>
<path d="M285.005 314.353H211.432C211.405 314.353 211.377 314.348 211.351 314.337C211.326 314.327 211.302 314.311 211.283 314.291C211.263 314.272 211.248 314.248 211.237 314.222C211.226 314.197 211.221 314.169 211.221 314.141C211.221 314.113 211.226 314.086 211.237 314.06C211.248 314.034 211.263 314.011 211.283 313.991C211.302 313.971 211.326 313.956 211.351 313.945C211.377 313.934 211.405 313.929 211.432 313.929H285.005C285.06 313.93 285.113 313.952 285.152 313.992C285.191 314.032 285.213 314.085 285.213 314.141C285.213 314.197 285.191 314.251 285.152 314.29C285.113 314.33 285.06 314.352 285.005 314.353Z" fill="#CCCCCC"/>
<path d="M272.098 263.743V291.276H203.634C201.8 291.34 199.972 291.032 198.258 290.369C196.545 289.706 194.981 288.702 193.661 287.418C192.341 286.133 191.291 284.594 190.574 282.891C189.857 281.189 189.487 279.359 189.487 277.51C189.487 275.66 189.857 273.83 190.574 272.128C191.291 270.426 192.341 268.886 193.661 267.602C194.981 266.317 196.545 265.313 198.258 264.65C199.972 263.987 201.8 263.679 203.634 263.743H272.098Z" fill="#F2F2F2"/>
<path d="M273.781 291.064C273.781 291.345 273.67 291.614 273.473 291.813C273.276 292.011 273.008 292.123 272.73 292.123H202.416C200.525 292.123 198.652 291.748 196.905 291.019C195.158 290.29 193.571 289.221 192.234 287.874C190.897 286.527 189.836 284.927 189.113 283.167C188.389 281.407 188.017 279.521 188.017 277.615C188.017 275.71 188.389 273.824 189.113 272.064C189.836 270.304 190.897 268.704 192.234 267.357C193.571 266.01 195.158 264.941 196.905 264.212C198.652 263.483 200.525 263.108 202.416 263.108H272.73C273.009 263.108 273.276 263.219 273.473 263.418C273.67 263.617 273.781 263.886 273.781 264.167C273.781 264.448 273.67 264.717 273.473 264.916C273.276 265.114 273.009 265.226 272.73 265.226H202.416C199.156 265.229 196.031 266.535 193.728 268.859C191.424 271.182 190.13 274.331 190.13 277.615C190.13 280.899 191.424 284.049 193.728 286.372C196.031 288.695 199.156 290.002 202.416 290.005H272.73C273.008 290.005 273.276 290.117 273.473 290.315C273.67 290.514 273.781 290.783 273.781 291.064Z" fill="#3F3D56"/>
<path d="M272.098 270.097H198.526C198.498 270.097 198.471 270.092 198.445 270.081C198.42 270.071 198.396 270.055 198.377 270.035C198.357 270.016 198.341 269.992 198.331 269.967C198.32 269.941 198.314 269.913 198.314 269.885C198.314 269.857 198.32 269.83 198.331 269.804C198.341 269.778 198.357 269.755 198.377 269.735C198.396 269.715 198.42 269.7 198.445 269.689C198.471 269.679 198.498 269.673 198.526 269.673H272.098C272.154 269.674 272.207 269.696 272.246 269.736C272.285 269.776 272.307 269.829 272.307 269.885C272.307 269.941 272.285 269.995 272.246 270.034C272.207 270.074 272.154 270.097 272.098 270.097Z" fill="#CCCCCC"/>
<path d="M272.098 275.18H198.526C198.498 275.18 198.471 275.175 198.445 275.164C198.42 275.154 198.396 275.138 198.377 275.118C198.357 275.099 198.341 275.075 198.331 275.05C198.32 275.024 198.314 274.996 198.314 274.968C198.314 274.94 198.32 274.913 198.331 274.887C198.341 274.861 198.357 274.838 198.377 274.818C198.396 274.798 198.42 274.783 198.445 274.772C198.471 274.761 198.498 274.756 198.526 274.756H272.098C272.154 274.757 272.207 274.779 272.246 274.819C272.285 274.859 272.307 274.912 272.307 274.968C272.307 275.024 272.285 275.078 272.246 275.117C272.207 275.157 272.154 275.18 272.098 275.18Z" fill="#CCCCCC"/>
<path d="M272.098 280.263H198.526C198.498 280.263 198.471 280.258 198.445 280.247C198.42 280.237 198.396 280.221 198.377 280.201C198.357 280.182 198.341 280.158 198.331 280.132C198.32 280.107 198.314 280.079 198.314 280.051C198.314 280.023 198.32 279.995 198.331 279.97C198.341 279.944 198.357 279.92 198.377 279.901C198.396 279.881 198.42 279.865 198.445 279.855C198.471 279.844 198.498 279.839 198.526 279.839H272.098C272.154 279.84 272.207 279.862 272.246 279.902C272.285 279.941 272.307 279.995 272.307 280.051C272.307 280.107 272.285 280.161 272.246 280.2C272.207 280.24 272.154 280.262 272.098 280.263Z" fill="#CCCCCC"/>
<path d="M272.098 285.346H198.526C198.498 285.346 198.471 285.341 198.445 285.33C198.42 285.319 198.396 285.304 198.377 285.284C198.357 285.265 198.341 285.241 198.331 285.215C198.32 285.19 198.314 285.162 198.314 285.134C198.314 285.106 198.32 285.078 198.331 285.053C198.341 285.027 198.357 285.003 198.377 284.984C198.396 284.964 198.42 284.948 198.445 284.938C198.471 284.927 198.498 284.922 198.526 284.922H272.098C272.154 284.923 272.207 284.945 272.246 284.985C272.285 285.024 272.307 285.078 272.307 285.134C272.307 285.19 272.285 285.243 272.246 285.283C272.207 285.323 272.154 285.345 272.098 285.346Z" fill="#CCCCCC"/>
<path d="M351.743 418.146V394.14C351.743 393.079 351.324 392.061 350.58 391.311C349.835 390.561 348.825 390.139 347.772 390.139H257.429C256.376 390.139 255.366 390.561 254.621 391.311C253.876 392.061 253.458 393.079 253.458 394.14V418.146H351.743Z" fill="#CCCCCC"/>
<path d="M351.743 427.148H253.458V458.156H351.743V427.148Z" fill="#CCCCCC"/>
<path d="M253.458 467.158V491.164C253.458 492.225 253.876 493.243 254.621 493.993C255.366 494.744 256.376 495.165 257.429 495.165H347.772C348.825 495.165 349.835 494.744 350.58 493.993C351.324 493.243 351.743 492.225 351.743 491.164V467.158H253.458Z" fill="#CCCCCC"/>
<path d="M302.104 408.144C303.749 408.144 305.083 406.8 305.083 405.143C305.083 403.486 303.749 402.142 302.104 402.142C300.459 402.142 299.126 403.486 299.126 405.143C299.126 406.8 300.459 408.144 302.104 408.144Z" fill="white"/>
<path d="M302.104 448.154C303.749 448.154 305.083 446.81 305.083 445.153C305.083 443.496 303.749 442.152 302.104 442.152C300.459 442.152 299.126 443.496 299.126 445.153C299.126 446.81 300.459 448.154 302.104 448.154Z" fill="white"/>
<path d="M302.264 487.316C303.909 487.316 305.243 485.973 305.243 484.315C305.243 482.658 303.909 481.315 302.264 481.315C300.62 481.315 299.286 482.658 299.286 484.315C299.286 485.973 300.62 487.316 302.264 487.316Z" fill="white"/>
<path d="M340.6 362.768V390.3H272.136C270.302 390.365 268.474 390.056 266.76 389.393C265.047 388.73 263.483 387.727 262.163 386.442C260.843 385.157 259.793 383.618 259.076 381.916C258.359 380.214 257.989 378.383 257.989 376.534C257.989 374.685 258.359 372.854 259.076 371.152C259.793 369.45 260.843 367.911 262.163 366.626C263.483 365.341 265.047 364.338 266.76 363.675C268.474 363.012 270.302 362.703 272.136 362.768H340.6Z" fill="#F2F2F2"/>
<path d="M342.282 390.088C342.282 390.369 342.171 390.639 341.974 390.837C341.777 391.036 341.51 391.147 341.231 391.147H270.917C269.025 391.149 267.151 390.775 265.403 390.046C263.655 389.318 262.066 388.25 260.727 386.902C259.389 385.555 258.327 383.955 257.603 382.194C256.879 380.433 256.506 378.546 256.506 376.64C256.506 374.734 256.879 372.846 257.603 371.085C258.327 369.324 259.389 367.725 260.727 366.377C262.066 365.03 263.655 363.962 265.403 363.233C267.151 362.505 269.025 362.131 270.917 362.132H341.231C341.51 362.132 341.777 362.244 341.974 362.442C342.171 362.641 342.282 362.91 342.282 363.191C342.282 363.472 342.171 363.741 341.974 363.94C341.777 364.139 341.51 364.25 341.231 364.25H270.917C267.657 364.253 264.532 365.56 262.229 367.883C259.925 370.206 258.631 373.356 258.631 376.64C258.631 379.924 259.925 383.073 262.229 385.397C264.532 387.72 267.657 389.026 270.917 389.029H341.231C341.51 389.03 341.777 389.141 341.974 389.34C342.171 389.538 342.282 389.808 342.282 390.088Z" fill="#3F3D56"/>
<path d="M340.6 369.121H267.028C267 369.121 266.973 369.116 266.947 369.106C266.921 369.095 266.898 369.08 266.878 369.06C266.859 369.04 266.843 369.017 266.833 368.991C266.822 368.965 266.816 368.937 266.816 368.91C266.816 368.882 266.822 368.854 266.833 368.828C266.843 368.802 266.859 368.779 266.878 368.759C266.898 368.74 266.921 368.724 266.947 368.713C266.973 368.703 267 368.698 267.028 368.698H340.6C340.656 368.698 340.709 368.721 340.748 368.76C340.787 368.8 340.809 368.854 340.809 368.91C340.809 368.965 340.787 369.019 340.748 369.059C340.709 369.098 340.656 369.121 340.6 369.121Z" fill="#CCCCCC"/>
<path d="M340.6 374.204H267.028C267 374.205 266.973 374.199 266.947 374.189C266.921 374.178 266.898 374.162 266.878 374.143C266.859 374.123 266.843 374.1 266.833 374.074C266.822 374.048 266.816 374.02 266.816 373.993C266.816 373.965 266.822 373.937 266.833 373.911C266.843 373.885 266.859 373.862 266.878 373.842C266.898 373.823 266.921 373.807 266.947 373.796C266.973 373.786 267 373.781 267.028 373.781H340.6C340.656 373.781 340.709 373.804 340.748 373.843C340.787 373.883 340.809 373.937 340.809 373.993C340.809 374.048 340.787 374.102 340.748 374.142C340.709 374.181 340.656 374.204 340.6 374.204Z" fill="#CCCCCC"/>
<path d="M340.6 379.287H267.028C267 379.287 266.973 379.282 266.947 379.272C266.921 379.261 266.898 379.245 266.878 379.226C266.859 379.206 266.843 379.183 266.833 379.157C266.822 379.131 266.816 379.103 266.816 379.075C266.816 379.047 266.822 379.02 266.833 378.994C266.843 378.968 266.859 378.945 266.878 378.925C266.898 378.905 266.921 378.89 266.947 378.879C266.973 378.869 267 378.863 267.028 378.864H340.6C340.656 378.864 340.709 378.886 340.748 378.926C340.787 378.966 340.809 379.02 340.809 379.075C340.809 379.131 340.787 379.185 340.748 379.225C340.709 379.264 340.656 379.287 340.6 379.287Z" fill="#CCCCCC"/>
<path d="M340.6 384.37H267.028C267 384.37 266.973 384.365 266.947 384.354C266.921 384.344 266.898 384.328 266.878 384.309C266.859 384.289 266.843 384.265 266.833 384.24C266.822 384.214 266.816 384.186 266.816 384.158C266.816 384.13 266.822 384.103 266.833 384.077C266.843 384.051 266.859 384.028 266.878 384.008C266.898 383.988 266.921 383.973 266.947 383.962C266.973 383.952 267 383.946 267.028 383.947H340.6C340.656 383.947 340.709 383.969 340.748 384.009C340.787 384.049 340.809 384.102 340.809 384.158C340.809 384.214 340.787 384.268 340.748 384.308C340.709 384.347 340.656 384.37 340.6 384.37Z" fill="#CCCCCC"/>
<path d="M248.303 183.067V7.52329C248.305 5.52869 249.092 3.61643 250.492 2.20603C251.892 0.795636 253.79 0.0022688 255.77 0H393.496C395.476 0.00228201 397.374 0.795654 398.774 2.20605C400.173 3.61644 400.961 5.5287 400.963 7.52329V183.067C400.961 185.061 400.173 186.973 398.774 188.384C397.374 189.794 395.476 190.588 393.496 190.59H255.77C253.79 190.588 251.892 189.794 250.492 188.384C249.092 186.973 248.305 185.061 248.303 183.067ZM255.77 1.67184C254.23 1.67358 252.754 2.29063 251.665 3.38762C250.576 4.4846 249.964 5.97193 249.962 7.52329V183.067C249.964 184.618 250.576 186.105 251.665 187.202C252.754 188.299 254.23 188.916 255.77 188.918H393.496C395.036 188.916 396.512 188.299 397.601 187.202C398.69 186.105 399.302 184.618 399.304 183.067V7.52329C399.302 5.97193 398.69 4.4846 397.601 3.38762C396.512 2.29063 395.036 1.67358 393.496 1.67184H255.77Z" fill="#E6E6E6"/>
<path d="M332.356 80.6175V44.5729C332.358 43.5756 332.751 42.6195 333.451 41.9143C334.151 41.2091 335.1 40.8124 336.09 40.8113H366.406C367.396 40.8124 368.345 41.2091 369.045 41.9143C369.745 42.6195 370.139 43.5756 370.14 44.5729V80.6175C370.139 81.6148 369.745 82.5709 369.045 83.2762C368.345 83.9814 367.396 84.378 366.406 84.3791H336.09C335.1 84.378 334.151 83.9814 333.451 83.2762C332.751 82.5709 332.358 81.6148 332.356 80.6175Z" fill="#FD3373"/>
<path d="M273.449 97.3359V61.2914C273.45 60.2941 273.844 59.338 274.544 58.6327C275.244 57.9275 276.193 57.5309 277.183 57.5298H307.499C308.489 57.5309 309.438 57.9275 310.138 58.6327C310.838 59.338 311.232 60.2941 311.233 61.2914V97.336C311.232 98.3333 310.838 99.2894 310.138 99.9947C309.438 100.7 308.489 101.097 307.499 101.098H277.183C276.193 101.097 275.244 100.7 274.544 99.9946C273.844 99.2894 273.45 98.3332 273.449 97.3359Z" fill="#CCCCCC"/>
<path d="M320.741 148.327V112.283C320.742 111.285 321.136 110.329 321.836 109.624C322.536 108.919 323.485 108.522 324.475 108.521H354.791C355.781 108.522 356.73 108.919 357.43 109.624C358.13 110.329 358.524 111.285 358.525 112.283V148.327C358.524 149.325 358.13 150.281 357.43 150.986C356.73 151.691 355.781 152.088 354.791 152.089H324.475C323.485 152.088 322.536 151.691 321.836 150.986C321.136 150.281 320.742 149.325 320.741 148.327Z" fill="#FD79A3"/>
<path d="M501.91 313.12H470.717C470.421 313.12 470.129 313.189 469.864 313.32L461.991 317.291C461.732 317.402 461.511 317.588 461.355 317.824C461.2 318.061 461.117 318.338 461.117 318.622C461.117 318.905 461.2 319.183 461.355 319.419C461.511 319.656 461.732 319.841 461.991 319.952L469.864 323.923C470.129 324.055 470.421 324.123 470.717 324.123H501.91C502.34 324.148 502.762 324.002 503.086 323.715C503.409 323.429 503.607 323.025 503.638 322.593V314.651C503.607 314.218 503.409 313.815 503.086 313.528C502.762 313.242 502.34 313.095 501.91 313.12Z" fill="#3F3D56"/>
<path d="M503.637 314.651V322.593C503.607 323.025 503.409 323.429 503.085 323.715C502.762 324.001 502.34 324.148 501.91 324.123H495.695V313.12H501.91C502.34 313.095 502.762 313.242 503.085 313.528C503.409 313.815 503.607 314.218 503.637 314.651Z" fill="#FD3373"/>
<path d="M501.675 253.705C503.088 253.091 504.614 252.785 506.153 252.806C507.691 252.827 509.208 253.175 510.604 253.828C512 254.481 513.243 255.424 514.251 256.595C515.26 257.766 516.012 259.138 516.458 260.622C516.597 261.092 516.703 261.572 516.776 262.057L560.396 283.851L570.491 277.11L583.052 291.679L567.638 304.292C565.784 305.797 563.499 306.66 561.12 306.752C558.741 306.845 556.396 306.162 554.433 304.805L510.176 273.97C509.846 274.11 509.51 274.234 509.168 274.34C507.695 274.789 506.144 274.919 504.618 274.722C503.091 274.525 501.624 274.005 500.31 273.197C498.997 272.388 497.868 271.309 496.998 270.031C496.127 268.752 495.535 267.302 495.259 265.777C495.177 265.334 495.123 264.887 495.098 264.437C494.975 262.186 495.539 259.95 496.715 258.032C497.891 256.113 499.622 254.603 501.675 253.705Z" fill="#FFB8B8"/>
<path d="M592.529 387.887H544.866C544.866 389.268 495.744 390.388 495.744 390.388C494.973 390.973 494.27 391.644 493.649 392.388C491.783 394.63 490.763 397.464 490.77 400.39V402.391C490.771 405.706 492.079 408.886 494.406 411.23C496.733 413.575 499.888 414.893 503.179 414.894H592.529C595.819 414.891 598.974 413.573 601.301 411.229C603.627 408.884 604.936 405.706 604.939 402.391V400.39C604.934 397.076 603.625 393.898 601.299 391.554C598.973 389.211 595.819 387.892 592.529 387.887Z" fill="#3F3D56"/>
<path d="M540.683 498.418H553.589V414.397H540.683V498.418Z" fill="#3F3D56"/>
<path d="M503.95 497.961C503.95 499.366 523.507 498.505 547.632 498.505C571.757 498.505 591.314 499.366 591.314 497.961C591.314 496.556 571.757 485.415 547.632 485.415C523.507 485.415 503.95 496.556 503.95 497.961Z" fill="#3F3D56"/>
<path d="M515.6 488.113L503.43 488.112L497.639 456.307L515.602 456.309L515.6 488.113Z" fill="#FFB8B8"/>
<path d="M518.705 500L479.46 499.999V499.498C479.46 497.477 479.855 495.476 480.623 493.609C481.39 491.742 482.516 490.045 483.934 488.616C485.352 487.187 487.036 486.053 488.89 485.28C490.743 484.506 492.729 484.108 494.735 484.108H494.736L518.706 484.109L518.705 500Z" fill="#2F2E41"/>
<path d="M497.396 468.391L473.132 413.569C471.106 408.949 470.882 403.729 472.505 398.949C474.127 394.17 477.477 390.182 481.887 387.779L534.517 359.344L558.534 357.286L580.687 355.257L580.847 355.53C581.051 355.877 585.814 364.167 582.595 373.256C580.152 380.15 573.8 385.535 563.713 389.262C540.17 397.959 512.973 405.393 502.373 408.184C501.905 408.305 501.467 408.524 501.089 408.828C500.71 409.131 500.4 409.512 500.178 409.944C499.956 410.372 499.824 410.842 499.79 411.324C499.756 411.805 499.822 412.289 499.983 412.744L522.526 463.771C522.761 464.418 522.846 465.111 522.774 465.797C522.701 466.482 522.473 467.142 522.108 467.724C521.743 468.307 521.249 468.797 520.666 469.158C520.083 469.518 519.425 469.738 518.744 469.802L501.9 471.038C501.757 471.051 501.615 471.058 501.473 471.058C500.61 471.058 499.766 470.806 499.043 470.332C498.319 469.859 497.747 469.184 497.396 468.391Z" fill="#2F2E41"/>
<path d="M521.557 488.113L509.387 488.112L503.596 456.307L521.559 456.309L521.557 488.113Z" fill="#FFB8B8"/>
<path d="M524.661 500L485.416 499.999V499.498C485.416 497.477 485.811 495.476 486.579 493.609C487.346 491.742 488.472 490.045 489.89 488.616C491.308 487.187 492.992 486.053 494.846 485.28C496.699 484.506 498.685 484.108 500.691 484.108H500.692L524.662 484.109L524.661 500Z" fill="#2F2E41"/>
<path d="M504.346 471.391L480.081 416.57C478.055 411.949 477.831 406.73 479.454 401.95C481.076 397.171 484.426 393.182 488.836 390.779L541.467 362.345L565.483 360.287L587.636 358.258L587.796 358.53C588 358.878 592.764 367.167 589.544 376.256C587.102 383.151 580.749 388.536 570.662 392.262C547.119 400.96 519.923 408.393 509.323 411.185C508.854 411.306 508.416 411.525 508.038 411.828C507.66 412.132 507.349 412.512 507.127 412.945C506.905 413.373 506.773 413.843 506.739 414.324C506.706 414.806 506.771 415.29 506.932 415.745L529.475 466.772C529.71 467.419 529.795 468.112 529.723 468.797C529.65 469.483 529.423 470.142 529.057 470.725C528.692 471.308 528.198 471.798 527.615 472.158C527.032 472.519 526.374 472.739 525.693 472.803L508.849 474.038C508.706 474.052 508.564 474.059 508.422 474.059C507.559 474.059 506.715 473.806 505.992 473.333C505.268 472.86 504.697 472.185 504.346 471.391Z" fill="#2F2E41"/>
<path d="M492.252 303.919C482.056 290.254 473.995 275.098 468.35 258.976C468.023 258.012 468.047 256.962 468.416 256.013C468.786 255.065 469.477 254.279 470.368 253.796L505.259 234.959C505.823 234.652 506.45 234.479 507.091 234.453C507.732 234.427 508.37 234.548 508.957 234.808C509.556 235.07 510.087 235.466 510.51 235.966C510.934 236.466 511.238 237.056 511.401 237.693C515.462 253.228 523.096 267.582 533.684 279.594C534.12 280.083 534.44 280.666 534.618 281.298C534.797 281.93 534.83 282.594 534.715 283.241C534.605 283.878 534.352 284.481 533.975 285.004C533.598 285.527 533.108 285.957 532.542 286.26L497.65 305.097C496.758 305.576 495.725 305.721 494.737 305.505C493.748 305.29 492.868 304.728 492.252 303.919Z" fill="#CCCCCC"/>
<path d="M494.632 302.117C494.82 302.353 495.084 302.515 495.378 302.576C495.672 302.638 495.978 302.593 496.243 302.452L531.134 283.615C531.304 283.526 531.45 283.399 531.563 283.243C531.675 283.087 531.75 282.908 531.782 282.718C531.819 282.517 531.808 282.311 531.752 282.116C531.696 281.92 531.596 281.74 531.46 281.59C520.559 269.224 512.7 254.447 508.52 238.454C508.471 238.256 508.378 238.073 508.247 237.917C508.117 237.762 507.952 237.639 507.767 237.559C507.592 237.48 507.402 237.443 507.21 237.451C507.019 237.459 506.832 237.512 506.665 237.605L471.774 256.441C471.51 256.585 471.303 256.817 471.191 257.098C471.079 257.379 471.067 257.69 471.159 257.978C476.702 273.811 484.619 288.697 494.632 302.117Z" fill="white"/>
<path d="M608.166 298.895L580.841 309.357L574.169 290.685C573.283 288.206 573.296 285.491 574.204 283.02C575.113 280.549 576.86 278.482 579.135 277.182C581.437 275.868 584.129 275.427 586.726 275.937C589.322 276.448 591.652 277.878 593.294 279.968L608.166 298.895Z" fill="#FD3373"/>
<path d="M538.662 372.873C538.087 372.463 537.605 371.934 537.248 371.322C536.892 370.71 536.668 370.029 536.594 369.323C533.094 336.405 535.531 310.645 544.045 290.569C545.545 287.106 547.804 284.031 550.652 281.575C553.501 279.118 556.865 277.344 560.492 276.386L582.581 275.262L582.695 275.318C587.68 277.778 591.745 281.79 594.288 286.761C596.831 291.732 597.716 297.396 596.812 302.913C589.707 321.781 583.759 341.426 588.295 357.273C588.486 357.935 588.541 358.63 588.459 359.314C588.376 359.999 588.157 360.66 587.815 361.257C587.483 361.835 587.038 362.337 586.506 362.735C585.974 363.132 585.367 363.415 584.722 363.567L542.65 373.65C541.968 373.814 541.26 373.829 540.573 373.695C539.885 373.561 539.234 373.28 538.662 372.873Z" fill="#FD3373"/>
<path d="M575.21 266.95C588.676 266.95 599.593 255.951 599.593 242.383C599.593 228.815 588.676 217.816 575.21 217.816C561.743 217.816 550.826 228.815 550.826 242.383C550.826 255.951 561.743 266.95 575.21 266.95Z" fill="#FFB8B8"/>
<path d="M507.55 261.841L488.547 270.292C487.824 270.613 487.004 270.632 486.268 270.344C485.532 270.057 484.939 269.487 484.619 268.759L484.149 267.686C483.831 266.958 483.813 266.133 484.098 265.391C484.383 264.649 484.949 264.051 485.671 263.729L504.674 255.278C505.397 254.957 506.216 254.939 506.953 255.226C507.689 255.514 508.282 256.084 508.602 256.811L509.072 257.884C509.39 258.612 509.408 259.438 509.123 260.179C508.838 260.921 508.272 261.519 507.55 261.841Z" fill="#CCCCCC"/>
<path d="M514.499 274.844L495.496 283.296C494.773 283.616 493.954 283.635 493.217 283.347C492.481 283.06 491.888 282.49 491.568 281.762L491.098 280.689C490.78 279.961 490.762 279.136 491.047 278.394C491.332 277.652 491.898 277.055 492.62 276.733L511.624 268.281C512.346 267.96 513.166 267.942 513.902 268.229C514.638 268.517 515.231 269.087 515.551 269.814L516.021 270.887C516.339 271.615 516.357 272.441 516.072 273.183C515.787 273.924 515.221 274.522 514.499 274.844Z" fill="#CCCCCC"/>
<path d="M529.154 325.634L486.788 291.959C486.45 292.079 486.107 292.181 485.759 292.265C484.264 292.617 482.711 292.649 481.203 292.357C479.695 292.066 478.264 291.458 477.005 290.573C475.737 289.688 474.671 288.54 473.879 287.206C473.087 285.872 472.586 284.382 472.412 282.838C472.128 280.369 472.68 277.875 473.979 275.762C475.278 273.649 477.248 272.04 479.569 271.197C481.017 270.673 482.559 270.464 484.093 270.583C485.628 270.702 487.12 271.146 488.472 271.886C489.824 272.626 491.006 273.645 491.939 274.878C492.873 276.11 493.538 277.527 493.891 279.036C494 279.514 494.076 280 494.118 280.489L536.292 305.002L546.788 298.914L558.414 314.25L542.119 325.952C540.211 327.311 537.919 328.013 535.584 327.956C533.248 327.899 530.993 327.084 529.154 325.634Z" fill="#FFB8B8"/>
<path d="M563.584 319.026L539.411 302.464L550.771 286.254C552.28 284.101 554.495 282.555 557.025 281.889C559.556 281.222 562.238 281.479 564.599 282.613C566.988 283.76 568.89 285.729 569.963 288.166C571.036 290.602 571.209 293.345 570.451 295.899L563.584 319.026Z" fill="#FD3373"/>
<path d="M566.27 238.724C560.002 243.046 551.774 247.488 545.373 242.886C541.17 239.864 539.846 234.268 541.55 229.357C544.615 220.527 553.036 216.639 561.088 213.659C571.556 209.785 582.955 206.703 593.762 209.477C604.568 212.252 614.119 222.794 612.168 233.856C610.599 242.753 602.27 250.155 603.453 259.112C604.643 268.127 614.704 272.871 623.588 274.483C632.471 276.094 642.411 276.611 648.795 283.04C656.939 291.241 654.905 305.899 647.242 314.557C639.579 323.216 628.015 327.14 616.81 329.809C601.963 333.344 585.906 335.201 571.805 329.335C557.705 323.468 546.732 307.675 550.817 292.866C552.542 286.611 556.606 281.324 560.534 276.177C564.462 271.031 568.44 265.649 569.938 259.334C571.187 254.072 570.263 247.963 566.799 244.016C566.169 243.325 565.773 242.451 565.667 241.518C565.561 240.586 565.751 239.644 566.209 238.828L566.27 238.724Z" fill="#2F2E41"/>
<path d="M108.284 358.087C102.001 360.312 95.2549 360.869 88.6959 359.705C82.1368 358.541 75.9859 355.695 70.8356 351.44C57.7191 340.348 53.6066 322.075 50.2605 305.154C46.9614 288.471 43.6624 271.789 40.3633 255.106L61.0841 269.481C75.9853 279.819 91.2222 290.487 101.54 305.461C111.857 320.434 116.361 340.875 108.071 357.077" fill="#E6E6E6"/>
<path d="M106.512 418.68C108.61 403.289 110.766 387.7 109.295 372.144C107.989 358.328 103.805 344.834 95.2882 333.77C90.7674 327.908 85.2664 322.886 79.0326 318.929C77.4071 317.895 75.9109 320.491 77.5294 321.52C88.3156 328.388 96.6584 338.53 101.355 350.484C106.542 363.776 107.375 378.267 106.481 392.387C105.941 400.927 104.795 409.41 103.64 417.882C103.549 418.266 103.606 418.669 103.799 419.012C103.992 419.355 104.307 419.611 104.681 419.728C105.061 419.831 105.467 419.779 105.81 419.583C106.153 419.387 106.405 419.063 106.512 418.68H106.512Z" fill="#F2F2F2"/>
<path d="M86.3131 391.445C83.6184 395.571 79.9142 398.929 75.5577 401.195C71.2011 403.46 66.3388 404.557 61.4394 404.38C48.8479 403.777 38.3506 394.923 28.901 386.517L0.951172 361.654L19.4494 360.762C32.7521 360.12 46.3981 359.522 59.0686 363.655C71.7391 367.788 83.4244 377.736 85.7413 390.949" fill="#E6E6E6"/>
<path d="M112.439 427.528C102.345 409.532 90.6367 389.532 69.7157 383.14C63.8986 381.369 57.799 380.734 51.7454 381.27C49.8375 381.436 50.3139 384.399 52.2183 384.234C62.3655 383.385 72.4931 386.085 80.8961 391.878C88.9821 397.423 95.278 405.133 100.607 413.309C103.871 418.316 106.795 423.537 109.719 428.75C110.653 430.416 113.385 429.213 112.439 427.528Z" fill="#F2F2F2"/>
<path d="M128.614 446.47C128.274 442.499 126.859 438.699 124.523 435.482C122.187 432.266 119.021 429.757 115.367 428.228V417.825H98.0486V428.556C94.5753 430.16 91.5861 432.662 89.3858 435.809C87.1855 438.956 85.8528 442.635 85.5236 446.47L81.4512 494.165H132.686L128.614 446.47Z" fill="#F2F2F2"/>
</g>
<defs>
<clipPath id="clip0">
<rect width="687" height="500" fill="white"/>
</clipPath>
</defs>
</svg>
