<svg width="60" height="60" viewBox="0 0 60 60" fill="none" xmlns="http://www.w3.org/2000/svg">
<circle cx="30" cy="30.0002" r="30" fill="#FD98B8"/>
<g clip-path="url(#clip0)">
<path d="M42.072 25.8833C42.09 26.1413 42.09 26.3993 42.09 26.6573C42.09 34.5303 36.098 43.6023 25.145 43.6023C21.9027 43.6104 18.7271 42.6819 16 40.9283C16.4775 40.981 16.9576 41.0057 17.438 41.0023C20.1185 41.0093 22.7232 40.1131 24.832 38.4583C23.5893 38.4356 22.3848 38.0254 21.3866 37.285C20.3883 36.5446 19.6463 35.5109 19.264 34.3283C19.6362 34.3871 20.0122 34.4179 20.389 34.4203C20.9177 34.4196 21.4441 34.3524 21.956 34.2203C20.6066 33.9475 19.3933 33.2157 18.5226 32.1494C17.6519 31.083 17.1774 29.748 17.18 28.3713V28.2973C18.0053 28.7578 18.9277 29.0168 19.872 29.0533C18.6079 28.2103 17.7132 26.9167 17.3705 25.4365C17.0278 23.9562 17.263 22.401 18.028 21.0883C19.5239 22.9295 21.3901 24.4358 23.5057 25.5094C25.6212 26.583 27.9387 27.2 30.308 27.3203C30.2123 26.8718 30.1627 26.4148 30.16 25.9563C30.1614 24.7619 30.5216 23.5954 31.1938 22.6081C31.8661 21.6209 32.8194 20.8583 33.9302 20.4194C35.0411 19.9804 36.2582 19.8853 37.4237 20.1463C38.5892 20.4073 39.6495 21.0125 40.467 21.8833C41.8008 21.6265 43.0798 21.1399 44.247 20.4453C43.803 21.8215 42.8721 22.9885 41.629 23.7273C42.8116 23.5926 43.9673 23.2818 45.058 22.8053C44.2428 23.9919 43.2333 25.0325 42.072 25.8833Z" fill="#FAFAFA"/>
</g>
<defs>
<clipPath id="clip0">
<rect width="29.058" height="23.601" fill="white" transform="translate(16 20.0002)"/>
</clipPath>
</defs>
</svg>
