<svg width="40" height="40" viewBox="0 0 40 40" fill="none" xmlns="http://www.w3.org/2000/svg">
<path d="M39.5 19.5463C39.5 30.0672 31.0066 38.5926 20.5338 38.5926C17.2342 38.5926 14.1328 37.7468 11.4312 36.2598C11.2521 36.1612 11.0523 36.1331 10.8801 36.1289C10.7014 36.1246 10.5066 36.1453 10.3068 36.1802C9.90728 36.2499 9.42949 36.3867 8.91344 36.5593C7.95236 36.8808 6.79255 37.3492 5.64285 37.8136C5.55612 37.8486 5.46946 37.8836 5.38294 37.9185C4.13805 38.4209 2.92394 38.9049 1.95595 39.2052C1.47018 39.356 1.07016 39.4527 0.771815 39.4867C0.658468 39.4997 0.571103 39.5021 0.506402 39.4985C0.510923 39.4628 0.518223 39.4193 0.529484 39.3671C0.584504 39.112 0.709579 38.7564 0.896627 38.3145C1.2684 37.4361 1.84043 36.3183 2.42946 35.1727L2.48792 35.0591C3.05266 33.9608 3.62631 32.8453 4.01994 31.9412C4.22273 31.4754 4.38762 31.0437 4.47701 30.6875C4.52148 30.5102 4.55298 30.3299 4.55341 30.1617C4.55382 30.0035 4.52724 29.7828 4.38034 29.5964C3.10302 27.9754 2.40991 26.5925 2.02825 25.0718C1.64277 23.5358 1.56763 21.8333 1.56763 19.5463C1.56763 9.02537 10.061 0.5 20.5338 0.5C31.0066 0.5 39.5 9.02538 39.5 19.5463ZM0.502043 39.6181C0.502012 39.6182 0.501824 39.6173 0.501563 39.6154C0.501944 39.6171 0.502074 39.6181 0.502043 39.6181Z" fill="white" fill-opacity="0.5" stroke="#C73865"/>
<path d="M8.22571 21.2414C7.81874 21.2414 7.4699 21.1027 7.17921 20.8254C6.88851 20.5335 6.74316 20.1687 6.74316 19.7308C6.74316 19.3076 6.88851 18.9573 7.17921 18.68C7.4699 18.3881 7.81874 18.2422 8.22571 18.2422C8.63268 18.2422 8.97425 18.3808 9.25041 18.6581C9.52657 18.9354 9.66465 19.293 9.66465 19.7308C9.66465 20.1687 9.5193 20.5335 9.22861 20.8254C8.95245 21.1027 8.61815 21.2414 8.22571 21.2414Z" fill="#C73865"/>
<path d="M19.6744 21.2414C19.2674 21.2414 18.9186 21.1027 18.6279 20.8254C18.3372 20.5335 18.1918 20.1687 18.1918 19.7308C18.1918 19.3076 18.3372 18.9573 18.6279 18.68C18.9186 18.3881 19.2674 18.2422 19.6744 18.2422C20.0814 18.2422 20.4229 18.3808 20.6991 18.6581C20.9752 18.9354 21.1133 19.293 21.1133 19.7308C21.1133 20.1687 20.968 20.5335 20.6773 20.8254C20.4011 21.1027 20.0668 21.2414 19.6744 21.2414Z" fill="#C73865"/>
<path d="M31.123 21.2414C30.7161 21.2414 30.3672 21.1027 30.0765 20.8254C29.7859 20.5335 29.6405 20.1687 29.6405 19.7308C29.6405 19.3076 29.7859 18.9573 30.0765 18.68C30.3672 18.3881 30.7161 18.2422 31.123 18.2422C31.53 18.2422 31.8716 18.3808 32.1477 18.6581C32.4239 18.9354 32.562 19.293 32.562 19.7308C32.562 20.1687 32.4166 20.5335 32.1259 20.8254C31.8498 21.1027 31.5155 21.2414 31.123 21.2414Z" fill="#C73865"/>
</svg>
