<svg width="60" height="60" viewBox="0 0 60 60" fill="none" xmlns="http://www.w3.org/2000/svg">
<circle cx="30" cy="30.0002" r="30" fill="#FD98B8"/>
<g clip-path="url(#clip0)">
<path d="M46.3108 23.5988C46.1244 22.9028 45.7567 22.2675 45.2446 21.7566C44.7326 21.2458 44.0941 20.8772 43.3931 20.6879C40.82 20.0002 30.5005 20.0002 30.5005 20.0002C30.5005 20.0002 20.1809 20.0002 17.6078 20.6879C16.9066 20.8771 16.268 21.2456 15.7557 21.7565C15.2435 22.2674 14.8757 22.9027 14.6892 23.5988C14 26.1664 14 31.5204 14 31.5204C14 31.5204 14 36.8771 14.6892 39.4447C14.877 40.135 15.246 40.7636 15.7585 41.2668C16.271 41.7699 16.9087 42.1295 17.6069 42.309C20.1809 42.9967 30.4995 42.9967 30.4995 42.9967C30.4995 42.9967 40.8191 42.9967 43.3922 42.309C44.0901 42.1299 44.7278 41.7709 45.2404 41.2685C45.753 40.766 46.1223 40.138 46.3108 39.4483C47 36.8807 47 31.524 47 31.524C47 31.524 47 26.1664 46.3108 23.5988ZM27.1251 36.3876V26.6595L35.7498 31.5204L27.1251 36.384V36.3876Z" fill="#FAFAFA"/>
</g>
<defs>
<clipPath id="clip0">
<rect width="33" height="23" fill="white" transform="translate(14 20.0002)"/>
</clipPath>
</defs>
</svg>
