<svg width="29" height="30" viewBox="0 0 29 30" fill="none" xmlns="http://www.w3.org/2000/svg">
<path d="M24.2508 20.4996C23.5232 20.4998 22.8054 20.6672 22.1529 20.9891C21.5004 21.311 20.9307 21.7786 20.4878 22.3559L10.2426 16.5411C10.5868 15.5423 10.5868 14.457 10.2426 13.4581L20.4878 7.6434C21.2029 8.57123 22.2359 9.2018 23.388 9.41377C24.5401 9.62575 25.7299 9.40416 26.7285 8.79163C27.727 8.17911 28.4637 7.21894 28.7969 6.09587C29.1301 4.9728 29.0361 3.7662 28.5331 2.70824C28.0302 1.65027 27.1537 0.815707 26.0724 0.365126C24.991 -0.0854545 23.7813 -0.120212 22.6759 0.267541C21.5705 0.655294 20.6475 1.43816 20.0846 2.4655C19.5217 3.49284 19.3586 4.69206 19.6268 5.8324L9.20703 11.7463C8.555 11.0527 7.70961 10.571 6.78049 10.3636C5.85137 10.1563 4.8814 10.233 3.99637 10.5837C3.11134 10.9343 2.3521 11.5428 1.81712 12.3303C1.28213 13.1177 0.996094 14.0477 0.996094 14.9996C0.996094 15.9516 1.28213 16.8816 1.81712 17.669C2.3521 18.4565 3.11134 19.065 3.99637 19.4156C4.8814 19.7663 5.85137 19.843 6.78049 19.6357C7.70961 19.4283 8.555 18.9466 9.20703 18.253L19.6268 24.167C19.4022 25.1269 19.4819 26.133 19.8548 27.0457C20.2278 27.9583 20.8755 28.7323 21.7082 29.2602C22.5408 29.7882 23.5171 30.0439 24.5017 29.9919C25.4862 29.94 26.4302 29.5829 27.2027 28.9702C27.9751 28.3576 28.5378 27.5197 28.8126 26.5729C29.0874 25.6261 29.0607 24.6172 28.7363 23.6862C28.4118 22.7552 27.8057 21.9482 27.002 21.3772C26.1982 20.8062 25.2367 20.4995 24.2508 20.4996ZM24.2508 1.99965C24.7947 1.99965 25.3264 2.16093 25.7786 2.46311C26.2308 2.76528 26.5833 3.19477 26.7914 3.69727C26.9996 4.19977 27.054 4.7527 26.9479 5.28615C26.8418 5.81959 26.5799 6.3096 26.1953 6.69419C25.8107 7.07879 25.3207 7.3407 24.7873 7.44681C24.2538 7.55292 23.7009 7.49846 23.1984 7.29032C22.6959 7.08218 22.2664 6.7297 21.9642 6.27747C21.6621 5.82523 21.5008 5.29355 21.5008 4.74965C21.5016 4.02055 21.7916 3.32155 22.3071 2.806C22.8227 2.29045 23.5217 2.00046 24.2508 1.99965ZM5.75078 17.7496C5.20688 17.7496 4.67519 17.5884 4.22296 17.2862C3.77072 16.984 3.41825 16.5545 3.21011 16.052C3.00197 15.5495 2.94751 14.9966 3.05362 14.4631C3.15973 13.9297 3.42164 13.4397 3.80623 13.0551C4.19083 12.6705 4.68083 12.4086 5.21428 12.3025C5.74773 12.1964 6.30066 12.2508 6.80316 12.459C7.30565 12.6671 7.73514 13.0196 8.03732 13.4718C8.33949 13.9241 8.50078 14.4557 8.50078 14.9996C8.49997 15.7287 8.20997 16.4277 7.69443 16.9433C7.17888 17.4588 6.47987 17.7488 5.75078 17.7496ZM24.2508 27.9996C23.7069 27.9996 23.1752 27.8384 22.723 27.5362C22.2707 27.234 21.9183 26.8045 21.7101 26.302C21.502 25.7995 21.4475 25.2466 21.5536 24.7131C21.6597 24.1797 21.9216 23.6897 22.3062 23.3051C22.6908 22.9205 23.1808 22.6586 23.7143 22.5525C24.2477 22.4464 24.8007 22.5008 25.3032 22.709C25.8057 22.9171 26.2351 23.2696 26.5373 23.7218C26.8395 24.1741 27.0008 24.7057 27.0008 25.2496C27 25.9787 26.71 26.6777 26.1944 27.1933C25.6789 27.7088 24.9799 27.9988 24.2508 27.9996Z" fill="#FD3373"/>
</svg>
