<svg width="32" height="32" viewBox="0 0 32 32" fill="none" xmlns="http://www.w3.org/2000/svg">
<circle cx="16" cy="16" r="16" fill="#FD3373"/>
<g clip-path="url(#clip0_2_7819)">
<path d="M15.9119 10.9245C14.9487 10.9245 14.0071 11.2101 13.2062 11.7452C12.4054 12.2804 11.7812 13.041 11.4125 13.9308C11.0439 14.8207 10.9475 15.7999 11.1354 16.7446C11.3233 17.6893 11.7872 18.5571 12.4682 19.2382C13.1493 19.9193 14.0171 20.3831 14.9618 20.571C15.9065 20.7589 16.8857 20.6625 17.7756 20.2939C18.6655 19.9253 19.4261 19.3011 19.9612 18.5002C20.4964 17.6993 20.782 16.7577 20.782 15.7945C20.783 15.1547 20.6577 14.521 20.4133 13.9297C20.1689 13.3383 19.8102 12.8011 19.3578 12.3486C18.9054 11.8962 18.3681 11.5375 17.7768 11.2931C17.1855 11.0487 16.5517 10.9235 15.9119 10.9245ZM15.9119 18.9614C15.2857 18.9614 14.6735 18.7757 14.1528 18.4278C13.6321 18.0799 13.2263 17.5854 12.9867 17.0068C12.747 16.4282 12.6843 15.7916 12.8065 15.1774C12.9286 14.5632 13.2302 13.999 13.673 13.5562C14.1158 13.1134 14.68 12.8119 15.2942 12.6897C15.9084 12.5675 16.545 12.6302 17.1236 12.8699C17.7022 13.1095 18.1967 13.5153 18.5446 14.036C18.8925 14.5567 19.0782 15.1689 19.0782 15.7951C19.0766 16.6344 18.7426 17.4389 18.1491 18.0323C17.5556 18.6258 16.7512 18.9599 15.9119 18.9614ZM22.1177 10.7229C22.1181 10.9476 22.0519 11.1675 21.9274 11.3546C21.8029 11.5417 21.6256 11.6876 21.4181 11.774C21.2106 11.8603 20.9821 11.8831 20.7616 11.8395C20.5412 11.796 20.3385 11.688 20.1795 11.5292C20.0204 11.3705 19.912 11.1681 19.8679 10.9477C19.8239 10.7273 19.8463 10.4988 19.9322 10.2911C20.0181 10.0834 20.1637 9.90586 20.3505 9.78095C20.5374 9.65604 20.7571 9.58936 20.9818 9.58936C21.1311 9.58905 21.2789 9.61822 21.4168 9.67519C21.5548 9.73217 21.6801 9.81582 21.7857 9.92136C21.8912 10.0269 21.9749 10.1522 22.0318 10.2902C22.0888 10.4281 22.118 10.576 22.1177 10.7252V10.7229ZM25.3435 11.878C25.3749 10.4012 24.8237 8.97145 23.8092 7.89783C22.7334 6.88677 21.3051 6.33616 19.829 6.36348C18.2608 6.27467 13.5601 6.27467 11.9913 6.36348C10.5155 6.3345 9.0869 6.88416 8.01112 7.89491C6.99862 8.96933 6.44775 10.3979 6.47677 11.8739C6.38795 13.4422 6.38795 18.1428 6.47677 19.7116C6.44542 21.1884 6.9966 22.6182 8.01112 23.6918C9.08741 24.7021 10.5154 25.2526 11.9913 25.2262C13.5596 25.315 18.2602 25.315 19.829 25.2262C21.3058 25.2575 22.7356 24.7063 23.8092 23.6918C24.8203 22.616 25.3709 21.1877 25.3435 19.7116C25.4324 18.1428 25.4324 13.4457 25.3435 11.878ZM23.3172 21.392C23.156 21.8006 22.9126 22.1717 22.602 22.4823C22.2914 22.7929 21.9203 23.0363 21.5118 23.1975C20.2614 23.6936 17.2943 23.5791 15.9125 23.5791C14.5306 23.5791 11.5595 23.6895 10.3132 23.1975C9.90464 23.0363 9.53355 22.7929 9.22297 22.4823C8.91239 22.1717 8.66895 21.8006 8.50776 21.392C8.0117 20.1417 8.12622 17.1746 8.12622 15.7928C8.12622 14.4109 8.01579 11.4398 8.50776 10.1935C8.66895 9.78493 8.91239 9.41384 9.22297 9.10326C9.53355 8.79268 9.90464 8.54924 10.3132 8.38805C11.5636 7.89199 14.5306 8.00651 15.9125 8.00651C17.2943 8.00651 20.2655 7.89608 21.5118 8.38805C21.9203 8.54924 22.2914 8.79268 22.602 9.10326C22.9126 9.41384 23.156 9.78493 23.3172 10.1935C23.8133 11.4439 23.6988 14.4109 23.6988 15.7928C23.6988 17.1746 23.8133 20.1481 23.3172 21.392Z" fill="#FAFAFA"/>
</g>
<defs>
<clipPath id="clip0_2_7819">
<rect width="19" height="18.9959" fill="white" transform="translate(6.30078 6.1875)"/>
</clipPath>
</defs>
</svg>
