<svg width="32" height="32" viewBox="0 0 32 32" fill="none" xmlns="http://www.w3.org/2000/svg">
<circle cx="16" cy="16" r="16" fill="#FD3373"/>
<path d="M19.6964 12.7377C20.9694 12.7377 22.1903 13.2367 23.0904 14.1249C23.9906 15.0132 24.4963 16.2179 24.4963 17.4741V23H21.2963V17.4741C21.2963 17.0554 21.1278 16.6538 20.8277 16.3577C20.5277 16.0616 20.1207 15.8953 19.6964 15.8953C19.272 15.8953 18.8651 16.0616 18.565 16.3577C18.265 16.6538 18.0964 17.0554 18.0964 17.4741V23H14.8965V17.4741C14.8965 16.2179 15.4022 15.0132 16.3023 14.1249C17.2025 13.2367 18.4234 12.7377 19.6964 12.7377Z" fill="#FAFAFA"/>
<path d="M11.696 13.5234H8.49609V22.9963H11.696V13.5234Z" fill="#FAFAFA"/>
<path d="M10.0961 11.1576C10.9797 11.1576 11.696 10.4508 11.696 9.57882C11.696 8.70686 10.9797 8 10.0961 8C9.21242 8 8.49609 8.70686 8.49609 9.57882C8.49609 10.4508 9.21242 11.1576 10.0961 11.1576Z" fill="#FAFAFA"/>
</svg>
