<svg width="32" height="32" viewBox="0 0 32 32" fill="none" xmlns="http://www.w3.org/2000/svg">
<circle cx="16" cy="16" r="16" fill="#FD3373"/>
<path d="M22.9464 12.2396C22.957 12.3817 22.957 12.5238 22.957 12.6659C22.957 17.0027 19.4514 22 13.0435 22C11.1467 22.0045 9.28883 21.493 7.69336 20.527C7.9727 20.556 8.25361 20.5696 8.53464 20.5678C10.1028 20.5716 11.6267 20.078 12.8604 19.1664C12.1334 19.1539 11.4287 18.928 10.8447 18.5201C10.2607 18.1123 9.82656 17.5429 9.60292 16.8914C9.82065 16.9239 10.0407 16.9408 10.2611 16.9421C10.5704 16.9418 10.8784 16.9047 11.1778 16.8319C10.3884 16.6817 9.67859 16.2786 9.16918 15.6912C8.65977 15.1038 8.38221 14.3684 8.3837 13.6101V13.5693C8.86652 13.823 9.40614 13.9656 9.95862 13.9857C9.21907 13.5214 8.69562 12.8088 8.49513 11.9934C8.29464 11.1781 8.43223 10.3214 8.87981 9.59826C9.75498 10.6125 10.8468 11.4422 12.0844 12.0336C13.3221 12.625 14.6779 12.9649 16.0641 13.0311C16.0081 12.7841 15.9791 12.5323 15.9775 12.2798C15.9783 11.6218 16.189 10.9793 16.5823 10.4355C16.9756 9.89164 17.5333 9.47159 18.1832 9.22979C18.8331 8.98799 19.5451 8.93559 20.227 9.07937C20.9089 9.22315 21.5292 9.5565 22.0075 10.0362C22.7878 9.89474 23.536 9.62672 24.2189 9.24407C23.9591 10.0022 23.4145 10.645 22.6873 11.0519C23.3791 10.9777 24.0553 10.8066 24.6934 10.5441C24.2165 11.1977 23.6259 11.7709 22.9464 12.2396Z" fill="#FAFAFA"/>
</svg>
