<svg width="150" height="54" viewBox="0 0 150 54" fill="none" xmlns="http://www.w3.org/2000/svg">
<path fill-rule="evenodd" clip-rule="evenodd" d="M127.271 53.9991C139.738 53.9991 149.845 43.8924 149.845 31.4253C149.845 18.9582 139.738 8.85156 127.271 8.85156C114.804 8.85156 104.697 18.9582 104.697 31.4253C104.697 43.8924 114.804 53.9991 127.271 53.9991ZM127.271 44.8679C132.045 44.8679 137.738 42.4973 140.26 35.8638L127.271 35.8638L114.534 35.8638C116.552 41.8632 122.118 44.8679 127.271 44.8679Z" fill="#FD3373"/>
<path d="M101.156 0H91.8613V53.5573H101.156V0Z" fill="#FD3373"/>
<path d="M88.3205 0H79.0254V53.5573H88.3205V0Z" fill="#FD3373"/>
<path fill-rule="evenodd" clip-rule="evenodd" d="M61.429 41.3866L68.0684 47.8047C56.3389 57.3211 43.5028 53.3375 37.97 47.8047C33.5438 45.8129 23.5848 28.3293 37.97 14.608C48.3717 5.31291 61.8838 9.06146 67.6257 14.1654C73.6011 19.4768 77.1421 30.0998 74.7077 36.0752H40.6258C42.8389 42.0506 51.6913 48.6899 61.429 41.3866ZM65.4126 26.7802H40.1831C40.6257 25.231 45.269 18.149 52.5766 18.149C59.6585 18.149 64.97 23.4605 65.4126 26.7802Z" fill="#FD3373"/>
<path d="M26.9339 0H17.6389V38.5082C17.4176 41.3852 12.5487 47.8032 6.13068 42.4918L0.155273 48.4672V49.1311C5.90937 56.6557 25.3848 55.5491 26.9339 38.9508V0Z" fill="#FD3373"/>
</svg>
